<svg xmlns="http://www.w3.org/2000/svg" xmlns:xlink="http://www.w3.org/1999/xlink" width="865" zoomAndPan="magnify" viewBox="0 0 648.75 33.749998" height="45" preserveAspectRatio="xMidYMid meet" version="1.0"><defs><clipPath id="f170580b50"><path d="M 2.261719 0 L 646.242188 0 L 646.242188 33.5 L 2.261719 33.5 Z M 2.261719 0 " clip-rule="nonzero"/></clipPath><clipPath id="cba1b2b4fd"><path d="M 2.261719 0 L 646.242188 0 L 646.242188 33 L 2.261719 33 Z M 2.261719 0 " clip-rule="nonzero"/></clipPath><clipPath id="414ed3ee40"><path d="M 303.253906 16.703125 L 334.523438 16.703125 L 334.523438 33.5 L 303.253906 33.5 Z M 303.253906 16.703125 " clip-rule="nonzero"/></clipPath><clipPath id="b9769f9259"><path d="M 330 33 L 332 33 L 332 33.5 L 330 33.5 Z M 330 33 " clip-rule="nonzero"/></clipPath><clipPath id="4ccc5f5d3d"><path d="M 2.421875 2.484375 L 33.691406 2.484375 L 33.691406 30.03125 L 2.421875 30.03125 Z M 2.421875 2.484375 " clip-rule="nonzero"/></clipPath><clipPath id="ae6e71db4e"><path d="M 107.976562 16.703125 L 139.246094 16.703125 L 139.246094 33.5 L 107.976562 33.5 Z M 107.976562 16.703125 " clip-rule="nonzero"/></clipPath><clipPath id="ab03d815d4"><path d="M 135 33 L 137 33 L 137 33.5 L 135 33.5 Z M 135 33 " clip-rule="nonzero"/></clipPath><clipPath id="874a574742"><path d="M 361.324219 0 L 386.636719 0 L 386.636719 23.328125 L 361.324219 23.328125 Z M 361.324219 0 " clip-rule="nonzero"/></clipPath><clipPath id="dc51f60148"><path d="M 60.492188 0 L 85.804688 0 L 85.804688 23.328125 L 60.492188 23.328125 Z M 60.492188 0 " clip-rule="nonzero"/></clipPath><clipPath id="d349ce94b3"><path d="M 166.046875 0 L 191.359375 0 L 191.359375 23.328125 L 166.046875 23.328125 Z M 166.046875 0 " clip-rule="nonzero"/></clipPath><clipPath id="a6d9629091"><path d="M 512.457031 0 L 533.300781 0 L 533.300781 15.882812 L 512.457031 15.882812 Z M 512.457031 0 " clip-rule="nonzero"/></clipPath><clipPath id="47cdd26d3e"><path d="M 589.125 15.882812 L 609.707031 15.882812 L 609.707031 33.5 L 589.125 33.5 Z M 589.125 15.882812 " clip-rule="nonzero"/></clipPath><clipPath id="fc77be98d0"><path d="M 256.078125 15.882812 L 276.65625 15.882812 L 276.65625 33.5 L 256.078125 33.5 Z M 256.078125 15.882812 " clip-rule="nonzero"/></clipPath></defs><g clip-path="url(#f170580b50)"><path fill="#ffffff" d="M 2.261719 0 L 646.242188 0 L 646.242188 33.5 L 2.261719 33.5 Z M 2.261719 0 " fill-opacity="1" fill-rule="nonzero"/><path fill="#ffffff" d="M 2.261719 0 L 646.242188 0 L 646.242188 33.5 L 2.261719 33.5 Z M 2.261719 0 " fill-opacity="1" fill-rule="nonzero"/></g><g clip-path="url(#cba1b2b4fd)"><path fill="#fd9419" d="M 2.421875 0.105469 L 646.101562 0.105469 L 646.101562 32.863281 L 2.421875 32.863281 Z M 2.421875 0.105469 " fill-opacity="1" fill-rule="nonzero"/></g><g clip-path="url(#414ed3ee40)"><path fill="#ffffff" d="M 334.398438 29.609375 C 334.429688 29.996094 334.523438 30.285156 334.492188 30.539062 C 334.398438 31.824219 334.304688 33.109375 334.144531 34.394531 C 334.019531 35.421875 333.832031 36.414062 333.640625 37.410156 C 333.421875 38.726562 332.824219 39.882812 331.847656 40.8125 C 330.019531 42.613281 327.941406 44.023438 325.328125 44.21875 C 322.496094 44.410156 319.722656 43.992188 317.269531 42.324219 C 316.765625 42.003906 316.355469 41.9375 315.789062 42.066406 C 313.207031 42.675781 310.65625 42.578125 308.136719 41.679688 C 305.300781 40.6875 303.851562 38.503906 303.382812 35.550781 C 303.035156 33.398438 303.445312 31.375 304.230469 29.386719 C 305.113281 27.074219 306.339844 24.953125 307.882812 23.027344 C 309.175781 21.390625 310.8125 20.140625 312.671875 19.238281 C 314.183594 18.5 315.789062 18.308594 317.425781 18.4375 C 319.21875 18.566406 320.953125 18.886719 322.558594 20.042969 C 322.808594 19.496094 323.0625 19.046875 323.21875 18.566406 C 323.535156 17.570312 324.195312 16.929688 325.171875 16.703125 C 325.613281 16.640625 326.117188 16.769531 326.558594 16.929688 C 326.871094 17.054688 326.871094 17.410156 326.589844 17.601562 C 326.335938 17.796875 326.023438 17.957031 325.738281 18.019531 C 325.078125 18.148438 324.605469 18.5 324.289062 19.078125 C 324.257812 19.144531 324.226562 19.175781 324.195312 19.238281 C 323.945312 19.6875 323.535156 20.140625 323.535156 20.554688 C 323.566406 20.941406 324.101562 21.261719 324.382812 21.617188 C 326.148438 23.796875 326.933594 26.269531 326.398438 29.128906 C 326.210938 30.15625 326.023438 31.183594 325.800781 32.304688 C 328.667969 31.40625 331.5 30.507812 334.398438 29.609375 Z M 320.164062 22.835938 C 320.226562 22.867188 320.257812 22.898438 320.320312 22.898438 C 320.257812 23.445312 320.320312 24.085938 320.101562 24.570312 C 319.722656 25.339844 319.21875 26.046875 318.683594 26.71875 C 318.277344 27.265625 317.675781 27.652344 317.363281 28.230469 C 316.699219 29.449219 315.820312 30.378906 314.75 31.246094 C 314.089844 31.792969 313.519531 32.53125 312.984375 33.238281 C 312.609375 33.71875 312.324219 34.328125 312.007812 34.875 C 311.539062 35.675781 310.9375 36.351562 310.183594 36.960938 C 309.648438 37.410156 309.175781 37.988281 308.828125 38.566406 C 308.386719 39.273438 308.074219 40.042969 307.695312 40.878906 C 308.453125 41.136719 309.238281 41.390625 310.058594 41.679688 C 310.058594 41.617188 310.023438 41.585938 310.023438 41.519531 C 310.152344 41.390625 310.277344 41.265625 310.433594 41.167969 C 310.71875 41.007812 311.066406 40.941406 311.285156 40.71875 C 312.007812 40.011719 312.734375 39.304688 313.425781 38.566406 C 313.550781 38.4375 313.582031 38.117188 313.519531 37.925781 C 313.394531 37.539062 313.207031 37.1875 313.015625 36.769531 C 313.269531 36.609375 313.457031 36.449219 313.679688 36.351562 C 314.496094 36.03125 315.285156 35.613281 316.132812 35.453125 C 317.207031 35.226562 317.867188 34.648438 318.246094 33.621094 C 318.8125 32.082031 319.914062 30.957031 321.203125 29.996094 C 321.296875 29.929688 321.425781 29.929688 321.582031 29.898438 C 320.953125 31.40625 320.355469 32.820312 319.722656 34.296875 C 320.511719 34.039062 321.296875 33.75 322.085938 33.558594 C 322.808594 33.398438 323.1875 33.011719 323.3125 32.273438 C 323.535156 30.957031 323.816406 29.675781 324.070312 28.359375 C 324.132812 28.132812 324.226562 27.90625 324.351562 27.617188 C 324.417969 28.261719 324.574219 28.808594 324.480469 29.289062 C 324.320312 30.347656 324.039062 31.40625 323.816406 32.46875 C 323.785156 32.628906 323.722656 32.789062 323.691406 32.949219 C 324.574219 32.917969 325.078125 32.5 325.234375 31.632812 C 325.359375 30.925781 325.550781 30.21875 325.675781 29.511719 C 326.148438 27.167969 325.863281 24.953125 324.542969 22.933594 C 324.101562 22.289062 323.628906 21.679688 323.03125 21.230469 C 322.683594 21.582031 322.433594 21.9375 322.085938 22.195312 C 321.960938 22.289062 321.644531 22.128906 321.394531 22.097656 C 321.457031 21.871094 321.457031 21.648438 321.550781 21.453125 C 321.738281 21.164062 321.960938 20.878906 322.179688 20.589844 C 321.203125 19.882812 320.164062 19.367188 319 19.238281 C 317.960938 19.109375 316.921875 19.078125 315.882812 18.984375 C 314.78125 18.886719 313.773438 19.238281 312.796875 19.722656 C 310.96875 20.683594 309.394531 21.90625 308.136719 23.574219 C 306.75 25.371094 305.617188 27.332031 304.796875 29.449219 C 304.167969 31.054688 303.757812 32.722656 303.851562 34.488281 C 303.886719 35.355469 304.042969 36.253906 304.484375 37.027344 C 304.609375 36.738281 304.671875 36.449219 304.671875 36.160156 C 304.765625 34.9375 305.019531 33.75 305.742188 32.789062 C 306.75 31.441406 307.445312 29.929688 307.980469 28.324219 C 308.484375 26.816406 309.425781 25.597656 310.8125 24.792969 C 311.820312 24.214844 312.921875 23.703125 313.960938 23.15625 C 314.496094 22.867188 315 22.578125 315.535156 22.289062 C 315.757812 22.160156 316.007812 22.066406 316.230469 21.9375 C 316.261719 22 316.292969 22.03125 316.324219 22.097656 C 316.101562 22.320312 315.882812 22.515625 315.597656 22.804688 C 316.449219 22.578125 316.890625 22.03125 317.238281 21.230469 C 317.394531 21.871094 317.171875 22.289062 316.828125 22.546875 C 316.449219 22.835938 316.039062 23.09375 315.628906 23.285156 C 314.84375 23.636719 314.023438 23.894531 313.238281 24.214844 C 312.953125 24.34375 312.671875 24.535156 312.449219 24.730469 C 311.851562 25.210938 311.316406 25.789062 310.6875 26.238281 C 310.058594 26.6875 309.679688 27.234375 309.425781 27.972656 C 309.175781 28.839844 308.828125 29.707031 308.453125 30.507812 C 307.664062 32.242188 306.8125 33.945312 306.027344 35.675781 C 305.964844 35.804688 305.933594 35.933594 305.902344 36.03125 C 305.679688 36.800781 305.460938 37.570312 305.269531 38.375 C 305.238281 38.535156 305.238281 38.726562 305.332031 38.855469 C 305.710938 39.433594 306.183594 39.882812 306.78125 40.234375 C 307.347656 39.015625 307.882812 37.859375 308.417969 36.703125 C 308.921875 35.613281 309.617188 34.683594 310.625 34.039062 C 311.570312 33.429688 312.292969 32.59375 312.828125 31.632812 C 313.519531 30.414062 314.464844 29.449219 315.628906 28.710938 C 316.355469 28.230469 317.171875 27.84375 317.613281 27.007812 C 317.675781 26.914062 317.773438 26.878906 317.867188 26.785156 C 318.179688 26.464844 318.558594 26.175781 318.78125 25.820312 C 319.1875 25.082031 319.535156 24.25 319.882812 23.476562 C 319.976562 23.285156 320.070312 23.058594 320.164062 22.835938 Z M 313.742188 36.867188 C 313.960938 37.316406 314.214844 37.636719 314.308594 38.019531 C 314.496094 38.824219 314.96875 39.402344 315.628906 39.785156 C 316.292969 40.203125 316.984375 40.558594 317.675781 40.878906 C 321.960938 42.933594 326.085938 42.546875 330.148438 40.171875 C 331.59375 39.304688 332.570312 38.054688 333.105469 36.449219 C 333.769531 34.523438 333.390625 32.46875 333.707031 30.414062 C 333.136719 30.605469 332.699219 30.734375 332.257812 30.894531 C 326.652344 32.660156 321.015625 34.457031 315.410156 36.222656 C 314.8125 36.414062 314.277344 36.671875 313.742188 36.867188 Z M 316.449219 40.941406 C 319 43.191406 322.054688 43.863281 325.265625 43.640625 C 328.132812 43.414062 330.335938 41.777344 332.164062 39.59375 C 332.414062 39.304688 332.539062 38.921875 332.730469 38.566406 C 330.652344 41.007812 327.972656 42.128906 324.984375 42.578125 C 321.992188 43.09375 319.125 42.453125 316.449219 40.941406 Z M 307.191406 40.269531 C 307.253906 40.332031 307.347656 40.363281 307.414062 40.429688 C 307.632812 40.042969 307.917969 39.691406 308.074219 39.273438 C 308.484375 38.019531 309.238281 37.089844 310.277344 36.320312 C 311.347656 35.515625 311.851562 34.265625 312.480469 33.140625 C 311.472656 34.265625 309.929688 34.777344 309.207031 36.222656 C 308.515625 37.539062 307.851562 38.886719 307.191406 40.269531 Z M 315.945312 41.425781 C 315.378906 40.878906 314.875 40.429688 314.433594 39.980469 C 313.804688 40.363281 313.238281 40.8125 312.574219 41.070312 C 311.945312 41.328125 311.253906 41.390625 310.625 41.519531 C 310.625 41.585938 310.65625 41.617188 310.65625 41.679688 C 312.386719 42.003906 314.121094 41.875 315.945312 41.425781 Z M 304.894531 37.988281 C 305.175781 36.511719 305.902344 35.226562 306.46875 33.878906 C 307.097656 32.433594 307.757812 31.023438 308.417969 29.609375 C 308.765625 28.839844 308.988281 27.972656 309.238281 27.167969 C 309.175781 27.136719 309.082031 27.105469 309.019531 27.105469 C 308.703125 27.941406 308.417969 28.773438 308.042969 29.578125 C 307.632812 30.476562 307.285156 31.472656 306.6875 32.210938 C 305.300781 33.910156 305.238281 35.964844 304.894531 37.988281 Z M 318.117188 34.746094 C 319.1875 34.554688 320.386719 32.660156 320.542969 31.085938 C 319.316406 32.015625 318.78125 33.367188 318.117188 34.746094 Z M 313.078125 32.113281 C 313.773438 31.535156 314.371094 30.988281 315 30.507812 C 315.945312 29.769531 316.386719 29.222656 316.511719 28.710938 C 315.09375 29.511719 313.898438 30.539062 313.078125 32.113281 Z M 313.804688 39.046875 C 313.144531 39.722656 312.511719 40.363281 311.976562 40.941406 C 312.511719 40.847656 313.078125 40.492188 313.613281 40.074219 C 314.183594 39.59375 314.183594 39.59375 313.804688 39.046875 Z M 323.847656 18.628906 C 324.257812 17.761719 325.078125 17.570312 325.894531 17.378906 C 325.046875 17.089844 324.195312 17.601562 323.847656 18.628906 Z M 310.058594 25.917969 C 310.089844 25.980469 310.121094 26.015625 310.152344 26.078125 C 310.65625 25.726562 311.128906 25.371094 311.632812 25.050781 C 311.601562 24.988281 311.570312 24.953125 311.539062 24.890625 C 311.035156 25.242188 310.5625 25.597656 310.058594 25.917969 Z M 310.058594 25.917969 " fill-opacity="0.5" fill-rule="nonzero"/></g><g clip-path="url(#b9769f9259)"><path fill="#ffffff" d="M 330.933594 33.269531 C 331.28125 33.398438 331.625 33.527344 331.5625 33.976562 C 331.5625 34.039062 331.1875 34.136719 331.058594 34.070312 C 330.652344 33.910156 330.554688 33.621094 330.933594 33.269531 Z M 330.933594 33.269531 " fill-opacity="0.5" fill-rule="nonzero"/></g><g clip-path="url(#4ccc5f5d3d)"><path fill="#ffffff" d="M 33.566406 15.390625 C 33.597656 15.773438 33.691406 16.0625 33.660156 16.320312 C 33.566406 17.605469 33.472656 18.890625 33.3125 20.171875 C 33.1875 21.199219 33 22.195312 32.808594 23.191406 C 32.589844 24.507812 31.992188 25.664062 31.015625 26.59375 C 29.1875 28.390625 27.109375 29.804688 24.496094 29.996094 C 21.664062 30.191406 18.890625 29.773438 16.4375 28.101562 C 15.933594 27.78125 15.523438 27.71875 14.957031 27.847656 C 12.375 28.457031 9.824219 28.359375 7.304688 27.460938 C 4.46875 26.464844 3.023438 24.28125 2.550781 21.328125 C 2.203125 19.179688 2.613281 17.15625 3.398438 15.164062 C 4.28125 12.855469 5.507812 10.734375 7.050781 8.808594 C 8.34375 7.171875 9.980469 5.917969 11.839844 5.019531 C 13.351562 4.28125 14.957031 4.089844 16.59375 4.21875 C 18.386719 4.347656 20.121094 4.667969 21.726562 5.824219 C 21.976562 5.277344 22.230469 4.828125 22.386719 4.347656 C 22.703125 3.351562 23.363281 2.707031 24.339844 2.484375 C 24.78125 2.417969 25.285156 2.546875 25.726562 2.707031 C 26.039062 2.835938 26.039062 3.191406 25.757812 3.382812 C 25.503906 3.574219 25.191406 3.734375 24.90625 3.800781 C 24.246094 3.929688 23.773438 4.28125 23.457031 4.859375 C 23.425781 4.921875 23.394531 4.957031 23.363281 5.019531 C 23.113281 5.46875 22.703125 5.917969 22.703125 6.335938 C 22.734375 6.722656 23.269531 7.042969 23.550781 7.394531 C 25.316406 9.578125 26.101562 12.050781 25.566406 14.910156 C 25.378906 15.9375 25.191406 16.964844 24.96875 18.085938 C 27.835938 17.1875 30.667969 16.289062 33.566406 15.390625 Z M 19.332031 8.617188 C 19.394531 8.648438 19.425781 8.679688 19.492188 8.679688 C 19.425781 9.226562 19.492188 9.867188 19.269531 10.347656 C 18.890625 11.121094 18.386719 11.828125 17.851562 12.5 C 17.445312 13.046875 16.84375 13.429688 16.53125 14.007812 C 15.871094 15.230469 14.988281 16.160156 13.917969 17.027344 C 13.253906 17.574219 12.6875 18.3125 12.152344 19.019531 C 11.777344 19.5 11.492188 20.109375 11.175781 20.65625 C 10.703125 21.457031 10.105469 22.132812 9.351562 22.742188 C 8.816406 23.191406 8.34375 23.769531 7.996094 24.347656 C 7.554688 25.054688 7.242188 25.824219 6.863281 26.660156 C 7.617188 26.914062 8.40625 27.171875 9.226562 27.460938 C 9.226562 27.398438 9.195312 27.363281 9.195312 27.300781 C 9.320312 27.171875 9.445312 27.042969 9.601562 26.949219 C 9.886719 26.785156 10.234375 26.722656 10.453125 26.5 C 11.175781 25.792969 11.902344 25.085938 12.59375 24.347656 C 12.71875 24.21875 12.75 23.898438 12.6875 23.703125 C 12.5625 23.320312 12.375 22.964844 12.183594 22.550781 C 12.4375 22.390625 12.625 22.226562 12.847656 22.132812 C 13.664062 21.8125 14.453125 21.394531 15.300781 21.234375 C 16.371094 21.007812 17.035156 20.429688 17.414062 19.402344 C 17.980469 17.863281 19.082031 16.738281 20.371094 15.773438 C 20.464844 15.710938 20.59375 15.710938 20.75 15.679688 C 20.121094 17.1875 19.523438 18.601562 18.890625 20.078125 C 19.679688 19.820312 20.464844 19.53125 21.253906 19.339844 C 21.976562 19.179688 22.355469 18.792969 22.480469 18.054688 C 22.703125 16.738281 22.984375 15.453125 23.238281 14.136719 C 23.300781 13.914062 23.394531 13.6875 23.519531 13.398438 C 23.582031 14.042969 23.742188 14.585938 23.648438 15.070312 C 23.488281 16.128906 23.207031 17.1875 22.984375 18.246094 C 22.953125 18.40625 22.890625 18.566406 22.859375 18.730469 C 23.742188 18.695312 24.246094 18.277344 24.402344 17.414062 C 24.527344 16.707031 24.71875 16 24.84375 15.292969 C 25.316406 12.949219 25.03125 10.734375 23.710938 8.710938 C 23.269531 8.070312 22.796875 7.460938 22.199219 7.011719 C 21.851562 7.363281 21.601562 7.71875 21.253906 7.972656 C 21.128906 8.070312 20.8125 7.910156 20.5625 7.878906 C 20.625 7.652344 20.625 7.429688 20.71875 7.234375 C 20.90625 6.945312 21.128906 6.65625 21.347656 6.367188 C 20.371094 5.660156 19.332031 5.148438 18.167969 5.019531 C 17.128906 4.890625 16.089844 4.859375 15.050781 4.761719 C 13.949219 4.667969 12.941406 5.019531 11.964844 5.5 C 10.136719 6.464844 8.5625 7.683594 7.304688 9.355469 C 5.917969 11.152344 4.785156 13.109375 3.964844 15.230469 C 3.335938 16.835938 2.925781 18.503906 3.023438 20.269531 C 3.054688 21.136719 3.210938 22.035156 3.652344 22.804688 C 3.777344 22.515625 3.839844 22.226562 3.839844 21.9375 C 3.933594 20.71875 4.1875 19.53125 4.910156 18.566406 C 5.917969 17.21875 6.613281 15.710938 7.148438 14.105469 C 7.652344 12.597656 8.59375 11.375 9.980469 10.574219 C 10.988281 9.996094 12.089844 9.484375 13.128906 8.9375 C 13.664062 8.648438 14.167969 8.359375 14.703125 8.070312 C 14.925781 7.941406 15.175781 7.84375 15.398438 7.71875 C 15.429688 7.78125 15.460938 7.8125 15.492188 7.878906 C 15.269531 8.101562 15.050781 8.292969 14.765625 8.582031 C 15.617188 8.359375 16.058594 7.8125 16.40625 7.011719 C 16.5625 7.652344 16.339844 8.070312 15.996094 8.328125 C 15.617188 8.617188 15.207031 8.871094 14.796875 9.066406 C 14.011719 9.417969 13.191406 9.675781 12.40625 9.996094 C 12.121094 10.125 11.839844 10.316406 11.617188 10.511719 C 11.019531 10.992188 10.484375 11.570312 9.855469 12.019531 C 9.226562 12.46875 8.847656 13.015625 8.59375 13.753906 C 8.34375 14.621094 7.996094 15.484375 7.617188 16.289062 C 6.832031 18.023438 5.980469 19.722656 5.195312 21.457031 C 5.132812 21.585938 5.101562 21.714844 5.070312 21.8125 C 4.847656 22.582031 4.628906 23.351562 4.4375 24.15625 C 4.40625 24.316406 4.40625 24.507812 4.5 24.636719 C 4.878906 25.214844 5.351562 25.664062 5.949219 26.015625 C 6.515625 24.796875 7.050781 23.640625 7.585938 22.484375 C 8.089844 21.394531 8.785156 20.460938 9.792969 19.820312 C 10.738281 19.210938 11.460938 18.375 11.996094 17.414062 C 12.6875 16.191406 13.632812 15.230469 14.796875 14.492188 C 15.523438 14.007812 16.339844 13.625 16.78125 12.789062 C 16.84375 12.691406 16.941406 12.660156 17.035156 12.566406 C 17.347656 12.242188 17.726562 11.953125 17.949219 11.601562 C 18.355469 10.863281 18.703125 10.027344 19.050781 9.257812 C 19.144531 9.066406 19.238281 8.839844 19.332031 8.617188 Z M 12.910156 22.644531 C 13.128906 23.09375 13.382812 23.417969 13.476562 23.800781 C 13.664062 24.605469 14.136719 25.183594 14.796875 25.566406 C 15.460938 25.984375 16.152344 26.335938 16.84375 26.660156 C 21.128906 28.714844 25.253906 28.328125 29.316406 25.953125 C 30.761719 25.085938 31.738281 23.832031 32.273438 22.226562 C 32.9375 20.300781 32.558594 18.246094 32.875 16.191406 C 32.304688 16.386719 31.867188 16.511719 31.425781 16.675781 C 25.820312 18.441406 20.183594 20.238281 14.578125 22.003906 C 13.980469 22.195312 13.445312 22.453125 12.910156 22.644531 Z M 15.617188 26.722656 C 18.167969 28.96875 21.222656 29.644531 24.433594 29.417969 C 27.300781 29.195312 29.503906 27.558594 31.332031 25.375 C 31.582031 25.085938 31.707031 24.699219 31.898438 24.347656 C 29.820312 26.785156 27.140625 27.910156 24.152344 28.359375 C 21.160156 28.875 18.292969 28.230469 15.617188 26.722656 Z M 6.359375 26.046875 C 6.421875 26.113281 6.515625 26.144531 6.578125 26.210938 C 6.800781 25.824219 7.082031 25.472656 7.242188 25.054688 C 7.652344 23.800781 8.40625 22.871094 9.445312 22.101562 C 10.515625 21.296875 11.019531 20.046875 11.648438 18.921875 C 10.640625 20.046875 9.097656 20.558594 8.375 22.003906 C 7.683594 23.320312 7.019531 24.667969 6.359375 26.046875 Z M 15.113281 27.203125 C 14.546875 26.660156 14.042969 26.210938 13.601562 25.757812 C 12.972656 26.144531 12.40625 26.59375 11.746094 26.851562 C 11.113281 27.109375 10.421875 27.171875 9.792969 27.300781 C 9.792969 27.363281 9.824219 27.398438 9.824219 27.460938 C 11.554688 27.78125 13.285156 27.652344 15.113281 27.203125 Z M 4.0625 23.769531 C 4.34375 22.292969 5.070312 21.007812 5.636719 19.660156 C 6.265625 18.214844 6.925781 16.800781 7.585938 15.390625 C 7.933594 14.621094 8.15625 13.753906 8.40625 12.949219 C 8.34375 12.917969 8.25 12.886719 8.1875 12.886719 C 7.871094 13.71875 7.585938 14.554688 7.210938 15.359375 C 6.800781 16.257812 6.453125 17.253906 5.855469 17.992188 C 4.46875 19.691406 4.40625 21.746094 4.0625 23.769531 Z M 17.285156 20.527344 C 18.355469 20.332031 19.554688 18.441406 19.710938 16.867188 C 18.484375 17.796875 17.949219 19.144531 17.285156 20.527344 Z M 12.246094 17.894531 C 12.941406 17.316406 13.539062 16.769531 14.167969 16.289062 C 15.113281 15.550781 15.554688 15.003906 15.679688 14.492188 C 14.261719 15.292969 13.066406 16.320312 12.246094 17.894531 Z M 12.972656 24.828125 C 12.3125 25.503906 11.679688 26.144531 11.144531 26.722656 C 11.679688 26.625 12.246094 26.273438 12.785156 25.855469 C 13.351562 25.375 13.351562 25.375 12.972656 24.828125 Z M 23.015625 4.410156 C 23.425781 3.542969 24.246094 3.351562 25.0625 3.15625 C 24.214844 2.867188 23.363281 3.382812 23.015625 4.410156 Z M 9.226562 11.699219 C 9.257812 11.761719 9.289062 11.792969 9.320312 11.859375 C 9.824219 11.503906 10.296875 11.152344 10.800781 10.832031 C 10.769531 10.765625 10.738281 10.734375 10.703125 10.671875 C 10.203125 11.023438 9.730469 11.375 9.226562 11.699219 Z M 9.226562 11.699219 " fill-opacity="0.5" fill-rule="nonzero"/></g><path fill="#ffffff" d="M 27.300781 19.59375 C 27.773438 19.757812 28.023438 20.109375 28.148438 20.589844 C 28.179688 20.71875 28.085938 20.976562 28.023438 20.976562 C 27.898438 21.007812 27.644531 20.945312 27.582031 20.847656 C 27.394531 20.496094 27.238281 20.109375 27.078125 19.722656 C 27.140625 19.691406 27.238281 19.628906 27.300781 19.59375 Z M 27.300781 19.59375 " fill-opacity="0.5" fill-rule="nonzero"/><path fill="#ffffff" d="M 23.742188 20.140625 C 23.960938 20.527344 24.152344 20.785156 24.246094 21.105469 C 24.277344 21.234375 24.085938 21.457031 24.023438 21.617188 C 23.898438 21.523438 23.679688 21.425781 23.617188 21.296875 C 23.457031 20.945312 23.425781 20.589844 23.742188 20.140625 Z M 23.742188 20.140625 " fill-opacity="0.5" fill-rule="nonzero"/><path fill="#ffffff" d="M 18.515625 23 C 18.355469 22.324219 18.703125 21.90625 18.957031 21.425781 C 19.269531 22.066406 19.113281 22.613281 18.515625 23 Z M 18.515625 23 " fill-opacity="0.5" fill-rule="nonzero"/><path fill="#ffffff" d="M 20.6875 23.640625 C 21.035156 23.992188 20.96875 24.347656 20.84375 24.699219 C 20.8125 24.796875 20.625 24.894531 20.53125 24.925781 C 20.464844 24.925781 20.339844 24.765625 20.339844 24.636719 C 20.277344 24.28125 20.277344 23.898438 20.6875 23.640625 Z M 20.6875 23.640625 " fill-opacity="0.5" fill-rule="nonzero"/><path fill="#ffffff" d="M 23.015625 24.378906 C 23.207031 24.445312 23.394531 24.445312 23.425781 24.539062 C 23.519531 24.796875 23.585938 25.054688 23.617188 25.308594 C 23.617188 25.34375 23.425781 25.4375 23.332031 25.472656 C 23.207031 25.246094 23.082031 25.054688 22.984375 24.828125 C 22.953125 24.734375 23.015625 24.570312 23.015625 24.378906 Z M 23.015625 24.378906 " fill-opacity="0.5" fill-rule="nonzero"/><path fill="#ffffff" d="M 30.101562 19.050781 C 30.449219 19.179688 30.792969 19.308594 30.730469 19.757812 C 30.730469 19.820312 30.355469 19.917969 30.226562 19.851562 C 29.820312 19.691406 29.722656 19.402344 30.101562 19.050781 Z M 30.101562 19.050781 " fill-opacity="0.5" fill-rule="nonzero"/><path fill="#ffffff" d="M 26.261719 23.289062 C 26.101562 23.480469 26.007812 23.609375 25.914062 23.703125 C 25.757812 23.511719 25.566406 23.320312 25.441406 23.09375 C 25.410156 23.0625 25.726562 22.773438 25.726562 22.804688 C 25.945312 22.933594 26.070312 23.09375 26.261719 23.289062 Z M 26.261719 23.289062 " fill-opacity="0.5" fill-rule="nonzero"/><path fill="#ffffff" d="M 15.804688 23.253906 C 15.933594 23.128906 16.058594 23.03125 16.183594 22.902344 C 16.277344 22.964844 16.339844 23.0625 16.4375 23.128906 C 16.339844 23.253906 16.214844 23.382812 16.121094 23.542969 C 16.027344 23.449219 15.933594 23.351562 15.804688 23.253906 Z M 15.804688 23.253906 " fill-opacity="0.5" fill-rule="nonzero"/><g clip-path="url(#ae6e71db4e)"><path fill="#ffffff" d="M 139.121094 29.609375 C 139.152344 29.996094 139.246094 30.285156 139.214844 30.539062 C 139.121094 31.824219 139.027344 33.109375 138.867188 34.394531 C 138.742188 35.421875 138.554688 36.414062 138.363281 37.410156 C 138.144531 38.726562 137.546875 39.882812 136.570312 40.8125 C 134.742188 42.613281 132.664062 44.023438 130.050781 44.21875 C 127.21875 44.410156 124.445312 43.992188 121.992188 42.324219 C 121.488281 42.003906 121.078125 41.9375 120.511719 42.066406 C 117.929688 42.675781 115.378906 42.578125 112.859375 41.679688 C 110.023438 40.6875 108.578125 38.503906 108.105469 35.550781 C 107.757812 33.398438 108.167969 31.375 108.953125 29.386719 C 109.835938 27.074219 111.0625 24.953125 112.605469 23.027344 C 113.898438 21.390625 115.535156 20.140625 117.394531 19.238281 C 118.90625 18.5 120.511719 18.308594 122.148438 18.4375 C 123.941406 18.566406 125.675781 18.886719 127.28125 20.042969 C 127.53125 19.496094 127.785156 19.046875 127.941406 18.566406 C 128.257812 17.570312 128.917969 16.929688 129.894531 16.703125 C 130.335938 16.640625 130.839844 16.769531 131.28125 16.929688 C 131.59375 17.054688 131.59375 17.410156 131.3125 17.601562 C 131.058594 17.796875 130.746094 17.957031 130.460938 18.019531 C 129.800781 18.148438 129.328125 18.5 129.011719 19.078125 C 128.980469 19.144531 128.949219 19.175781 128.917969 19.238281 C 128.664062 19.6875 128.257812 20.140625 128.257812 20.554688 C 128.289062 20.941406 128.824219 21.261719 129.105469 21.617188 C 130.871094 23.796875 131.65625 26.269531 131.121094 29.128906 C 130.933594 30.15625 130.746094 31.183594 130.523438 32.304688 C 133.390625 31.40625 136.222656 30.507812 139.121094 29.609375 Z M 124.886719 22.835938 C 124.949219 22.867188 124.980469 22.898438 125.042969 22.898438 C 124.980469 23.445312 125.042969 24.085938 124.824219 24.570312 C 124.445312 25.339844 123.941406 26.046875 123.40625 26.71875 C 122.996094 27.265625 122.398438 27.652344 122.085938 28.230469 C 121.421875 29.449219 120.542969 30.378906 119.472656 31.246094 C 118.808594 31.792969 118.242188 32.53125 117.707031 33.238281 C 117.332031 33.71875 117.046875 34.328125 116.730469 34.875 C 116.257812 35.675781 115.660156 36.351562 114.90625 36.960938 C 114.371094 37.410156 113.898438 37.988281 113.550781 38.566406 C 113.109375 39.273438 112.796875 40.042969 112.417969 40.878906 C 113.171875 41.136719 113.960938 41.390625 114.78125 41.679688 C 114.78125 41.617188 114.75 41.585938 114.75 41.519531 C 114.875 41.390625 115 41.265625 115.15625 41.167969 C 115.441406 41.007812 115.785156 40.941406 116.007812 40.71875 C 116.730469 40.011719 117.457031 39.304688 118.148438 38.566406 C 118.273438 38.4375 118.304688 38.117188 118.242188 37.925781 C 118.117188 37.539062 117.929688 37.1875 117.738281 36.769531 C 117.992188 36.609375 118.179688 36.449219 118.402344 36.351562 C 119.21875 36.03125 120.007812 35.613281 120.855469 35.453125 C 121.925781 35.226562 122.589844 34.648438 122.964844 33.621094 C 123.535156 32.082031 124.636719 30.957031 125.925781 29.996094 C 126.019531 29.929688 126.148438 29.929688 126.304688 29.898438 C 125.675781 31.40625 125.078125 32.820312 124.445312 34.296875 C 125.234375 34.039062 126.019531 33.75 126.808594 33.558594 C 127.53125 33.398438 127.910156 33.011719 128.035156 32.273438 C 128.257812 30.957031 128.539062 29.675781 128.792969 28.359375 C 128.855469 28.132812 128.949219 27.90625 129.074219 27.617188 C 129.136719 28.261719 129.296875 28.808594 129.199219 29.289062 C 129.042969 30.347656 128.761719 31.40625 128.539062 32.46875 C 128.507812 32.628906 128.445312 32.789062 128.414062 32.949219 C 129.296875 32.917969 129.800781 32.5 129.957031 31.632812 C 130.082031 30.925781 130.273438 30.21875 130.398438 29.511719 C 130.871094 27.167969 130.585938 24.953125 129.265625 22.933594 C 128.824219 22.289062 128.351562 21.679688 127.753906 21.230469 C 127.40625 21.582031 127.15625 21.9375 126.808594 22.195312 C 126.683594 22.289062 126.367188 22.128906 126.113281 22.097656 C 126.179688 21.871094 126.179688 21.648438 126.273438 21.453125 C 126.460938 21.164062 126.683594 20.878906 126.902344 20.589844 C 125.925781 19.882812 124.886719 19.367188 123.722656 19.238281 C 122.683594 19.109375 121.644531 19.078125 120.605469 18.984375 C 119.503906 18.886719 118.496094 19.238281 117.519531 19.722656 C 115.691406 20.683594 114.117188 21.90625 112.859375 23.574219 C 111.472656 25.371094 110.339844 27.332031 109.519531 29.449219 C 108.890625 31.054688 108.480469 32.722656 108.578125 34.488281 C 108.609375 35.355469 108.765625 36.253906 109.207031 37.027344 C 109.332031 36.738281 109.394531 36.449219 109.394531 36.160156 C 109.488281 34.9375 109.742188 33.75 110.464844 32.789062 C 111.472656 31.441406 112.164062 29.929688 112.699219 28.324219 C 113.203125 26.816406 114.148438 25.597656 115.535156 24.792969 C 116.542969 24.214844 117.644531 23.703125 118.683594 23.15625 C 119.21875 22.867188 119.722656 22.578125 120.257812 22.289062 C 120.480469 22.160156 120.730469 22.066406 120.953125 21.9375 C 120.984375 22 121.015625 22.03125 121.046875 22.097656 C 120.824219 22.320312 120.605469 22.515625 120.320312 22.804688 C 121.171875 22.578125 121.613281 22.03125 121.957031 21.230469 C 122.117188 21.871094 121.894531 22.289062 121.550781 22.546875 C 121.171875 22.835938 120.761719 23.09375 120.351562 23.285156 C 119.566406 23.636719 118.746094 23.894531 117.960938 24.214844 C 117.675781 24.34375 117.394531 24.535156 117.171875 24.730469 C 116.574219 25.210938 116.039062 25.789062 115.410156 26.238281 C 114.78125 26.6875 114.402344 27.234375 114.148438 27.972656 C 113.898438 28.839844 113.550781 29.707031 113.171875 30.507812 C 112.386719 32.242188 111.535156 33.945312 110.75 35.675781 C 110.6875 35.804688 110.65625 35.933594 110.625 36.03125 C 110.402344 36.800781 110.183594 37.570312 109.992188 38.375 C 109.960938 38.535156 109.960938 38.726562 110.054688 38.855469 C 110.433594 39.433594 110.90625 39.882812 111.503906 40.234375 C 112.070312 39.015625 112.605469 37.859375 113.140625 36.703125 C 113.644531 35.613281 114.339844 34.683594 115.347656 34.039062 C 116.289062 33.429688 117.015625 32.59375 117.550781 31.632812 C 118.242188 30.414062 119.1875 29.449219 120.351562 28.710938 C 121.078125 28.230469 121.894531 27.84375 122.335938 27.007812 C 122.398438 26.914062 122.492188 26.878906 122.589844 26.785156 C 122.902344 26.464844 123.28125 26.175781 123.503906 25.820312 C 123.910156 25.082031 124.257812 24.25 124.605469 23.476562 C 124.699219 23.285156 124.792969 23.058594 124.886719 22.835938 Z M 118.464844 36.867188 C 118.683594 37.316406 118.9375 37.636719 119.03125 38.019531 C 119.21875 38.824219 119.691406 39.402344 120.351562 39.785156 C 121.015625 40.203125 121.707031 40.558594 122.398438 40.878906 C 126.683594 42.933594 130.808594 42.546875 134.871094 40.171875 C 136.316406 39.304688 137.292969 38.054688 137.828125 36.449219 C 138.492188 34.523438 138.113281 32.46875 138.425781 30.414062 C 137.859375 30.605469 137.421875 30.734375 136.980469 30.894531 C 131.375 32.660156 125.738281 34.457031 120.132812 36.222656 C 119.535156 36.414062 119 36.671875 118.464844 36.867188 Z M 121.171875 40.941406 C 123.722656 43.191406 126.777344 43.863281 129.988281 43.640625 C 132.855469 43.414062 135.058594 41.777344 136.886719 39.59375 C 137.136719 39.304688 137.261719 38.921875 137.453125 38.566406 C 135.371094 41.007812 132.695312 42.128906 129.703125 42.578125 C 126.714844 43.09375 123.847656 42.453125 121.171875 40.941406 Z M 111.914062 40.269531 C 111.976562 40.332031 112.070312 40.363281 112.132812 40.429688 C 112.355469 40.042969 112.636719 39.691406 112.796875 39.273438 C 113.203125 38.019531 113.960938 37.089844 115 36.320312 C 116.070312 35.515625 116.574219 34.265625 117.203125 33.140625 C 116.195312 34.265625 114.652344 34.777344 113.929688 36.222656 C 113.234375 37.539062 112.574219 38.886719 111.914062 40.269531 Z M 120.667969 41.425781 C 120.101562 40.878906 119.597656 40.429688 119.15625 39.980469 C 118.527344 40.363281 117.960938 40.8125 117.300781 41.070312 C 116.667969 41.328125 115.976562 41.390625 115.347656 41.519531 C 115.347656 41.585938 115.378906 41.617188 115.378906 41.679688 C 117.109375 42.003906 118.839844 41.875 120.667969 41.425781 Z M 109.613281 37.988281 C 109.898438 36.511719 110.625 35.226562 111.191406 33.878906 C 111.820312 32.433594 112.480469 31.023438 113.140625 29.609375 C 113.488281 28.839844 113.710938 27.972656 113.960938 27.167969 C 113.898438 27.136719 113.804688 27.105469 113.742188 27.105469 C 113.425781 27.941406 113.140625 28.773438 112.765625 29.578125 C 112.355469 30.476562 112.007812 31.472656 111.410156 32.210938 C 110.023438 33.910156 109.960938 35.964844 109.613281 37.988281 Z M 122.839844 34.746094 C 123.910156 34.554688 125.109375 32.660156 125.265625 31.085938 C 124.039062 32.015625 123.503906 33.367188 122.839844 34.746094 Z M 117.800781 32.113281 C 118.496094 31.535156 119.09375 30.988281 119.722656 30.507812 C 120.667969 29.769531 121.109375 29.222656 121.234375 28.710938 C 119.816406 29.511719 118.621094 30.539062 117.800781 32.113281 Z M 118.527344 39.046875 C 117.867188 39.722656 117.234375 40.363281 116.699219 40.941406 C 117.234375 40.847656 117.800781 40.492188 118.335938 40.074219 C 118.90625 39.59375 118.90625 39.59375 118.527344 39.046875 Z M 128.570312 18.628906 C 128.980469 17.761719 129.800781 17.570312 130.617188 17.378906 C 129.769531 17.089844 128.917969 17.601562 128.570312 18.628906 Z M 114.78125 25.917969 C 114.8125 25.980469 114.84375 26.015625 114.875 26.078125 C 115.378906 25.726562 115.851562 25.371094 116.355469 25.050781 C 116.320312 24.988281 116.289062 24.953125 116.257812 24.890625 C 115.753906 25.242188 115.285156 25.597656 114.78125 25.917969 Z M 114.78125 25.917969 " fill-opacity="0.5" fill-rule="nonzero"/></g><g clip-path="url(#ab03d815d4)"><path fill="#ffffff" d="M 135.65625 33.269531 C 136.003906 33.398438 136.347656 33.527344 136.285156 33.976562 C 136.285156 34.039062 135.90625 34.136719 135.78125 34.070312 C 135.371094 33.910156 135.277344 33.621094 135.65625 33.269531 Z M 135.65625 33.269531 " fill-opacity="0.5" fill-rule="nonzero"/></g><g clip-path="url(#874a574742)"><path fill="#ffffff" d="M 378.453125 -9.398438 C 379.316406 -9.886719 379.648438 -10.597656 379.914062 -11.371094 C 380.210938 -12.3125 380.875 -12.859375 381.832031 -13.085938 C 382.695312 -13.28125 383.292969 -13.023438 383.789062 -12.277344 C 384.019531 -11.921875 384.320312 -11.566406 384.648438 -11.277344 C 385.84375 -10.273438 385.976562 -8.496094 384.847656 -7.363281 C 384.484375 -7.007812 384.121094 -6.652344 383.6875 -6.328125 C 383.257812 -5.972656 383.125 -5.550781 383.324219 -5.035156 C 383.390625 -4.90625 383.425781 -4.742188 383.492188 -4.613281 C 384.253906 -2.640625 383.6875 -0.828125 381.832031 0.300781 C 381.269531 0.65625 380.675781 0.917969 380.109375 1.207031 C 379.382812 1.597656 379.117188 2.179688 379.25 2.953125 C 379.316406 3.472656 379.480469 3.570312 379.945312 3.308594 C 380.707031 2.890625 381.503906 2.921875 382.332031 3.082031 C 383.753906 3.34375 384.78125 4.054688 385.410156 5.378906 C 385.808594 6.285156 386.074219 7.191406 386.109375 8.195312 C 386.140625 9.324219 385.675781 10.296875 384.882812 11.105469 C 384.617188 11.363281 384.351562 11.652344 384.121094 11.945312 C 383.6875 12.460938 383.621094 13.042969 383.921875 13.660156 C 384.152344 14.175781 384.386719 14.726562 384.484375 15.277344 C 384.582031 15.730469 384.617188 16.277344 384.417969 16.699219 C 383.753906 18.121094 384.21875 19.414062 384.816406 20.675781 C 384.949219 20.9375 385.082031 21.195312 385.179688 21.453125 C 385.34375 22.003906 385.578125 22.457031 386.207031 22.648438 C 386.4375 22.714844 386.570312 23.003906 386.671875 23.296875 C 386.273438 23.136719 385.808594 23.003906 385.445312 22.746094 C 385.148438 22.554688 384.847656 22.261719 384.714844 21.972656 C 384.417969 21.257812 384.019531 20.613281 383.390625 20.09375 C 382.332031 19.253906 382.066406 18.1875 382.664062 16.957031 C 382.992188 16.277344 382.828125 15.664062 382.464844 15.015625 C 382.230469 14.597656 382.066406 14.144531 381.964844 13.691406 C 381.832031 12.980469 381.800781 12.949219 381.039062 12.949219 C 379.480469 12.980469 378.191406 12.398438 377.195312 11.234375 C 375.671875 9.488281 375.570312 6.707031 376.996094 4.863281 C 377.328125 4.441406 377.128906 3.761719 376.5 3.570312 C 376.101562 3.4375 375.671875 3.4375 375.242188 3.472656 C 374.808594 3.503906 374.414062 3.632812 373.980469 3.730469 C 372.65625 4.019531 371.597656 3.601562 370.769531 2.566406 C 370.105469 1.691406 369.242188 1.464844 368.25 1.953125 C 367.820312 2.144531 367.453125 2.4375 367.023438 2.664062 C 365.796875 3.34375 364.570312 3.601562 363.214844 3.019531 C 362.121094 2.628906 361.523438 1.855469 361.324219 0.789062 C 361.292969 0.5625 361.390625 0.171875 361.558594 0.0429688 C 361.988281 -0.34375 362.519531 -0.636719 363.082031 -1.023438 C 362.816406 -1.734375 362.816406 -2.511719 363.179688 -3.289062 C 363.3125 -3.546875 363.046875 -4.03125 362.847656 -4.355469 C 362.617188 -4.710938 362.21875 -4.96875 361.921875 -5.292969 C 361.058594 -6.230469 361.257812 -7.070312 362.417969 -7.589844 C 364.40625 -8.460938 367.851562 -8.332031 369.675781 -5.972656 C 369.941406 -5.648438 370.304688 -5.390625 370.667969 -5.066406 C 371.03125 -6.457031 371.429688 -7.6875 371.664062 -8.949219 C 371.761719 -9.496094 371.496094 -10.144531 371.332031 -10.726562 C 371.164062 -11.40625 370.867188 -12.050781 370.734375 -12.730469 C 370.667969 -13.085938 370.769531 -13.476562 370.898438 -13.796875 C 371.199219 -14.476562 371.695312 -14.738281 372.425781 -14.476562 C 373.285156 -14.1875 374.113281 -14.023438 375.042969 -14.15625 C 375.96875 -14.316406 376.632812 -13.667969 377.03125 -12.957031 C 377.527344 -12.019531 377.890625 -11.015625 378.289062 -10.046875 C 378.355469 -9.886719 378.386719 -9.691406 378.453125 -9.398438 Z M 383.324219 8.355469 C 383.257812 8.324219 383.226562 8.257812 383.160156 8.226562 C 383.324219 8.0625 383.492188 7.902344 383.65625 7.707031 C 384.019531 7.289062 384.351562 6.835938 384.683594 6.414062 C 384.78125 6.285156 384.816406 6.058594 384.75 5.929688 C 384.453125 5.25 384.085938 4.570312 383.359375 4.214844 C 382.363281 3.761719 381.304688 3.570312 380.210938 3.925781 C 379.25 4.214844 378.886719 4.085938 378.320312 3.246094 C 378.15625 2.988281 378.058594 2.664062 377.925781 2.339844 C 377.660156 1.691406 377.492188 1.015625 377.164062 0.367188 C 376.664062 -0.636719 376.367188 -1.703125 376.46875 -2.800781 C 376.5 -3.351562 376.53125 -3.902344 376.566406 -4.453125 C 376.664062 -6.230469 376.335938 -7.914062 375.40625 -9.464844 C 375.007812 -10.078125 374.578125 -10.660156 374.179688 -11.277344 C 374.082031 -11.40625 374.046875 -11.566406 373.949219 -11.730469 C 373.980469 -11.761719 374.046875 -11.792969 374.082031 -11.824219 C 374.214844 -11.730469 374.378906 -11.632812 374.480469 -11.535156 C 375.871094 -10.015625 376.929688 -8.300781 377.0625 -6.199219 C 377.128906 -4.90625 377.0625 -3.609375 377.0625 -2.316406 C 377.0625 -1.152344 377.492188 -0.0859375 378.058594 1.078125 C 378.488281 0.367188 378.917969 -0.214844 379.214844 -0.863281 C 379.980469 -2.480469 380.144531 -4.160156 379.117188 -5.714844 C 378.355469 -6.84375 377.925781 -8.074219 377.691406 -9.367188 C 377.492188 -10.46875 377.164062 -11.535156 376.53125 -12.503906 C 376.003906 -13.347656 375.472656 -13.570312 374.445312 -13.441406 C 374.082031 -13.410156 373.683594 -13.476562 373.320312 -13.539062 C 373.019531 -13.605469 372.722656 -13.765625 372.425781 -13.832031 C 371.863281 -14.023438 371.53125 -13.863281 371.429688 -13.3125 C 371.363281 -13.023438 371.398438 -12.699219 371.464844 -12.40625 C 371.5625 -12.019531 371.730469 -11.597656 371.929688 -11.242188 C 372.589844 -9.980469 372.589844 -8.722656 372.058594 -7.425781 C 371.597656 -6.261719 371.496094 -5.066406 371.628906 -3.871094 C 371.960938 -1.703125 372.820312 0.0742188 375.074219 0.882812 C 376.5 1.402344 377.261719 2.597656 378.15625 3.664062 C 378.289062 3.828125 378.289062 4.117188 378.320312 4.3125 C 378.257812 4.34375 378.191406 4.34375 378.125 4.378906 C 377.890625 4.117188 377.660156 3.859375 377.460938 3.601562 C 377.726562 4.34375 377.660156 4.960938 377.195312 5.605469 C 376.898438 6.058594 376.796875 6.640625 376.632812 7.160156 C 376.699219 7.222656 376.765625 7.289062 376.832031 7.351562 C 377.890625 6.996094 378.953125 6.640625 379.980469 6.253906 C 379.117188 7.289062 377.925781 7.546875 376.699219 7.742188 C 376.402344 9.359375 377.425781 11.167969 378.984375 11.847656 C 379.449219 12.042969 379.914062 12.140625 380.34375 11.914062 C 380.972656 11.621094 381.601562 11.332031 382.230469 11.039062 C 382.398438 10.976562 382.5625 10.878906 382.695312 10.78125 C 382.730469 10.84375 382.761719 10.878906 382.796875 10.941406 C 382.464844 11.621094 381.703125 11.816406 381.070312 12.234375 C 382.230469 12.398438 382.230469 12.460938 382.464844 13.53125 C 382.53125 13.949219 382.695312 14.371094 382.960938 14.726562 C 383.523438 15.566406 383.621094 16.375 383.226562 17.3125 C 383.125 17.574219 383.027344 17.800781 382.992188 18.058594 C 382.925781 18.476562 382.992188 18.867188 383.292969 19.191406 C 383.359375 18.542969 383.257812 17.863281 383.492188 17.28125 C 383.953125 16.183594 383.789062 15.148438 383.257812 14.175781 C 382.664062 13.042969 382.925781 12.105469 383.722656 11.203125 C 384.054688 10.84375 384.386719 10.488281 384.683594 10.101562 C 385.179688 9.421875 385.34375 8.679688 385.214844 7.835938 C 382.761719 10.132812 382.761719 10.132812 381.933594 10.070312 C 382.230469 9.875 382.464844 9.746094 382.664062 9.585938 C 383.554688 9.003906 384.386719 8.355469 384.882812 7.417969 C 385.015625 7.191406 385.179688 6.933594 384.914062 6.640625 C 384.550781 7.386719 384.085938 8 383.324219 8.355469 Z M 363.644531 -5.582031 C 363.679688 -5.648438 363.746094 -5.679688 363.777344 -5.746094 C 364.207031 -5.550781 364.636719 -5.390625 365.070312 -5.195312 C 365.5 -5 365.964844 -4.808594 366.328125 -4.484375 C 366.691406 -4.160156 366.925781 -3.707031 367.257812 -3.351562 C 367.917969 -2.707031 368.582031 -2.027344 369.277344 -1.445312 C 370.007812 -0.863281 370.898438 -0.765625 371.695312 -0.699219 C 371.398438 -1.832031 371.132812 -2.964844 370.835938 -4.0625 C 370.800781 -4.226562 370.570312 -4.355469 370.402344 -4.484375 C 370.007812 -4.773438 369.507812 -5.035156 369.175781 -5.390625 C 367.554688 -7.234375 365.101562 -7.847656 362.785156 -6.972656 C 361.988281 -6.652344 361.890625 -6.328125 362.453125 -5.714844 C 362.75 -5.359375 363.148438 -5.066406 363.445312 -4.710938 C 363.910156 -4.160156 364.175781 -3.546875 363.8125 -2.835938 C 363.347656 -1.863281 363.613281 -0.992188 364.472656 -0.34375 C 365.46875 0.429688 366.625 0.625 367.851562 0.5625 C 369.308594 0.496094 370.535156 0.820312 371.332031 2.179688 C 371.796875 2.988281 372.65625 3.277344 373.617188 3.082031 C 374.578125 2.890625 375.503906 2.566406 376.53125 2.855469 C 376.167969 2.273438 375.703125 1.886719 375.109375 1.660156 C 374.480469 1.371094 373.816406 1.109375 373.253906 0.722656 C 372.589844 0.238281 371.894531 -0.0195312 371.066406 -0.0859375 C 369.972656 -0.183594 369.011719 -0.601562 368.25 -1.347656 C 367.71875 -1.863281 367.191406 -2.382812 366.824219 -2.996094 C 366.261719 -3.871094 365.632812 -4.613281 364.539062 -4.9375 C 364.207031 -5.066406 363.941406 -5.359375 363.644531 -5.582031 Z M 378.917969 1.144531 C 379.382812 0.851562 379.8125 0.59375 380.242188 0.335938 C 380.675781 0.0742188 381.136719 -0.117188 381.535156 -0.375 C 382.992188 -1.347656 383.425781 -2.738281 382.796875 -4.355469 C 382.695312 -4.582031 382.628906 -4.808594 382.5625 -5.035156 C 382.363281 -5.746094 382.53125 -6.328125 383.125 -6.8125 C 383.523438 -7.136719 383.921875 -7.460938 384.285156 -7.847656 C 385.179688 -8.753906 385.082031 -10.015625 384.121094 -10.855469 C 383.753906 -11.179688 383.492188 -11.566406 383.191406 -11.988281 C 382.828125 -12.503906 382.496094 -12.632812 381.867188 -12.441406 C 381.238281 -12.246094 380.839844 -11.859375 380.640625 -11.242188 C 380.375 -10.402344 379.980469 -9.660156 379.28125 -9.078125 C 379.148438 -8.949219 379.082031 -8.722656 379.015625 -8.496094 C 378.753906 -7.75 379.117188 -7.136719 379.515625 -6.554688 C 380.175781 -5.617188 380.542969 -4.613281 380.574219 -3.480469 C 380.574219 -3.289062 380.574219 -3.0625 380.574219 -2.707031 C 380.742188 -2.898438 380.808594 -2.964844 380.839844 -3.027344 C 381.304688 -3.804688 381.402344 -4.644531 381.136719 -5.519531 C 380.542969 -7.394531 381.4375 -8.851562 382.464844 -10.304688 C 382.398438 -9.851562 382.265625 -9.433594 382.03125 -9.042969 C 381.335938 -7.878906 381.238281 -6.683594 381.601562 -5.421875 C 381.832031 -4.613281 381.734375 -3.835938 381.371094 -3.125 C 381.105469 -2.574219 380.742188 -2.058594 380.441406 -1.507812 C 379.914062 -0.601562 379.414062 0.269531 378.917969 1.144531 Z M 365.863281 1.335938 C 365.863281 1.304688 365.863281 1.238281 365.863281 1.207031 C 365.269531 0.851562 364.636719 0.527344 364.042969 0.140625 C 363.378906 -0.3125 362.785156 -0.3125 362.21875 0.300781 C 362.085938 0.429688 362.023438 0.722656 362.054688 0.917969 C 362.21875 1.726562 362.71875 2.242188 363.511719 2.5 C 365.003906 2.988281 366.261719 2.46875 367.488281 1.5 C 365.269531 1.886719 363.875 1.886719 363.578125 1.144531 C 364.339844 1.207031 365.101562 1.273438 365.863281 1.335938 Z M 365.863281 1.335938 " fill-opacity="0.5" fill-rule="nonzero"/></g><path fill="#ffffff" d="M 383.09375 5.121094 C 382.925781 6.382812 380.210938 8.257812 379.050781 7.871094 C 379.78125 7.480469 380.542969 7.191406 381.203125 6.738281 C 381.867188 6.285156 382.429688 5.703125 383.09375 5.121094 Z M 383.09375 5.121094 " fill-opacity="0.5" fill-rule="nonzero"/><g clip-path="url(#dc51f60148)"><path fill="#ffffff" d="M 77.621094 -9.398438 C 78.484375 -9.886719 78.816406 -10.597656 79.078125 -11.371094 C 79.378906 -12.3125 80.042969 -12.859375 81.003906 -13.085938 C 81.863281 -13.28125 82.460938 -13.023438 82.957031 -12.277344 C 83.1875 -11.921875 83.488281 -11.566406 83.816406 -11.277344 C 85.011719 -10.273438 85.144531 -8.496094 84.015625 -7.363281 C 83.652344 -7.007812 83.289062 -6.652344 82.859375 -6.328125 C 82.425781 -5.972656 82.292969 -5.550781 82.492188 -5.035156 C 82.558594 -4.90625 82.59375 -4.742188 82.660156 -4.613281 C 83.421875 -2.640625 82.859375 -0.828125 81.003906 0.300781 C 80.4375 0.65625 79.84375 0.917969 79.277344 1.207031 C 78.550781 1.597656 78.285156 2.179688 78.417969 2.953125 C 78.484375 3.472656 78.648438 3.570312 79.113281 3.308594 C 79.875 2.890625 80.671875 2.921875 81.5 3.082031 C 82.921875 3.34375 83.949219 4.054688 84.582031 5.378906 C 84.976562 6.285156 85.242188 7.191406 85.277344 8.195312 C 85.308594 9.324219 84.84375 10.296875 84.050781 11.105469 C 83.785156 11.363281 83.519531 11.652344 83.289062 11.945312 C 82.859375 12.460938 82.792969 13.042969 83.089844 13.660156 C 83.320312 14.175781 83.554688 14.726562 83.652344 15.277344 C 83.75 15.730469 83.785156 16.277344 83.585938 16.699219 C 82.921875 18.121094 83.386719 19.414062 83.984375 20.675781 C 84.117188 20.9375 84.25 21.195312 84.347656 21.453125 C 84.515625 22.003906 84.746094 22.457031 85.375 22.648438 C 85.605469 22.714844 85.738281 23.003906 85.839844 23.296875 C 85.441406 23.136719 84.976562 23.003906 84.613281 22.746094 C 84.316406 22.554688 84.015625 22.261719 83.882812 21.972656 C 83.585938 21.257812 83.1875 20.613281 82.558594 20.09375 C 81.5 19.253906 81.234375 18.1875 81.832031 16.957031 C 82.160156 16.277344 81.996094 15.664062 81.632812 15.015625 C 81.398438 14.597656 81.234375 14.144531 81.136719 13.691406 C 81.003906 12.980469 80.96875 12.949219 80.207031 12.949219 C 78.648438 12.980469 77.355469 12.398438 76.363281 11.234375 C 74.839844 9.488281 74.738281 6.707031 76.164062 4.863281 C 76.496094 4.441406 76.296875 3.761719 75.667969 3.570312 C 75.269531 3.4375 74.839844 3.4375 74.410156 3.472656 C 73.976562 3.503906 73.582031 3.632812 73.148438 3.730469 C 71.824219 4.019531 70.765625 3.601562 69.9375 2.566406 C 69.273438 1.691406 68.410156 1.464844 67.417969 1.953125 C 66.988281 2.144531 66.621094 2.4375 66.191406 2.664062 C 64.964844 3.34375 63.742188 3.601562 62.382812 3.019531 C 61.289062 2.628906 60.691406 1.855469 60.492188 0.789062 C 60.460938 0.5625 60.558594 0.171875 60.726562 0.0429688 C 61.15625 -0.34375 61.6875 -0.636719 62.25 -1.023438 C 61.984375 -1.734375 61.984375 -2.511719 62.347656 -3.289062 C 62.480469 -3.546875 62.214844 -4.03125 62.019531 -4.355469 C 61.785156 -4.710938 61.386719 -4.96875 61.089844 -5.292969 C 60.230469 -6.230469 60.425781 -7.070312 61.585938 -7.589844 C 63.574219 -8.460938 67.019531 -8.332031 68.84375 -5.972656 C 69.109375 -5.648438 69.472656 -5.390625 69.835938 -5.066406 C 70.199219 -6.457031 70.597656 -7.6875 70.832031 -8.949219 C 70.929688 -9.496094 70.664062 -10.144531 70.5 -10.726562 C 70.332031 -11.40625 70.035156 -12.050781 69.902344 -12.730469 C 69.835938 -13.085938 69.9375 -13.476562 70.070312 -13.796875 C 70.367188 -14.476562 70.863281 -14.738281 71.59375 -14.476562 C 72.453125 -14.1875 73.28125 -14.023438 74.210938 -14.15625 C 75.136719 -14.316406 75.800781 -13.667969 76.199219 -12.957031 C 76.695312 -12.019531 77.058594 -11.015625 77.457031 -10.046875 C 77.523438 -9.886719 77.554688 -9.691406 77.621094 -9.398438 Z M 82.492188 8.355469 C 82.425781 8.324219 82.394531 8.257812 82.328125 8.226562 C 82.492188 8.0625 82.660156 7.902344 82.824219 7.707031 C 83.1875 7.289062 83.519531 6.835938 83.851562 6.414062 C 83.949219 6.285156 83.984375 6.058594 83.917969 5.929688 C 83.617188 5.25 83.253906 4.570312 82.527344 4.214844 C 81.53125 3.761719 80.472656 3.570312 79.378906 3.925781 C 78.417969 4.214844 78.054688 4.085938 77.488281 3.246094 C 77.324219 2.988281 77.226562 2.664062 77.09375 2.339844 C 76.828125 1.691406 76.660156 1.015625 76.332031 0.367188 C 75.832031 -0.636719 75.535156 -1.703125 75.632812 -2.800781 C 75.667969 -3.351562 75.699219 -3.902344 75.734375 -4.453125 C 75.832031 -6.230469 75.503906 -7.914062 74.574219 -9.464844 C 74.175781 -10.078125 73.746094 -10.660156 73.347656 -11.277344 C 73.25 -11.40625 73.214844 -11.566406 73.117188 -11.730469 C 73.148438 -11.761719 73.214844 -11.792969 73.25 -11.824219 C 73.382812 -11.730469 73.546875 -11.632812 73.648438 -11.535156 C 75.039062 -10.015625 76.097656 -8.300781 76.230469 -6.199219 C 76.296875 -4.90625 76.230469 -3.609375 76.230469 -2.316406 C 76.230469 -1.152344 76.660156 -0.0859375 77.226562 1.078125 C 77.65625 0.367188 78.085938 -0.214844 78.382812 -0.863281 C 79.144531 -2.480469 79.3125 -4.160156 78.285156 -5.714844 C 77.523438 -6.84375 77.09375 -8.074219 76.859375 -9.367188 C 76.660156 -10.46875 76.332031 -11.535156 75.699219 -12.503906 C 75.171875 -13.347656 74.640625 -13.570312 73.613281 -13.441406 C 73.25 -13.410156 72.851562 -13.476562 72.488281 -13.539062 C 72.1875 -13.605469 71.890625 -13.765625 71.59375 -13.832031 C 71.03125 -14.023438 70.699219 -13.863281 70.597656 -13.3125 C 70.53125 -13.023438 70.566406 -12.699219 70.632812 -12.40625 C 70.730469 -12.019531 70.898438 -11.597656 71.09375 -11.242188 C 71.757812 -9.980469 71.757812 -8.722656 71.226562 -7.425781 C 70.765625 -6.261719 70.664062 -5.066406 70.796875 -3.871094 C 71.128906 -1.703125 71.988281 0.0742188 74.242188 0.882812 C 75.667969 1.402344 76.429688 2.597656 77.324219 3.664062 C 77.457031 3.828125 77.457031 4.117188 77.488281 4.3125 C 77.421875 4.34375 77.355469 4.34375 77.289062 4.378906 C 77.058594 4.117188 76.828125 3.859375 76.628906 3.601562 C 76.894531 4.34375 76.828125 4.960938 76.363281 5.605469 C 76.066406 6.058594 75.964844 6.640625 75.800781 7.160156 C 75.867188 7.222656 75.933594 7.289062 76 7.351562 C 77.058594 6.996094 78.121094 6.640625 79.144531 6.253906 C 78.285156 7.289062 77.09375 7.546875 75.867188 7.742188 C 75.570312 9.359375 76.59375 11.167969 78.152344 11.847656 C 78.617188 12.042969 79.078125 12.140625 79.511719 11.914062 C 80.140625 11.621094 80.769531 11.332031 81.398438 11.039062 C 81.566406 10.976562 81.730469 10.878906 81.863281 10.78125 C 81.894531 10.84375 81.929688 10.878906 81.960938 10.941406 C 81.632812 11.621094 80.871094 11.816406 80.238281 12.234375 C 81.398438 12.398438 81.398438 12.460938 81.632812 13.53125 C 81.699219 13.949219 81.863281 14.371094 82.128906 14.726562 C 82.691406 15.566406 82.792969 16.375 82.394531 17.3125 C 82.292969 17.574219 82.195312 17.800781 82.160156 18.058594 C 82.09375 18.476562 82.160156 18.867188 82.460938 19.191406 C 82.527344 18.542969 82.425781 17.863281 82.660156 17.28125 C 83.121094 16.183594 82.957031 15.148438 82.425781 14.175781 C 81.832031 13.042969 82.09375 12.105469 82.890625 11.203125 C 83.222656 10.84375 83.554688 10.488281 83.851562 10.101562 C 84.347656 9.421875 84.515625 8.679688 84.382812 7.835938 C 81.929688 10.132812 81.929688 10.132812 81.101562 10.070312 C 81.398438 9.875 81.632812 9.746094 81.832031 9.585938 C 82.726562 9.003906 83.554688 8.355469 84.050781 7.417969 C 84.183594 7.191406 84.347656 6.933594 84.082031 6.640625 C 83.71875 7.386719 83.253906 8 82.492188 8.355469 Z M 62.8125 -5.582031 C 62.847656 -5.648438 62.914062 -5.679688 62.945312 -5.746094 C 63.375 -5.550781 63.808594 -5.390625 64.238281 -5.195312 C 64.667969 -5 65.132812 -4.808594 65.496094 -4.484375 C 65.859375 -4.160156 66.09375 -3.707031 66.425781 -3.351562 C 67.085938 -2.707031 67.75 -2.027344 68.445312 -1.445312 C 69.175781 -0.863281 70.070312 -0.765625 70.863281 -0.699219 C 70.566406 -1.832031 70.300781 -2.964844 70.003906 -4.0625 C 69.96875 -4.226562 69.738281 -4.355469 69.570312 -4.484375 C 69.175781 -4.773438 68.675781 -5.035156 68.347656 -5.390625 C 66.722656 -7.234375 64.269531 -7.847656 61.953125 -6.972656 C 61.15625 -6.652344 61.058594 -6.328125 61.621094 -5.714844 C 61.917969 -5.359375 62.316406 -5.066406 62.613281 -4.710938 C 63.078125 -4.160156 63.34375 -3.546875 62.976562 -2.835938 C 62.515625 -1.863281 62.78125 -0.992188 63.640625 -0.34375 C 64.636719 0.429688 65.792969 0.625 67.019531 0.5625 C 68.476562 0.496094 69.703125 0.820312 70.5 2.179688 C 70.964844 2.988281 71.824219 3.277344 72.785156 3.082031 C 73.746094 2.890625 74.675781 2.566406 75.699219 2.855469 C 75.335938 2.273438 74.871094 1.886719 74.277344 1.660156 C 73.648438 1.371094 72.984375 1.109375 72.421875 0.722656 C 71.757812 0.238281 71.0625 -0.0195312 70.234375 -0.0859375 C 69.140625 -0.183594 68.179688 -0.601562 67.417969 -1.347656 C 66.886719 -1.863281 66.359375 -2.382812 65.992188 -2.996094 C 65.429688 -3.871094 64.800781 -4.613281 63.707031 -4.9375 C 63.375 -5.066406 63.109375 -5.359375 62.8125 -5.582031 Z M 78.085938 1.144531 C 78.550781 0.851562 78.980469 0.59375 79.410156 0.335938 C 79.84375 0.0742188 80.304688 -0.117188 80.703125 -0.375 C 82.160156 -1.347656 82.59375 -2.738281 81.960938 -4.355469 C 81.863281 -4.582031 81.796875 -4.808594 81.730469 -5.035156 C 81.53125 -5.746094 81.699219 -6.328125 82.292969 -6.8125 C 82.691406 -7.136719 83.089844 -7.460938 83.453125 -7.847656 C 84.347656 -8.753906 84.25 -10.015625 83.289062 -10.855469 C 82.921875 -11.179688 82.660156 -11.566406 82.359375 -11.988281 C 81.996094 -12.503906 81.664062 -12.632812 81.035156 -12.441406 C 80.40625 -12.246094 80.007812 -11.859375 79.808594 -11.242188 C 79.542969 -10.402344 79.144531 -9.660156 78.449219 -9.078125 C 78.320312 -8.949219 78.253906 -8.722656 78.1875 -8.496094 C 77.921875 -7.75 78.285156 -7.136719 78.683594 -6.554688 C 79.34375 -5.617188 79.710938 -4.613281 79.742188 -3.480469 C 79.742188 -3.289062 79.742188 -3.0625 79.742188 -2.707031 C 79.910156 -2.898438 79.976562 -2.964844 80.007812 -3.027344 C 80.472656 -3.804688 80.570312 -4.644531 80.304688 -5.519531 C 79.710938 -7.394531 80.605469 -8.851562 81.632812 -10.304688 C 81.566406 -9.851562 81.433594 -9.433594 81.199219 -9.042969 C 80.503906 -7.878906 80.40625 -6.683594 80.769531 -5.421875 C 81.003906 -4.613281 80.902344 -3.835938 80.539062 -3.125 C 80.273438 -2.574219 79.910156 -2.058594 79.609375 -1.507812 C 79.078125 -0.601562 78.582031 0.269531 78.085938 1.144531 Z M 65.03125 1.335938 C 65.03125 1.304688 65.03125 1.238281 65.03125 1.207031 C 64.4375 0.851562 63.808594 0.527344 63.210938 0.140625 C 62.546875 -0.3125 61.953125 -0.3125 61.386719 0.300781 C 61.253906 0.429688 61.1875 0.722656 61.222656 0.917969 C 61.386719 1.726562 61.886719 2.242188 62.679688 2.5 C 64.171875 2.988281 65.429688 2.46875 66.65625 1.5 C 64.4375 1.886719 63.042969 1.886719 62.746094 1.144531 C 63.507812 1.207031 64.269531 1.273438 65.03125 1.335938 Z M 65.03125 1.335938 " fill-opacity="0.5" fill-rule="nonzero"/></g><path fill="#ffffff" d="M 82.261719 5.121094 C 82.09375 6.382812 79.378906 8.257812 78.21875 7.871094 C 78.949219 7.480469 79.710938 7.191406 80.371094 6.738281 C 81.035156 6.285156 81.597656 5.703125 82.261719 5.121094 Z M 82.261719 5.121094 " fill-opacity="0.5" fill-rule="nonzero"/><g clip-path="url(#d349ce94b3)"><path fill="#ffffff" d="M 183.175781 -9.398438 C 184.039062 -9.886719 184.371094 -10.597656 184.632812 -11.371094 C 184.933594 -12.3125 185.597656 -12.859375 186.554688 -13.085938 C 187.417969 -13.28125 188.015625 -13.023438 188.511719 -12.277344 C 188.742188 -11.921875 189.042969 -11.566406 189.371094 -11.277344 C 190.566406 -10.273438 190.699219 -8.496094 189.570312 -7.363281 C 189.207031 -7.007812 188.84375 -6.652344 188.410156 -6.328125 C 187.980469 -5.972656 187.847656 -5.550781 188.046875 -5.035156 C 188.113281 -4.90625 188.144531 -4.742188 188.210938 -4.613281 C 188.976562 -2.640625 188.410156 -0.828125 186.554688 0.300781 C 185.992188 0.65625 185.398438 0.917969 184.832031 1.207031 C 184.105469 1.597656 183.839844 2.179688 183.972656 2.953125 C 184.039062 3.472656 184.203125 3.570312 184.667969 3.308594 C 185.429688 2.890625 186.226562 2.921875 187.054688 3.082031 C 188.476562 3.34375 189.503906 4.054688 190.136719 5.378906 C 190.53125 6.285156 190.796875 7.191406 190.832031 8.195312 C 190.863281 9.324219 190.398438 10.296875 189.605469 11.105469 C 189.339844 11.363281 189.074219 11.652344 188.84375 11.945312 C 188.410156 12.460938 188.34375 13.042969 188.644531 13.660156 C 188.875 14.175781 189.109375 14.726562 189.207031 15.277344 C 189.304688 15.730469 189.339844 16.277344 189.140625 16.699219 C 188.476562 18.121094 188.941406 19.414062 189.539062 20.675781 C 189.671875 20.9375 189.804688 21.195312 189.902344 21.453125 C 190.070312 22.003906 190.300781 22.457031 190.929688 22.648438 C 191.160156 22.714844 191.292969 23.003906 191.394531 23.296875 C 190.996094 23.136719 190.53125 23.003906 190.167969 22.746094 C 189.871094 22.554688 189.570312 22.261719 189.4375 21.972656 C 189.140625 21.257812 188.742188 20.613281 188.113281 20.09375 C 187.054688 19.253906 186.789062 18.1875 187.382812 16.957031 C 187.714844 16.277344 187.550781 15.664062 187.1875 15.015625 C 186.953125 14.597656 186.789062 14.144531 186.6875 13.691406 C 186.554688 12.980469 186.523438 12.949219 185.761719 12.949219 C 184.203125 12.980469 182.910156 12.398438 181.917969 11.234375 C 180.394531 9.488281 180.292969 6.707031 181.71875 4.863281 C 182.050781 4.441406 181.851562 3.761719 181.222656 3.570312 C 180.824219 3.4375 180.394531 3.4375 179.964844 3.472656 C 179.53125 3.503906 179.136719 3.632812 178.703125 3.730469 C 177.378906 4.019531 176.320312 3.601562 175.488281 2.566406 C 174.828125 1.691406 173.964844 1.464844 172.972656 1.953125 C 172.542969 2.144531 172.175781 2.4375 171.746094 2.664062 C 170.519531 3.34375 169.292969 3.601562 167.9375 3.019531 C 166.84375 2.628906 166.246094 1.855469 166.046875 0.789062 C 166.015625 0.5625 166.113281 0.171875 166.28125 0.0429688 C 166.710938 -0.34375 167.242188 -0.636719 167.804688 -1.023438 C 167.539062 -1.734375 167.539062 -2.511719 167.902344 -3.289062 C 168.035156 -3.546875 167.769531 -4.03125 167.570312 -4.355469 C 167.339844 -4.710938 166.941406 -4.96875 166.644531 -5.292969 C 165.78125 -6.230469 165.980469 -7.070312 167.140625 -7.589844 C 169.128906 -8.460938 172.574219 -8.332031 174.398438 -5.972656 C 174.664062 -5.648438 175.027344 -5.390625 175.390625 -5.066406 C 175.753906 -6.457031 176.152344 -7.6875 176.386719 -8.949219 C 176.484375 -9.496094 176.21875 -10.144531 176.054688 -10.726562 C 175.886719 -11.40625 175.589844 -12.050781 175.457031 -12.730469 C 175.390625 -13.085938 175.488281 -13.476562 175.621094 -13.796875 C 175.921875 -14.476562 176.417969 -14.738281 177.148438 -14.476562 C 178.007812 -14.1875 178.835938 -14.023438 179.765625 -14.15625 C 180.691406 -14.316406 181.355469 -13.667969 181.753906 -12.957031 C 182.25 -12.019531 182.613281 -11.015625 183.011719 -10.046875 C 183.078125 -9.886719 183.109375 -9.691406 183.175781 -9.398438 Z M 188.046875 8.355469 C 187.980469 8.324219 187.949219 8.257812 187.882812 8.226562 C 188.046875 8.0625 188.210938 7.902344 188.378906 7.707031 C 188.742188 7.289062 189.074219 6.835938 189.40625 6.414062 C 189.503906 6.285156 189.539062 6.058594 189.472656 5.929688 C 189.171875 5.25 188.808594 4.570312 188.082031 4.214844 C 187.085938 3.761719 186.027344 3.570312 184.933594 3.925781 C 183.972656 4.214844 183.609375 4.085938 183.042969 3.246094 C 182.878906 2.988281 182.78125 2.664062 182.648438 2.339844 C 182.382812 1.691406 182.214844 1.015625 181.882812 0.367188 C 181.386719 -0.636719 181.089844 -1.703125 181.1875 -2.800781 C 181.222656 -3.351562 181.253906 -3.902344 181.289062 -4.453125 C 181.386719 -6.230469 181.054688 -7.914062 180.128906 -9.464844 C 179.730469 -10.078125 179.300781 -10.660156 178.902344 -11.277344 C 178.804688 -11.40625 178.769531 -11.566406 178.671875 -11.730469 C 178.703125 -11.761719 178.769531 -11.792969 178.804688 -11.824219 C 178.9375 -11.730469 179.101562 -11.632812 179.203125 -11.535156 C 180.59375 -10.015625 181.652344 -8.300781 181.785156 -6.199219 C 181.851562 -4.90625 181.785156 -3.609375 181.785156 -2.316406 C 181.785156 -1.152344 182.214844 -0.0859375 182.78125 1.078125 C 183.210938 0.367188 183.640625 -0.214844 183.9375 -0.863281 C 184.699219 -2.480469 184.867188 -4.160156 183.839844 -5.714844 C 183.078125 -6.84375 182.648438 -8.074219 182.414062 -9.367188 C 182.214844 -10.46875 181.882812 -11.535156 181.253906 -12.503906 C 180.726562 -13.347656 180.195312 -13.570312 179.167969 -13.441406 C 178.804688 -13.410156 178.40625 -13.476562 178.042969 -13.539062 C 177.742188 -13.605469 177.445312 -13.765625 177.148438 -13.832031 C 176.582031 -14.023438 176.253906 -13.863281 176.152344 -13.3125 C 176.085938 -13.023438 176.121094 -12.699219 176.1875 -12.40625 C 176.285156 -12.019531 176.453125 -11.597656 176.648438 -11.242188 C 177.3125 -9.980469 177.3125 -8.722656 176.78125 -7.425781 C 176.320312 -6.261719 176.21875 -5.066406 176.351562 -3.871094 C 176.683594 -1.703125 177.542969 0.0742188 179.796875 0.882812 C 181.222656 1.402344 181.984375 2.597656 182.878906 3.664062 C 183.011719 3.828125 183.011719 4.117188 183.042969 4.3125 C 182.976562 4.34375 182.910156 4.34375 182.84375 4.378906 C 182.613281 4.117188 182.382812 3.859375 182.183594 3.601562 C 182.449219 4.34375 182.382812 4.960938 181.917969 5.605469 C 181.621094 6.058594 181.519531 6.640625 181.355469 7.160156 C 181.421875 7.222656 181.488281 7.289062 181.554688 7.351562 C 182.613281 6.996094 183.675781 6.640625 184.699219 6.253906 C 183.839844 7.289062 182.648438 7.546875 181.421875 7.742188 C 181.121094 9.359375 182.148438 11.167969 183.707031 11.847656 C 184.171875 12.042969 184.632812 12.140625 185.066406 11.914062 C 185.695312 11.621094 186.324219 11.332031 186.953125 11.039062 C 187.121094 10.976562 187.285156 10.878906 187.417969 10.78125 C 187.449219 10.84375 187.484375 10.878906 187.515625 10.941406 C 187.1875 11.621094 186.421875 11.816406 185.792969 12.234375 C 186.953125 12.398438 186.953125 12.460938 187.1875 13.53125 C 187.253906 13.949219 187.417969 14.371094 187.683594 14.726562 C 188.246094 15.566406 188.34375 16.375 187.949219 17.3125 C 187.847656 17.574219 187.75 17.800781 187.714844 18.058594 C 187.648438 18.476562 187.714844 18.867188 188.015625 19.191406 C 188.082031 18.542969 187.980469 17.863281 188.210938 17.28125 C 188.675781 16.183594 188.511719 15.148438 187.980469 14.175781 C 187.382812 13.042969 187.648438 12.105469 188.445312 11.203125 C 188.777344 10.84375 189.109375 10.488281 189.40625 10.101562 C 189.902344 9.421875 190.070312 8.679688 189.9375 7.835938 C 187.484375 10.132812 187.484375 10.132812 186.65625 10.070312 C 186.953125 9.875 187.1875 9.746094 187.382812 9.585938 C 188.277344 9.003906 189.109375 8.355469 189.605469 7.417969 C 189.738281 7.191406 189.902344 6.933594 189.636719 6.640625 C 189.273438 7.386719 188.808594 8 188.046875 8.355469 Z M 168.367188 -5.582031 C 168.398438 -5.648438 168.464844 -5.679688 168.5 -5.746094 C 168.929688 -5.550781 169.359375 -5.390625 169.792969 -5.195312 C 170.222656 -5 170.6875 -4.808594 171.050781 -4.484375 C 171.414062 -4.160156 171.648438 -3.707031 171.976562 -3.351562 C 172.640625 -2.707031 173.304688 -2.027344 174 -1.445312 C 174.726562 -0.863281 175.621094 -0.765625 176.417969 -0.699219 C 176.121094 -1.832031 175.855469 -2.964844 175.554688 -4.0625 C 175.523438 -4.226562 175.292969 -4.355469 175.125 -4.484375 C 174.726562 -4.773438 174.230469 -5.035156 173.898438 -5.390625 C 172.277344 -7.234375 169.824219 -7.847656 167.503906 -6.972656 C 166.710938 -6.652344 166.613281 -6.328125 167.175781 -5.714844 C 167.472656 -5.359375 167.871094 -5.066406 168.167969 -4.710938 C 168.632812 -4.160156 168.898438 -3.546875 168.53125 -2.835938 C 168.070312 -1.863281 168.335938 -0.992188 169.195312 -0.34375 C 170.1875 0.429688 171.347656 0.625 172.574219 0.5625 C 174.03125 0.496094 175.257812 0.820312 176.054688 2.179688 C 176.515625 2.988281 177.378906 3.277344 178.339844 3.082031 C 179.300781 2.890625 180.226562 2.566406 181.253906 2.855469 C 180.890625 2.273438 180.425781 1.886719 179.832031 1.660156 C 179.203125 1.371094 178.539062 1.109375 177.976562 0.722656 C 177.3125 0.238281 176.617188 -0.0195312 175.789062 -0.0859375 C 174.695312 -0.183594 173.734375 -0.601562 172.972656 -1.347656 C 172.441406 -1.863281 171.910156 -2.382812 171.546875 -2.996094 C 170.984375 -3.871094 170.355469 -4.613281 169.261719 -4.9375 C 168.929688 -5.066406 168.664062 -5.359375 168.367188 -5.582031 Z M 183.640625 1.144531 C 184.105469 0.851562 184.535156 0.59375 184.964844 0.335938 C 185.398438 0.0742188 185.859375 -0.117188 186.257812 -0.375 C 187.714844 -1.347656 188.144531 -2.738281 187.515625 -4.355469 C 187.417969 -4.582031 187.351562 -4.808594 187.285156 -5.035156 C 187.085938 -5.746094 187.253906 -6.328125 187.847656 -6.8125 C 188.246094 -7.136719 188.644531 -7.460938 189.007812 -7.847656 C 189.902344 -8.753906 189.804688 -10.015625 188.84375 -10.855469 C 188.476562 -11.179688 188.210938 -11.566406 187.914062 -11.988281 C 187.550781 -12.503906 187.21875 -12.632812 186.589844 -12.441406 C 185.960938 -12.246094 185.5625 -11.859375 185.363281 -11.242188 C 185.097656 -10.402344 184.699219 -9.660156 184.003906 -9.078125 C 183.871094 -8.949219 183.808594 -8.722656 183.742188 -8.496094 C 183.476562 -7.75 183.839844 -7.136719 184.238281 -6.554688 C 184.898438 -5.617188 185.265625 -4.613281 185.296875 -3.480469 C 185.296875 -3.289062 185.296875 -3.0625 185.296875 -2.707031 C 185.464844 -2.898438 185.53125 -2.964844 185.5625 -3.027344 C 186.027344 -3.804688 186.125 -4.644531 185.859375 -5.519531 C 185.265625 -7.394531 186.160156 -8.851562 187.1875 -10.304688 C 187.121094 -9.851562 186.988281 -9.433594 186.753906 -9.042969 C 186.058594 -7.878906 185.960938 -6.683594 186.324219 -5.421875 C 186.554688 -4.613281 186.457031 -3.835938 186.09375 -3.125 C 185.828125 -2.574219 185.464844 -2.058594 185.164062 -1.507812 C 184.632812 -0.601562 184.136719 0.269531 183.640625 1.144531 Z M 170.585938 1.335938 C 170.585938 1.304688 170.585938 1.238281 170.585938 1.207031 C 169.992188 0.851562 169.359375 0.527344 168.765625 0.140625 C 168.101562 -0.3125 167.503906 -0.3125 166.941406 0.300781 C 166.808594 0.429688 166.742188 0.722656 166.777344 0.917969 C 166.941406 1.726562 167.4375 2.242188 168.234375 2.5 C 169.726562 2.988281 170.984375 2.46875 172.210938 1.5 C 169.992188 1.886719 168.597656 1.886719 168.300781 1.144531 C 169.0625 1.207031 169.824219 1.273438 170.585938 1.335938 Z M 170.585938 1.335938 " fill-opacity="0.5" fill-rule="nonzero"/></g><path fill="#ffffff" d="M 187.816406 5.121094 C 187.648438 6.382812 184.933594 8.257812 183.773438 7.871094 C 184.503906 7.480469 185.265625 7.191406 185.925781 6.738281 C 186.589844 6.285156 187.152344 5.703125 187.816406 5.121094 Z M 187.816406 5.121094 " fill-opacity="0.5" fill-rule="nonzero"/><g clip-path="url(#a6d9629091)"><path fill="#ffffff" d="M 516.597656 -6.730469 C 515.515625 -6.984375 514.507812 -7.199219 513.535156 -7.414062 C 512.671875 -7.59375 512.457031 -7.917969 512.457031 -8.78125 C 512.457031 -9.320312 512.601562 -9.5 513.175781 -9.390625 C 514.148438 -9.210938 515.085938 -8.996094 516.054688 -8.78125 C 516.238281 -8.746094 516.378906 -8.710938 516.597656 -8.671875 C 516.882812 -9.429688 517.570312 -9.464844 518.253906 -9.429688 C 519.296875 -9.355469 520.339844 -9.175781 521.382812 -9.070312 C 522.96875 -8.925781 524.554688 -8.746094 526.136719 -8.636719 C 527.289062 -8.566406 527.613281 -8.347656 527.757812 -7.269531 C 527.867188 -6.515625 528.226562 -6.011719 528.875 -5.617188 C 529.628906 -5.148438 530.277344 -4.539062 530.960938 -4 C 531.5 -3.601562 531.824219 -3.0625 531.898438 -2.382812 C 532.113281 -0.4375 532.363281 1.503906 532.582031 3.445312 C 532.796875 5.421875 533.050781 7.363281 533.265625 9.339844 C 533.410156 10.492188 533.230469 11.460938 532.148438 12.21875 C 530.816406 13.117188 529.59375 14.195312 528.332031 15.203125 C 527.539062 15.8125 526.714844 15.992188 525.667969 15.847656 C 523.113281 15.488281 520.519531 15.238281 517.929688 14.949219 C 516.957031 14.839844 516.488281 14.554688 516.308594 13.582031 C 516.09375 12.359375 516.054688 11.101562 515.839844 9.878906 C 515.480469 7.832031 514.976562 5.851562 514.578125 3.839844 C 514.363281 2.832031 514.148438 1.824219 514.074219 0.820312 C 514.039062 0.28125 514.148438 -0.367188 514.363281 -0.871094 C 514.902344 -2.199219 515.589844 -3.496094 516.128906 -4.824219 C 516.378906 -5.402344 516.414062 -6.046875 516.597656 -6.730469 Z M 516.378906 8.65625 C 516.523438 10.238281 516.667969 11.640625 516.847656 13.078125 C 516.957031 13.941406 517.316406 14.160156 518.179688 14.230469 C 520.699219 14.480469 523.183594 14.699219 525.703125 15.058594 C 526.605469 15.164062 527.324219 15.058594 528.042969 14.519531 C 529.378906 13.476562 530.671875 12.398438 532.003906 11.390625 C 532.582031 10.957031 532.761719 10.492188 532.691406 9.808594 C 532.582031 9.015625 532.507812 8.191406 532.4375 7.398438 C 532.402344 7.039062 532.328125 6.714844 532.257812 6.175781 C 530.890625 7.148438 529.738281 8.082031 528.476562 8.835938 C 527.433594 9.484375 527.074219 10.238281 527.433594 11.390625 C 527.503906 11.640625 527.433594 11.964844 527.433594 12.253906 C 527.324219 12.253906 527.21875 12.289062 527.109375 12.289062 C 526.964844 11.785156 526.820312 11.28125 526.714844 10.777344 C 526.53125 9.84375 526.570312 9.808594 525.597656 9.699219 C 524.011719 9.484375 522.429688 9.304688 520.84375 9.125 C 519.40625 8.980469 517.964844 8.835938 516.378906 8.65625 Z M 526.316406 9.160156 C 526.351562 9.015625 526.351562 8.980469 526.351562 8.945312 C 525.957031 6.535156 525.597656 4.128906 525.164062 1.71875 C 525.128906 1.574219 524.984375 1.359375 524.839844 1.324219 C 524.589844 1.214844 524.265625 1.144531 523.976562 1.105469 C 520.878906 0.855469 517.820312 0.601562 514.617188 0.316406 C 514.722656 1.144531 514.832031 1.96875 515.011719 2.796875 C 515.335938 4.308594 515.769531 5.816406 516.09375 7.363281 C 516.199219 7.972656 516.488281 8.152344 517.0625 8.191406 C 518.9375 8.371094 520.808594 8.585938 522.679688 8.765625 C 523.832031 8.910156 525.058594 9.015625 526.316406 9.160156 Z M 517.027344 -6.480469 C 517.027344 -4.179688 515.550781 -2.417969 514.761719 -0.222656 C 518.253906 0.171875 521.707031 0.28125 525.019531 0.710938 C 525.703125 -1.300781 526.316406 -3.316406 527 -5.257812 C 527.21875 -5.90625 527.324219 -6.480469 527.144531 -7.164062 C 527 -7.703125 526.75 -7.917969 526.207031 -7.953125 C 524.445312 -8.097656 522.644531 -8.3125 520.878906 -8.492188 C 520.054688 -8.601562 519.222656 -8.78125 518.394531 -8.851562 C 518 -8.890625 517.640625 -8.816406 517.246094 -8.78125 C 517.246094 -8.710938 517.246094 -8.671875 517.246094 -8.601562 C 517.316406 -8.566406 517.386719 -8.492188 517.496094 -8.457031 C 518.359375 -8.207031 519.296875 -8.097656 519.910156 -7.308594 C 519.980469 -7.199219 520.230469 -7.234375 520.414062 -7.199219 C 522.285156 -6.910156 524.191406 -6.660156 526.066406 -6.371094 C 526.28125 -6.335938 526.496094 -6.265625 526.714844 -6.191406 C 526.714844 -6.121094 526.714844 -6.046875 526.675781 -5.976562 C 526.425781 -5.976562 526.171875 -5.90625 525.921875 -5.941406 C 524.878906 -6.085938 523.832031 -6.226562 522.789062 -6.371094 C 521.960938 -6.480469 521.132812 -6.550781 520.160156 -6.625 C 520.519531 -5.617188 520.84375 -4.789062 521.132812 -3.964844 C 521.347656 -3.351562 521.132812 -2.921875 520.59375 -2.703125 C 519.980469 -2.488281 519.40625 -2.667969 519.1875 -3.242188 C 518.972656 -3.820312 518.863281 -4.429688 518.71875 -5.003906 C 518.503906 -6.121094 518.324219 -6.300781 517.027344 -6.480469 Z M 527.035156 9.160156 C 527.179688 9.089844 527.253906 9.089844 527.324219 9.054688 C 528.800781 8.011719 530.3125 6.929688 531.824219 5.890625 C 532.1875 5.636719 532.148438 5.386719 532.113281 5.0625 C 531.96875 3.515625 531.824219 1.96875 531.644531 0.386719 C 531.539062 -0.476562 531.429688 -1.339844 531.285156 -2.382812 C 530.601562 -1.984375 530.0625 -1.660156 529.519531 -1.339844 C 528.476562 -0.65625 527.503906 0.136719 526.425781 0.746094 C 525.957031 1.035156 525.777344 1.324219 525.847656 1.824219 C 526.246094 4.269531 526.640625 6.679688 527.035156 9.160156 Z M 525.8125 0.386719 C 525.886719 0.421875 525.957031 0.496094 526.027344 0.53125 C 527.683594 -0.582031 529.339844 -1.734375 531.140625 -2.957031 C 530.023438 -3.890625 528.910156 -4.824219 527.722656 -5.832031 C 527.035156 -3.640625 526.425781 -1.625 525.8125 0.386719 Z M 513.789062 -8.78125 C 513.753906 -8.421875 513.753906 -8.167969 513.753906 -7.882812 C 514.941406 -7.628906 516.09375 -7.378906 517.28125 -7.089844 C 517.386719 -7.34375 517.460938 -7.558594 517.570312 -7.808594 C 516.273438 -8.132812 515.085938 -8.457031 513.789062 -8.78125 Z M 519.980469 -5.402344 C 519.296875 -5.042969 519.261719 -5.042969 519.367188 -4.503906 C 519.441406 -4.179688 519.511719 -3.820312 519.691406 -3.53125 C 519.800781 -3.351562 520.089844 -3.316406 520.304688 -3.207031 C 520.375 -3.421875 520.59375 -3.675781 520.558594 -3.855469 C 520.449219 -4.359375 520.195312 -4.863281 519.980469 -5.402344 Z M 518.394531 -6.804688 C 518.46875 -6.765625 518.539062 -6.730469 518.613281 -6.695312 C 518.71875 -6.910156 518.863281 -7.128906 518.972656 -7.34375 C 518.898438 -7.378906 518.828125 -7.414062 518.757812 -7.449219 C 518.648438 -7.234375 518.503906 -7.019531 518.394531 -6.804688 Z M 512.996094 -8.167969 C 513.066406 -8.167969 513.175781 -8.207031 513.25 -8.207031 C 513.210938 -8.421875 513.140625 -8.601562 513.105469 -8.816406 C 513.03125 -8.816406 512.960938 -8.78125 512.921875 -8.78125 C 512.921875 -8.566406 512.960938 -8.347656 512.996094 -8.167969 Z M 518.214844 -7.488281 C 518.179688 -7.523438 518.109375 -7.558594 518.074219 -7.59375 C 518 -7.414062 517.929688 -7.199219 517.820312 -7.019531 C 517.855469 -6.984375 517.890625 -6.984375 517.929688 -6.945312 C 518.035156 -7.128906 518.109375 -7.308594 518.214844 -7.488281 Z M 519.222656 -5.726562 C 519.296875 -5.652344 519.332031 -5.617188 519.40625 -5.546875 C 519.511719 -5.6875 519.621094 -5.832031 519.691406 -5.976562 C 519.65625 -5.976562 519.65625 -6.011719 519.621094 -6.011719 C 519.476562 -5.90625 519.367188 -5.796875 519.222656 -5.726562 Z M 518.9375 -6.371094 C 518.972656 -6.335938 519.007812 -6.300781 519.042969 -6.265625 C 519.152344 -6.40625 519.296875 -6.550781 519.40625 -6.695312 C 519.367188 -6.730469 519.332031 -6.765625 519.332031 -6.804688 C 519.1875 -6.660156 519.082031 -6.515625 518.9375 -6.371094 Z M 518.9375 -6.371094 " fill-opacity="0.5" fill-rule="nonzero"/></g><g clip-path="url(#47cdd26d3e)"><path fill="#ffffff" d="M 603.832031 24.558594 C 604.535156 24.265625 605.085938 24.121094 605.589844 23.878906 C 608.601562 22.425781 609.90625 19.761719 609.304688 16.609375 C 609.203125 16.03125 608.902344 15.789062 608.25 15.933594 C 605.386719 16.515625 603.230469 17.917969 602.027344 20.535156 C 601.925781 20.777344 601.824219 21.019531 601.722656 21.164062 C 601.171875 20.148438 600.671875 19.128906 600.070312 18.113281 C 599.765625 17.628906 599.316406 17.242188 598.863281 16.902344 C 598.0625 16.273438 597.105469 16.320312 596.554688 16.902344 C 595.953125 17.578125 595.902344 18.792969 596.605469 19.421875 C 597.007812 19.808594 597.457031 20.097656 597.859375 20.4375 C 598.613281 21.019531 599.265625 21.699219 599.566406 22.667969 C 599.214844 22.714844 598.964844 22.765625 598.710938 22.8125 C 597.207031 23.054688 595.953125 23.683594 594.847656 24.652344 C 593.34375 26.011719 592.691406 27.707031 593.441406 29.597656 C 594.195312 31.484375 593.695312 32.792969 592.1875 34.101562 C 590.179688 35.894531 588.976562 38.21875 589.175781 40.980469 C 589.328125 43.015625 589.929688 44.953125 591.386719 46.503906 C 592.136719 47.28125 593.089844 47.957031 594.09375 48.394531 C 596.707031 49.507812 599.515625 49.75 602.328125 49.074219 C 603.332031 48.832031 604.285156 48.589844 605.238281 48.199219 C 609.304688 46.699219 610.859375 42.582031 608.800781 38.851562 C 608.449219 38.269531 608 37.6875 607.597656 37.152344 C 607.09375 36.523438 606.644531 35.894531 606.191406 35.265625 C 605.289062 33.957031 605.039062 32.601562 605.488281 31.050781 C 605.789062 30.082031 605.890625 29.015625 605.890625 28.046875 C 605.890625 26.640625 605.085938 25.476562 603.832031 24.558594 Z M 598.863281 48.296875 C 598.410156 48.25 597.558594 48.199219 596.753906 48.007812 C 595.148438 47.621094 593.542969 47.28125 592.390625 46.019531 C 590.429688 43.839844 589.277344 39.964844 591.386719 36.863281 C 592.136719 35.75 593.089844 34.78125 593.996094 33.8125 C 594.949219 32.792969 595.25 31.726562 594.796875 30.46875 C 594.699219 30.175781 594.597656 29.886719 594.546875 29.597656 C 593.945312 27.5625 594.296875 26.253906 596.101562 24.992188 C 596.957031 24.410156 598.011719 24.023438 599.0625 23.683594 C 599.367188 23.589844 599.765625 23.878906 600.117188 23.925781 C 600.46875 24.023438 600.871094 24.121094 601.222656 24.167969 C 601.523438 24.21875 601.875 24.21875 602.125 24.363281 C 602.527344 24.652344 602.878906 24.992188 603.28125 25.332031 C 604.484375 26.300781 605.039062 27.5625 604.785156 29.109375 C 604.636719 29.933594 604.433594 30.710938 604.285156 31.535156 C 604.035156 32.601562 604.082031 33.664062 604.636719 34.585938 C 605.238281 35.75 605.992188 36.816406 606.695312 37.929688 C 607.246094 38.800781 607.898438 39.625 608.199219 40.59375 C 609.101562 43.160156 607.898438 45.828125 605.4375 46.894531 C 603.480469 47.714844 601.421875 48.199219 598.863281 48.296875 Z M 602.980469 23.441406 C 603.730469 22.617188 604.433594 21.84375 605.085938 21.019531 C 605.691406 20.195312 606.59375 19.664062 606.945312 18.644531 C 605.085938 19.371094 604.035156 20.972656 602.679688 22.230469 C 602.878906 20.050781 604.988281 17.578125 608.300781 17 C 608.75 20.488281 606.34375 23.441406 602.980469 23.441406 Z M 600.570312 22.910156 C 600.117188 21.359375 599.0625 20.246094 597.710938 19.371094 C 597.960938 18.839844 598.109375 18.453125 598.3125 17.96875 C 599.867188 19.324219 600.46875 21.019531 600.570312 22.910156 Z M 597.257812 18.402344 C 597.15625 18.402344 597.054688 18.402344 596.957031 18.355469 C 597.054688 18.113281 597.15625 17.824219 597.207031 17.578125 C 597.308594 17.578125 597.359375 17.628906 597.457031 17.628906 C 597.40625 17.871094 597.308594 18.160156 597.257812 18.402344 Z M 597.257812 18.402344 " fill-opacity="0.5" fill-rule="nonzero"/></g><g clip-path="url(#fc77be98d0)"><path fill="#ffffff" d="M 270.785156 24.558594 C 271.488281 24.265625 272.039062 24.121094 272.542969 23.878906 C 275.554688 22.425781 276.859375 19.761719 276.257812 16.609375 C 276.15625 16.03125 275.855469 15.789062 275.203125 15.933594 C 272.339844 16.515625 270.183594 17.917969 268.976562 20.535156 C 268.878906 20.777344 268.777344 21.019531 268.675781 21.164062 C 268.125 20.148438 267.625 19.128906 267.019531 18.113281 C 266.71875 17.628906 266.265625 17.242188 265.816406 16.902344 C 265.011719 16.273438 264.058594 16.320312 263.507812 16.902344 C 262.90625 17.578125 262.855469 18.792969 263.558594 19.421875 C 263.957031 19.808594 264.410156 20.097656 264.8125 20.4375 C 265.566406 21.019531 266.21875 21.699219 266.519531 22.667969 C 266.167969 22.714844 265.917969 22.765625 265.664062 22.8125 C 264.160156 23.054688 262.90625 23.683594 261.800781 24.652344 C 260.292969 26.011719 259.640625 27.707031 260.394531 29.597656 C 261.148438 31.484375 260.644531 32.792969 259.140625 34.101562 C 257.132812 35.894531 255.929688 38.21875 256.128906 40.980469 C 256.28125 43.015625 256.882812 44.953125 258.335938 46.503906 C 259.089844 47.28125 260.042969 47.957031 261.046875 48.394531 C 263.65625 49.507812 266.46875 49.75 269.277344 49.074219 C 270.28125 48.832031 271.238281 48.589844 272.191406 48.199219 C 276.257812 46.699219 277.8125 42.582031 275.753906 38.851562 C 275.402344 38.269531 274.949219 37.6875 274.550781 37.152344 C 274.046875 36.523438 273.59375 35.894531 273.144531 35.265625 C 272.242188 33.957031 271.988281 32.601562 272.441406 31.050781 C 272.742188 30.082031 272.84375 29.015625 272.84375 28.046875 C 272.84375 26.640625 272.039062 25.476562 270.785156 24.558594 Z M 265.816406 48.296875 C 265.363281 48.25 264.511719 48.199219 263.707031 48.007812 C 262.101562 47.621094 260.496094 47.28125 259.339844 46.019531 C 257.382812 43.839844 256.230469 39.964844 258.335938 36.863281 C 259.089844 35.75 260.042969 34.78125 260.949219 33.8125 C 261.902344 32.792969 262.203125 31.726562 261.75 30.46875 C 261.648438 30.175781 261.550781 29.886719 261.5 29.597656 C 260.898438 27.5625 261.25 26.253906 263.054688 24.992188 C 263.910156 24.410156 264.960938 24.023438 266.015625 23.683594 C 266.316406 23.589844 266.71875 23.878906 267.070312 23.925781 C 267.421875 24.023438 267.824219 24.121094 268.175781 24.167969 C 268.476562 24.21875 268.828125 24.21875 269.078125 24.363281 C 269.480469 24.652344 269.832031 24.992188 270.234375 25.332031 C 271.4375 26.300781 271.988281 27.5625 271.738281 29.109375 C 271.589844 29.933594 271.386719 30.710938 271.238281 31.535156 C 270.984375 32.601562 271.035156 33.664062 271.589844 34.585938 C 272.191406 35.75 272.941406 36.816406 273.644531 37.929688 C 274.199219 38.800781 274.851562 39.625 275.152344 40.59375 C 276.054688 43.160156 274.851562 45.828125 272.390625 46.894531 C 270.433594 47.714844 268.375 48.199219 265.816406 48.296875 Z M 269.933594 23.441406 C 270.683594 22.617188 271.386719 21.84375 272.039062 21.019531 C 272.640625 20.195312 273.546875 19.664062 273.898438 18.644531 C 272.039062 19.371094 270.984375 20.972656 269.628906 22.230469 C 269.832031 20.050781 271.941406 17.578125 275.25 17 C 275.703125 20.488281 273.292969 23.441406 269.933594 23.441406 Z M 267.523438 22.910156 C 267.070312 21.359375 266.015625 20.246094 264.660156 19.371094 C 264.914062 18.839844 265.0625 18.453125 265.265625 17.96875 C 266.820312 19.324219 267.421875 21.019531 267.523438 22.910156 Z M 264.210938 18.402344 C 264.109375 18.402344 264.007812 18.402344 263.910156 18.355469 C 264.007812 18.113281 264.109375 17.824219 264.160156 17.578125 C 264.261719 17.578125 264.308594 17.628906 264.410156 17.628906 C 264.359375 17.871094 264.261719 18.160156 264.210938 18.402344 Z M 264.210938 18.402344 " fill-opacity="0.5" fill-rule="nonzero"/></g></svg>