<svg xmlns="http://www.w3.org/2000/svg" xmlns:xlink="http://www.w3.org/1999/xlink" width="865" zoomAndPan="magnify" viewBox="0 0 648.75 33.749998" height="45" preserveAspectRatio="xMidYMid meet" version="1.0"><defs><clipPath id="5108d0b026"><path d="M 2.261719 0 L 646.242188 0 L 646.242188 33 L 2.261719 33 Z M 2.261719 0 " clip-rule="nonzero"/></clipPath><clipPath id="bd2173ea6d"><path d="M 496.234375 12.230469 L 527.5 12.230469 L 527.5 33.5 L 496.234375 33.5 Z M 496.234375 12.230469 " clip-rule="nonzero"/></clipPath><clipPath id="185a9e15b5"><path d="M 514 33 L 515 33 L 515 33.5 L 514 33.5 Z M 514 33 " clip-rule="nonzero"/></clipPath><clipPath id="83a34e2d0f"><path d="M 519 32 L 521 32 L 521 33.5 L 519 33.5 Z M 519 32 " clip-rule="nonzero"/></clipPath><clipPath id="d010970638"><path d="M 509 32 L 511 32 L 511 33.5 L 509 33.5 Z M 509 32 " clip-rule="nonzero"/></clipPath><clipPath id="06f9d2a79c"><path d="M 2.421875 2.570312 L 33.691406 2.570312 L 33.691406 30.117188 L 2.421875 30.117188 Z M 2.421875 2.570312 " clip-rule="nonzero"/></clipPath><clipPath id="79b0633355"><path d="M 107.976562 16.789062 L 139.246094 16.789062 L 139.246094 33.5 L 107.976562 33.5 Z M 107.976562 16.789062 " clip-rule="nonzero"/></clipPath><clipPath id="56e8bb6249"><path d="M 135 33 L 137 33 L 137 33.5 L 135 33.5 Z M 135 33 " clip-rule="nonzero"/></clipPath><clipPath id="284f76cfdf"><path d="M 439.273438 0 L 464.585938 0 L 464.585938 23.414062 L 439.273438 23.414062 Z M 439.273438 0 " clip-rule="nonzero"/></clipPath><clipPath id="11bd1f6521"><path d="M 60.492188 0 L 85.804688 0 L 85.804688 23.414062 L 60.492188 23.414062 Z M 60.492188 0 " clip-rule="nonzero"/></clipPath><clipPath id="a83de2ce0f"><path d="M 166.046875 0 L 191.359375 0 L 191.359375 23.414062 L 166.046875 23.414062 Z M 166.046875 0 " clip-rule="nonzero"/></clipPath><clipPath id="80e43c46cf"><path d="M 559.148438 0 L 579.992188 0 L 579.992188 15.96875 L 559.148438 15.96875 Z M 559.148438 0 " clip-rule="nonzero"/></clipPath><clipPath id="4ae1b39170"><path d="M 609.707031 15.96875 L 630.285156 15.96875 L 630.285156 33.5 L 609.707031 33.5 Z M 609.707031 15.96875 " clip-rule="nonzero"/></clipPath><clipPath id="07f3edc171"><path d="M 256.078125 15.96875 L 276.65625 15.96875 L 276.65625 33.5 L 256.078125 33.5 Z M 256.078125 15.96875 " clip-rule="nonzero"/></clipPath></defs><g clip-path="url(#5108d0b026)"><path fill="#4f3216" d="M 2.421875 0.191406 L 646.101562 0.191406 L 646.101562 32.949219 L 2.421875 32.949219 Z M 2.421875 0.191406 " fill-opacity="1" fill-rule="nonzero"/></g><g clip-path="url(#bd2173ea6d)"><path fill="#ffffff" d="M 527.375 25.136719 C 527.40625 25.523438 527.5 25.8125 527.46875 26.066406 C 527.375 27.351562 527.28125 28.636719 527.125 29.921875 C 526.996094 30.949219 526.808594 31.945312 526.617188 32.9375 C 526.398438 34.253906 525.800781 35.410156 524.824219 36.34375 C 522.996094 38.140625 520.921875 39.550781 518.304688 39.746094 C 515.472656 39.9375 512.703125 39.519531 510.246094 37.851562 C 509.742188 37.53125 509.332031 37.464844 508.765625 37.59375 C 506.183594 38.203125 503.632812 38.109375 501.113281 37.207031 C 498.28125 36.214844 496.832031 34.03125 496.359375 31.078125 C 496.011719 28.925781 496.421875 26.902344 497.207031 24.914062 C 498.089844 22.601562 499.320312 20.480469 500.863281 18.554688 C 502.152344 16.917969 503.789062 15.667969 505.648438 14.765625 C 507.160156 14.027344 508.765625 13.835938 510.402344 13.964844 C 512.199219 14.09375 513.929688 14.414062 515.535156 15.570312 C 515.789062 15.023438 516.039062 14.574219 516.195312 14.09375 C 516.511719 13.097656 517.171875 12.457031 518.148438 12.230469 C 518.589844 12.167969 519.09375 12.296875 519.535156 12.457031 C 519.847656 12.585938 519.847656 12.9375 519.566406 13.128906 C 519.3125 13.324219 519 13.484375 518.714844 13.546875 C 518.054688 13.675781 517.582031 14.027344 517.265625 14.605469 C 517.234375 14.671875 517.203125 14.703125 517.171875 14.765625 C 516.921875 15.21875 516.511719 15.667969 516.511719 16.082031 C 516.542969 16.46875 517.078125 16.789062 517.363281 17.144531 C 519.125 19.328125 519.910156 21.796875 519.375 24.65625 C 519.1875 25.683594 519 26.710938 518.777344 27.835938 C 521.644531 26.933594 524.476562 26.035156 527.375 25.136719 Z M 513.140625 18.363281 C 513.203125 18.394531 513.238281 18.425781 513.300781 18.425781 C 513.238281 18.972656 513.300781 19.613281 513.078125 20.097656 C 512.703125 20.867188 512.199219 21.574219 511.664062 22.246094 C 511.253906 22.792969 510.65625 23.179688 510.339844 23.757812 C 509.679688 24.976562 508.796875 25.90625 507.726562 26.773438 C 507.066406 27.320312 506.496094 28.058594 505.960938 28.765625 C 505.585938 29.246094 505.300781 29.855469 504.988281 30.402344 C 504.515625 31.203125 503.917969 31.878906 503.160156 32.488281 C 502.625 32.9375 502.152344 33.515625 501.804688 34.09375 C 501.367188 34.800781 501.050781 35.570312 500.671875 36.40625 C 501.429688 36.664062 502.214844 36.917969 503.035156 37.207031 C 503.035156 37.144531 503.003906 37.113281 503.003906 37.046875 C 503.128906 36.917969 503.253906 36.792969 503.410156 36.695312 C 503.695312 36.535156 504.042969 36.46875 504.261719 36.246094 C 504.988281 35.539062 505.710938 34.832031 506.402344 34.09375 C 506.53125 33.964844 506.5625 33.644531 506.496094 33.453125 C 506.371094 33.066406 506.183594 32.714844 505.992188 32.296875 C 506.246094 32.136719 506.433594 31.976562 506.65625 31.878906 C 507.472656 31.558594 508.261719 31.140625 509.113281 30.980469 C 510.183594 30.753906 510.84375 30.175781 511.222656 29.148438 C 511.789062 27.609375 512.890625 26.484375 514.179688 25.523438 C 514.277344 25.457031 514.402344 25.457031 514.558594 25.425781 C 513.929688 26.933594 513.332031 28.347656 512.703125 29.824219 C 513.488281 29.566406 514.277344 29.277344 515.0625 29.085938 C 515.789062 28.925781 516.164062 28.539062 516.289062 27.800781 C 516.511719 26.484375 516.792969 25.203125 517.046875 23.886719 C 517.109375 23.660156 517.203125 23.4375 517.332031 23.148438 C 517.394531 23.789062 517.550781 24.335938 517.457031 24.816406 C 517.300781 25.875 517.015625 26.933594 516.792969 27.996094 C 516.761719 28.15625 516.699219 28.316406 516.667969 28.476562 C 517.550781 28.445312 518.054688 28.027344 518.210938 27.160156 C 518.339844 26.453125 518.527344 25.746094 518.652344 25.039062 C 519.125 22.699219 518.839844 20.480469 517.519531 18.460938 C 517.078125 17.816406 516.605469 17.207031 516.007812 16.757812 C 515.660156 17.109375 515.410156 17.464844 515.0625 17.722656 C 514.9375 17.816406 514.621094 17.65625 514.371094 17.625 C 514.433594 17.398438 514.433594 17.175781 514.527344 16.984375 C 514.714844 16.695312 514.9375 16.40625 515.15625 16.117188 C 514.179688 15.410156 513.140625 14.894531 511.976562 14.765625 C 510.9375 14.640625 509.898438 14.605469 508.859375 14.511719 C 507.757812 14.414062 506.75 14.765625 505.773438 15.25 C 503.949219 16.210938 502.371094 17.433594 501.113281 19.101562 C 499.726562 20.898438 498.59375 22.859375 497.777344 24.976562 C 497.144531 26.582031 496.734375 28.25 496.832031 30.015625 C 496.863281 30.882812 497.019531 31.78125 497.460938 32.554688 C 497.585938 32.265625 497.648438 31.976562 497.648438 31.6875 C 497.746094 30.464844 497.996094 29.277344 498.71875 28.316406 C 499.726562 26.96875 500.421875 25.457031 500.957031 23.851562 C 501.460938 22.34375 502.40625 21.125 503.789062 20.320312 C 504.796875 19.742188 505.898438 19.230469 506.9375 18.683594 C 507.472656 18.394531 507.976562 18.105469 508.511719 17.816406 C 508.734375 17.6875 508.984375 17.59375 509.207031 17.464844 C 509.238281 17.527344 509.269531 17.558594 509.300781 17.625 C 509.082031 17.847656 508.859375 18.042969 508.578125 18.332031 C 509.425781 18.105469 509.867188 17.558594 510.214844 16.757812 C 510.371094 17.398438 510.152344 17.816406 509.804688 18.074219 C 509.425781 18.363281 509.015625 18.621094 508.609375 18.8125 C 507.820312 19.164062 507 19.421875 506.214844 19.742188 C 505.929688 19.871094 505.648438 20.066406 505.425781 20.257812 C 504.828125 20.738281 504.292969 21.316406 503.664062 21.765625 C 503.035156 22.214844 502.65625 22.761719 502.40625 23.5 C 502.152344 24.367188 501.804688 25.234375 501.429688 26.035156 C 500.640625 27.769531 499.789062 29.472656 499.003906 31.203125 C 498.941406 31.332031 498.910156 31.460938 498.878906 31.558594 C 498.65625 32.328125 498.4375 33.097656 498.25 33.902344 C 498.214844 34.0625 498.214844 34.253906 498.3125 34.382812 C 498.6875 34.960938 499.160156 35.410156 499.757812 35.765625 C 500.324219 34.542969 500.863281 33.386719 501.398438 32.230469 C 501.902344 31.140625 502.59375 30.210938 503.601562 29.566406 C 504.546875 28.957031 505.269531 28.121094 505.804688 27.160156 C 506.496094 25.941406 507.441406 24.976562 508.609375 24.238281 C 509.332031 23.757812 510.152344 23.371094 510.59375 22.535156 C 510.65625 22.441406 510.75 22.410156 510.84375 22.3125 C 511.160156 21.992188 511.535156 21.703125 511.757812 21.347656 C 512.167969 20.609375 512.511719 19.777344 512.859375 19.003906 C 512.953125 18.8125 513.046875 18.585938 513.140625 18.363281 Z M 506.71875 32.394531 C 506.9375 32.84375 507.191406 33.164062 507.285156 33.546875 C 507.472656 34.351562 507.945312 34.929688 508.609375 35.316406 C 509.269531 35.730469 509.960938 36.085938 510.65625 36.40625 C 514.9375 38.460938 519.0625 38.074219 523.125 35.699219 C 524.574219 34.832031 525.546875 33.582031 526.082031 31.976562 C 526.746094 30.050781 526.367188 27.996094 526.683594 25.941406 C 526.117188 26.132812 525.675781 26.261719 525.234375 26.421875 C 519.628906 28.1875 513.992188 29.984375 508.386719 31.75 C 507.789062 31.945312 507.253906 32.199219 506.71875 32.394531 Z M 509.425781 36.46875 C 511.976562 38.71875 515.03125 39.390625 518.242188 39.167969 C 521.109375 38.941406 523.3125 37.304688 525.140625 35.121094 C 525.390625 34.832031 525.515625 34.449219 525.707031 34.09375 C 523.628906 36.535156 520.953125 37.65625 517.960938 38.109375 C 514.96875 38.621094 512.101562 37.980469 509.425781 36.46875 Z M 500.167969 35.796875 C 500.230469 35.859375 500.324219 35.890625 500.390625 35.957031 C 500.609375 35.570312 500.894531 35.21875 501.050781 34.800781 C 501.460938 33.546875 502.214844 32.617188 503.253906 31.847656 C 504.324219 31.042969 504.828125 29.792969 505.457031 28.667969 C 504.453125 29.792969 502.90625 30.304688 502.183594 31.75 C 501.492188 33.066406 500.832031 34.414062 500.167969 35.796875 Z M 508.921875 36.953125 C 508.355469 36.40625 507.851562 35.957031 507.410156 35.507812 C 506.78125 35.890625 506.214844 36.34375 505.554688 36.597656 C 504.921875 36.855469 504.230469 36.917969 503.601562 37.046875 C 503.601562 37.113281 503.632812 37.144531 503.632812 37.207031 C 505.363281 37.53125 507.097656 37.402344 508.921875 36.953125 Z M 497.871094 33.515625 C 498.152344 32.039062 498.878906 30.753906 499.445312 29.40625 C 500.074219 27.960938 500.734375 26.550781 501.398438 25.136719 C 501.742188 24.367188 501.964844 23.5 502.214844 22.699219 C 502.152344 22.664062 502.058594 22.632812 501.996094 22.632812 C 501.679688 23.46875 501.398438 24.300781 501.019531 25.105469 C 500.609375 26.003906 500.261719 27 499.664062 27.738281 C 498.28125 29.4375 498.214844 31.492188 497.871094 33.515625 Z M 511.09375 30.273438 C 512.167969 30.082031 513.363281 28.1875 513.519531 26.613281 C 512.292969 27.546875 511.757812 28.894531 511.09375 30.273438 Z M 506.058594 27.640625 C 506.75 27.0625 507.347656 26.519531 507.976562 26.035156 C 508.921875 25.296875 509.363281 24.753906 509.488281 24.238281 C 508.074219 25.039062 506.875 26.066406 506.058594 27.640625 Z M 506.78125 34.574219 C 506.121094 35.25 505.492188 35.890625 504.957031 36.46875 C 505.492188 36.375 506.058594 36.019531 506.59375 35.601562 C 507.160156 35.121094 507.160156 35.121094 506.78125 34.574219 Z M 516.824219 14.15625 C 517.234375 13.289062 518.054688 13.097656 518.875 12.90625 C 518.023438 12.617188 517.171875 13.128906 516.824219 14.15625 Z M 503.035156 21.445312 C 503.066406 21.507812 503.097656 21.542969 503.128906 21.605469 C 503.632812 21.253906 504.105469 20.898438 504.609375 20.578125 C 504.578125 20.515625 504.546875 20.480469 504.515625 20.417969 C 504.011719 20.769531 503.539062 21.125 503.035156 21.445312 Z M 503.035156 21.445312 " fill-opacity="0.5" fill-rule="nonzero"/></g><path fill="#ffffff" d="M 521.109375 29.34375 C 521.582031 29.503906 521.832031 29.855469 521.960938 30.339844 C 521.992188 30.464844 521.894531 30.722656 521.832031 30.722656 C 521.707031 30.753906 521.457031 30.691406 521.390625 30.59375 C 521.203125 30.242188 521.046875 29.855469 520.886719 29.472656 C 520.953125 29.4375 521.046875 29.375 521.109375 29.34375 Z M 521.109375 29.34375 " fill-opacity="0.5" fill-rule="nonzero"/><path fill="#ffffff" d="M 517.550781 29.890625 C 517.769531 30.273438 517.960938 30.53125 518.054688 30.851562 C 518.085938 30.980469 517.898438 31.207031 517.835938 31.367188 C 517.707031 31.269531 517.488281 31.171875 517.425781 31.042969 C 517.269531 30.691406 517.234375 30.339844 517.550781 29.890625 Z M 517.550781 29.890625 " fill-opacity="0.5" fill-rule="nonzero"/><path fill="#ffffff" d="M 512.324219 32.746094 C 512.167969 32.070312 512.511719 31.65625 512.765625 31.171875 C 513.078125 31.816406 512.921875 32.359375 512.324219 32.746094 Z M 512.324219 32.746094 " fill-opacity="0.5" fill-rule="nonzero"/><g clip-path="url(#185a9e15b5)"><path fill="#ffffff" d="M 514.496094 33.386719 C 514.84375 33.742188 514.78125 34.09375 514.652344 34.449219 C 514.621094 34.542969 514.433594 34.640625 514.339844 34.671875 C 514.277344 34.671875 514.148438 34.511719 514.148438 34.382812 C 514.085938 34.03125 514.085938 33.644531 514.496094 33.386719 Z M 514.496094 33.386719 " fill-opacity="0.5" fill-rule="nonzero"/></g><path fill="#ffffff" d="M 523.910156 28.796875 C 524.257812 28.925781 524.605469 29.054688 524.542969 29.503906 C 524.542969 29.566406 524.164062 29.664062 524.039062 29.601562 C 523.628906 29.4375 523.535156 29.148438 523.910156 28.796875 Z M 523.910156 28.796875 " fill-opacity="0.5" fill-rule="nonzero"/><g clip-path="url(#83a34e2d0f)"><path fill="#ffffff" d="M 520.070312 33.035156 C 519.914062 33.226562 519.816406 33.355469 519.722656 33.453125 C 519.566406 33.257812 519.375 33.066406 519.25 32.84375 C 519.21875 32.808594 519.535156 32.519531 519.535156 32.554688 C 519.753906 32.683594 519.878906 32.84375 520.070312 33.035156 Z M 520.070312 33.035156 " fill-opacity="0.5" fill-rule="nonzero"/></g><g clip-path="url(#d010970638)"><path fill="#ffffff" d="M 509.613281 33.003906 C 509.742188 32.875 509.867188 32.777344 509.992188 32.648438 C 510.085938 32.714844 510.148438 32.808594 510.246094 32.875 C 510.148438 33.003906 510.023438 33.132812 509.929688 33.292969 C 509.835938 33.195312 509.742188 33.097656 509.613281 33.003906 Z M 509.613281 33.003906 " fill-opacity="0.5" fill-rule="nonzero"/></g><g clip-path="url(#06f9d2a79c)"><path fill="#ffffff" d="M 33.566406 15.476562 C 33.597656 15.859375 33.691406 16.148438 33.660156 16.40625 C 33.566406 17.691406 33.472656 18.976562 33.3125 20.257812 C 33.1875 21.285156 33 22.28125 32.808594 23.277344 C 32.589844 24.59375 31.992188 25.75 31.015625 26.679688 C 29.1875 28.476562 27.109375 29.890625 24.496094 30.082031 C 21.664062 30.277344 18.890625 29.859375 16.4375 28.191406 C 15.933594 27.867188 15.523438 27.804688 14.957031 27.933594 C 12.375 28.542969 9.824219 28.445312 7.304688 27.546875 C 4.46875 26.550781 3.023438 24.367188 2.550781 21.414062 C 2.203125 19.265625 2.613281 17.242188 3.398438 15.25 C 4.28125 12.941406 5.507812 10.820312 7.050781 8.894531 C 8.34375 7.257812 9.980469 6.003906 11.839844 5.105469 C 13.351562 4.367188 14.957031 4.175781 16.59375 4.304688 C 18.386719 4.433594 20.121094 4.753906 21.726562 5.910156 C 21.976562 5.363281 22.230469 4.914062 22.386719 4.433594 C 22.703125 3.4375 23.363281 2.792969 24.339844 2.570312 C 24.78125 2.503906 25.285156 2.632812 25.726562 2.792969 C 26.039062 2.921875 26.039062 3.277344 25.757812 3.46875 C 25.503906 3.660156 25.191406 3.820312 24.90625 3.886719 C 24.246094 4.015625 23.773438 4.367188 23.457031 4.945312 C 23.425781 5.011719 23.394531 5.042969 23.363281 5.105469 C 23.113281 5.554688 22.703125 6.003906 22.703125 6.421875 C 22.734375 6.808594 23.269531 7.128906 23.550781 7.480469 C 25.316406 9.664062 26.101562 12.136719 25.566406 14.996094 C 25.378906 16.023438 25.191406 17.050781 24.96875 18.171875 C 27.835938 17.273438 30.667969 16.375 33.566406 15.476562 Z M 19.332031 8.703125 C 19.394531 8.734375 19.425781 8.765625 19.492188 8.765625 C 19.425781 9.3125 19.492188 9.953125 19.269531 10.433594 C 18.890625 11.207031 18.386719 11.914062 17.851562 12.585938 C 17.445312 13.132812 16.84375 13.519531 16.53125 14.09375 C 15.871094 15.316406 14.988281 16.246094 13.917969 17.113281 C 13.253906 17.660156 12.6875 18.398438 12.152344 19.105469 C 11.777344 19.585938 11.492188 20.195312 11.175781 20.742188 C 10.703125 21.542969 10.105469 22.21875 9.351562 22.828125 C 8.816406 23.277344 8.34375 23.855469 7.996094 24.433594 C 7.554688 25.140625 7.242188 25.910156 6.863281 26.746094 C 7.617188 27 8.40625 27.257812 9.226562 27.546875 C 9.226562 27.484375 9.195312 27.449219 9.195312 27.386719 C 9.320312 27.257812 9.445312 27.128906 9.601562 27.035156 C 9.886719 26.875 10.234375 26.808594 10.453125 26.585938 C 11.175781 25.878906 11.902344 25.171875 12.59375 24.433594 C 12.71875 24.304688 12.75 23.984375 12.6875 23.792969 C 12.5625 23.40625 12.375 23.054688 12.183594 22.636719 C 12.4375 22.476562 12.625 22.3125 12.847656 22.21875 C 13.664062 21.898438 14.453125 21.480469 15.300781 21.320312 C 16.371094 21.09375 17.035156 20.515625 17.414062 19.488281 C 17.980469 17.949219 19.082031 16.824219 20.371094 15.859375 C 20.464844 15.796875 20.59375 15.796875 20.75 15.765625 C 20.121094 17.273438 19.523438 18.6875 18.890625 20.164062 C 19.679688 19.90625 20.464844 19.617188 21.253906 19.425781 C 21.976562 19.265625 22.355469 18.878906 22.480469 18.140625 C 22.703125 16.824219 22.984375 15.539062 23.238281 14.222656 C 23.300781 14 23.394531 13.773438 23.519531 13.484375 C 23.582031 14.128906 23.742188 14.671875 23.648438 15.15625 C 23.488281 16.214844 23.207031 17.273438 22.984375 18.332031 C 22.953125 18.492188 22.890625 18.65625 22.859375 18.816406 C 23.742188 18.78125 24.246094 18.367188 24.402344 17.5 C 24.527344 16.792969 24.71875 16.085938 24.84375 15.378906 C 25.316406 13.035156 25.03125 10.820312 23.710938 8.796875 C 23.269531 8.15625 22.796875 7.546875 22.199219 7.097656 C 21.851562 7.449219 21.601562 7.804688 21.253906 8.058594 C 21.128906 8.15625 20.8125 7.996094 20.5625 7.964844 C 20.625 7.738281 20.625 7.515625 20.71875 7.320312 C 20.90625 7.03125 21.128906 6.742188 21.347656 6.453125 C 20.371094 5.75 19.332031 5.234375 18.167969 5.105469 C 17.128906 4.976562 16.089844 4.945312 15.050781 4.847656 C 13.949219 4.753906 12.941406 5.105469 11.964844 5.585938 C 10.136719 6.550781 8.5625 7.769531 7.304688 9.441406 C 5.917969 11.238281 4.785156 13.195312 3.964844 15.316406 C 3.335938 16.921875 2.925781 18.589844 3.023438 20.355469 C 3.054688 21.222656 3.210938 22.121094 3.652344 22.890625 C 3.777344 22.601562 3.839844 22.3125 3.839844 22.023438 C 3.933594 20.804688 4.1875 19.617188 4.910156 18.65625 C 5.917969 17.304688 6.613281 15.796875 7.148438 14.191406 C 7.652344 12.683594 8.59375 11.464844 9.980469 10.660156 C 10.988281 10.082031 12.089844 9.570312 13.128906 9.023438 C 13.664062 8.734375 14.167969 8.445312 14.703125 8.15625 C 14.925781 8.027344 15.175781 7.929688 15.398438 7.804688 C 15.429688 7.867188 15.460938 7.898438 15.492188 7.964844 C 15.269531 8.1875 15.050781 8.378906 14.765625 8.667969 C 15.617188 8.445312 16.058594 7.898438 16.40625 7.097656 C 16.5625 7.738281 16.339844 8.15625 15.996094 8.414062 C 15.617188 8.703125 15.207031 8.957031 14.796875 9.152344 C 14.011719 9.503906 13.191406 9.761719 12.40625 10.082031 C 12.121094 10.210938 11.839844 10.402344 11.617188 10.597656 C 11.019531 11.078125 10.484375 11.65625 9.855469 12.105469 C 9.226562 12.554688 8.847656 13.101562 8.59375 13.839844 C 8.34375 14.707031 7.996094 15.574219 7.617188 16.375 C 6.832031 18.109375 5.980469 19.808594 5.195312 21.542969 C 5.132812 21.671875 5.101562 21.800781 5.070312 21.898438 C 4.847656 22.667969 4.628906 23.4375 4.4375 24.242188 C 4.40625 24.402344 4.40625 24.59375 4.5 24.722656 C 4.878906 25.300781 5.351562 25.75 5.949219 26.101562 C 6.515625 24.882812 7.050781 23.726562 7.585938 22.570312 C 8.089844 21.480469 8.785156 20.546875 9.792969 19.90625 C 10.738281 19.296875 11.460938 18.460938 11.996094 17.5 C 12.6875 16.277344 13.632812 15.316406 14.796875 14.578125 C 15.523438 14.09375 16.339844 13.710938 16.78125 12.875 C 16.84375 12.777344 16.941406 12.746094 17.035156 12.652344 C 17.347656 12.328125 17.726562 12.039062 17.949219 11.6875 C 18.355469 10.949219 18.703125 10.113281 19.050781 9.34375 C 19.144531 9.152344 19.238281 8.925781 19.332031 8.703125 Z M 12.910156 22.730469 C 13.128906 23.179688 13.382812 23.503906 13.476562 23.886719 C 13.664062 24.691406 14.136719 25.269531 14.796875 25.652344 C 15.460938 26.070312 16.152344 26.421875 16.84375 26.746094 C 21.128906 28.800781 25.253906 28.414062 29.316406 26.039062 C 30.761719 25.171875 31.738281 23.917969 32.273438 22.3125 C 32.9375 20.386719 32.558594 18.332031 32.875 16.277344 C 32.304688 16.472656 31.867188 16.601562 31.425781 16.761719 C 25.820312 18.527344 20.183594 20.324219 14.578125 22.089844 C 13.980469 22.28125 13.445312 22.539062 12.910156 22.730469 Z M 15.617188 26.808594 C 18.167969 29.054688 21.222656 29.730469 24.433594 29.503906 C 27.300781 29.28125 29.503906 27.644531 31.332031 25.460938 C 31.582031 25.171875 31.707031 24.785156 31.898438 24.433594 C 29.820312 26.875 27.140625 27.996094 24.152344 28.445312 C 21.160156 28.960938 18.292969 28.316406 15.617188 26.808594 Z M 6.359375 26.136719 C 6.421875 26.199219 6.515625 26.230469 6.578125 26.296875 C 6.800781 25.910156 7.082031 25.558594 7.242188 25.140625 C 7.652344 23.886719 8.40625 22.957031 9.445312 22.1875 C 10.515625 21.382812 11.019531 20.132812 11.648438 19.007812 C 10.640625 20.132812 9.097656 20.644531 8.375 22.089844 C 7.683594 23.40625 7.019531 24.753906 6.359375 26.136719 Z M 15.113281 27.289062 C 14.546875 26.746094 14.042969 26.296875 13.601562 25.847656 C 12.972656 26.230469 12.40625 26.679688 11.746094 26.9375 C 11.113281 27.195312 10.421875 27.257812 9.792969 27.386719 C 9.792969 27.449219 9.824219 27.484375 9.824219 27.546875 C 11.554688 27.867188 13.285156 27.738281 15.113281 27.289062 Z M 4.0625 23.855469 C 4.34375 22.378906 5.070312 21.09375 5.636719 19.746094 C 6.265625 18.300781 6.925781 16.886719 7.585938 15.476562 C 7.933594 14.707031 8.15625 13.839844 8.40625 13.035156 C 8.34375 13.003906 8.25 12.972656 8.1875 12.972656 C 7.871094 13.804688 7.585938 14.640625 7.210938 15.445312 C 6.800781 16.34375 6.453125 17.339844 5.855469 18.078125 C 4.46875 19.777344 4.40625 21.832031 4.0625 23.855469 Z M 17.285156 20.613281 C 18.355469 20.421875 19.554688 18.527344 19.710938 16.953125 C 18.484375 17.882812 17.949219 19.230469 17.285156 20.613281 Z M 12.246094 17.980469 C 12.941406 17.402344 13.539062 16.855469 14.167969 16.375 C 15.113281 15.636719 15.554688 15.089844 15.679688 14.578125 C 14.261719 15.378906 13.066406 16.40625 12.246094 17.980469 Z M 12.972656 24.914062 C 12.3125 25.589844 11.679688 26.230469 11.144531 26.808594 C 11.679688 26.710938 12.246094 26.359375 12.785156 25.941406 C 13.351562 25.460938 13.351562 25.460938 12.972656 24.914062 Z M 23.015625 4.496094 C 23.425781 3.628906 24.246094 3.4375 25.0625 3.242188 C 24.214844 2.957031 23.363281 3.46875 23.015625 4.496094 Z M 9.226562 11.785156 C 9.257812 11.847656 9.289062 11.878906 9.320312 11.945312 C 9.824219 11.589844 10.296875 11.238281 10.800781 10.917969 C 10.769531 10.851562 10.738281 10.820312 10.703125 10.757812 C 10.203125 11.109375 9.730469 11.464844 9.226562 11.785156 Z M 9.226562 11.785156 " fill-opacity="0.5" fill-rule="nonzero"/></g><path fill="#ffffff" d="M 27.300781 19.679688 C 27.773438 19.84375 28.023438 20.195312 28.148438 20.675781 C 28.179688 20.804688 28.085938 21.0625 28.023438 21.0625 C 27.898438 21.09375 27.644531 21.03125 27.582031 20.933594 C 27.394531 20.582031 27.238281 20.195312 27.078125 19.808594 C 27.140625 19.777344 27.238281 19.714844 27.300781 19.679688 Z M 27.300781 19.679688 " fill-opacity="0.5" fill-rule="nonzero"/><path fill="#ffffff" d="M 23.742188 20.226562 C 23.960938 20.613281 24.152344 20.871094 24.246094 21.191406 C 24.277344 21.320312 24.085938 21.542969 24.023438 21.703125 C 23.898438 21.609375 23.679688 21.511719 23.617188 21.382812 C 23.457031 21.03125 23.425781 20.675781 23.742188 20.226562 Z M 23.742188 20.226562 " fill-opacity="0.5" fill-rule="nonzero"/><path fill="#ffffff" d="M 18.515625 23.085938 C 18.355469 22.410156 18.703125 21.992188 18.957031 21.511719 C 19.269531 22.152344 19.113281 22.699219 18.515625 23.085938 Z M 18.515625 23.085938 " fill-opacity="0.5" fill-rule="nonzero"/><path fill="#ffffff" d="M 20.6875 23.726562 C 21.035156 24.078125 20.96875 24.433594 20.84375 24.785156 C 20.8125 24.882812 20.625 24.980469 20.53125 25.011719 C 20.464844 25.011719 20.339844 24.851562 20.339844 24.722656 C 20.277344 24.367188 20.277344 23.984375 20.6875 23.726562 Z M 20.6875 23.726562 " fill-opacity="0.5" fill-rule="nonzero"/><path fill="#ffffff" d="M 23.015625 24.464844 C 23.207031 24.53125 23.394531 24.53125 23.425781 24.625 C 23.519531 24.882812 23.585938 25.140625 23.617188 25.398438 C 23.617188 25.429688 23.425781 25.523438 23.332031 25.558594 C 23.207031 25.332031 23.082031 25.140625 22.984375 24.914062 C 22.953125 24.820312 23.015625 24.65625 23.015625 24.464844 Z M 23.015625 24.464844 " fill-opacity="0.5" fill-rule="nonzero"/><path fill="#ffffff" d="M 30.101562 19.136719 C 30.449219 19.265625 30.792969 19.394531 30.730469 19.84375 C 30.730469 19.90625 30.355469 20.003906 30.226562 19.9375 C 29.820312 19.777344 29.722656 19.488281 30.101562 19.136719 Z M 30.101562 19.136719 " fill-opacity="0.5" fill-rule="nonzero"/><path fill="#ffffff" d="M 26.261719 23.375 C 26.101562 23.566406 26.007812 23.695312 25.914062 23.792969 C 25.757812 23.597656 25.566406 23.40625 25.441406 23.179688 C 25.410156 23.148438 25.726562 22.859375 25.726562 22.890625 C 25.945312 23.019531 26.070312 23.179688 26.261719 23.375 Z M 26.261719 23.375 " fill-opacity="0.5" fill-rule="nonzero"/><path fill="#ffffff" d="M 15.804688 23.339844 C 15.933594 23.214844 16.058594 23.117188 16.183594 22.988281 C 16.277344 23.054688 16.339844 23.148438 16.4375 23.214844 C 16.339844 23.339844 16.214844 23.46875 16.121094 23.628906 C 16.027344 23.535156 15.933594 23.4375 15.804688 23.339844 Z M 15.804688 23.339844 " fill-opacity="0.5" fill-rule="nonzero"/><g clip-path="url(#79b0633355)"><path fill="#ffffff" d="M 139.121094 29.695312 C 139.152344 30.082031 139.246094 30.371094 139.214844 30.625 C 139.121094 31.910156 139.027344 33.195312 138.867188 34.480469 C 138.742188 35.507812 138.554688 36.503906 138.363281 37.496094 C 138.144531 38.8125 137.546875 39.96875 136.570312 40.898438 C 134.742188 42.699219 132.664062 44.109375 130.050781 44.304688 C 127.21875 44.496094 124.445312 44.078125 121.992188 42.410156 C 121.488281 42.089844 121.078125 42.023438 120.511719 42.152344 C 117.929688 42.761719 115.378906 42.667969 112.859375 41.765625 C 110.023438 40.773438 108.578125 38.589844 108.105469 35.636719 C 107.757812 33.484375 108.167969 31.460938 108.953125 29.472656 C 109.835938 27.160156 111.0625 25.039062 112.605469 23.113281 C 113.898438 21.476562 115.535156 20.226562 117.394531 19.324219 C 118.90625 18.585938 120.511719 18.394531 122.148438 18.523438 C 123.941406 18.652344 125.675781 18.972656 127.28125 20.128906 C 127.53125 19.582031 127.785156 19.132812 127.941406 18.652344 C 128.257812 17.65625 128.917969 17.015625 129.894531 16.789062 C 130.335938 16.726562 130.839844 16.855469 131.28125 17.015625 C 131.59375 17.144531 131.59375 17.496094 131.3125 17.6875 C 131.058594 17.882812 130.746094 18.042969 130.460938 18.105469 C 129.800781 18.234375 129.328125 18.585938 129.011719 19.164062 C 128.980469 19.230469 128.949219 19.261719 128.917969 19.324219 C 128.664062 19.773438 128.257812 20.226562 128.257812 20.640625 C 128.289062 21.027344 128.824219 21.347656 129.105469 21.703125 C 130.871094 23.886719 131.65625 26.355469 131.121094 29.214844 C 130.933594 30.242188 130.746094 31.269531 130.523438 32.390625 C 133.390625 31.492188 136.222656 30.59375 139.121094 29.695312 Z M 124.886719 22.921875 C 124.949219 22.953125 124.980469 22.984375 125.042969 22.984375 C 124.980469 23.53125 125.042969 24.171875 124.824219 24.65625 C 124.445312 25.425781 123.941406 26.132812 123.40625 26.804688 C 122.996094 27.351562 122.398438 27.738281 122.085938 28.316406 C 121.421875 29.535156 120.542969 30.464844 119.472656 31.332031 C 118.808594 31.878906 118.242188 32.617188 117.707031 33.324219 C 117.332031 33.804688 117.046875 34.414062 116.730469 34.960938 C 116.257812 35.761719 115.660156 36.4375 114.90625 37.046875 C 114.371094 37.496094 113.898438 38.074219 113.550781 38.652344 C 113.109375 39.359375 112.796875 40.128906 112.417969 40.964844 C 113.171875 41.222656 113.960938 41.476562 114.78125 41.765625 C 114.78125 41.703125 114.75 41.671875 114.75 41.605469 C 114.875 41.476562 115 41.351562 115.15625 41.253906 C 115.441406 41.09375 115.785156 41.027344 116.007812 40.804688 C 116.730469 40.097656 117.457031 39.390625 118.148438 38.652344 C 118.273438 38.523438 118.304688 38.203125 118.242188 38.011719 C 118.117188 37.625 117.929688 37.273438 117.738281 36.855469 C 117.992188 36.695312 118.179688 36.535156 118.402344 36.4375 C 119.21875 36.117188 120.007812 35.699219 120.855469 35.539062 C 121.925781 35.3125 122.589844 34.734375 122.964844 33.707031 C 123.535156 32.167969 124.636719 31.042969 125.925781 30.082031 C 126.019531 30.015625 126.148438 30.015625 126.304688 29.984375 C 125.675781 31.492188 125.078125 32.90625 124.445312 34.382812 C 125.234375 34.125 126.019531 33.835938 126.808594 33.644531 C 127.53125 33.484375 127.910156 33.097656 128.035156 32.359375 C 128.257812 31.042969 128.539062 29.761719 128.792969 28.445312 C 128.855469 28.21875 128.949219 27.996094 129.074219 27.707031 C 129.136719 28.347656 129.296875 28.894531 129.199219 29.375 C 129.042969 30.433594 128.761719 31.492188 128.539062 32.554688 C 128.507812 32.714844 128.445312 32.875 128.414062 33.035156 C 129.296875 33.003906 129.800781 32.585938 129.957031 31.71875 C 130.082031 31.011719 130.273438 30.304688 130.398438 29.597656 C 130.871094 27.253906 130.585938 25.039062 129.265625 23.019531 C 128.824219 22.375 128.351562 21.765625 127.753906 21.316406 C 127.40625 21.667969 127.15625 22.023438 126.808594 22.28125 C 126.683594 22.375 126.367188 22.214844 126.113281 22.183594 C 126.179688 21.957031 126.179688 21.734375 126.273438 21.542969 C 126.460938 21.253906 126.683594 20.964844 126.902344 20.675781 C 125.925781 19.96875 124.886719 19.453125 123.722656 19.324219 C 122.683594 19.199219 121.644531 19.164062 120.605469 19.070312 C 119.503906 18.972656 118.496094 19.324219 117.519531 19.808594 C 115.691406 20.769531 114.117188 21.992188 112.859375 23.660156 C 111.472656 25.457031 110.339844 27.417969 109.519531 29.535156 C 108.890625 31.140625 108.480469 32.808594 108.578125 34.574219 C 108.609375 35.441406 108.765625 36.339844 109.207031 37.113281 C 109.332031 36.824219 109.394531 36.535156 109.394531 36.246094 C 109.488281 35.023438 109.742188 33.835938 110.464844 32.875 C 111.472656 31.527344 112.164062 30.015625 112.699219 28.410156 C 113.203125 26.902344 114.148438 25.683594 115.535156 24.878906 C 116.542969 24.300781 117.644531 23.789062 118.683594 23.242188 C 119.21875 22.953125 119.722656 22.664062 120.257812 22.375 C 120.480469 22.246094 120.730469 22.152344 120.953125 22.023438 C 120.984375 22.085938 121.015625 22.117188 121.046875 22.183594 C 120.824219 22.40625 120.605469 22.601562 120.320312 22.890625 C 121.171875 22.664062 121.613281 22.117188 121.957031 21.316406 C 122.117188 21.957031 121.894531 22.375 121.550781 22.632812 C 121.171875 22.921875 120.761719 23.179688 120.351562 23.371094 C 119.566406 23.722656 118.746094 23.980469 117.960938 24.300781 C 117.675781 24.429688 117.394531 24.625 117.171875 24.816406 C 116.574219 25.296875 116.039062 25.875 115.410156 26.324219 C 114.78125 26.773438 114.402344 27.320312 114.148438 28.058594 C 113.898438 28.925781 113.550781 29.792969 113.171875 30.59375 C 112.386719 32.328125 111.535156 34.03125 110.75 35.761719 C 110.6875 35.890625 110.65625 36.019531 110.625 36.117188 C 110.402344 36.886719 110.183594 37.65625 109.992188 38.460938 C 109.960938 38.621094 109.960938 38.8125 110.054688 38.941406 C 110.433594 39.519531 110.90625 39.96875 111.503906 40.324219 C 112.070312 39.101562 112.605469 37.945312 113.140625 36.789062 C 113.644531 35.699219 114.339844 34.769531 115.347656 34.125 C 116.289062 33.515625 117.015625 32.679688 117.550781 31.71875 C 118.242188 30.5 119.1875 29.535156 120.351562 28.796875 C 121.078125 28.316406 121.894531 27.929688 122.335938 27.09375 C 122.398438 27 122.492188 26.96875 122.589844 26.871094 C 122.902344 26.550781 123.28125 26.261719 123.503906 25.90625 C 123.910156 25.167969 124.257812 24.335938 124.605469 23.5625 C 124.699219 23.371094 124.792969 23.144531 124.886719 22.921875 Z M 118.464844 36.953125 C 118.683594 37.402344 118.9375 37.722656 119.03125 38.105469 C 119.21875 38.910156 119.691406 39.488281 120.351562 39.871094 C 121.015625 40.289062 121.707031 40.644531 122.398438 40.964844 C 126.683594 43.019531 130.808594 42.632812 134.871094 40.257812 C 136.316406 39.390625 137.292969 38.140625 137.828125 36.535156 C 138.492188 34.609375 138.113281 32.554688 138.425781 30.5 C 137.859375 30.691406 137.421875 30.820312 136.980469 30.980469 C 131.375 32.746094 125.738281 34.542969 120.132812 36.308594 C 119.535156 36.503906 119 36.757812 118.464844 36.953125 Z M 121.171875 41.027344 C 123.722656 43.277344 126.777344 43.949219 129.988281 43.726562 C 132.855469 43.5 135.058594 41.863281 136.886719 39.679688 C 137.136719 39.390625 137.261719 39.007812 137.453125 38.652344 C 135.371094 41.09375 132.695312 42.214844 129.703125 42.667969 C 126.714844 43.179688 123.847656 42.539062 121.171875 41.027344 Z M 111.914062 40.355469 C 111.976562 40.417969 112.070312 40.449219 112.132812 40.515625 C 112.355469 40.128906 112.636719 39.777344 112.796875 39.359375 C 113.203125 38.105469 113.960938 37.175781 115 36.40625 C 116.070312 35.601562 116.574219 34.351562 117.203125 33.226562 C 116.195312 34.351562 114.652344 34.863281 113.929688 36.308594 C 113.234375 37.625 112.574219 38.972656 111.914062 40.355469 Z M 120.667969 41.511719 C 120.101562 40.964844 119.597656 40.515625 119.15625 40.066406 C 118.527344 40.449219 117.960938 40.898438 117.300781 41.15625 C 116.667969 41.414062 115.976562 41.476562 115.347656 41.605469 C 115.347656 41.671875 115.378906 41.703125 115.378906 41.765625 C 117.109375 42.089844 118.839844 41.960938 120.667969 41.511719 Z M 109.613281 38.074219 C 109.898438 36.597656 110.625 35.3125 111.191406 33.964844 C 111.820312 32.519531 112.480469 31.109375 113.140625 29.695312 C 113.488281 28.925781 113.710938 28.058594 113.960938 27.253906 C 113.898438 27.222656 113.804688 27.191406 113.742188 27.191406 C 113.425781 28.027344 113.140625 28.859375 112.765625 29.664062 C 112.355469 30.5625 112.007812 31.558594 111.410156 32.296875 C 110.023438 33.996094 109.960938 36.050781 109.613281 38.074219 Z M 122.839844 34.832031 C 123.910156 34.640625 125.109375 32.746094 125.265625 31.171875 C 124.039062 32.105469 123.503906 33.453125 122.839844 34.832031 Z M 117.800781 32.199219 C 118.496094 31.621094 119.09375 31.078125 119.722656 30.59375 C 120.667969 29.855469 121.109375 29.308594 121.234375 28.796875 C 119.816406 29.597656 118.621094 30.625 117.800781 32.199219 Z M 118.527344 39.132812 C 117.867188 39.808594 117.234375 40.449219 116.699219 41.027344 C 117.234375 40.933594 117.800781 40.578125 118.335938 40.160156 C 118.90625 39.679688 118.90625 39.679688 118.527344 39.132812 Z M 128.570312 18.714844 C 128.980469 17.847656 129.800781 17.65625 130.617188 17.464844 C 129.769531 17.175781 128.917969 17.6875 128.570312 18.714844 Z M 114.78125 26.003906 C 114.8125 26.066406 114.84375 26.101562 114.875 26.164062 C 115.378906 25.8125 115.851562 25.457031 116.355469 25.136719 C 116.320312 25.074219 116.289062 25.039062 116.257812 24.976562 C 115.753906 25.328125 115.285156 25.683594 114.78125 26.003906 Z M 114.78125 26.003906 " fill-opacity="0.5" fill-rule="nonzero"/></g><g clip-path="url(#56e8bb6249)"><path fill="#ffffff" d="M 135.65625 33.355469 C 136.003906 33.484375 136.347656 33.613281 136.285156 34.0625 C 136.285156 34.125 135.90625 34.222656 135.78125 34.160156 C 135.371094 33.996094 135.277344 33.707031 135.65625 33.355469 Z M 135.65625 33.355469 " fill-opacity="0.5" fill-rule="nonzero"/></g><g clip-path="url(#284f76cfdf)"><path fill="#ffffff" d="M 456.402344 -9.3125 C 457.265625 -9.800781 457.59375 -10.511719 457.859375 -11.285156 C 458.160156 -12.226562 458.820312 -12.773438 459.78125 -13 C 460.644531 -13.195312 461.238281 -12.9375 461.738281 -12.191406 C 461.96875 -11.835938 462.265625 -11.480469 462.597656 -11.191406 C 463.792969 -10.1875 463.921875 -8.410156 462.796875 -7.277344 C 462.433594 -6.921875 462.070312 -6.566406 461.636719 -6.242188 C 461.207031 -5.886719 461.074219 -5.464844 461.273438 -4.949219 C 461.339844 -4.820312 461.371094 -4.65625 461.4375 -4.527344 C 462.199219 -2.554688 461.636719 -0.742188 459.78125 0.386719 C 459.21875 0.742188 458.621094 1.003906 458.058594 1.292969 C 457.332031 1.683594 457.066406 2.265625 457.199219 3.039062 C 457.265625 3.558594 457.429688 3.65625 457.894531 3.394531 C 458.65625 2.976562 459.449219 3.007812 460.28125 3.167969 C 461.703125 3.429688 462.730469 4.140625 463.359375 5.464844 C 463.757812 6.371094 464.023438 7.277344 464.054688 8.28125 C 464.089844 9.410156 463.625 10.382812 462.832031 11.191406 C 462.566406 11.449219 462.300781 11.738281 462.070312 12.03125 C 461.636719 12.546875 461.570312 13.128906 461.871094 13.746094 C 462.101562 14.261719 462.332031 14.8125 462.433594 15.363281 C 462.53125 15.816406 462.566406 16.363281 462.367188 16.785156 C 461.703125 18.207031 462.167969 19.503906 462.765625 20.761719 C 462.898438 21.023438 463.03125 21.28125 463.128906 21.539062 C 463.292969 22.089844 463.527344 22.542969 464.15625 22.734375 C 464.386719 22.800781 464.519531 23.09375 464.621094 23.382812 C 464.222656 23.222656 463.757812 23.09375 463.394531 22.832031 C 463.097656 22.640625 462.796875 22.347656 462.664062 22.058594 C 462.367188 21.34375 461.96875 20.699219 461.339844 20.179688 C 460.28125 19.339844 460.015625 18.273438 460.609375 17.042969 C 460.941406 16.363281 460.777344 15.75 460.410156 15.105469 C 460.179688 14.683594 460.015625 14.230469 459.914062 13.777344 C 459.78125 13.066406 459.75 13.035156 458.988281 13.035156 C 457.429688 13.066406 456.136719 12.484375 455.144531 11.320312 C 453.621094 9.574219 453.519531 6.792969 454.945312 4.949219 C 455.277344 4.527344 455.078125 3.847656 454.449219 3.65625 C 454.050781 3.527344 453.621094 3.527344 453.1875 3.558594 C 452.757812 3.589844 452.359375 3.71875 451.929688 3.816406 C 450.605469 4.109375 449.542969 3.6875 448.714844 2.652344 C 448.054688 1.777344 447.191406 1.550781 446.199219 2.039062 C 445.769531 2.230469 445.402344 2.523438 444.972656 2.75 C 443.746094 3.429688 442.519531 3.6875 441.164062 3.105469 C 440.070312 2.71875 439.472656 1.941406 439.273438 0.875 C 439.242188 0.648438 439.339844 0.257812 439.507812 0.128906 C 439.9375 -0.257812 440.464844 -0.550781 441.03125 -0.9375 C 440.765625 -1.648438 440.765625 -2.425781 441.128906 -3.203125 C 441.261719 -3.460938 440.996094 -3.945312 440.796875 -4.269531 C 440.566406 -4.625 440.167969 -4.882812 439.871094 -5.207031 C 439.007812 -6.144531 439.207031 -6.984375 440.367188 -7.503906 C 442.355469 -8.375 445.800781 -8.246094 447.625 -5.886719 C 447.886719 -5.5625 448.253906 -5.304688 448.617188 -4.980469 C 448.980469 -6.371094 449.378906 -7.601562 449.609375 -8.859375 C 449.710938 -9.410156 449.445312 -10.058594 449.28125 -10.640625 C 449.113281 -11.320312 448.816406 -11.964844 448.683594 -12.644531 C 448.617188 -13 448.714844 -13.390625 448.847656 -13.710938 C 449.148438 -14.390625 449.644531 -14.648438 450.375 -14.390625 C 451.234375 -14.101562 452.0625 -13.9375 452.992188 -14.066406 C 453.917969 -14.230469 454.582031 -13.582031 454.976562 -12.871094 C 455.476562 -11.933594 455.839844 -10.929688 456.238281 -9.960938 C 456.304688 -9.800781 456.335938 -9.605469 456.402344 -9.3125 Z M 461.273438 8.441406 C 461.207031 8.410156 461.171875 8.34375 461.105469 8.3125 C 461.273438 8.148438 461.4375 7.988281 461.605469 7.792969 C 461.96875 7.375 462.300781 6.921875 462.632812 6.5 C 462.730469 6.371094 462.765625 6.144531 462.699219 6.015625 C 462.398438 5.335938 462.035156 4.65625 461.304688 4.300781 C 460.3125 3.847656 459.253906 3.65625 458.160156 4.011719 C 457.199219 4.300781 456.835938 4.171875 456.269531 3.332031 C 456.105469 3.074219 456.003906 2.75 455.871094 2.425781 C 455.609375 1.777344 455.441406 1.101562 455.109375 0.453125 C 454.613281 -0.550781 454.316406 -1.617188 454.414062 -2.714844 C 454.449219 -3.265625 454.480469 -3.816406 454.515625 -4.367188 C 454.613281 -6.144531 454.28125 -7.828125 453.355469 -9.378906 C 452.957031 -9.992188 452.527344 -10.574219 452.128906 -11.191406 C 452.03125 -11.320312 451.996094 -11.480469 451.898438 -11.644531 C 451.929688 -11.675781 451.996094 -11.707031 452.03125 -11.738281 C 452.164062 -11.644531 452.328125 -11.546875 452.425781 -11.449219 C 453.820312 -9.929688 454.878906 -8.214844 455.011719 -6.113281 C 455.078125 -4.820312 455.011719 -3.523438 455.011719 -2.230469 C 455.011719 -1.066406 455.441406 0 456.003906 1.164062 C 456.4375 0.453125 456.867188 -0.128906 457.164062 -0.777344 C 457.925781 -2.394531 458.09375 -4.074219 457.066406 -5.628906 C 456.304688 -6.757812 455.871094 -7.988281 455.640625 -9.28125 C 455.441406 -10.382812 455.109375 -11.449219 454.480469 -12.417969 C 453.953125 -13.257812 453.421875 -13.484375 452.394531 -13.355469 C 452.03125 -13.324219 451.632812 -13.390625 451.265625 -13.453125 C 450.96875 -13.519531 450.671875 -13.679688 450.375 -13.746094 C 449.808594 -13.9375 449.476562 -13.777344 449.378906 -13.226562 C 449.3125 -12.9375 449.347656 -12.613281 449.414062 -12.320312 C 449.511719 -11.933594 449.675781 -11.511719 449.875 -11.15625 C 450.539062 -9.894531 450.539062 -8.636719 450.007812 -7.339844 C 449.542969 -6.175781 449.445312 -4.980469 449.578125 -3.785156 C 449.910156 -1.617188 450.769531 0.160156 453.023438 0.96875 C 454.449219 1.488281 455.210938 2.683594 456.105469 3.75 C 456.238281 3.914062 456.238281 4.203125 456.269531 4.398438 C 456.203125 4.429688 456.136719 4.429688 456.070312 4.464844 C 455.839844 4.203125 455.609375 3.945312 455.410156 3.6875 C 455.675781 4.429688 455.609375 5.046875 455.144531 5.691406 C 454.84375 6.144531 454.746094 6.726562 454.582031 7.246094 C 454.648438 7.308594 454.714844 7.375 454.777344 7.4375 C 455.839844 7.082031 456.898438 6.726562 457.925781 6.339844 C 457.066406 7.375 455.871094 7.632812 454.648438 7.828125 C 454.347656 9.445312 455.375 11.253906 456.933594 11.933594 C 457.398438 12.128906 457.859375 12.226562 458.292969 12 C 458.921875 11.707031 459.550781 11.417969 460.179688 11.125 C 460.347656 11.0625 460.511719 10.964844 460.644531 10.867188 C 460.675781 10.933594 460.710938 10.964844 460.742188 11.027344 C 460.410156 11.707031 459.648438 11.902344 459.019531 12.324219 C 460.179688 12.484375 460.179688 12.546875 460.410156 13.617188 C 460.476562 14.035156 460.644531 14.457031 460.910156 14.8125 C 461.472656 15.652344 461.570312 16.460938 461.171875 17.398438 C 461.074219 17.660156 460.976562 17.886719 460.941406 18.144531 C 460.875 18.5625 460.941406 18.953125 461.238281 19.277344 C 461.304688 18.628906 461.207031 17.949219 461.4375 17.367188 C 461.902344 16.269531 461.738281 15.234375 461.207031 14.261719 C 460.609375 13.128906 460.875 12.191406 461.671875 11.289062 C 462.003906 10.933594 462.332031 10.574219 462.632812 10.1875 C 463.128906 9.507812 463.292969 8.765625 463.164062 7.925781 C 460.710938 10.21875 460.710938 10.21875 459.882812 10.15625 C 460.179688 9.960938 460.410156 9.832031 460.609375 9.671875 C 461.503906 9.089844 462.332031 8.441406 462.832031 7.503906 C 462.964844 7.277344 463.128906 7.019531 462.863281 6.726562 C 462.5 7.472656 462.035156 8.085938 461.273438 8.441406 Z M 441.59375 -5.496094 C 441.625 -5.5625 441.691406 -5.59375 441.726562 -5.660156 C 442.15625 -5.464844 442.585938 -5.304688 443.019531 -5.109375 C 443.449219 -4.914062 443.914062 -4.722656 444.277344 -4.398438 C 444.640625 -4.074219 444.875 -3.621094 445.203125 -3.265625 C 445.867188 -2.621094 446.53125 -1.941406 447.226562 -1.359375 C 447.953125 -0.777344 448.847656 -0.679688 449.644531 -0.613281 C 449.347656 -1.746094 449.082031 -2.878906 448.78125 -3.976562 C 448.75 -4.140625 448.515625 -4.269531 448.351562 -4.398438 C 447.953125 -4.6875 447.457031 -4.949219 447.125 -5.304688 C 445.503906 -7.148438 443.050781 -7.761719 440.730469 -6.886719 C 439.9375 -6.566406 439.835938 -6.242188 440.398438 -5.628906 C 440.699219 -5.269531 441.097656 -4.980469 441.394531 -4.625 C 441.859375 -4.074219 442.121094 -3.460938 441.757812 -2.75 C 441.296875 -1.777344 441.558594 -0.90625 442.421875 -0.257812 C 443.414062 0.519531 444.574219 0.710938 445.800781 0.648438 C 447.257812 0.582031 448.484375 0.90625 449.28125 2.265625 C 449.742188 3.074219 450.605469 3.363281 451.566406 3.167969 C 452.527344 2.976562 453.453125 2.652344 454.480469 2.945312 C 454.117188 2.359375 453.652344 1.972656 453.054688 1.746094 C 452.425781 1.457031 451.765625 1.195312 451.203125 0.808594 C 450.539062 0.324219 449.84375 0.0664062 449.015625 0 C 447.921875 -0.0976562 446.960938 -0.515625 446.199219 -1.261719 C 445.667969 -1.777344 445.136719 -2.296875 444.773438 -2.910156 C 444.210938 -3.785156 443.582031 -4.527344 442.488281 -4.851562 C 442.15625 -4.980469 441.890625 -5.269531 441.59375 -5.496094 Z M 456.867188 1.230469 C 457.332031 0.9375 457.761719 0.679688 458.191406 0.421875 C 458.621094 0.160156 459.085938 -0.03125 459.484375 -0.289062 C 460.941406 -1.261719 461.371094 -2.652344 460.742188 -4.269531 C 460.644531 -4.496094 460.578125 -4.722656 460.511719 -4.949219 C 460.3125 -5.660156 460.476562 -6.242188 461.074219 -6.726562 C 461.472656 -7.050781 461.871094 -7.375 462.234375 -7.761719 C 463.128906 -8.667969 463.03125 -9.929688 462.070312 -10.769531 C 461.703125 -11.09375 461.4375 -11.480469 461.140625 -11.902344 C 460.777344 -12.417969 460.445312 -12.546875 459.816406 -12.355469 C 459.1875 -12.160156 458.789062 -11.773438 458.589844 -11.15625 C 458.324219 -10.316406 457.925781 -9.574219 457.230469 -8.992188 C 457.097656 -8.859375 457.03125 -8.636719 456.964844 -8.410156 C 456.703125 -7.664062 457.066406 -7.050781 457.464844 -6.46875 C 458.125 -5.53125 458.492188 -4.527344 458.523438 -3.394531 C 458.523438 -3.203125 458.523438 -2.976562 458.523438 -2.621094 C 458.6875 -2.8125 458.753906 -2.878906 458.789062 -2.941406 C 459.253906 -3.71875 459.351562 -4.558594 459.085938 -5.433594 C 458.492188 -7.308594 459.382812 -8.765625 460.410156 -10.21875 C 460.347656 -9.765625 460.214844 -9.347656 459.980469 -8.957031 C 459.285156 -7.792969 459.1875 -6.597656 459.550781 -5.335938 C 459.78125 -4.527344 459.683594 -3.75 459.320312 -3.039062 C 459.054688 -2.488281 458.6875 -1.972656 458.390625 -1.421875 C 457.859375 -0.515625 457.363281 0.355469 456.867188 1.230469 Z M 443.8125 1.421875 C 443.8125 1.390625 443.8125 1.328125 443.8125 1.292969 C 443.214844 0.9375 442.585938 0.613281 441.992188 0.226562 C 441.328125 -0.226562 440.730469 -0.226562 440.167969 0.386719 C 440.035156 0.519531 439.96875 0.808594 440.003906 1.003906 C 440.167969 1.8125 440.664062 2.328125 441.460938 2.585938 C 442.953125 3.074219 444.210938 2.554688 445.4375 1.585938 C 443.214844 1.972656 441.824219 1.972656 441.527344 1.230469 C 442.289062 1.292969 443.050781 1.359375 443.8125 1.421875 Z M 443.8125 1.421875 " fill-opacity="0.5" fill-rule="nonzero"/></g><path fill="#ffffff" d="M 461.042969 5.207031 C 460.875 6.46875 458.160156 8.34375 457 7.957031 C 457.726562 7.566406 458.492188 7.277344 459.152344 6.824219 C 459.816406 6.371094 460.378906 5.789062 461.042969 5.207031 Z M 461.042969 5.207031 " fill-opacity="0.5" fill-rule="nonzero"/><g clip-path="url(#11bd1f6521)"><path fill="#ffffff" d="M 77.621094 -9.3125 C 78.484375 -9.800781 78.816406 -10.511719 79.078125 -11.285156 C 79.378906 -12.226562 80.042969 -12.773438 81.003906 -13 C 81.863281 -13.195312 82.460938 -12.9375 82.957031 -12.191406 C 83.1875 -11.835938 83.488281 -11.480469 83.816406 -11.191406 C 85.011719 -10.1875 85.144531 -8.410156 84.015625 -7.277344 C 83.652344 -6.921875 83.289062 -6.566406 82.859375 -6.242188 C 82.425781 -5.886719 82.292969 -5.464844 82.492188 -4.949219 C 82.558594 -4.820312 82.59375 -4.65625 82.660156 -4.527344 C 83.421875 -2.554688 82.859375 -0.742188 81.003906 0.386719 C 80.4375 0.742188 79.84375 1.003906 79.277344 1.292969 C 78.550781 1.683594 78.285156 2.265625 78.417969 3.039062 C 78.484375 3.558594 78.648438 3.65625 79.113281 3.394531 C 79.875 2.976562 80.671875 3.007812 81.5 3.167969 C 82.921875 3.429688 83.949219 4.140625 84.582031 5.464844 C 84.976562 6.371094 85.242188 7.277344 85.277344 8.28125 C 85.308594 9.410156 84.84375 10.382812 84.050781 11.191406 C 83.785156 11.449219 83.519531 11.738281 83.289062 12.03125 C 82.859375 12.546875 82.792969 13.128906 83.089844 13.746094 C 83.320312 14.261719 83.554688 14.8125 83.652344 15.363281 C 83.75 15.816406 83.785156 16.363281 83.585938 16.785156 C 82.921875 18.207031 83.386719 19.503906 83.984375 20.761719 C 84.117188 21.023438 84.25 21.28125 84.347656 21.539062 C 84.515625 22.089844 84.746094 22.542969 85.375 22.734375 C 85.605469 22.800781 85.738281 23.09375 85.839844 23.382812 C 85.441406 23.222656 84.976562 23.09375 84.613281 22.832031 C 84.316406 22.640625 84.015625 22.347656 83.882812 22.058594 C 83.585938 21.34375 83.1875 20.699219 82.558594 20.179688 C 81.5 19.339844 81.234375 18.273438 81.832031 17.042969 C 82.160156 16.363281 81.996094 15.75 81.632812 15.105469 C 81.398438 14.683594 81.234375 14.230469 81.136719 13.777344 C 81.003906 13.066406 80.96875 13.035156 80.207031 13.035156 C 78.648438 13.066406 77.355469 12.484375 76.363281 11.320312 C 74.839844 9.574219 74.738281 6.792969 76.164062 4.949219 C 76.496094 4.527344 76.296875 3.847656 75.667969 3.65625 C 75.269531 3.527344 74.839844 3.527344 74.410156 3.558594 C 73.976562 3.589844 73.582031 3.71875 73.148438 3.816406 C 71.824219 4.109375 70.765625 3.6875 69.9375 2.652344 C 69.273438 1.777344 68.410156 1.550781 67.417969 2.039062 C 66.988281 2.230469 66.621094 2.523438 66.191406 2.75 C 64.964844 3.429688 63.742188 3.6875 62.382812 3.105469 C 61.289062 2.71875 60.691406 1.941406 60.492188 0.875 C 60.460938 0.648438 60.558594 0.257812 60.726562 0.128906 C 61.15625 -0.257812 61.6875 -0.550781 62.25 -0.9375 C 61.984375 -1.648438 61.984375 -2.425781 62.347656 -3.203125 C 62.480469 -3.460938 62.214844 -3.945312 62.019531 -4.269531 C 61.785156 -4.625 61.386719 -4.882812 61.089844 -5.207031 C 60.230469 -6.144531 60.425781 -6.984375 61.585938 -7.503906 C 63.574219 -8.375 67.019531 -8.246094 68.84375 -5.886719 C 69.109375 -5.5625 69.472656 -5.304688 69.835938 -4.980469 C 70.199219 -6.371094 70.597656 -7.601562 70.832031 -8.859375 C 70.929688 -9.410156 70.664062 -10.058594 70.5 -10.640625 C 70.332031 -11.320312 70.035156 -11.964844 69.902344 -12.644531 C 69.835938 -13 69.9375 -13.390625 70.070312 -13.710938 C 70.367188 -14.390625 70.863281 -14.648438 71.59375 -14.390625 C 72.453125 -14.101562 73.28125 -13.9375 74.210938 -14.066406 C 75.136719 -14.230469 75.800781 -13.582031 76.199219 -12.871094 C 76.695312 -11.933594 77.058594 -10.929688 77.457031 -9.960938 C 77.523438 -9.800781 77.554688 -9.605469 77.621094 -9.3125 Z M 82.492188 8.441406 C 82.425781 8.410156 82.394531 8.34375 82.328125 8.3125 C 82.492188 8.148438 82.660156 7.988281 82.824219 7.792969 C 83.1875 7.375 83.519531 6.921875 83.851562 6.5 C 83.949219 6.371094 83.984375 6.144531 83.917969 6.015625 C 83.617188 5.335938 83.253906 4.65625 82.527344 4.300781 C 81.53125 3.847656 80.472656 3.65625 79.378906 4.011719 C 78.417969 4.300781 78.054688 4.171875 77.488281 3.332031 C 77.324219 3.074219 77.226562 2.75 77.09375 2.425781 C 76.828125 1.777344 76.660156 1.101562 76.332031 0.453125 C 75.832031 -0.550781 75.535156 -1.617188 75.632812 -2.714844 C 75.667969 -3.265625 75.699219 -3.816406 75.734375 -4.367188 C 75.832031 -6.144531 75.503906 -7.828125 74.574219 -9.378906 C 74.175781 -9.992188 73.746094 -10.574219 73.347656 -11.191406 C 73.25 -11.320312 73.214844 -11.480469 73.117188 -11.644531 C 73.148438 -11.675781 73.214844 -11.707031 73.25 -11.738281 C 73.382812 -11.644531 73.546875 -11.546875 73.648438 -11.449219 C 75.039062 -9.929688 76.097656 -8.214844 76.230469 -6.113281 C 76.296875 -4.820312 76.230469 -3.523438 76.230469 -2.230469 C 76.230469 -1.066406 76.660156 0 77.226562 1.164062 C 77.65625 0.453125 78.085938 -0.128906 78.382812 -0.777344 C 79.144531 -2.394531 79.3125 -4.074219 78.285156 -5.628906 C 77.523438 -6.757812 77.09375 -7.988281 76.859375 -9.28125 C 76.660156 -10.382812 76.332031 -11.449219 75.699219 -12.417969 C 75.171875 -13.257812 74.640625 -13.484375 73.613281 -13.355469 C 73.25 -13.324219 72.851562 -13.390625 72.488281 -13.453125 C 72.1875 -13.519531 71.890625 -13.679688 71.59375 -13.746094 C 71.03125 -13.9375 70.699219 -13.777344 70.597656 -13.226562 C 70.53125 -12.9375 70.566406 -12.613281 70.632812 -12.320312 C 70.730469 -11.933594 70.898438 -11.511719 71.09375 -11.15625 C 71.757812 -9.894531 71.757812 -8.636719 71.226562 -7.339844 C 70.765625 -6.175781 70.664062 -4.980469 70.796875 -3.785156 C 71.128906 -1.617188 71.988281 0.160156 74.242188 0.96875 C 75.667969 1.488281 76.429688 2.683594 77.324219 3.75 C 77.457031 3.914062 77.457031 4.203125 77.488281 4.398438 C 77.421875 4.429688 77.355469 4.429688 77.289062 4.464844 C 77.058594 4.203125 76.828125 3.945312 76.628906 3.6875 C 76.894531 4.429688 76.828125 5.046875 76.363281 5.691406 C 76.066406 6.144531 75.964844 6.726562 75.800781 7.246094 C 75.867188 7.308594 75.933594 7.375 76 7.4375 C 77.058594 7.082031 78.121094 6.726562 79.144531 6.339844 C 78.285156 7.375 77.09375 7.632812 75.867188 7.828125 C 75.570312 9.445312 76.59375 11.253906 78.152344 11.933594 C 78.617188 12.128906 79.078125 12.226562 79.511719 12 C 80.140625 11.707031 80.769531 11.417969 81.398438 11.125 C 81.566406 11.0625 81.730469 10.964844 81.863281 10.867188 C 81.894531 10.933594 81.929688 10.964844 81.960938 11.027344 C 81.632812 11.707031 80.871094 11.902344 80.238281 12.324219 C 81.398438 12.484375 81.398438 12.546875 81.632812 13.617188 C 81.699219 14.035156 81.863281 14.457031 82.128906 14.8125 C 82.691406 15.652344 82.792969 16.460938 82.394531 17.398438 C 82.292969 17.660156 82.195312 17.886719 82.160156 18.144531 C 82.09375 18.5625 82.160156 18.953125 82.460938 19.277344 C 82.527344 18.628906 82.425781 17.949219 82.660156 17.367188 C 83.121094 16.269531 82.957031 15.234375 82.425781 14.261719 C 81.832031 13.128906 82.09375 12.191406 82.890625 11.289062 C 83.222656 10.933594 83.554688 10.574219 83.851562 10.1875 C 84.347656 9.507812 84.515625 8.765625 84.382812 7.925781 C 81.929688 10.21875 81.929688 10.21875 81.101562 10.15625 C 81.398438 9.960938 81.632812 9.832031 81.832031 9.671875 C 82.726562 9.089844 83.554688 8.441406 84.050781 7.503906 C 84.183594 7.277344 84.347656 7.019531 84.082031 6.726562 C 83.71875 7.472656 83.253906 8.085938 82.492188 8.441406 Z M 62.8125 -5.496094 C 62.847656 -5.5625 62.914062 -5.59375 62.945312 -5.660156 C 63.375 -5.464844 63.808594 -5.304688 64.238281 -5.109375 C 64.667969 -4.914062 65.132812 -4.722656 65.496094 -4.398438 C 65.859375 -4.074219 66.09375 -3.621094 66.425781 -3.265625 C 67.085938 -2.621094 67.75 -1.941406 68.445312 -1.359375 C 69.175781 -0.777344 70.070312 -0.679688 70.863281 -0.613281 C 70.566406 -1.746094 70.300781 -2.878906 70.003906 -3.976562 C 69.96875 -4.140625 69.738281 -4.269531 69.570312 -4.398438 C 69.175781 -4.6875 68.675781 -4.949219 68.347656 -5.304688 C 66.722656 -7.148438 64.269531 -7.761719 61.953125 -6.886719 C 61.15625 -6.566406 61.058594 -6.242188 61.621094 -5.628906 C 61.917969 -5.269531 62.316406 -4.980469 62.613281 -4.625 C 63.078125 -4.074219 63.34375 -3.460938 62.976562 -2.75 C 62.515625 -1.777344 62.78125 -0.90625 63.640625 -0.257812 C 64.636719 0.519531 65.792969 0.710938 67.019531 0.648438 C 68.476562 0.582031 69.703125 0.90625 70.5 2.265625 C 70.964844 3.074219 71.824219 3.363281 72.785156 3.167969 C 73.746094 2.976562 74.675781 2.652344 75.699219 2.945312 C 75.335938 2.359375 74.871094 1.972656 74.277344 1.746094 C 73.648438 1.457031 72.984375 1.195312 72.421875 0.808594 C 71.757812 0.324219 71.0625 0.0664062 70.234375 0 C 69.140625 -0.0976562 68.179688 -0.515625 67.417969 -1.261719 C 66.886719 -1.777344 66.359375 -2.296875 65.992188 -2.910156 C 65.429688 -3.785156 64.800781 -4.527344 63.707031 -4.851562 C 63.375 -4.980469 63.109375 -5.269531 62.8125 -5.496094 Z M 78.085938 1.230469 C 78.550781 0.9375 78.980469 0.679688 79.410156 0.421875 C 79.84375 0.160156 80.304688 -0.03125 80.703125 -0.289062 C 82.160156 -1.261719 82.59375 -2.652344 81.960938 -4.269531 C 81.863281 -4.496094 81.796875 -4.722656 81.730469 -4.949219 C 81.53125 -5.660156 81.699219 -6.242188 82.292969 -6.726562 C 82.691406 -7.050781 83.089844 -7.375 83.453125 -7.761719 C 84.347656 -8.667969 84.25 -9.929688 83.289062 -10.769531 C 82.921875 -11.09375 82.660156 -11.480469 82.359375 -11.902344 C 81.996094 -12.417969 81.664062 -12.546875 81.035156 -12.355469 C 80.40625 -12.160156 80.007812 -11.773438 79.808594 -11.15625 C 79.542969 -10.316406 79.144531 -9.574219 78.449219 -8.992188 C 78.320312 -8.859375 78.253906 -8.636719 78.1875 -8.410156 C 77.921875 -7.664062 78.285156 -7.050781 78.683594 -6.46875 C 79.34375 -5.53125 79.710938 -4.527344 79.742188 -3.394531 C 79.742188 -3.203125 79.742188 -2.976562 79.742188 -2.621094 C 79.910156 -2.8125 79.976562 -2.878906 80.007812 -2.941406 C 80.472656 -3.71875 80.570312 -4.558594 80.304688 -5.433594 C 79.710938 -7.308594 80.605469 -8.765625 81.632812 -10.21875 C 81.566406 -9.765625 81.433594 -9.347656 81.199219 -8.957031 C 80.503906 -7.792969 80.40625 -6.597656 80.769531 -5.335938 C 81.003906 -4.527344 80.902344 -3.75 80.539062 -3.039062 C 80.273438 -2.488281 79.910156 -1.972656 79.609375 -1.421875 C 79.078125 -0.515625 78.582031 0.355469 78.085938 1.230469 Z M 65.03125 1.421875 C 65.03125 1.390625 65.03125 1.328125 65.03125 1.292969 C 64.4375 0.9375 63.808594 0.613281 63.210938 0.226562 C 62.546875 -0.226562 61.953125 -0.226562 61.386719 0.386719 C 61.253906 0.519531 61.1875 0.808594 61.222656 1.003906 C 61.386719 1.8125 61.886719 2.328125 62.679688 2.585938 C 64.171875 3.074219 65.429688 2.554688 66.65625 1.585938 C 64.4375 1.972656 63.042969 1.972656 62.746094 1.230469 C 63.507812 1.292969 64.269531 1.359375 65.03125 1.421875 Z M 65.03125 1.421875 " fill-opacity="0.5" fill-rule="nonzero"/></g><path fill="#ffffff" d="M 82.261719 5.207031 C 82.09375 6.46875 79.378906 8.34375 78.21875 7.957031 C 78.949219 7.566406 79.710938 7.277344 80.371094 6.824219 C 81.035156 6.371094 81.597656 5.789062 82.261719 5.207031 Z M 82.261719 5.207031 " fill-opacity="0.5" fill-rule="nonzero"/><g clip-path="url(#a83de2ce0f)"><path fill="#ffffff" d="M 183.175781 -9.3125 C 184.039062 -9.800781 184.371094 -10.511719 184.632812 -11.285156 C 184.933594 -12.226562 185.597656 -12.773438 186.554688 -13 C 187.417969 -13.195312 188.015625 -12.9375 188.511719 -12.191406 C 188.742188 -11.835938 189.042969 -11.480469 189.371094 -11.191406 C 190.566406 -10.1875 190.699219 -8.410156 189.570312 -7.277344 C 189.207031 -6.921875 188.84375 -6.566406 188.410156 -6.242188 C 187.980469 -5.886719 187.847656 -5.464844 188.046875 -4.949219 C 188.113281 -4.820312 188.144531 -4.65625 188.210938 -4.527344 C 188.976562 -2.554688 188.410156 -0.742188 186.554688 0.386719 C 185.992188 0.742188 185.398438 1.003906 184.832031 1.292969 C 184.105469 1.683594 183.839844 2.265625 183.972656 3.039062 C 184.039062 3.558594 184.203125 3.65625 184.667969 3.394531 C 185.429688 2.976562 186.226562 3.007812 187.054688 3.167969 C 188.476562 3.429688 189.503906 4.140625 190.136719 5.464844 C 190.53125 6.371094 190.796875 7.277344 190.832031 8.28125 C 190.863281 9.410156 190.398438 10.382812 189.605469 11.191406 C 189.339844 11.449219 189.074219 11.738281 188.84375 12.03125 C 188.410156 12.546875 188.34375 13.128906 188.644531 13.746094 C 188.875 14.261719 189.109375 14.8125 189.207031 15.363281 C 189.304688 15.816406 189.339844 16.363281 189.140625 16.785156 C 188.476562 18.207031 188.941406 19.503906 189.539062 20.761719 C 189.671875 21.023438 189.804688 21.28125 189.902344 21.539062 C 190.070312 22.089844 190.300781 22.542969 190.929688 22.734375 C 191.160156 22.800781 191.292969 23.09375 191.394531 23.382812 C 190.996094 23.222656 190.53125 23.09375 190.167969 22.832031 C 189.871094 22.640625 189.570312 22.347656 189.4375 22.058594 C 189.140625 21.34375 188.742188 20.699219 188.113281 20.179688 C 187.054688 19.339844 186.789062 18.273438 187.382812 17.042969 C 187.714844 16.363281 187.550781 15.75 187.1875 15.105469 C 186.953125 14.683594 186.789062 14.230469 186.6875 13.777344 C 186.554688 13.066406 186.523438 13.035156 185.761719 13.035156 C 184.203125 13.066406 182.910156 12.484375 181.917969 11.320312 C 180.394531 9.574219 180.292969 6.792969 181.71875 4.949219 C 182.050781 4.527344 181.851562 3.847656 181.222656 3.65625 C 180.824219 3.527344 180.394531 3.527344 179.964844 3.558594 C 179.53125 3.589844 179.136719 3.71875 178.703125 3.816406 C 177.378906 4.109375 176.320312 3.6875 175.488281 2.652344 C 174.828125 1.777344 173.964844 1.550781 172.972656 2.039062 C 172.542969 2.230469 172.175781 2.523438 171.746094 2.75 C 170.519531 3.429688 169.292969 3.6875 167.9375 3.105469 C 166.84375 2.71875 166.246094 1.941406 166.046875 0.875 C 166.015625 0.648438 166.113281 0.257812 166.28125 0.128906 C 166.710938 -0.257812 167.242188 -0.550781 167.804688 -0.9375 C 167.539062 -1.648438 167.539062 -2.425781 167.902344 -3.203125 C 168.035156 -3.460938 167.769531 -3.945312 167.570312 -4.269531 C 167.339844 -4.625 166.941406 -4.882812 166.644531 -5.207031 C 165.78125 -6.144531 165.980469 -6.984375 167.140625 -7.503906 C 169.128906 -8.375 172.574219 -8.246094 174.398438 -5.886719 C 174.664062 -5.5625 175.027344 -5.304688 175.390625 -4.980469 C 175.753906 -6.371094 176.152344 -7.601562 176.386719 -8.859375 C 176.484375 -9.410156 176.21875 -10.058594 176.054688 -10.640625 C 175.886719 -11.320312 175.589844 -11.964844 175.457031 -12.644531 C 175.390625 -13 175.488281 -13.390625 175.621094 -13.710938 C 175.921875 -14.390625 176.417969 -14.648438 177.148438 -14.390625 C 178.007812 -14.101562 178.835938 -13.9375 179.765625 -14.066406 C 180.691406 -14.230469 181.355469 -13.582031 181.753906 -12.871094 C 182.25 -11.933594 182.613281 -10.929688 183.011719 -9.960938 C 183.078125 -9.800781 183.109375 -9.605469 183.175781 -9.3125 Z M 188.046875 8.441406 C 187.980469 8.410156 187.949219 8.34375 187.882812 8.3125 C 188.046875 8.148438 188.210938 7.988281 188.378906 7.792969 C 188.742188 7.375 189.074219 6.921875 189.40625 6.5 C 189.503906 6.371094 189.539062 6.144531 189.472656 6.015625 C 189.171875 5.335938 188.808594 4.65625 188.082031 4.300781 C 187.085938 3.847656 186.027344 3.65625 184.933594 4.011719 C 183.972656 4.300781 183.609375 4.171875 183.042969 3.332031 C 182.878906 3.074219 182.78125 2.75 182.648438 2.425781 C 182.382812 1.777344 182.214844 1.101562 181.882812 0.453125 C 181.386719 -0.550781 181.089844 -1.617188 181.1875 -2.714844 C 181.222656 -3.265625 181.253906 -3.816406 181.289062 -4.367188 C 181.386719 -6.144531 181.054688 -7.828125 180.128906 -9.378906 C 179.730469 -9.992188 179.300781 -10.574219 178.902344 -11.191406 C 178.804688 -11.320312 178.769531 -11.480469 178.671875 -11.644531 C 178.703125 -11.675781 178.769531 -11.707031 178.804688 -11.738281 C 178.9375 -11.644531 179.101562 -11.546875 179.203125 -11.449219 C 180.59375 -9.929688 181.652344 -8.214844 181.785156 -6.113281 C 181.851562 -4.820312 181.785156 -3.523438 181.785156 -2.230469 C 181.785156 -1.066406 182.214844 0 182.78125 1.164062 C 183.210938 0.453125 183.640625 -0.128906 183.9375 -0.777344 C 184.699219 -2.394531 184.867188 -4.074219 183.839844 -5.628906 C 183.078125 -6.757812 182.648438 -7.988281 182.414062 -9.28125 C 182.214844 -10.382812 181.882812 -11.449219 181.253906 -12.417969 C 180.726562 -13.257812 180.195312 -13.484375 179.167969 -13.355469 C 178.804688 -13.324219 178.40625 -13.390625 178.042969 -13.453125 C 177.742188 -13.519531 177.445312 -13.679688 177.148438 -13.746094 C 176.582031 -13.9375 176.253906 -13.777344 176.152344 -13.226562 C 176.085938 -12.9375 176.121094 -12.613281 176.1875 -12.320312 C 176.285156 -11.933594 176.453125 -11.511719 176.648438 -11.15625 C 177.3125 -9.894531 177.3125 -8.636719 176.78125 -7.339844 C 176.320312 -6.175781 176.21875 -4.980469 176.351562 -3.785156 C 176.683594 -1.617188 177.542969 0.160156 179.796875 0.96875 C 181.222656 1.488281 181.984375 2.683594 182.878906 3.75 C 183.011719 3.914062 183.011719 4.203125 183.042969 4.398438 C 182.976562 4.429688 182.910156 4.429688 182.84375 4.464844 C 182.613281 4.203125 182.382812 3.945312 182.183594 3.6875 C 182.449219 4.429688 182.382812 5.046875 181.917969 5.691406 C 181.621094 6.144531 181.519531 6.726562 181.355469 7.246094 C 181.421875 7.308594 181.488281 7.375 181.554688 7.4375 C 182.613281 7.082031 183.675781 6.726562 184.699219 6.339844 C 183.839844 7.375 182.648438 7.632812 181.421875 7.828125 C 181.121094 9.445312 182.148438 11.253906 183.707031 11.933594 C 184.171875 12.128906 184.632812 12.226562 185.066406 12 C 185.695312 11.707031 186.324219 11.417969 186.953125 11.125 C 187.121094 11.0625 187.285156 10.964844 187.417969 10.867188 C 187.449219 10.933594 187.484375 10.964844 187.515625 11.027344 C 187.1875 11.707031 186.421875 11.902344 185.792969 12.324219 C 186.953125 12.484375 186.953125 12.546875 187.1875 13.617188 C 187.253906 14.035156 187.417969 14.457031 187.683594 14.8125 C 188.246094 15.652344 188.34375 16.460938 187.949219 17.398438 C 187.847656 17.660156 187.75 17.886719 187.714844 18.144531 C 187.648438 18.5625 187.714844 18.953125 188.015625 19.277344 C 188.082031 18.628906 187.980469 17.949219 188.210938 17.367188 C 188.675781 16.269531 188.511719 15.234375 187.980469 14.261719 C 187.382812 13.128906 187.648438 12.191406 188.445312 11.289062 C 188.777344 10.933594 189.109375 10.574219 189.40625 10.1875 C 189.902344 9.507812 190.070312 8.765625 189.9375 7.925781 C 187.484375 10.21875 187.484375 10.21875 186.65625 10.15625 C 186.953125 9.960938 187.1875 9.832031 187.382812 9.671875 C 188.277344 9.089844 189.109375 8.441406 189.605469 7.503906 C 189.738281 7.277344 189.902344 7.019531 189.636719 6.726562 C 189.273438 7.472656 188.808594 8.085938 188.046875 8.441406 Z M 168.367188 -5.496094 C 168.398438 -5.5625 168.464844 -5.59375 168.5 -5.660156 C 168.929688 -5.464844 169.359375 -5.304688 169.792969 -5.109375 C 170.222656 -4.914062 170.6875 -4.722656 171.050781 -4.398438 C 171.414062 -4.074219 171.648438 -3.621094 171.976562 -3.265625 C 172.640625 -2.621094 173.304688 -1.941406 174 -1.359375 C 174.726562 -0.777344 175.621094 -0.679688 176.417969 -0.613281 C 176.121094 -1.746094 175.855469 -2.878906 175.554688 -3.976562 C 175.523438 -4.140625 175.292969 -4.269531 175.125 -4.398438 C 174.726562 -4.6875 174.230469 -4.949219 173.898438 -5.304688 C 172.277344 -7.148438 169.824219 -7.761719 167.503906 -6.886719 C 166.710938 -6.566406 166.613281 -6.242188 167.175781 -5.628906 C 167.472656 -5.269531 167.871094 -4.980469 168.167969 -4.625 C 168.632812 -4.074219 168.898438 -3.460938 168.53125 -2.75 C 168.070312 -1.777344 168.335938 -0.90625 169.195312 -0.257812 C 170.1875 0.519531 171.347656 0.710938 172.574219 0.648438 C 174.03125 0.582031 175.257812 0.90625 176.054688 2.265625 C 176.515625 3.074219 177.378906 3.363281 178.339844 3.167969 C 179.300781 2.976562 180.226562 2.652344 181.253906 2.945312 C 180.890625 2.359375 180.425781 1.972656 179.832031 1.746094 C 179.203125 1.457031 178.539062 1.195312 177.976562 0.808594 C 177.3125 0.324219 176.617188 0.0664062 175.789062 0 C 174.695312 -0.0976562 173.734375 -0.515625 172.972656 -1.261719 C 172.441406 -1.777344 171.910156 -2.296875 171.546875 -2.910156 C 170.984375 -3.785156 170.355469 -4.527344 169.261719 -4.851562 C 168.929688 -4.980469 168.664062 -5.269531 168.367188 -5.496094 Z M 183.640625 1.230469 C 184.105469 0.9375 184.535156 0.679688 184.964844 0.421875 C 185.398438 0.160156 185.859375 -0.03125 186.257812 -0.289062 C 187.714844 -1.261719 188.144531 -2.652344 187.515625 -4.269531 C 187.417969 -4.496094 187.351562 -4.722656 187.285156 -4.949219 C 187.085938 -5.660156 187.253906 -6.242188 187.847656 -6.726562 C 188.246094 -7.050781 188.644531 -7.375 189.007812 -7.761719 C 189.902344 -8.667969 189.804688 -9.929688 188.84375 -10.769531 C 188.476562 -11.09375 188.210938 -11.480469 187.914062 -11.902344 C 187.550781 -12.417969 187.21875 -12.546875 186.589844 -12.355469 C 185.960938 -12.160156 185.5625 -11.773438 185.363281 -11.15625 C 185.097656 -10.316406 184.699219 -9.574219 184.003906 -8.992188 C 183.871094 -8.859375 183.808594 -8.636719 183.742188 -8.410156 C 183.476562 -7.664062 183.839844 -7.050781 184.238281 -6.46875 C 184.898438 -5.53125 185.265625 -4.527344 185.296875 -3.394531 C 185.296875 -3.203125 185.296875 -2.976562 185.296875 -2.621094 C 185.464844 -2.8125 185.53125 -2.878906 185.5625 -2.941406 C 186.027344 -3.71875 186.125 -4.558594 185.859375 -5.433594 C 185.265625 -7.308594 186.160156 -8.765625 187.1875 -10.21875 C 187.121094 -9.765625 186.988281 -9.347656 186.753906 -8.957031 C 186.058594 -7.792969 185.960938 -6.597656 186.324219 -5.335938 C 186.554688 -4.527344 186.457031 -3.75 186.09375 -3.039062 C 185.828125 -2.488281 185.464844 -1.972656 185.164062 -1.421875 C 184.632812 -0.515625 184.136719 0.355469 183.640625 1.230469 Z M 170.585938 1.421875 C 170.585938 1.390625 170.585938 1.328125 170.585938 1.292969 C 169.992188 0.9375 169.359375 0.613281 168.765625 0.226562 C 168.101562 -0.226562 167.503906 -0.226562 166.941406 0.386719 C 166.808594 0.519531 166.742188 0.808594 166.777344 1.003906 C 166.941406 1.8125 167.4375 2.328125 168.234375 2.585938 C 169.726562 3.074219 170.984375 2.554688 172.210938 1.585938 C 169.992188 1.972656 168.597656 1.972656 168.300781 1.230469 C 169.0625 1.292969 169.824219 1.359375 170.585938 1.421875 Z M 170.585938 1.421875 " fill-opacity="0.5" fill-rule="nonzero"/></g><path fill="#ffffff" d="M 187.816406 5.207031 C 187.648438 6.46875 184.933594 8.34375 183.773438 7.957031 C 184.503906 7.566406 185.265625 7.277344 185.925781 6.824219 C 186.589844 6.371094 187.152344 5.789062 187.816406 5.207031 Z M 187.816406 5.207031 " fill-opacity="0.5" fill-rule="nonzero"/><g clip-path="url(#80e43c46cf)"><path fill="#ffffff" d="M 563.289062 -6.644531 C 562.207031 -6.898438 561.199219 -7.113281 560.226562 -7.328125 C 559.363281 -7.507812 559.148438 -7.832031 559.148438 -8.695312 C 559.148438 -9.234375 559.292969 -9.414062 559.867188 -9.304688 C 560.839844 -9.125 561.777344 -8.910156 562.75 -8.695312 C 562.925781 -8.660156 563.070312 -8.621094 563.289062 -8.585938 C 563.574219 -9.34375 564.261719 -9.378906 564.945312 -9.34375 C 565.988281 -9.269531 567.03125 -9.089844 568.078125 -8.984375 C 569.660156 -8.839844 571.246094 -8.660156 572.828125 -8.550781 C 573.980469 -8.480469 574.304688 -8.261719 574.449219 -7.183594 C 574.554688 -6.429688 574.917969 -5.925781 575.566406 -5.53125 C 576.320312 -5.0625 576.96875 -4.453125 577.652344 -3.914062 C 578.191406 -3.515625 578.515625 -2.976562 578.589844 -2.292969 C 578.804688 -0.351562 579.058594 1.589844 579.273438 3.53125 C 579.488281 5.507812 579.742188 7.449219 579.957031 9.425781 C 580.101562 10.578125 579.921875 11.546875 578.839844 12.304688 C 577.507812 13.203125 576.285156 14.28125 575.023438 15.289062 C 574.234375 15.898438 573.40625 16.078125 572.359375 15.933594 C 569.804688 15.574219 567.210938 15.324219 564.621094 15.035156 C 563.648438 14.929688 563.179688 14.640625 563 13.667969 C 562.785156 12.445312 562.75 11.1875 562.53125 9.964844 C 562.171875 7.917969 561.667969 5.9375 561.273438 3.925781 C 561.054688 2.917969 560.839844 1.910156 560.769531 0.90625 C 560.730469 0.367188 560.839844 -0.28125 561.054688 -0.785156 C 561.597656 -2.113281 562.28125 -3.410156 562.820312 -4.738281 C 563.070312 -5.316406 563.109375 -5.960938 563.289062 -6.644531 Z M 563.070312 8.742188 C 563.214844 10.324219 563.359375 11.726562 563.539062 13.164062 C 563.648438 14.027344 564.007812 14.246094 564.871094 14.316406 C 567.390625 14.566406 569.875 14.785156 572.398438 15.144531 C 573.296875 15.25 574.015625 15.144531 574.738281 14.605469 C 576.070312 13.5625 577.363281 12.484375 578.699219 11.476562 C 579.273438 11.042969 579.453125 10.578125 579.382812 9.894531 C 579.273438 9.101562 579.203125 8.277344 579.128906 7.484375 C 579.09375 7.125 579.019531 6.800781 578.949219 6.261719 C 577.582031 7.234375 576.429688 8.167969 575.167969 8.921875 C 574.125 9.570312 573.765625 10.324219 574.125 11.476562 C 574.195312 11.726562 574.125 12.050781 574.125 12.339844 C 574.015625 12.339844 573.910156 12.375 573.800781 12.375 C 573.65625 11.871094 573.511719 11.367188 573.40625 10.863281 C 573.226562 9.929688 573.261719 9.894531 572.289062 9.785156 C 570.703125 9.570312 569.121094 9.390625 567.535156 9.210938 C 566.097656 9.066406 564.65625 8.921875 563.070312 8.742188 Z M 573.007812 9.246094 C 573.042969 9.101562 573.042969 9.066406 573.042969 9.03125 C 572.648438 6.621094 572.289062 4.214844 571.855469 1.804688 C 571.820312 1.660156 571.675781 1.445312 571.53125 1.410156 C 571.28125 1.300781 570.957031 1.230469 570.667969 1.191406 C 567.574219 0.941406 564.511719 0.691406 561.308594 0.402344 C 561.414062 1.230469 561.523438 2.054688 561.703125 2.882812 C 562.027344 4.394531 562.460938 5.902344 562.785156 7.449219 C 562.890625 8.058594 563.179688 8.238281 563.757812 8.277344 C 565.628906 8.457031 567.5 8.671875 569.371094 8.851562 C 570.523438 8.996094 571.75 9.101562 573.007812 9.246094 Z M 563.71875 -6.394531 C 563.71875 -4.09375 562.246094 -2.332031 561.453125 -0.136719 C 564.945312 0.257812 568.398438 0.367188 571.710938 0.796875 C 572.398438 -1.214844 573.007812 -3.230469 573.691406 -5.171875 C 573.910156 -5.820312 574.015625 -6.394531 573.835938 -7.078125 C 573.691406 -7.617188 573.441406 -7.832031 572.902344 -7.867188 C 571.136719 -8.011719 569.335938 -8.226562 567.574219 -8.40625 C 566.742188 -8.515625 565.914062 -8.695312 565.089844 -8.765625 C 564.691406 -8.800781 564.332031 -8.730469 563.9375 -8.695312 C 563.9375 -8.621094 563.9375 -8.585938 563.9375 -8.515625 C 564.007812 -8.480469 564.082031 -8.40625 564.1875 -8.371094 C 565.050781 -8.121094 565.988281 -8.011719 566.601562 -7.21875 C 566.671875 -7.113281 566.925781 -7.148438 567.105469 -7.113281 C 568.976562 -6.824219 570.882812 -6.574219 572.757812 -6.285156 C 572.972656 -6.25 573.1875 -6.179688 573.40625 -6.105469 C 573.40625 -6.035156 573.40625 -5.960938 573.367188 -5.890625 C 573.117188 -5.890625 572.863281 -5.820312 572.613281 -5.855469 C 571.570312 -6 570.523438 -6.140625 569.480469 -6.285156 C 568.652344 -6.394531 567.824219 -6.464844 566.851562 -6.539062 C 567.210938 -5.53125 567.535156 -4.703125 567.824219 -3.875 C 568.039062 -3.265625 567.824219 -2.835938 567.285156 -2.617188 C 566.671875 -2.402344 566.097656 -2.582031 565.878906 -3.15625 C 565.664062 -3.734375 565.554688 -4.34375 565.410156 -4.917969 C 565.195312 -6.035156 565.015625 -6.214844 563.71875 -6.394531 Z M 573.730469 9.246094 C 573.875 9.175781 573.945312 9.175781 574.015625 9.140625 C 575.492188 8.097656 577.003906 7.019531 578.515625 5.976562 C 578.875 5.722656 578.839844 5.472656 578.804688 5.148438 C 578.660156 3.601562 578.515625 2.054688 578.335938 0.472656 C 578.230469 -0.390625 578.121094 -1.253906 577.976562 -2.292969 C 577.292969 -1.898438 576.753906 -1.574219 576.214844 -1.253906 C 575.167969 -0.570312 574.195312 0.222656 573.117188 0.832031 C 572.648438 1.121094 572.46875 1.410156 572.539062 1.910156 C 572.9375 4.355469 573.332031 6.765625 573.730469 9.246094 Z M 572.503906 0.472656 C 572.578125 0.507812 572.648438 0.582031 572.71875 0.617188 C 574.378906 -0.496094 576.03125 -1.648438 577.832031 -2.871094 C 576.71875 -3.804688 575.601562 -4.738281 574.414062 -5.746094 C 573.730469 -3.554688 573.117188 -1.539062 572.503906 0.472656 Z M 560.480469 -8.695312 C 560.445312 -8.335938 560.445312 -8.082031 560.445312 -7.796875 C 561.632812 -7.542969 562.785156 -7.292969 563.972656 -7.003906 C 564.082031 -7.257812 564.152344 -7.472656 564.261719 -7.722656 C 562.964844 -8.046875 561.777344 -8.371094 560.480469 -8.695312 Z M 566.671875 -5.316406 C 565.988281 -4.957031 565.953125 -4.957031 566.058594 -4.417969 C 566.132812 -4.09375 566.203125 -3.734375 566.382812 -3.445312 C 566.492188 -3.265625 566.78125 -3.230469 566.996094 -3.121094 C 567.070312 -3.335938 567.285156 -3.589844 567.246094 -3.769531 C 567.140625 -4.273438 566.886719 -4.777344 566.671875 -5.316406 Z M 565.089844 -6.71875 C 565.160156 -6.679688 565.230469 -6.644531 565.304688 -6.609375 C 565.410156 -6.824219 565.554688 -7.039062 565.664062 -7.257812 C 565.59375 -7.292969 565.519531 -7.328125 565.449219 -7.363281 C 565.339844 -7.148438 565.195312 -6.933594 565.089844 -6.71875 Z M 559.6875 -8.082031 C 559.761719 -8.082031 559.867188 -8.121094 559.941406 -8.121094 C 559.902344 -8.335938 559.832031 -8.515625 559.796875 -8.730469 C 559.722656 -8.730469 559.652344 -8.695312 559.617188 -8.695312 C 559.617188 -8.480469 559.652344 -8.261719 559.6875 -8.082031 Z M 564.90625 -7.402344 C 564.871094 -7.4375 564.800781 -7.472656 564.765625 -7.507812 C 564.691406 -7.328125 564.621094 -7.113281 564.511719 -6.933594 C 564.546875 -6.898438 564.585938 -6.898438 564.621094 -6.859375 C 564.726562 -7.039062 564.800781 -7.21875 564.90625 -7.402344 Z M 565.914062 -5.636719 C 565.988281 -5.566406 566.023438 -5.53125 566.097656 -5.457031 C 566.203125 -5.601562 566.3125 -5.746094 566.382812 -5.890625 C 566.347656 -5.890625 566.347656 -5.925781 566.3125 -5.925781 C 566.167969 -5.820312 566.058594 -5.710938 565.914062 -5.636719 Z M 565.628906 -6.285156 C 565.664062 -6.25 565.699219 -6.214844 565.734375 -6.179688 C 565.84375 -6.320312 565.988281 -6.464844 566.097656 -6.609375 C 566.058594 -6.644531 566.023438 -6.679688 566.023438 -6.71875 C 565.878906 -6.574219 565.773438 -6.429688 565.628906 -6.285156 Z M 565.628906 -6.285156 " fill-opacity="0.5" fill-rule="nonzero"/></g><g clip-path="url(#4ae1b39170)"><path fill="#ffffff" d="M 624.414062 24.644531 C 625.117188 24.351562 625.667969 24.207031 626.171875 23.964844 C 629.183594 22.511719 630.488281 19.847656 629.886719 16.695312 C 629.785156 16.117188 629.484375 15.875 628.832031 16.019531 C 625.96875 16.601562 623.8125 18.003906 622.605469 20.621094 C 622.507812 20.863281 622.40625 21.105469 622.304688 21.25 C 621.753906 20.234375 621.253906 19.214844 620.648438 18.199219 C 620.347656 17.714844 619.894531 17.328125 619.445312 16.988281 C 618.640625 16.359375 617.6875 16.40625 617.136719 16.988281 C 616.535156 17.667969 616.484375 18.878906 617.1875 19.507812 C 617.585938 19.894531 618.039062 20.1875 618.441406 20.523438 C 619.195312 21.105469 619.847656 21.785156 620.148438 22.753906 C 619.796875 22.800781 619.546875 22.851562 619.292969 22.898438 C 617.789062 23.140625 616.535156 23.769531 615.429688 24.738281 C 613.921875 26.097656 613.269531 27.792969 614.023438 29.683594 C 614.777344 31.570312 614.273438 32.878906 612.769531 34.1875 C 610.761719 35.980469 609.558594 38.304688 609.757812 41.066406 C 609.910156 43.101562 610.511719 45.039062 611.964844 46.589844 C 612.71875 47.367188 613.671875 48.042969 614.675781 48.480469 C 617.285156 49.59375 620.097656 49.835938 622.90625 49.160156 C 623.914062 48.917969 624.867188 48.675781 625.820312 48.285156 C 629.886719 46.785156 631.441406 42.667969 629.382812 38.9375 C 629.03125 38.355469 628.582031 37.773438 628.179688 37.242188 C 627.675781 36.609375 627.222656 35.980469 626.773438 35.351562 C 625.871094 34.042969 625.617188 32.6875 626.070312 31.136719 C 626.371094 30.167969 626.472656 29.101562 626.472656 28.132812 C 626.472656 26.726562 625.667969 25.5625 624.414062 24.644531 Z M 619.445312 48.382812 C 618.992188 48.335938 618.140625 48.285156 617.335938 48.09375 C 615.730469 47.707031 614.125 47.367188 612.96875 46.105469 C 611.011719 43.925781 609.859375 40.050781 611.964844 36.949219 C 612.71875 35.835938 613.671875 34.867188 614.578125 33.898438 C 615.53125 32.878906 615.832031 31.8125 615.378906 30.554688 C 615.277344 30.261719 615.179688 29.972656 615.128906 29.683594 C 614.527344 27.648438 614.878906 26.339844 616.683594 25.078125 C 617.539062 24.496094 618.589844 24.109375 619.644531 23.769531 C 619.945312 23.675781 620.347656 23.964844 620.699219 24.011719 C 621.050781 24.109375 621.453125 24.207031 621.804688 24.253906 C 622.105469 24.304688 622.457031 24.304688 622.707031 24.449219 C 623.109375 24.738281 623.460938 25.078125 623.863281 25.417969 C 625.066406 26.386719 625.617188 27.648438 625.367188 29.199219 C 625.21875 30.019531 625.015625 30.796875 624.867188 31.621094 C 624.613281 32.6875 624.664062 33.75 625.21875 34.671875 C 625.820312 35.835938 626.570312 36.902344 627.273438 38.015625 C 627.828125 38.886719 628.480469 39.710938 628.78125 40.679688 C 629.683594 43.25 628.480469 45.914062 626.019531 46.980469 C 624.0625 47.800781 622.003906 48.285156 619.445312 48.382812 Z M 623.5625 23.527344 C 624.3125 22.707031 625.015625 21.929688 625.667969 21.105469 C 626.269531 20.28125 627.175781 19.75 627.527344 18.730469 C 625.667969 19.457031 624.613281 21.058594 623.257812 22.316406 C 623.460938 20.136719 625.570312 17.667969 628.882812 17.085938 C 629.332031 20.574219 626.921875 23.527344 623.5625 23.527344 Z M 621.152344 22.996094 C 620.699219 21.445312 619.644531 20.332031 618.289062 19.457031 C 618.542969 18.925781 618.691406 18.539062 618.894531 18.054688 C 620.449219 19.410156 621.050781 21.105469 621.152344 22.996094 Z M 617.839844 18.488281 C 617.738281 18.488281 617.636719 18.488281 617.539062 18.441406 C 617.636719 18.199219 617.738281 17.910156 617.789062 17.667969 C 617.890625 17.667969 617.9375 17.714844 618.039062 17.714844 C 617.988281 17.957031 617.890625 18.246094 617.839844 18.488281 Z M 617.839844 18.488281 " fill-opacity="0.5" fill-rule="nonzero"/></g><g clip-path="url(#07f3edc171)"><path fill="#ffffff" d="M 270.785156 24.644531 C 271.488281 24.351562 272.039062 24.207031 272.542969 23.964844 C 275.554688 22.511719 276.859375 19.847656 276.257812 16.695312 C 276.15625 16.117188 275.855469 15.875 275.203125 16.019531 C 272.339844 16.601562 270.183594 18.003906 268.976562 20.621094 C 268.878906 20.863281 268.777344 21.105469 268.675781 21.25 C 268.125 20.234375 267.625 19.214844 267.019531 18.199219 C 266.71875 17.714844 266.265625 17.328125 265.816406 16.988281 C 265.011719 16.359375 264.058594 16.40625 263.507812 16.988281 C 262.90625 17.667969 262.855469 18.878906 263.558594 19.507812 C 263.957031 19.894531 264.410156 20.1875 264.8125 20.523438 C 265.566406 21.105469 266.21875 21.785156 266.519531 22.753906 C 266.167969 22.800781 265.917969 22.851562 265.664062 22.898438 C 264.160156 23.140625 262.90625 23.769531 261.800781 24.738281 C 260.292969 26.097656 259.640625 27.792969 260.394531 29.683594 C 261.148438 31.570312 260.644531 32.878906 259.140625 34.1875 C 257.132812 35.980469 255.929688 38.304688 256.128906 41.066406 C 256.28125 43.101562 256.882812 45.039062 258.335938 46.589844 C 259.089844 47.367188 260.042969 48.042969 261.046875 48.480469 C 263.65625 49.59375 266.46875 49.835938 269.277344 49.160156 C 270.28125 48.917969 271.238281 48.675781 272.191406 48.285156 C 276.257812 46.785156 277.8125 42.667969 275.753906 38.9375 C 275.402344 38.355469 274.949219 37.773438 274.550781 37.242188 C 274.046875 36.609375 273.59375 35.980469 273.144531 35.351562 C 272.242188 34.042969 271.988281 32.6875 272.441406 31.136719 C 272.742188 30.167969 272.84375 29.101562 272.84375 28.132812 C 272.84375 26.726562 272.039062 25.5625 270.785156 24.644531 Z M 265.816406 48.382812 C 265.363281 48.335938 264.511719 48.285156 263.707031 48.09375 C 262.101562 47.707031 260.496094 47.367188 259.339844 46.105469 C 257.382812 43.925781 256.230469 40.050781 258.335938 36.949219 C 259.089844 35.835938 260.042969 34.867188 260.949219 33.898438 C 261.902344 32.878906 262.203125 31.8125 261.75 30.554688 C 261.648438 30.261719 261.550781 29.972656 261.5 29.683594 C 260.898438 27.648438 261.25 26.339844 263.054688 25.078125 C 263.910156 24.496094 264.960938 24.109375 266.015625 23.769531 C 266.316406 23.675781 266.71875 23.964844 267.070312 24.011719 C 267.421875 24.109375 267.824219 24.207031 268.175781 24.253906 C 268.476562 24.304688 268.828125 24.304688 269.078125 24.449219 C 269.480469 24.738281 269.832031 25.078125 270.234375 25.417969 C 271.4375 26.386719 271.988281 27.648438 271.738281 29.199219 C 271.589844 30.019531 271.386719 30.796875 271.238281 31.621094 C 270.984375 32.6875 271.035156 33.75 271.589844 34.671875 C 272.191406 35.835938 272.941406 36.902344 273.644531 38.015625 C 274.199219 38.886719 274.851562 39.710938 275.152344 40.679688 C 276.054688 43.25 274.851562 45.914062 272.390625 46.980469 C 270.433594 47.800781 268.375 48.285156 265.816406 48.382812 Z M 269.933594 23.527344 C 270.683594 22.707031 271.386719 21.929688 272.039062 21.105469 C 272.640625 20.28125 273.546875 19.75 273.898438 18.730469 C 272.039062 19.457031 270.984375 21.058594 269.628906 22.316406 C 269.832031 20.136719 271.941406 17.667969 275.25 17.085938 C 275.703125 20.574219 273.292969 23.527344 269.933594 23.527344 Z M 267.523438 22.996094 C 267.070312 21.445312 266.015625 20.332031 264.660156 19.457031 C 264.914062 18.925781 265.0625 18.539062 265.265625 18.054688 C 266.820312 19.410156 267.421875 21.105469 267.523438 22.996094 Z M 264.210938 18.488281 C 264.109375 18.488281 264.007812 18.488281 263.910156 18.441406 C 264.007812 18.199219 264.109375 17.910156 264.160156 17.667969 C 264.261719 17.667969 264.308594 17.714844 264.410156 17.714844 C 264.359375 17.957031 264.261719 18.246094 264.210938 18.488281 Z M 264.210938 18.488281 " fill-opacity="0.5" fill-rule="nonzero"/></g></svg>