<svg width="71" height="67" viewBox="0 0 71 67" fill="none" xmlns="http://www.w3.org/2000/svg">
<g clip-path="url(#clip0_148_7842)">
<path d="M13.7299 22.9234C14.5541 21.9562 15.1132 20.6576 14.9659 19.3306C13.7594 19.3869 12.2873 20.0774 11.435 21.0453C10.6696 21.8742 9.9923 23.2272 10.1689 24.4986C11.523 24.6087 12.8761 23.8634 13.7299 22.9234Z" fill="black"/>
<path d="M14.9503 24.7466C12.9836 24.6367 11.3114 25.7939 10.3721 25.7939C9.43244 25.7939 7.99415 24.802 6.43857 24.8287C4.4139 24.8567 2.53525 25.9308 1.50781 27.6391C-0.605454 31.0566 0.950132 36.1259 3.00515 38.9092C4.00306 40.2861 5.20591 41.8024 6.79062 41.7479C8.28796 41.6927 8.8749 40.8381 10.6949 40.8381C12.5137 40.8381 13.0424 41.7479 14.6273 41.7203C16.2711 41.6927 17.2987 40.3426 18.2966 38.9642C19.4415 37.3945 19.9102 35.8788 19.9395 35.7956C19.91 35.768 16.77 34.6377 16.7409 31.2487C16.7112 28.4111 19.2062 27.0612 19.3236 26.9775C17.9149 25.0226 15.7134 24.802 14.9503 24.7466Z" fill="black"/>
<path d="M32.0749 20.9062C36.3495 20.9062 39.326 23.6709 39.326 27.6961C39.326 31.7356 36.2881 34.5146 31.9677 34.5146H27.2349V41.5765H23.8154V20.9062H32.0749ZM27.2348 31.8215H31.1583C34.1355 31.8215 35.8299 30.3176 35.8299 27.7104C35.8299 25.1035 34.1355 23.6137 31.1736 23.6137H27.2348V31.8215Z" fill="black"/>
<path d="M40.2197 37.2934C40.2197 34.6576 42.3724 33.0389 46.1894 32.8384L50.586 32.595V31.4348C50.586 29.7588 49.3799 28.7561 47.3651 28.7561C45.4562 28.7561 44.2654 29.6154 43.9757 30.9621H40.8612C41.0444 28.2403 43.5174 26.2349 47.487 26.2349C51.3799 26.2349 53.8684 28.1687 53.8684 31.1911V41.5763H50.708V39.0982H50.632C49.7008 40.7743 47.6701 41.8341 45.5634 41.8341C42.4183 41.8341 40.2197 40.0005 40.2197 37.2934ZM50.5859 35.9326V34.7438L46.6317 34.9729C44.6623 35.1019 43.5479 35.9184 43.5479 37.2076C43.5479 38.5253 44.7081 39.3849 46.4791 39.3849C48.7843 39.3846 50.5859 37.8949 50.5859 35.9326Z" fill="black"/>
<path d="M56.8515 47.1204V44.6136C57.0954 44.6708 57.6449 44.6708 57.9198 44.6708C59.4464 44.6708 60.271 44.0693 60.7745 42.5222C60.7745 42.4935 61.0649 41.6054 61.0649 41.5911L55.2637 26.5073H58.8357L62.8972 38.7692H62.9579L67.0194 26.5073H70.4999L64.4843 42.3645C63.1108 46.0175 61.5229 47.192 58.1948 47.192C57.9198 47.192 57.0953 47.1633 56.8515 47.1204Z" fill="black"/>
</g>
<defs>
<clipPath id="clip0_148_7842">
<rect width="70" height="65.679" fill="white" transform="translate(0.5 0.421875)"/>
</clipPath>
</defs>
</svg>
