<svg width="40" height="41" viewBox="0 0 40 41" fill="none" xmlns="http://www.w3.org/2000/svg">
<g clip-path="url(#clip0_169_27162)">
<path d="M36.6657 0.696777H22.8113C21.8948 0.696777 20.6139 1.22773 19.9663 1.8748L0.971929 20.8691C-0.325034 22.1646 -0.325034 24.2886 0.971929 25.5825L15.1148 39.7249C16.4088 41.0204 18.5308 41.0204 19.8268 39.7234L38.8212 20.7321C39.4681 20.0851 39.9992 18.8021 39.9992 17.8876V4.03025C39.9992 2.19725 38.4986 0.696777 36.6657 0.696777ZM29.9987 14.0302C28.1577 14.0302 26.6652 12.5361 26.6652 10.6967C26.6652 8.85424 28.1577 7.36323 29.9987 7.36323C31.8397 7.36323 33.3326 8.85424 33.3326 10.6967C33.3327 12.5361 31.8397 14.0302 29.9987 14.0302Z" fill="#000000"/>
</g>
<defs>
<clipPath id="clip0_169_27162">
<rect width="40" height="40" fill="white" transform="translate(-0.000854492 0.696289)"/>
</clipPath>
</defs>
</svg>
