<svg width="54" height="54" viewBox="0 0 54 54" fill="none" xmlns="http://www.w3.org/2000/svg">
<g clip-path="url(#clip0_148_7856)">
<path d="M50.0633 44.7728H3.93669C2.04235 44.7728 0.5 43.2305 0.5 41.3258V12.1965C0.5 10.3021 2.04235 8.75977 3.93669 8.75977H50.0529C51.9576 8.75977 53.4999 10.3021 53.4999 12.1965V41.3258C53.5 43.2305 51.9577 44.7728 50.0633 44.7728Z" fill="#505278"/>
<path d="M50.0634 8.75977H27V44.7728H50.0633C51.968 44.7728 53.5 43.2305 53.5 41.3361V12.1965C53.5 10.3021 51.9577 8.75977 50.0634 8.75977Z" fill="#424566"/>
<path d="M28.149 8.75985C27.797 19.3909 19.0396 27.9206 8.32577 27.9206C5.55153 27.9206 2.90157 27.3512 0.5 26.3057V21.6786C2.80839 23.0139 5.47913 23.7696 8.32577 23.7696C16.7519 23.7696 23.6461 17.0928 23.998 8.74951H28.1489V8.75985H28.149Z" fill="#575982"/>
<path d="M27 8.75977V14.774C27.6729 12.8797 28.0766 10.8611 28.149 8.75977H27Z" fill="#505278"/>
<path d="M53.4995 29.8148V34.0175C51.0151 33.5413 48.5929 33.3343 46.1913 33.5725C41.854 34.0072 37.8272 36.0362 33.5106 39.9594C32.8171 40.5908 32.1132 41.243 31.4403 41.8744C30.4052 42.8371 29.3699 43.8101 28.283 44.7625H21.5752C24.0596 43.1062 26.2852 41.0256 28.6142 38.8518C29.3078 38.21 30.0117 37.5371 30.7259 36.8953C35.7361 32.351 40.5185 29.9804 45.7771 29.4525C48.3755 29.1937 51.0048 29.4007 53.4995 29.8148Z" fill="#505278"/>
<path d="M21.5752 44.7726H26.9994V40.3525C25.2293 41.9777 23.4799 43.4995 21.5752 44.7726Z" fill="#575982"/>
<path d="M11.5969 26.285H6.51425C5.73786 26.285 5.10645 25.6536 5.10645 24.8772V21.5025C5.10645 20.7261 5.73786 20.0947 6.51425 20.0947H11.5969C12.3733 20.0947 13.0047 20.7261 13.0047 21.5025V24.8772C12.9944 25.6639 12.3732 26.285 11.5969 26.285Z" fill="#424566"/>
<path d="M11.5971 26.2022H6.50409C5.7795 26.2022 5.18945 25.6122 5.18945 24.8876V21.5026C5.18945 20.778 5.7795 20.188 6.50409 20.188H11.5971C12.3217 20.188 12.9117 20.778 12.9117 21.5026V24.8876C12.9117 25.6122 12.3217 26.2022 11.5971 26.2022Z" fill="#FEBD55"/>
<path d="M12.9117 23.3037V23.0967H10.2203V22.1858L10.9139 21.4922H12.9117C12.9117 21.4197 12.9014 21.3473 12.891 21.2852H10.8621C10.8311 21.2852 10.8103 21.2955 10.7897 21.3162L10.0651 22.0408H9.15405V20.1982H8.94703V22.0408H8.04644L7.32185 21.3162C7.30117 21.2955 7.27005 21.2852 7.24937 21.2852H5.21014C5.1998 21.3473 5.18945 21.4197 5.18945 21.4922H7.208L7.89121 22.1754V23.0967H5.18945V23.3037H7.89121V24.225L7.208 24.9082H5.18945C5.18945 24.9807 5.1998 25.0531 5.21014 25.1152H7.24937C7.28039 25.1152 7.30117 25.1049 7.32185 25.0842L8.04644 24.3596H8.94703V26.2022H9.15405V24.3596H10.065L10.7896 25.0842C10.8103 25.1049 10.8309 25.1152 10.8621 25.1152H12.8909C12.9013 25.0531 12.9116 24.9807 12.9116 24.9082H10.9138L10.2202 24.2146V23.3037H12.9117ZM10.0133 24.1525H8.09824V22.2375H10.0133V24.1525Z" fill="#B5613C"/>
<path d="M47.9519 26.1401C47.9001 26.1401 47.8587 26.1298 47.8174 26.1091C47.662 26.0366 47.6 25.8503 47.6828 25.695C48.4799 24.1112 48.4799 22.2997 47.6828 20.7159C47.6103 20.5606 47.6725 20.3743 47.8174 20.3019C47.9727 20.2294 48.1589 20.2915 48.2314 20.4364C49.1217 22.1962 49.1217 24.2147 48.2314 25.9745C48.1693 26.0781 48.0658 26.1401 47.9519 26.1401ZM46.8857 25.5501C47.7241 24.0594 47.7241 22.3411 46.8857 20.8504C46.8028 20.7056 46.6165 20.6434 46.4613 20.7366C46.3164 20.8194 46.2542 21.0058 46.3474 21.161C47.0823 22.4653 47.0823 23.9559 46.3474 25.2499C46.2646 25.3948 46.3164 25.5914 46.4613 25.6743C46.5131 25.7053 46.5648 25.7156 46.6166 25.7156C46.72 25.7054 46.8235 25.6432 46.8857 25.5501ZM45.5607 25.1257C46.3784 23.9352 46.3784 22.4549 45.5607 21.2542C45.4675 21.1093 45.2708 21.0782 45.1259 21.1713C44.9811 21.2645 44.9499 21.4612 45.0431 21.6061C45.7056 22.5791 45.7056 23.8006 45.0431 24.7737C44.9499 24.9186 44.981 25.1049 45.1259 25.2084C45.1777 25.2498 45.2398 25.2601 45.3019 25.2601C45.4054 25.2706 45.4985 25.2188 45.5607 25.1257ZM44.1632 24.7323C44.6187 24.3183 44.8671 23.7696 44.8671 23.2003C44.8671 22.631 44.6187 22.0823 44.1632 21.6683C44.039 21.5544 43.8423 21.5544 43.7285 21.689C43.6146 21.8132 43.6146 22.0099 43.7492 22.1237C44.07 22.4239 44.246 22.8069 44.246 23.2003C44.246 23.5937 44.07 23.9767 43.7492 24.2769C43.625 24.3907 43.6146 24.5874 43.7285 24.7116C43.7906 24.7738 43.8734 24.8151 43.9562 24.8151C44.0286 24.8151 44.1011 24.7841 44.1632 24.7323Z" fill="#CAD4FF"/>
<path d="M26.5757 39.5556H5.49999C5.32399 39.5556 5.18945 39.4211 5.18945 39.2451C5.18945 39.0691 5.32399 38.9346 5.49999 38.9346H26.5757C26.7517 38.9346 26.8863 39.0691 26.8863 39.2451C26.8863 39.4211 26.7414 39.5556 26.5757 39.5556Z" fill="#E6EAFF"/>
<path d="M48.5826 39.5556H44.5869C44.4109 39.5556 44.2764 39.4211 44.2764 39.2451C44.2764 39.0691 44.4109 38.9346 44.5869 38.9346H48.5826C48.7586 38.9346 48.8932 39.0691 48.8932 39.2451C48.8932 39.4211 48.7483 39.5556 48.5826 39.5556ZM42.8893 39.2451C42.8893 39.0691 42.7547 38.9346 42.5787 38.9346H38.583C38.407 38.9346 38.2725 39.0691 38.2725 39.2451C38.2725 39.4211 38.407 39.5556 38.583 39.5556H42.5787C42.7547 39.5556 42.8893 39.4108 42.8893 39.2451Z" fill="#CAD4FF"/>
<path d="M5.49999 15.8196C5.32399 15.8196 5.18945 15.6851 5.18945 15.5091V14.2876C5.18945 14.1116 5.32399 13.9771 5.49999 13.9771C5.67599 13.9771 5.81053 14.1116 5.81053 14.2876V15.4987C5.81053 15.6747 5.67599 15.8196 5.49999 15.8196ZM7.49785 15.5091V14.2876C7.49785 14.1116 7.36331 13.9771 7.18731 13.9771C7.01131 13.9771 6.87677 14.1116 6.87677 14.2876V15.4987C6.87677 15.6747 7.01131 15.8093 7.18731 15.8093C7.36322 15.8196 7.49785 15.6747 7.49785 15.5091ZM9.19551 15.5091V14.2876C9.19551 14.1116 9.06097 13.9771 8.88497 13.9771C8.70897 13.9771 8.57443 14.1116 8.57443 14.2876V15.4987C8.57443 15.6747 8.70897 15.8093 8.88497 15.8093C9.05054 15.8196 9.19551 15.6747 9.19551 15.5091ZM10.8828 15.5091V14.2876C10.8828 14.1116 10.7483 13.9771 10.5723 13.9771C10.3963 13.9771 10.2618 14.1116 10.2618 14.2876V15.4987C10.2618 15.6747 10.3963 15.8093 10.5723 15.8093C10.7482 15.8196 10.8828 15.6747 10.8828 15.5091Z" fill="#E6EAFF"/>
<path d="M6.14122 34.287H6.08942C5.57185 34.287 5.14746 33.8626 5.14746 33.345V31.8751C5.14746 31.3575 5.57185 30.9331 6.08942 30.9331H6.14122C6.65878 30.9331 7.08318 31.3575 7.08318 31.8751V33.345C7.08326 33.8625 6.66921 34.287 6.14122 34.287ZM6.08951 31.5541C5.91351 31.5541 5.76862 31.699 5.76862 31.875V33.3449C5.76862 33.5209 5.91351 33.6658 6.08951 33.6658H6.14131C6.3173 33.6658 6.46219 33.5209 6.46219 33.3449V31.875C6.46219 31.699 6.3173 31.5541 6.14131 31.5541H6.08951Z" fill="#E6EAFF"/>
<path d="M8.65684 34.287H8.60504C8.08748 34.287 7.66309 33.8626 7.66309 33.345V31.8751C7.66309 31.3575 8.08748 30.9331 8.60504 30.9331H8.65684C9.17441 30.9331 9.5988 31.3575 9.5988 31.8751V33.345C9.59889 33.8625 9.18484 34.287 8.65684 34.287ZM8.60513 31.5541C8.42913 31.5541 8.28425 31.699 8.28425 31.875V33.3449C8.28425 33.5209 8.42913 33.6658 8.60513 33.6658H8.65693C8.83293 33.6658 8.97781 33.5209 8.97781 33.3449V31.875C8.97781 31.699 8.83293 31.5541 8.65693 31.5541H8.60513Z" fill="#E6EAFF"/>
<path d="M11.1725 34.287H11.1207C10.6031 34.287 10.1787 33.8626 10.1787 33.345V31.8751C10.1787 31.3575 10.6031 30.9331 11.1207 30.9331H11.1725C11.69 30.9331 12.1144 31.3575 12.1144 31.8751V33.345C12.1144 33.8625 11.69 34.287 11.1725 34.287ZM11.1207 31.5541C10.9447 31.5541 10.7998 31.699 10.7998 31.875V33.3449C10.7998 33.5209 10.9447 33.6658 11.1207 33.6658H11.1725C11.3485 33.6658 11.4933 33.5209 11.4933 33.3449V31.875C11.4933 31.699 11.3485 31.5541 11.1725 31.5541H11.1207Z" fill="#E6EAFF"/>
<path d="M13.6871 34.287H13.6353C13.1178 34.287 12.6934 33.8626 12.6934 33.345V31.8751C12.6934 31.3575 13.1178 30.9331 13.6353 30.9331H13.6871C14.2047 30.9331 14.6291 31.3575 14.6291 31.8751V33.345C14.6291 33.8625 14.2047 34.287 13.6871 34.287ZM13.6353 31.5541C13.4593 31.5541 13.3144 31.699 13.3144 31.875V33.3449C13.3144 33.5209 13.4593 33.6658 13.6353 33.6658H13.6871C13.8631 33.6658 14.008 33.5209 14.008 33.3449V31.875C14.008 31.699 13.8631 31.5541 13.6871 31.5541H13.6353Z" fill="#E6EAFF"/>
<path d="M17.5484 34.287H17.4966C16.9791 34.287 16.5547 33.8626 16.5547 33.345V31.8751C16.5547 31.3575 16.9791 30.9331 17.4966 30.9331H17.5484C18.066 30.9331 18.4904 31.3575 18.4904 31.8751V33.345C18.4905 33.8625 18.066 34.287 17.5484 34.287ZM17.4967 31.5541C17.3207 31.5541 17.1759 31.699 17.1759 31.875V33.3449C17.1759 33.5209 17.3207 33.6658 17.4967 33.6658H17.5485C17.7245 33.6658 17.8694 33.5209 17.8694 33.3449V31.875C17.8694 31.699 17.7245 31.5541 17.5485 31.5541H17.4967Z" fill="#E6EAFF"/>
<path d="M20.0641 34.287H20.0123C19.4947 34.287 19.0703 33.8626 19.0703 33.345V31.8751C19.0703 31.3575 19.4947 30.9331 20.0123 30.9331H20.0641C20.5816 30.9331 21.006 31.3575 21.006 31.8751V33.345C21.0061 33.8625 20.5816 34.287 20.0641 34.287ZM20.0124 31.5541C19.8364 31.5541 19.6915 31.699 19.6915 31.875V33.3449C19.6915 33.5209 19.8364 33.6658 20.0124 33.6658H20.0642C20.2402 33.6658 20.385 33.5209 20.385 33.3449V31.875C20.385 31.699 20.2402 31.5541 20.0642 31.5541H20.0124Z" fill="#E6EAFF"/>
<path d="M22.5797 34.287H22.5279C22.0103 34.287 21.5859 33.8626 21.5859 33.345V31.8751C21.5859 31.3575 22.0103 30.9331 22.5279 30.9331H22.5797C23.0973 30.9331 23.5217 31.3575 23.5217 31.8751V33.345C23.5217 33.8625 23.0973 34.287 22.5797 34.287ZM22.528 31.5541C22.352 31.5541 22.2071 31.699 22.2071 31.875V33.3449C22.2071 33.5209 22.352 33.6658 22.528 33.6658H22.5798C22.7558 33.6658 22.9007 33.5209 22.9007 33.3449V31.875C22.9007 31.699 22.7558 31.5541 22.5798 31.5541H22.528Z" fill="#E6EAFF"/>
<path d="M25.0943 34.287H25.0425C24.525 34.287 24.1006 33.8626 24.1006 33.345V31.8751C24.1006 31.3575 24.525 30.9331 25.0425 30.9331H25.0943C25.6119 30.9331 26.0363 31.3575 26.0363 31.8751V33.345C26.0364 33.8625 25.612 34.287 25.0943 34.287ZM25.0426 31.5541C24.8666 31.5541 24.7217 31.699 24.7217 31.875V33.3449C24.7217 33.5209 24.8666 33.6658 25.0426 33.6658H25.0944C25.2704 33.6658 25.4153 33.5209 25.4153 33.3449V31.875C25.4153 31.699 25.2704 31.5541 25.0944 31.5541H25.0426Z" fill="#E6EAFF"/>
<path d="M28.9557 34.287H28.9039C28.3863 34.287 27.9619 33.8626 27.9619 33.345V31.8751C27.9619 31.3575 28.3863 30.9331 28.9039 30.9331H28.9557C29.4732 30.9331 29.8976 31.3575 29.8976 31.8751V33.345C29.8976 33.8625 29.4732 34.287 28.9557 34.287ZM28.9039 31.5541C28.7279 31.5541 28.583 31.699 28.583 31.875V33.3449C28.583 33.5209 28.7279 33.6658 28.9039 33.6658H28.9557C29.1317 33.6658 29.2766 33.5209 29.2766 33.3449V31.875C29.2766 31.699 29.1317 31.5541 28.9557 31.5541H28.9039Z" fill="#CAD4FF"/>
<path d="M31.4712 34.287H31.4195C30.9019 34.287 30.4775 33.8626 30.4775 33.345V31.8751C30.4775 31.3575 30.9019 30.9331 31.4195 30.9331H31.4712C31.9888 30.9331 32.4132 31.3575 32.4132 31.8751V33.345C32.4132 33.8625 31.9888 34.287 31.4712 34.287ZM31.4195 31.5541C31.2435 31.5541 31.0986 31.699 31.0986 31.875V33.3449C31.0986 33.5209 31.2435 33.6658 31.4195 33.6658H31.4712C31.6472 33.6658 31.7921 33.5209 31.7921 33.3449V31.875C31.7921 31.699 31.6472 31.5541 31.4712 31.5541H31.4195Z" fill="#CAD4FF"/>
<path d="M33.9869 34.287H33.9351C33.4176 34.287 32.9932 33.8626 32.9932 33.345V31.8751C32.9932 31.3575 33.4176 30.9331 33.9351 30.9331H33.9869C34.5045 30.9331 34.9289 31.3575 34.9289 31.8751V33.345C34.929 33.8625 34.5045 34.287 33.9869 34.287ZM33.9352 31.5541C33.7592 31.5541 33.6143 31.699 33.6143 31.875V33.3449C33.6143 33.5209 33.7592 33.6658 33.9352 33.6658H33.987C34.163 33.6658 34.3079 33.5209 34.3079 33.3449V31.875C34.3079 31.699 34.163 31.5541 33.987 31.5541H33.9352Z" fill="#CAD4FF"/>
<path d="M36.5016 34.287H36.4498C35.9322 34.287 35.5078 33.8626 35.5078 33.345V31.8751C35.5078 31.3575 35.9322 30.9331 36.4498 30.9331H36.5016C37.0191 30.9331 37.4435 31.3575 37.4435 31.8751V33.345C37.4436 33.8625 37.0191 34.287 36.5016 34.287ZM36.4499 31.5541C36.2739 31.5541 36.129 31.699 36.129 31.875V33.3449C36.129 33.5209 36.2739 33.6658 36.4499 33.6658H36.5017C36.6777 33.6658 36.8225 33.5209 36.8225 33.3449V31.875C36.8225 31.699 36.6777 31.5541 36.5017 31.5541H36.4499Z" fill="#CAD4FF"/>
<path d="M40.3639 34.287H40.3121C39.7945 34.287 39.3701 33.8626 39.3701 33.345V31.8751C39.3701 31.3575 39.7945 30.9331 40.3121 30.9331H40.3639C40.8814 30.9331 41.3058 31.3575 41.3058 31.8751V33.345C41.3058 33.8625 40.8814 34.287 40.3639 34.287ZM40.3121 31.5541C40.1361 31.5541 39.9912 31.699 39.9912 31.875V33.3449C39.9912 33.5209 40.1361 33.6658 40.3121 33.6658H40.3639C40.5399 33.6658 40.6848 33.5209 40.6848 33.3449V31.875C40.6848 31.699 40.5399 31.5541 40.3639 31.5541H40.3121Z" fill="#CAD4FF"/>
<path d="M42.8794 34.287H42.8277C42.3101 34.287 41.8857 33.8626 41.8857 33.345V31.8751C41.8857 31.3575 42.3101 30.9331 42.8277 30.9331H42.8794C43.397 30.9331 43.8214 31.3575 43.8214 31.8751V33.345C43.8214 33.8625 43.397 34.287 42.8794 34.287ZM42.8276 31.5541C42.6516 31.5541 42.5067 31.699 42.5067 31.875V33.3449C42.5067 33.5209 42.6516 33.6658 42.8276 33.6658H42.8793C43.0553 33.6658 43.2002 33.5209 43.2002 33.3449V31.875C43.2002 31.699 43.0553 31.5541 42.8793 31.5541H42.8276Z" fill="#CAD4FF"/>
<path d="M45.3951 34.287H45.3433C44.8258 34.287 44.4014 33.8626 44.4014 33.345V31.8751C44.4014 31.3575 44.8258 30.9331 45.3433 30.9331H45.3951C45.9127 30.9331 46.3371 31.3575 46.3371 31.8751V33.345C46.3371 33.8625 45.9127 34.287 45.3951 34.287ZM45.3434 31.5541C45.1674 31.5541 45.0225 31.699 45.0225 31.875V33.3449C45.0225 33.5209 45.1674 33.6658 45.3434 33.6658H45.3952C45.5712 33.6658 45.7161 33.5209 45.7161 33.3449V31.875C45.7161 31.699 45.5712 31.5541 45.3952 31.5541H45.3434Z" fill="#CAD4FF"/>
<path d="M47.9098 34.287H47.858C47.3404 34.287 46.916 33.8626 46.916 33.345V31.8751C46.916 31.3575 47.3404 30.9331 47.858 30.9331H47.9098C48.4273 30.9331 48.8517 31.3575 48.8517 31.8751V33.345C48.8518 33.8625 48.4273 34.287 47.9098 34.287ZM47.8581 31.5541C47.6821 31.5541 47.5372 31.699 47.5372 31.875V33.3449C47.5372 33.5209 47.6821 33.6658 47.8581 33.6658H47.9099C48.0859 33.6658 48.2307 33.5209 48.2307 33.3449V31.875C48.2307 31.699 48.0859 31.5541 47.9099 31.5541H47.8581Z" fill="#CAD4FF"/>
</g>
<defs>
<clipPath id="clip0_148_7856">
<rect width="53" height="53" fill="white" transform="translate(0.5 0.26123)"/>
</clipPath>
</defs>
</svg>
