<svg width="50" height="51" viewBox="0 0 50 51" fill="none" xmlns="http://www.w3.org/2000/svg">
<g clip-path="url(#clip0_148_7921)">
<path d="M21.4194 48.4951L5.65198 36.1861C4.9047 35.6028 4.77361 34.524 5.35913 33.7775L31.1324 0.919521C31.7171 0.174048 32.7953 0.042056 33.5415 0.624551L49.309 12.9335C50.0563 13.5168 50.1874 14.5956 49.6019 15.3422L23.8286 48.2001C23.2438 48.9456 22.1657 49.0776 21.4194 48.4951Z" fill="#57AD7B"/>
<path d="M11.4644 49.5016L0.32506 32.9027C-0.203109 32.1157 0.00795715 31.0493 0.796287 30.5214L35.518 7.27502C36.3054 6.74786 37.3708 6.95762 37.8984 7.74373L49.0377 24.3426C49.5659 25.1296 49.3548 26.196 48.5665 26.7239L13.8448 49.9703C13.0574 50.4975 11.992 50.2877 11.4644 49.5016Z" fill="#81CDA1"/>
<path d="M49.0378 24.3426L37.8985 7.74373C37.371 6.95762 36.3056 6.74786 35.5182 7.27502L34.1669 8.17965L45.0137 24.3426C45.5419 25.1296 45.3308 26.196 44.5425 26.7239L11.1719 49.0657L11.4644 49.5016C11.992 50.2877 13.0574 50.4975 13.8448 49.9703L48.5665 26.7239C49.355 26.196 49.5659 25.1296 49.0378 24.3426Z" fill="#60BF88"/>
<path d="M33.818 29.1687C34.1111 24.1266 30.2566 19.8014 25.2088 19.508C20.161 19.2147 15.8314 23.0643 15.5384 28.1063C15.2454 33.1484 19.0999 37.4737 24.1476 37.767C29.1954 38.0604 33.525 34.2108 33.818 29.1687Z" fill="#29795D"/>
<path d="M5.54763 27.3398C7.83546 30.749 6.92359 35.365 3.51091 37.6498L0.323386 32.9001C-0.204079 32.1141 0.00749023 31.049 0.796021 30.5211L5.54763 27.3398Z" fill="#29795D"/>
<path d="M8.28516 44.7645C11.7051 42.4749 16.3283 43.3765 18.6113 46.7785L13.8465 49.9685C13.0581 50.4964 11.9913 50.2871 11.4638 49.5012L8.28516 44.7645Z" fill="#29795D"/>
<path d="M43.8165 29.9081C41.5287 26.4989 42.4405 21.883 45.8532 19.5981L49.0407 24.3478C49.5682 25.1339 49.3566 26.1989 48.5681 26.7268L43.8165 29.9081Z" fill="#29795D"/>
<path d="M41.0791 12.4837C37.6592 14.7734 33.0359 13.8717 30.7529 10.4697L35.5177 7.27963C36.3061 6.75176 37.3729 6.96102 37.9004 7.74693L41.0791 12.4837Z" fill="#29795D"/>
<path d="M36.1723 21.6842C35.9289 21.6842 35.6901 21.5667 35.5446 21.3493C35.3128 21.003 35.4056 20.5344 35.7518 20.3025L39.3038 17.9244C39.65 17.6927 40.1188 17.7854 40.3506 18.1317C40.5824 18.478 40.4897 18.9466 40.1434 19.1785L36.5914 21.5565C36.4625 21.6428 36.3165 21.6842 36.1723 21.6842Z" fill="#29795D"/>
<path d="M9.63905 39.4483C9.39569 39.4483 9.15696 39.3308 9.01139 39.1134C8.7796 38.7671 8.87235 38.2985 9.21863 38.0667L12.7705 35.6887C13.1167 35.4568 13.5853 35.5496 13.8173 35.8959C14.0491 36.2422 13.9564 36.7108 13.6101 36.9426L10.0582 39.3207C9.92919 39.407 9.78332 39.4483 9.63905 39.4483Z" fill="#29795D"/>
<path d="M28.2077 32.6329C29.2956 31.5117 29.331 29.9605 28.8361 28.8633C28.1896 27.4307 26.7647 26.7633 25.2056 27.1633C25.018 27.2114 24.8258 27.2593 24.6322 27.3049L22.9205 24.7542C23.3504 24.6145 23.6855 24.6509 23.7186 24.655C24.1285 24.714 24.5087 24.4326 24.5718 24.0234C24.6354 23.6115 24.3532 23.2261 23.9413 23.1624C23.8891 23.1545 23.0335 23.0329 22.0602 23.4724L21.7282 22.9777C21.4959 22.6317 21.0274 22.5394 20.6812 22.7717C20.3352 23.0039 20.243 23.4726 20.4752 23.8187L20.8373 24.3583C20.7781 24.4217 20.7195 24.4872 20.6617 24.5572C19.9967 25.3649 19.8508 26.4918 20.2813 27.4979C20.6748 28.418 21.4672 29.0298 22.3495 29.0948C22.7971 29.1277 23.3015 29.0952 23.943 28.9862L26.1457 32.2686C25.7092 32.5057 25.358 32.5795 24.6988 32.5875C24.2821 32.5925 23.9484 32.9343 23.9536 33.351C23.9585 33.7646 24.2953 34.0965 24.7078 34.0965H24.7171C25.7453 34.084 26.3391 33.9007 26.9891 33.5253L27.361 34.0795C27.5066 34.2965 27.7451 34.4137 27.9882 34.4137C28.1327 34.4137 28.2789 34.3722 28.408 34.2857C28.754 34.0535 28.8462 33.5848 28.614 33.2387L28.2077 32.6329ZM22.4606 27.59C22.1479 27.5669 21.8372 27.2979 21.6689 26.9046C21.5246 26.5671 21.4743 26.0854 21.7188 25.6716L23.0029 27.5849C22.8094 27.599 22.6266 27.6023 22.4606 27.59ZM25.5805 28.6251C26.8224 28.3068 27.3333 29.2021 27.4606 29.484C27.6993 30.013 27.7171 30.7309 27.3279 31.3218L25.5273 28.6386C25.5452 28.6339 25.5622 28.6297 25.5805 28.6251Z" fill="#81CDA1"/>
</g>
<defs>
<clipPath id="clip0_148_7921">
<rect width="50" height="50" fill="white" transform="translate(0 0.26123)"/>
</clipPath>
</defs>
</svg>
