<svg width="50" height="43" viewBox="0 0 50 43" fill="none" xmlns="http://www.w3.org/2000/svg">
    <path fill-rule="evenodd" clip-rule="evenodd" d="M25.6443 0.685727C21.6235 0.551825 17.5611 1.64882 14.0539 3.98991C10.1148 6.62207 7.36193 10.509 6.09394 14.8542C5.74378 14.8115 5.32447 14.8304 4.82658 14.9712C2.96766 15.4986 1.56955 17.0218 0.940897 18.3634C0.125538 20.1116 -0.218334 22.4238 0.144398 24.8108C0.504614 27.1902 1.50983 29.1516 2.76713 30.3693C4.0282 31.5877 5.45209 31.9837 6.86655 31.6863C8.97253 31.2369 10.0167 30.9005 9.72188 28.9385L8.29422 19.4277C8.58214 14.2803 11.247 9.43465 15.7041 6.45485C21.67 2.46984 29.4917 2.72507 35.1822 7.09356C39.1408 10.1287 41.4392 14.6763 41.7044 19.4503L40.7062 26.1033C38.4795 32.1968 32.9593 36.4176 26.5716 37.0167H22.3181C21.2205 37.0167 20.3366 37.9006 20.3366 38.9969V40.0417C20.3366 41.1387 21.2205 42.0226 22.3181 42.0226H27.6812C28.7781 42.0226 29.6583 41.1387 29.6583 40.0417V39.4954C34.475 38.3199 38.6794 35.3596 41.4172 31.2312L43.1353 31.687C44.5334 32.0497 45.9742 31.5877 47.2347 30.37C48.492 29.1516 49.4966 27.1909 49.8574 24.8114C50.2214 22.4244 49.8675 20.116 49.0615 18.364C48.2525 16.6119 47.0473 15.4992 45.6561 15.1C45.0734 14.9322 44.441 14.8706 43.8984 14.8542C42.7518 10.9252 40.3912 7.35193 36.9889 4.74304C33.6439 2.17626 29.6652 0.817744 25.6443 0.685727Z" fill="#000000"/>
    <path fill-rule="evenodd" clip-rule="evenodd" d="M31.9215 17.7962C33.3391 17.7962 34.4883 18.9454 34.4915 20.3668C34.4883 21.7844 33.3391 22.9367 31.9215 22.9367C30.5002 22.9367 29.3478 21.7844 29.3478 20.3668C29.3478 18.946 30.5008 17.7962 31.9215 17.7962ZM25.0001 17.7962C26.4209 17.7962 27.57 18.9454 27.57 20.3668C27.57 21.7844 26.4209 22.9367 25.0001 22.9367C23.5781 22.9367 22.4289 21.7844 22.4289 20.3668C22.4289 18.946 23.5781 17.7962 25.0001 17.7962ZM18.0812 17.7962C19.4988 17.7962 20.6511 18.9454 20.6511 20.3668C20.6511 21.7844 19.4988 22.9367 18.0812 22.9367C16.6604 22.9367 15.5106 21.7844 15.5106 20.3668C15.5106 18.946 16.6604 17.7962 18.0812 17.7962ZM25.0001 6.75586C17.4626 6.75586 11.3886 12.63 11.3886 20.3668C11.3886 24.0827 12.7936 27.3668 15.0825 29.7764L14.2703 33.4175C14.0025 34.6157 14.8336 35.4217 15.9105 34.8219L19.4661 32.8385C21.1559 33.5722 23.0249 33.9777 25.0001 33.9777C32.5401 33.9777 38.6104 28.1073 38.6104 20.3668C38.6104 12.63 32.5401 6.75586 25.0001 6.75586Z" fill="#000000"/>
</svg>
