<svg xmlns="http://www.w3.org/2000/svg" xmlns:xlink="http://www.w3.org/1999/xlink" width="865" zoomAndPan="magnify" viewBox="0 0 648.75 66" height="88" preserveAspectRatio="xMidYMid meet" version="1.0"><defs><clipPath id="6e433832b8"><path d="M 0 17.105469 L 648.261719 17.105469 L 648.261719 53.09375 L 0 53.09375 Z M 0 17.105469 " clip-rule="nonzero"/></clipPath><clipPath id="108a479edf"><path d="M 302.46875 32.136719 L 333.992188 32.136719 L 333.992188 53.09375 L 302.46875 53.09375 Z M 302.46875 32.136719 " clip-rule="nonzero"/></clipPath><clipPath id="6634fdc4e3"><path d="M 320 53 L 322 53 L 322 53.09375 L 320 53.09375 Z M 320 53 " clip-rule="nonzero"/></clipPath><clipPath id="704f714c78"><path d="M 325 52 L 327 52 L 327 53.09375 L 325 53.09375 Z M 325 52 " clip-rule="nonzero"/></clipPath><clipPath id="4220be1e37"><path d="M 315 52 L 317 52 L 317 53.09375 L 315 53.09375 Z M 315 52 " clip-rule="nonzero"/></clipPath><clipPath id="d9a566ab76"><path d="M 0 17.816406 L 30.726562 17.816406 L 30.726562 45.554688 L 0 45.554688 Z M 0 17.816406 " clip-rule="nonzero"/></clipPath><clipPath id="a463b5c8a1"><path d="M 105.613281 32.136719 L 137.136719 32.136719 L 137.136719 53.09375 L 105.613281 53.09375 Z M 105.613281 32.136719 " clip-rule="nonzero"/></clipPath><clipPath id="f730035fd2"><path d="M 123 53 L 125 53 L 125 53.09375 L 123 53.09375 Z M 123 53 " clip-rule="nonzero"/></clipPath><clipPath id="6e5cb3e509"><path d="M 128 52 L 130 52 L 130 53.09375 L 128 53.09375 Z M 128 52 " clip-rule="nonzero"/></clipPath><clipPath id="fc5d119ce6"><path d="M 119 52 L 120 52 L 120 53.09375 L 119 53.09375 Z M 119 52 " clip-rule="nonzero"/></clipPath><clipPath id="a262334799"><path d="M 361.007812 17.105469 L 386.527344 17.105469 L 386.527344 38.808594 L 361.007812 38.808594 Z M 361.007812 17.105469 " clip-rule="nonzero"/></clipPath><clipPath id="33a63ac054"><path d="M 57.746094 17.105469 L 83.261719 17.105469 L 83.261719 38.808594 L 57.746094 38.808594 Z M 57.746094 17.105469 " clip-rule="nonzero"/></clipPath><clipPath id="0fc42d5b73"><path d="M 164.152344 17.105469 L 189.671875 17.105469 L 189.671875 38.808594 L 164.152344 38.808594 Z M 164.152344 17.105469 " clip-rule="nonzero"/></clipPath><clipPath id="338f1860b7"><path d="M 513.363281 17.105469 L 534.375 17.105469 L 534.375 31.3125 L 513.363281 31.3125 Z M 513.363281 17.105469 " clip-rule="nonzero"/></clipPath><clipPath id="3edfa7e471"><path d="M 590.652344 31.3125 L 611.398438 31.3125 L 611.398438 53.09375 L 590.652344 53.09375 Z M 590.652344 31.3125 " clip-rule="nonzero"/></clipPath><clipPath id="dffbdd85bc"><path d="M 254.910156 31.3125 L 275.65625 31.3125 L 275.65625 53.09375 L 254.910156 53.09375 Z M 254.910156 31.3125 " clip-rule="nonzero"/></clipPath></defs><g clip-path="url(#6e433832b8)"><path fill="#fd9419" d="M -0.792969 15.421875 L 648.089844 15.421875 L 648.089844 54.40625 L -0.792969 54.40625 Z M -0.792969 15.421875 " fill-opacity="1" fill-rule="nonzero"/></g><g clip-path="url(#108a479edf)"><path fill="#ffffff" d="M 333.863281 45.132812 C 333.894531 45.519531 333.992188 45.8125 333.960938 46.070312 C 333.863281 47.363281 333.769531 48.65625 333.609375 49.949219 C 333.484375 50.984375 333.292969 51.988281 333.101562 52.988281 C 332.878906 54.316406 332.277344 55.480469 331.292969 56.417969 C 329.453125 58.226562 327.355469 59.648438 324.722656 59.84375 C 321.867188 60.039062 319.070312 59.617188 316.59375 57.9375 C 316.089844 57.613281 315.675781 57.546875 315.105469 57.675781 C 312.5 58.292969 309.929688 58.195312 307.390625 57.289062 C 304.535156 56.285156 303.074219 54.089844 302.597656 51.113281 C 302.25 48.949219 302.660156 46.910156 303.453125 44.90625 C 304.34375 42.578125 305.582031 40.445312 307.136719 38.503906 C 308.4375 36.855469 310.089844 35.59375 311.960938 34.691406 C 313.484375 33.945312 315.105469 33.753906 316.753906 33.882812 C 318.5625 34.011719 320.308594 34.335938 321.929688 35.5 C 322.183594 34.949219 322.4375 34.496094 322.59375 34.011719 C 322.914062 33.007812 323.578125 32.363281 324.5625 32.136719 C 325.007812 32.070312 325.515625 32.199219 325.960938 32.363281 C 326.277344 32.492188 326.277344 32.847656 325.992188 33.042969 C 325.738281 33.234375 325.421875 33.398438 325.136719 33.460938 C 324.46875 33.589844 323.992188 33.945312 323.675781 34.527344 C 323.644531 34.59375 323.609375 34.625 323.578125 34.691406 C 323.324219 35.144531 322.914062 35.59375 322.914062 36.015625 C 322.945312 36.402344 323.484375 36.726562 323.769531 37.082031 C 325.546875 39.28125 326.339844 41.769531 325.800781 44.648438 C 325.613281 45.683594 325.421875 46.71875 325.199219 47.847656 C 328.085938 46.945312 330.945312 46.039062 333.863281 45.132812 Z M 319.515625 38.3125 C 319.578125 38.34375 319.613281 38.375 319.675781 38.375 C 319.613281 38.925781 319.675781 39.570312 319.453125 40.058594 C 319.070312 40.832031 318.5625 41.542969 318.023438 42.222656 C 317.613281 42.773438 317.007812 43.160156 316.691406 43.742188 C 316.023438 44.972656 315.136719 45.910156 314.054688 46.78125 C 313.390625 47.332031 312.816406 48.074219 312.277344 48.785156 C 311.898438 49.269531 311.613281 49.886719 311.292969 50.433594 C 310.820312 51.242188 310.214844 51.921875 309.453125 52.535156 C 308.914062 52.988281 308.4375 53.570312 308.089844 54.152344 C 307.644531 54.863281 307.328125 55.640625 306.945312 56.480469 C 307.707031 56.738281 308.5 57 309.328125 57.289062 C 309.328125 57.222656 309.292969 57.191406 309.292969 57.128906 C 309.421875 57 309.550781 56.867188 309.707031 56.773438 C 309.992188 56.609375 310.34375 56.546875 310.566406 56.320312 C 311.292969 55.609375 312.023438 54.898438 312.722656 54.152344 C 312.851562 54.023438 312.882812 53.699219 312.816406 53.507812 C 312.691406 53.117188 312.5 52.761719 312.3125 52.34375 C 312.566406 52.179688 312.753906 52.019531 312.976562 51.921875 C 313.800781 51.597656 314.597656 51.179688 315.453125 51.015625 C 316.53125 50.789062 317.199219 50.207031 317.582031 49.175781 C 318.152344 47.621094 319.261719 46.492188 320.5625 45.519531 C 320.660156 45.457031 320.785156 45.457031 320.945312 45.425781 C 320.308594 46.945312 319.707031 48.367188 319.070312 49.851562 C 319.867188 49.59375 320.660156 49.304688 321.453125 49.109375 C 322.183594 48.949219 322.5625 48.558594 322.691406 47.816406 C 322.914062 46.492188 323.199219 45.199219 323.453125 43.871094 C 323.515625 43.644531 323.609375 43.417969 323.738281 43.128906 C 323.800781 43.773438 323.960938 44.324219 323.863281 44.808594 C 323.707031 45.875 323.421875 46.945312 323.199219 48.011719 C 323.167969 48.171875 323.101562 48.332031 323.070312 48.496094 C 323.960938 48.464844 324.46875 48.042969 324.625 47.167969 C 324.753906 46.457031 324.945312 45.746094 325.070312 45.035156 C 325.546875 42.675781 325.261719 40.445312 323.929688 38.410156 C 323.484375 37.761719 323.007812 37.148438 322.40625 36.695312 C 322.054688 37.050781 321.800781 37.40625 321.453125 37.664062 C 321.324219 37.761719 321.007812 37.601562 320.753906 37.566406 C 320.816406 37.339844 320.816406 37.113281 320.914062 36.921875 C 321.105469 36.628906 321.324219 36.339844 321.546875 36.046875 C 320.5625 35.335938 319.515625 34.820312 318.34375 34.691406 C 317.292969 34.5625 316.246094 34.527344 315.199219 34.433594 C 314.089844 34.335938 313.074219 34.691406 312.089844 35.175781 C 310.246094 36.144531 308.660156 37.375 307.390625 39.054688 C 305.992188 40.867188 304.851562 42.835938 304.023438 44.972656 C 303.390625 46.585938 302.976562 48.269531 303.074219 50.046875 C 303.105469 50.921875 303.261719 51.824219 303.707031 52.601562 C 303.835938 52.308594 303.898438 52.019531 303.898438 51.726562 C 303.992188 50.5 304.246094 49.304688 304.976562 48.332031 C 305.992188 46.976562 306.691406 45.457031 307.230469 43.839844 C 307.738281 42.320312 308.691406 41.089844 310.089844 40.285156 C 311.105469 39.703125 312.214844 39.183594 313.261719 38.632812 C 313.800781 38.34375 314.308594 38.050781 314.851562 37.761719 C 315.070312 37.632812 315.328125 37.535156 315.546875 37.40625 C 315.582031 37.472656 315.613281 37.503906 315.644531 37.566406 C 315.421875 37.792969 315.199219 37.988281 314.914062 38.277344 C 315.769531 38.050781 316.214844 37.503906 316.5625 36.695312 C 316.722656 37.339844 316.5 37.761719 316.152344 38.019531 C 315.769531 38.3125 315.359375 38.570312 314.945312 38.765625 C 314.152344 39.121094 313.328125 39.378906 312.53125 39.703125 C 312.246094 39.832031 311.960938 40.023438 311.738281 40.21875 C 311.136719 40.703125 310.597656 41.285156 309.960938 41.738281 C 309.328125 42.191406 308.945312 42.742188 308.691406 43.484375 C 308.4375 44.355469 308.089844 45.230469 307.707031 46.039062 C 306.914062 47.785156 306.058594 49.496094 305.265625 51.242188 C 305.199219 51.371094 305.167969 51.503906 305.136719 51.597656 C 304.914062 52.375 304.691406 53.152344 304.5 53.960938 C 304.46875 54.121094 304.46875 54.316406 304.566406 54.445312 C 304.945312 55.027344 305.421875 55.480469 306.027344 55.835938 C 306.597656 54.605469 307.136719 53.441406 307.675781 52.277344 C 308.183594 51.179688 308.882812 50.242188 309.898438 49.59375 C 310.851562 48.980469 311.582031 48.140625 312.121094 47.167969 C 312.816406 45.941406 313.769531 44.972656 314.945312 44.226562 C 315.675781 43.742188 316.5 43.355469 316.945312 42.515625 C 317.007812 42.417969 317.105469 42.386719 317.199219 42.289062 C 317.515625 41.964844 317.898438 41.671875 318.121094 41.316406 C 318.53125 40.574219 318.882812 39.734375 319.230469 38.957031 C 319.324219 38.765625 319.421875 38.539062 319.515625 38.3125 Z M 313.039062 52.441406 C 313.261719 52.890625 313.515625 53.214844 313.613281 53.601562 C 313.800781 54.410156 314.277344 54.992188 314.945312 55.382812 C 315.613281 55.800781 316.308594 56.15625 317.007812 56.480469 C 321.324219 58.550781 325.484375 58.160156 329.578125 55.769531 C 331.039062 54.898438 332.023438 53.636719 332.5625 52.019531 C 333.230469 50.078125 332.847656 48.011719 333.164062 45.941406 C 332.59375 46.136719 332.152344 46.265625 331.707031 46.425781 C 326.054688 48.203125 320.375 50.015625 314.722656 51.792969 C 314.121094 51.988281 313.578125 52.246094 313.039062 52.441406 Z M 315.769531 56.546875 C 318.34375 58.808594 321.421875 59.488281 324.660156 59.261719 C 327.546875 59.035156 329.769531 57.386719 331.609375 55.1875 C 331.863281 54.898438 331.992188 54.507812 332.183594 54.152344 C 330.085938 56.609375 327.386719 57.742188 324.375 58.195312 C 321.359375 58.710938 318.46875 58.066406 315.769531 56.546875 Z M 306.4375 55.867188 C 306.5 55.929688 306.597656 55.964844 306.660156 56.027344 C 306.882812 55.640625 307.167969 55.285156 307.328125 54.863281 C 307.738281 53.601562 308.5 52.664062 309.550781 51.890625 C 310.628906 51.082031 311.136719 49.820312 311.769531 48.6875 C 310.753906 49.820312 309.199219 50.339844 308.46875 51.792969 C 307.769531 53.117188 307.105469 54.476562 306.4375 55.867188 Z M 315.261719 57.03125 C 314.691406 56.480469 314.183594 56.027344 313.738281 55.574219 C 313.105469 55.964844 312.53125 56.417969 311.867188 56.675781 C 311.230469 56.933594 310.53125 57 309.898438 57.128906 C 309.898438 57.191406 309.929688 57.222656 309.929688 57.289062 C 311.675781 57.613281 313.421875 57.484375 315.261719 57.03125 Z M 304.121094 53.570312 C 304.40625 52.082031 305.136719 50.789062 305.707031 49.433594 C 306.34375 47.976562 307.007812 46.554688 307.675781 45.132812 C 308.027344 44.355469 308.246094 43.484375 308.5 42.675781 C 308.4375 42.644531 308.34375 42.609375 308.277344 42.609375 C 307.960938 43.453125 307.675781 44.292969 307.296875 45.101562 C 306.882812 46.007812 306.535156 47.007812 305.929688 47.75 C 304.535156 49.464844 304.46875 51.535156 304.121094 53.570312 Z M 317.453125 50.304688 C 318.53125 50.113281 319.738281 48.203125 319.898438 46.621094 C 318.660156 47.558594 318.121094 48.914062 317.453125 50.304688 Z M 312.375 47.65625 C 313.074219 47.074219 313.675781 46.523438 314.308594 46.039062 C 315.261719 45.292969 315.707031 44.746094 315.832031 44.226562 C 314.40625 45.035156 313.199219 46.070312 312.375 47.65625 Z M 313.105469 54.636719 C 312.4375 55.316406 311.804688 55.964844 311.261719 56.546875 C 311.804688 56.449219 312.375 56.09375 312.914062 55.671875 C 313.484375 55.1875 313.484375 55.1875 313.105469 54.636719 Z M 323.230469 34.074219 C 323.644531 33.203125 324.46875 33.007812 325.292969 32.816406 C 324.4375 32.523438 323.578125 33.042969 323.230469 34.074219 Z M 309.328125 41.414062 C 309.359375 41.480469 309.390625 41.511719 309.421875 41.578125 C 309.929688 41.222656 310.40625 40.867188 310.914062 40.542969 C 310.882812 40.476562 310.851562 40.445312 310.820312 40.378906 C 310.3125 40.734375 309.835938 41.089844 309.328125 41.414062 Z M 309.328125 41.414062 " fill-opacity="0.5" fill-rule="nonzero"/></g><path fill="#ffffff" d="M 327.546875 49.367188 C 328.023438 49.53125 328.277344 49.886719 328.40625 50.371094 C 328.4375 50.5 328.339844 50.757812 328.277344 50.757812 C 328.148438 50.789062 327.898438 50.726562 327.832031 50.628906 C 327.640625 50.273438 327.484375 49.886719 327.324219 49.496094 C 327.386719 49.464844 327.484375 49.402344 327.546875 49.367188 Z M 327.546875 49.367188 " fill-opacity="0.5" fill-rule="nonzero"/><path fill="#ffffff" d="M 323.960938 49.917969 C 324.183594 50.304688 324.375 50.566406 324.46875 50.886719 C 324.5 51.015625 324.308594 51.242188 324.246094 51.40625 C 324.121094 51.308594 323.898438 51.210938 323.832031 51.082031 C 323.675781 50.726562 323.644531 50.371094 323.960938 49.917969 Z M 323.960938 49.917969 " fill-opacity="0.5" fill-rule="nonzero"/><path fill="#ffffff" d="M 318.691406 52.796875 C 318.53125 52.117188 318.882812 51.695312 319.136719 51.210938 C 319.453125 51.859375 319.292969 52.40625 318.691406 52.796875 Z M 318.691406 52.796875 " fill-opacity="0.5" fill-rule="nonzero"/><g clip-path="url(#6634fdc4e3)"><path fill="#ffffff" d="M 320.882812 53.441406 C 321.230469 53.796875 321.167969 54.152344 321.039062 54.507812 C 321.007812 54.605469 320.816406 54.703125 320.722656 54.734375 C 320.660156 54.734375 320.53125 54.574219 320.53125 54.445312 C 320.46875 54.089844 320.46875 53.699219 320.882812 53.441406 Z M 320.882812 53.441406 " fill-opacity="0.5" fill-rule="nonzero"/></g><path fill="#ffffff" d="M 330.371094 48.820312 C 330.722656 48.949219 331.070312 49.078125 331.007812 49.53125 C 331.007812 49.59375 330.625 49.691406 330.5 49.625 C 330.085938 49.464844 329.992188 49.175781 330.371094 48.820312 Z M 330.371094 48.820312 " fill-opacity="0.5" fill-rule="nonzero"/><g clip-path="url(#704f714c78)"><path fill="#ffffff" d="M 326.5 53.085938 C 326.339844 53.28125 326.246094 53.410156 326.152344 53.507812 C 325.992188 53.3125 325.800781 53.117188 325.675781 52.890625 C 325.644531 52.859375 325.960938 52.570312 325.960938 52.601562 C 326.183594 52.730469 326.308594 52.890625 326.5 53.085938 Z M 326.5 53.085938 " fill-opacity="0.5" fill-rule="nonzero"/></g><g clip-path="url(#4220be1e37)"><path fill="#ffffff" d="M 315.960938 53.054688 C 316.089844 52.925781 316.214844 52.828125 316.34375 52.699219 C 316.4375 52.761719 316.5 52.859375 316.59375 52.925781 C 316.5 53.054688 316.375 53.183594 316.277344 53.34375 C 316.183594 53.246094 316.089844 53.152344 315.960938 53.054688 Z M 315.960938 53.054688 " fill-opacity="0.5" fill-rule="nonzero"/></g><g clip-path="url(#d9a566ab76)"><path fill="#ffffff" d="M 30.601562 30.8125 C 30.632812 31.203125 30.726562 31.492188 30.695312 31.75 C 30.601562 33.042969 30.503906 34.335938 30.347656 35.628906 C 30.21875 36.664062 30.027344 37.667969 29.839844 38.667969 C 29.617188 39.996094 29.011719 41.160156 28.027344 42.097656 C 26.1875 43.90625 24.09375 45.328125 21.457031 45.523438 C 18.601562 45.71875 15.808594 45.296875 13.332031 43.617188 C 12.824219 43.292969 12.410156 43.226562 11.839844 43.359375 C 9.238281 43.972656 6.664062 43.875 4.125 42.96875 C 1.269531 41.96875 -0.191406 39.769531 -0.667969 36.792969 C -1.015625 34.628906 -0.605469 32.589844 0.191406 30.585938 C 1.078125 28.257812 2.316406 26.125 3.871094 24.1875 C 5.171875 22.535156 6.824219 21.277344 8.695312 20.371094 C 10.21875 19.628906 11.839844 19.433594 13.488281 19.5625 C 15.300781 19.691406 17.046875 20.015625 18.664062 21.179688 C 18.917969 20.628906 19.171875 20.175781 19.332031 19.691406 C 19.648438 18.691406 20.316406 18.042969 21.300781 17.816406 C 21.742188 17.753906 22.25 17.882812 22.695312 18.042969 C 23.011719 18.171875 23.011719 18.527344 22.726562 18.722656 C 22.472656 18.914062 22.15625 19.078125 21.871094 19.140625 C 21.203125 19.273438 20.726562 19.628906 20.410156 20.210938 C 20.378906 20.273438 20.347656 20.304688 20.316406 20.371094 C 20.0625 20.824219 19.648438 21.277344 19.648438 21.695312 C 19.679688 22.085938 20.21875 22.40625 20.503906 22.761719 C 22.28125 24.960938 23.078125 27.449219 22.535156 30.328125 C 22.347656 31.363281 22.15625 32.398438 21.933594 33.527344 C 24.824219 32.625 27.679688 31.71875 30.601562 30.8125 Z M 16.25 23.992188 C 16.316406 24.023438 16.347656 24.054688 16.410156 24.054688 C 16.347656 24.605469 16.410156 25.253906 16.1875 25.738281 C 15.808594 26.511719 15.300781 27.226562 14.761719 27.902344 C 14.347656 28.453125 13.742188 28.839844 13.425781 29.421875 C 12.761719 30.652344 11.871094 31.589844 10.792969 32.460938 C 10.125 33.011719 9.554688 33.753906 9.015625 34.464844 C 8.632812 34.953125 8.347656 35.566406 8.03125 36.117188 C 7.554688 36.925781 6.949219 37.601562 6.1875 38.21875 C 5.648438 38.667969 5.171875 39.25 4.824219 39.832031 C 4.378906 40.542969 4.0625 41.320312 3.679688 42.160156 C 4.441406 42.421875 5.238281 42.679688 6.0625 42.96875 C 6.0625 42.90625 6.03125 42.871094 6.03125 42.808594 C 6.15625 42.679688 6.285156 42.550781 6.441406 42.453125 C 6.730469 42.289062 7.078125 42.226562 7.300781 42 C 8.03125 41.289062 8.761719 40.578125 9.457031 39.832031 C 9.585938 39.703125 9.617188 39.382812 9.554688 39.1875 C 9.425781 38.800781 9.238281 38.445312 9.046875 38.023438 C 9.300781 37.863281 9.492188 37.699219 9.710938 37.601562 C 10.539062 37.28125 11.332031 36.859375 12.1875 36.699219 C 13.269531 36.472656 13.933594 35.890625 14.316406 34.855469 C 14.886719 33.304688 15.996094 32.171875 17.300781 31.203125 C 17.394531 31.136719 17.523438 31.136719 17.679688 31.105469 C 17.046875 32.625 16.441406 34.046875 15.808594 35.535156 C 16.601562 35.273438 17.394531 34.984375 18.1875 34.789062 C 18.917969 34.628906 19.300781 34.242188 19.425781 33.496094 C 19.648438 32.171875 19.933594 30.878906 20.1875 29.550781 C 20.25 29.328125 20.347656 29.101562 20.472656 28.808594 C 20.539062 29.457031 20.695312 30.003906 20.601562 30.488281 C 20.441406 31.558594 20.15625 32.625 19.933594 33.691406 C 19.902344 33.851562 19.839844 34.015625 19.808594 34.175781 C 20.695312 34.144531 21.203125 33.722656 21.363281 32.851562 C 21.488281 32.140625 21.679688 31.425781 21.808594 30.714844 C 22.28125 28.355469 21.996094 26.125 20.664062 24.089844 C 20.21875 23.441406 19.742188 22.828125 19.140625 22.375 C 18.792969 22.730469 18.539062 23.085938 18.1875 23.34375 C 18.0625 23.441406 17.742188 23.28125 17.488281 23.25 C 17.554688 23.023438 17.554688 22.796875 17.648438 22.601562 C 17.839844 22.3125 18.0625 22.019531 18.285156 21.730469 C 17.300781 21.015625 16.25 20.5 15.078125 20.371094 C 14.03125 20.242188 12.980469 20.210938 11.933594 20.113281 C 10.824219 20.015625 9.808594 20.371094 8.824219 20.855469 C 6.984375 21.824219 5.394531 23.054688 4.125 24.734375 C 2.730469 26.546875 1.585938 28.519531 0.761719 30.652344 C 0.125 32.269531 -0.285156 33.949219 -0.191406 35.726562 C -0.160156 36.601562 0 37.503906 0.445312 38.28125 C 0.570312 37.992188 0.632812 37.699219 0.632812 37.410156 C 0.730469 36.179688 0.984375 34.984375 1.714844 34.015625 C 2.730469 32.65625 3.425781 31.136719 3.96875 29.519531 C 4.476562 28 5.425781 26.773438 6.824219 25.964844 C 7.839844 25.382812 8.949219 24.863281 10 24.316406 C 10.539062 24.023438 11.046875 23.734375 11.585938 23.441406 C 11.808594 23.3125 12.0625 23.214844 12.285156 23.085938 C 12.316406 23.152344 12.347656 23.183594 12.378906 23.25 C 12.15625 23.472656 11.933594 23.667969 11.648438 23.960938 C 12.507812 23.734375 12.949219 23.183594 13.300781 22.375 C 13.457031 23.023438 13.234375 23.441406 12.886719 23.699219 C 12.507812 23.992188 12.09375 24.25 11.679688 24.445312 C 10.886719 24.800781 10.0625 25.058594 9.269531 25.382812 C 8.984375 25.511719 8.695312 25.707031 8.476562 25.898438 C 7.871094 26.382812 7.332031 26.964844 6.695312 27.417969 C 6.0625 27.871094 5.679688 28.421875 5.425781 29.164062 C 5.171875 30.039062 4.824219 30.910156 4.441406 31.71875 C 3.648438 33.464844 2.792969 35.179688 2 36.925781 C 1.933594 37.054688 1.902344 37.183594 1.871094 37.28125 C 1.648438 38.054688 1.425781 38.832031 1.238281 39.640625 C 1.207031 39.800781 1.207031 39.996094 1.300781 40.125 C 1.679688 40.707031 2.15625 41.160156 2.761719 41.515625 C 3.332031 40.285156 3.871094 39.121094 4.410156 37.957031 C 4.917969 36.859375 5.617188 35.921875 6.632812 35.273438 C 7.585938 34.660156 8.316406 33.820312 8.855469 32.851562 C 9.554688 31.621094 10.507812 30.652344 11.679688 29.90625 C 12.410156 29.421875 13.234375 29.035156 13.679688 28.195312 C 13.742188 28.097656 13.839844 28.066406 13.933594 27.96875 C 14.25 27.644531 14.632812 27.355469 14.855469 27 C 15.269531 26.253906 15.617188 25.414062 15.964844 24.636719 C 16.0625 24.445312 16.15625 24.21875 16.25 23.992188 Z M 9.777344 38.121094 C 10 38.574219 10.253906 38.894531 10.347656 39.285156 C 10.539062 40.09375 11.015625 40.675781 11.679688 41.0625 C 12.347656 41.480469 13.046875 41.839844 13.742188 42.160156 C 18.0625 44.230469 22.21875 43.84375 26.3125 41.449219 C 27.773438 40.578125 28.757812 39.316406 29.296875 37.699219 C 29.964844 35.761719 29.585938 33.691406 29.902344 31.621094 C 29.328125 31.816406 28.886719 31.945312 28.441406 32.105469 C 22.789062 33.886719 17.109375 35.695312 11.457031 37.472656 C 10.855469 37.667969 10.316406 37.925781 9.777344 38.121094 Z M 12.507812 42.226562 C 15.078125 44.488281 18.15625 45.167969 21.394531 44.941406 C 24.28125 44.714844 26.503906 43.066406 28.347656 40.867188 C 28.601562 40.578125 28.726562 40.1875 28.917969 39.832031 C 26.824219 42.289062 24.125 43.421875 21.109375 43.875 C 18.09375 44.390625 15.203125 43.746094 12.507812 42.226562 Z M 3.171875 41.546875 C 3.238281 41.613281 3.332031 41.644531 3.394531 41.707031 C 3.617188 41.320312 3.902344 40.964844 4.0625 40.542969 C 4.476562 39.285156 5.238281 38.347656 6.285156 37.570312 C 7.363281 36.761719 7.871094 35.5 8.507812 34.371094 C 7.492188 35.5 5.933594 36.019531 5.203125 37.472656 C 4.507812 38.800781 3.839844 40.15625 3.171875 41.546875 Z M 12 42.710938 C 11.425781 42.160156 10.917969 41.707031 10.472656 41.257812 C 9.839844 41.644531 9.269531 42.097656 8.601562 42.355469 C 7.964844 42.613281 7.269531 42.679688 6.632812 42.808594 C 6.632812 42.871094 6.664062 42.90625 6.664062 42.96875 C 8.410156 43.292969 10.15625 43.164062 12 42.710938 Z M 0.855469 39.25 C 1.140625 37.765625 1.871094 36.472656 2.445312 35.113281 C 3.078125 33.660156 3.746094 32.234375 4.410156 30.8125 C 4.761719 30.039062 4.984375 29.164062 5.238281 28.355469 C 5.171875 28.324219 5.078125 28.292969 5.015625 28.292969 C 4.695312 29.132812 4.410156 29.972656 4.03125 30.78125 C 3.617188 31.6875 3.269531 32.6875 2.664062 33.433594 C 1.269531 35.144531 1.207031 37.214844 0.855469 39.25 Z M 14.1875 35.984375 C 15.269531 35.792969 16.472656 33.886719 16.632812 32.300781 C 15.394531 33.238281 14.855469 34.597656 14.1875 35.984375 Z M 9.109375 33.335938 C 9.808594 32.753906 10.410156 32.203125 11.046875 31.71875 C 12 30.976562 12.441406 30.425781 12.570312 29.90625 C 11.140625 30.714844 9.933594 31.75 9.109375 33.335938 Z M 9.839844 40.320312 C 9.171875 40.996094 8.539062 41.644531 8 42.226562 C 8.539062 42.128906 9.109375 41.773438 9.648438 41.351562 C 10.21875 40.867188 10.21875 40.867188 9.839844 40.320312 Z M 19.964844 19.757812 C 20.378906 18.882812 21.203125 18.691406 22.027344 18.496094 C 21.171875 18.203125 20.316406 18.722656 19.964844 19.757812 Z M 6.0625 27.09375 C 6.09375 27.160156 6.125 27.191406 6.15625 27.257812 C 6.664062 26.902344 7.140625 26.546875 7.648438 26.222656 C 7.617188 26.15625 7.585938 26.125 7.554688 26.0625 C 7.046875 26.417969 6.570312 26.773438 6.0625 27.09375 Z M 6.0625 27.09375 " fill-opacity="0.5" fill-rule="nonzero"/></g><path fill="#ffffff" d="M 24.28125 35.046875 C 24.757812 35.210938 25.011719 35.566406 25.140625 36.050781 C 25.171875 36.179688 25.078125 36.4375 25.011719 36.4375 C 24.886719 36.472656 24.632812 36.40625 24.570312 36.308594 C 24.378906 35.953125 24.21875 35.566406 24.0625 35.179688 C 24.125 35.144531 24.21875 35.082031 24.28125 35.046875 Z M 24.28125 35.046875 " fill-opacity="0.5" fill-rule="nonzero"/><path fill="#ffffff" d="M 20.695312 35.597656 C 20.917969 35.988281 21.109375 36.246094 21.203125 36.566406 C 21.234375 36.699219 21.046875 36.925781 20.980469 37.085938 C 20.855469 36.988281 20.632812 36.890625 20.570312 36.761719 C 20.410156 36.40625 20.378906 36.050781 20.695312 35.597656 Z M 20.695312 35.597656 " fill-opacity="0.5" fill-rule="nonzero"/><path fill="#ffffff" d="M 15.425781 38.476562 C 15.269531 37.796875 15.617188 37.375 15.871094 36.890625 C 16.1875 37.539062 16.03125 38.085938 15.425781 38.476562 Z M 15.425781 38.476562 " fill-opacity="0.5" fill-rule="nonzero"/><path fill="#ffffff" d="M 17.617188 39.121094 C 17.964844 39.476562 17.902344 39.832031 17.777344 40.1875 C 17.742188 40.285156 17.554688 40.382812 17.457031 40.414062 C 17.394531 40.414062 17.265625 40.253906 17.265625 40.125 C 17.203125 39.769531 17.203125 39.378906 17.617188 39.121094 Z M 17.617188 39.121094 " fill-opacity="0.5" fill-rule="nonzero"/><path fill="#ffffff" d="M 19.964844 39.867188 C 20.15625 39.929688 20.347656 39.929688 20.378906 40.027344 C 20.472656 40.285156 20.539062 40.546875 20.570312 40.804688 C 20.570312 40.835938 20.378906 40.933594 20.285156 40.964844 C 20.15625 40.738281 20.027344 40.546875 19.933594 40.320312 C 19.902344 40.222656 19.964844 40.058594 19.964844 39.867188 Z M 19.964844 39.867188 " fill-opacity="0.5" fill-rule="nonzero"/><path fill="#ffffff" d="M 27.109375 34.5 C 27.457031 34.628906 27.804688 34.757812 27.742188 35.210938 C 27.742188 35.273438 27.363281 35.371094 27.234375 35.308594 C 26.820312 35.144531 26.726562 34.855469 27.109375 34.5 Z M 27.109375 34.5 " fill-opacity="0.5" fill-rule="nonzero"/><path fill="#ffffff" d="M 23.234375 38.765625 C 23.078125 38.960938 22.980469 39.089844 22.886719 39.1875 C 22.726562 38.992188 22.535156 38.800781 22.410156 38.574219 C 22.378906 38.539062 22.695312 38.25 22.695312 38.28125 C 22.917969 38.410156 23.046875 38.574219 23.234375 38.765625 Z M 23.234375 38.765625 " fill-opacity="0.5" fill-rule="nonzero"/><path fill="#ffffff" d="M 12.695312 38.734375 C 12.824219 38.605469 12.949219 38.507812 13.078125 38.378906 C 13.171875 38.445312 13.234375 38.539062 13.332031 38.605469 C 13.234375 38.734375 13.109375 38.863281 13.015625 39.023438 C 12.917969 38.929688 12.824219 38.832031 12.695312 38.734375 Z M 12.695312 38.734375 " fill-opacity="0.5" fill-rule="nonzero"/><g clip-path="url(#a463b5c8a1)"><path fill="#ffffff" d="M 137.007812 45.132812 C 137.039062 45.519531 137.136719 45.8125 137.101562 46.070312 C 137.007812 47.363281 136.914062 48.65625 136.753906 49.949219 C 136.625 50.984375 136.4375 51.988281 136.246094 52.988281 C 136.023438 54.316406 135.421875 55.480469 134.4375 56.417969 C 132.597656 58.226562 130.5 59.648438 127.867188 59.84375 C 125.007812 60.039062 122.214844 59.617188 119.738281 57.9375 C 119.230469 57.613281 118.820312 57.546875 118.246094 57.675781 C 115.644531 58.292969 113.074219 58.195312 110.535156 57.289062 C 107.675781 56.285156 106.21875 54.089844 105.742188 51.113281 C 105.390625 48.949219 105.804688 46.910156 106.597656 44.90625 C 107.484375 42.578125 108.722656 40.445312 110.28125 38.503906 C 111.582031 36.855469 113.230469 35.59375 115.105469 34.691406 C 116.628906 33.945312 118.246094 33.753906 119.898438 33.882812 C 121.707031 34.011719 123.453125 34.335938 125.070312 35.5 C 125.328125 34.949219 125.578125 34.496094 125.738281 34.011719 C 126.054688 33.007812 126.722656 32.363281 127.707031 32.136719 C 128.152344 32.070312 128.660156 32.199219 129.105469 32.363281 C 129.421875 32.492188 129.421875 32.847656 129.136719 33.042969 C 128.882812 33.234375 128.5625 33.398438 128.277344 33.460938 C 127.613281 33.589844 127.136719 33.945312 126.816406 34.527344 C 126.785156 34.59375 126.753906 34.625 126.722656 34.691406 C 126.46875 35.144531 126.054688 35.59375 126.054688 36.015625 C 126.089844 36.402344 126.628906 36.726562 126.914062 37.082031 C 128.691406 39.28125 129.484375 41.769531 128.945312 44.648438 C 128.753906 45.683594 128.5625 46.71875 128.34375 47.847656 C 131.230469 46.945312 134.085938 46.039062 137.007812 45.132812 Z M 122.660156 38.3125 C 122.722656 38.34375 122.753906 38.375 122.816406 38.375 C 122.753906 38.925781 122.816406 39.570312 122.597656 40.058594 C 122.214844 40.832031 121.707031 41.542969 121.167969 42.222656 C 120.753906 42.773438 120.152344 43.160156 119.835938 43.742188 C 119.167969 44.972656 118.277344 45.910156 117.199219 46.78125 C 116.535156 47.332031 115.960938 48.074219 115.421875 48.785156 C 115.042969 49.269531 114.753906 49.886719 114.4375 50.433594 C 113.960938 51.242188 113.359375 51.921875 112.597656 52.535156 C 112.058594 52.988281 111.582031 53.570312 111.230469 54.152344 C 110.789062 54.863281 110.46875 55.640625 110.089844 56.480469 C 110.851562 56.738281 111.644531 57 112.46875 57.289062 C 112.46875 57.222656 112.4375 57.191406 112.4375 57.128906 C 112.566406 57 112.691406 56.867188 112.851562 56.773438 C 113.136719 56.609375 113.484375 56.546875 113.707031 56.320312 C 114.4375 55.609375 115.167969 54.898438 115.867188 54.152344 C 115.992188 54.023438 116.023438 53.699219 115.960938 53.507812 C 115.835938 53.117188 115.644531 52.761719 115.453125 52.34375 C 115.707031 52.179688 115.898438 52.019531 116.121094 51.921875 C 116.945312 51.597656 117.738281 51.179688 118.597656 51.015625 C 119.675781 50.789062 120.34375 50.207031 120.722656 49.175781 C 121.292969 47.621094 122.40625 46.492188 123.707031 45.519531 C 123.804688 45.457031 123.929688 45.457031 124.089844 45.425781 C 123.453125 46.945312 122.851562 48.367188 122.214844 49.851562 C 123.007812 49.59375 123.804688 49.304688 124.597656 49.109375 C 125.328125 48.949219 125.707031 48.558594 125.832031 47.816406 C 126.054688 46.492188 126.339844 45.199219 126.597656 43.871094 C 126.660156 43.644531 126.753906 43.417969 126.882812 43.128906 C 126.945312 43.773438 127.105469 44.324219 127.007812 44.808594 C 126.851562 45.875 126.5625 46.945312 126.339844 48.011719 C 126.308594 48.171875 126.246094 48.332031 126.214844 48.496094 C 127.105469 48.464844 127.613281 48.042969 127.769531 47.167969 C 127.898438 46.457031 128.089844 45.746094 128.214844 45.035156 C 128.691406 42.675781 128.40625 40.445312 127.070312 38.410156 C 126.628906 37.761719 126.152344 37.148438 125.546875 36.695312 C 125.199219 37.050781 124.945312 37.40625 124.597656 37.664062 C 124.46875 37.761719 124.152344 37.601562 123.898438 37.566406 C 123.960938 37.339844 123.960938 37.113281 124.054688 36.921875 C 124.246094 36.628906 124.46875 36.339844 124.691406 36.046875 C 123.707031 35.335938 122.660156 34.820312 121.484375 34.691406 C 120.4375 34.5625 119.390625 34.527344 118.34375 34.433594 C 117.230469 34.335938 116.214844 34.691406 115.230469 35.175781 C 113.390625 36.144531 111.804688 37.375 110.535156 39.054688 C 109.136719 40.867188 107.996094 42.835938 107.167969 44.972656 C 106.535156 46.585938 106.121094 48.269531 106.21875 50.046875 C 106.25 50.921875 106.40625 51.824219 106.851562 52.601562 C 106.980469 52.308594 107.042969 52.019531 107.042969 51.726562 C 107.136719 50.5 107.390625 49.304688 108.121094 48.332031 C 109.136719 46.976562 109.835938 45.457031 110.375 43.839844 C 110.882812 42.320312 111.835938 41.089844 113.230469 40.285156 C 114.246094 39.703125 115.359375 39.183594 116.40625 38.632812 C 116.945312 38.34375 117.453125 38.050781 117.992188 37.761719 C 118.214844 37.632812 118.46875 37.535156 118.691406 37.40625 C 118.722656 37.472656 118.753906 37.503906 118.789062 37.566406 C 118.566406 37.792969 118.34375 37.988281 118.058594 38.277344 C 118.914062 38.050781 119.359375 37.503906 119.707031 36.695312 C 119.867188 37.339844 119.644531 37.761719 119.292969 38.019531 C 118.914062 38.3125 118.5 38.570312 118.089844 38.765625 C 117.296875 39.121094 116.46875 39.378906 115.675781 39.703125 C 115.390625 39.832031 115.105469 40.023438 114.882812 40.21875 C 114.28125 40.703125 113.738281 41.285156 113.105469 41.738281 C 112.46875 42.191406 112.089844 42.742188 111.835938 43.484375 C 111.582031 44.355469 111.230469 45.230469 110.851562 46.039062 C 110.058594 47.785156 109.199219 49.496094 108.40625 51.242188 C 108.34375 51.371094 108.3125 51.503906 108.28125 51.597656 C 108.058594 52.375 107.835938 53.152344 107.644531 53.960938 C 107.613281 54.121094 107.613281 54.316406 107.707031 54.445312 C 108.089844 55.027344 108.566406 55.480469 109.167969 55.835938 C 109.738281 54.605469 110.28125 53.441406 110.820312 52.277344 C 111.328125 51.179688 112.027344 50.242188 113.042969 49.59375 C 113.992188 48.980469 114.722656 48.140625 115.261719 47.167969 C 115.960938 45.941406 116.914062 44.972656 118.089844 44.226562 C 118.820312 43.742188 119.644531 43.355469 120.089844 42.515625 C 120.152344 42.417969 120.246094 42.386719 120.34375 42.289062 C 120.660156 41.964844 121.039062 41.671875 121.261719 41.316406 C 121.675781 40.574219 122.023438 39.734375 122.375 38.957031 C 122.46875 38.765625 122.566406 38.539062 122.660156 38.3125 Z M 116.183594 52.441406 C 116.40625 52.890625 116.660156 53.214844 116.753906 53.601562 C 116.945312 54.410156 117.421875 54.992188 118.089844 55.382812 C 118.753906 55.800781 119.453125 56.15625 120.152344 56.480469 C 124.46875 58.550781 128.628906 58.160156 132.722656 55.769531 C 134.183594 54.898438 135.167969 53.636719 135.707031 52.019531 C 136.371094 50.078125 135.992188 48.011719 136.308594 45.941406 C 135.738281 46.136719 135.292969 46.265625 134.847656 46.425781 C 129.199219 48.203125 123.515625 50.015625 117.867188 51.792969 C 117.261719 51.988281 116.722656 52.246094 116.183594 52.441406 Z M 118.914062 56.546875 C 121.484375 58.808594 124.566406 59.488281 127.800781 59.261719 C 130.691406 59.035156 132.914062 57.386719 134.753906 55.1875 C 135.007812 54.898438 135.132812 54.507812 135.324219 54.152344 C 133.230469 56.609375 130.53125 57.742188 127.515625 58.195312 C 124.5 58.710938 121.613281 58.066406 118.914062 56.546875 Z M 109.582031 55.867188 C 109.644531 55.929688 109.738281 55.964844 109.804688 56.027344 C 110.027344 55.640625 110.3125 55.285156 110.46875 54.863281 C 110.882812 53.601562 111.644531 52.664062 112.691406 51.890625 C 113.773438 51.082031 114.28125 49.820312 114.914062 48.6875 C 113.898438 49.820312 112.34375 50.339844 111.613281 51.792969 C 110.914062 53.117188 110.246094 54.476562 109.582031 55.867188 Z M 118.40625 57.03125 C 117.835938 56.480469 117.328125 56.027344 116.882812 55.574219 C 116.246094 55.964844 115.675781 56.417969 115.011719 56.675781 C 114.375 56.933594 113.675781 57 113.042969 57.128906 C 113.042969 57.191406 113.074219 57.222656 113.074219 57.289062 C 114.820312 57.613281 116.566406 57.484375 118.40625 57.03125 Z M 107.265625 53.570312 C 107.550781 52.082031 108.28125 50.789062 108.851562 49.433594 C 109.484375 47.976562 110.152344 46.554688 110.820312 45.132812 C 111.167969 44.355469 111.390625 43.484375 111.644531 42.675781 C 111.582031 42.644531 111.484375 42.609375 111.421875 42.609375 C 111.105469 43.453125 110.820312 44.292969 110.4375 45.101562 C 110.027344 46.007812 109.675781 47.007812 109.074219 47.75 C 107.675781 49.464844 107.613281 51.535156 107.265625 53.570312 Z M 120.597656 50.304688 C 121.675781 50.113281 122.882812 48.203125 123.039062 46.621094 C 121.800781 47.558594 121.261719 48.914062 120.597656 50.304688 Z M 115.515625 47.65625 C 116.214844 47.074219 116.820312 46.523438 117.453125 46.039062 C 118.40625 45.292969 118.851562 44.746094 118.976562 44.226562 C 117.550781 45.035156 116.34375 46.070312 115.515625 47.65625 Z M 116.246094 54.636719 C 115.582031 55.316406 114.945312 55.964844 114.40625 56.546875 C 114.945312 56.449219 115.515625 56.09375 116.058594 55.671875 C 116.628906 55.1875 116.628906 55.1875 116.246094 54.636719 Z M 126.375 34.074219 C 126.785156 33.203125 127.613281 33.007812 128.4375 32.816406 C 127.582031 32.523438 126.722656 33.042969 126.375 34.074219 Z M 112.46875 41.414062 C 112.5 41.480469 112.535156 41.511719 112.566406 41.578125 C 113.074219 41.222656 113.550781 40.867188 114.058594 40.542969 C 114.023438 40.476562 113.992188 40.445312 113.960938 40.378906 C 113.453125 40.734375 112.976562 41.089844 112.46875 41.414062 Z M 112.46875 41.414062 " fill-opacity="0.5" fill-rule="nonzero"/></g><path fill="#ffffff" d="M 130.691406 49.367188 C 131.167969 49.53125 131.421875 49.886719 131.546875 50.371094 C 131.578125 50.5 131.484375 50.757812 131.421875 50.757812 C 131.292969 50.789062 131.039062 50.726562 130.976562 50.628906 C 130.785156 50.273438 130.628906 49.886719 130.46875 49.496094 C 130.53125 49.464844 130.628906 49.402344 130.691406 49.367188 Z M 130.691406 49.367188 " fill-opacity="0.5" fill-rule="nonzero"/><path fill="#ffffff" d="M 127.105469 49.917969 C 127.328125 50.304688 127.515625 50.566406 127.613281 50.886719 C 127.644531 51.015625 127.453125 51.242188 127.390625 51.40625 C 127.261719 51.308594 127.039062 51.210938 126.976562 51.082031 C 126.816406 50.726562 126.785156 50.371094 127.105469 49.917969 Z M 127.105469 49.917969 " fill-opacity="0.5" fill-rule="nonzero"/><path fill="#ffffff" d="M 121.835938 52.796875 C 121.675781 52.117188 122.023438 51.695312 122.277344 51.210938 C 122.597656 51.859375 122.4375 52.40625 121.835938 52.796875 Z M 121.835938 52.796875 " fill-opacity="0.5" fill-rule="nonzero"/><g clip-path="url(#f730035fd2)"><path fill="#ffffff" d="M 124.023438 53.441406 C 124.375 53.796875 124.308594 54.152344 124.183594 54.507812 C 124.152344 54.605469 123.960938 54.703125 123.867188 54.734375 C 123.804688 54.734375 123.675781 54.574219 123.675781 54.445312 C 123.613281 54.089844 123.613281 53.699219 124.023438 53.441406 Z M 124.023438 53.441406 " fill-opacity="0.5" fill-rule="nonzero"/></g><path fill="#ffffff" d="M 133.515625 48.820312 C 133.863281 48.949219 134.214844 49.078125 134.152344 49.53125 C 134.152344 49.59375 133.769531 49.691406 133.644531 49.625 C 133.230469 49.464844 133.132812 49.175781 133.515625 48.820312 Z M 133.515625 48.820312 " fill-opacity="0.5" fill-rule="nonzero"/><g clip-path="url(#6e5cb3e509)"><path fill="#ffffff" d="M 129.644531 53.085938 C 129.484375 53.28125 129.390625 53.410156 129.292969 53.507812 C 129.136719 53.3125 128.945312 53.117188 128.820312 52.890625 C 128.785156 52.859375 129.105469 52.570312 129.105469 52.601562 C 129.324219 52.730469 129.453125 52.890625 129.644531 53.085938 Z M 129.644531 53.085938 " fill-opacity="0.5" fill-rule="nonzero"/></g><g clip-path="url(#fc5d119ce6)"><path fill="#ffffff" d="M 119.105469 53.054688 C 119.230469 52.925781 119.359375 52.828125 119.484375 52.699219 C 119.582031 52.761719 119.644531 52.859375 119.738281 52.925781 C 119.644531 53.054688 119.515625 53.183594 119.421875 53.34375 C 119.328125 53.246094 119.230469 53.152344 119.105469 53.054688 Z M 119.105469 53.054688 " fill-opacity="0.5" fill-rule="nonzero"/></g><g clip-path="url(#a262334799)"><path fill="#ffffff" d="M 378.277344 5.847656 C 379.144531 5.359375 379.480469 4.644531 379.746094 3.863281 C 380.046875 2.917969 380.714844 2.363281 381.683594 2.136719 C 382.550781 1.941406 383.152344 2.203125 383.65625 2.949219 C 383.886719 3.308594 384.1875 3.667969 384.523438 3.960938 C 385.726562 4.96875 385.859375 6.761719 384.722656 7.902344 C 384.355469 8.257812 383.988281 8.617188 383.554688 8.945312 C 383.121094 9.300781 382.988281 9.726562 383.1875 10.246094 C 383.253906 10.375 383.285156 10.539062 383.355469 10.667969 C 384.121094 12.65625 383.554688 14.480469 381.683594 15.621094 C 381.117188 15.976562 380.515625 16.238281 379.945312 16.53125 C 379.210938 16.921875 378.945312 17.507812 379.078125 18.289062 C 379.144531 18.8125 379.3125 18.910156 379.78125 18.648438 C 380.546875 18.226562 381.351562 18.257812 382.183594 18.421875 C 383.621094 18.679688 384.65625 19.398438 385.289062 20.734375 C 385.691406 21.644531 385.960938 22.558594 385.992188 23.566406 C 386.027344 24.707031 385.558594 25.683594 384.757812 26.496094 C 384.488281 26.757812 384.222656 27.050781 383.988281 27.34375 C 383.554688 27.867188 383.488281 28.453125 383.789062 29.070312 C 384.023438 29.589844 384.257812 30.144531 384.355469 30.699219 C 384.457031 31.15625 384.488281 31.707031 384.289062 32.132812 C 383.621094 33.566406 384.089844 34.867188 384.691406 36.136719 C 384.824219 36.398438 384.957031 36.660156 385.058594 36.917969 C 385.222656 37.472656 385.457031 37.929688 386.09375 38.125 C 386.328125 38.191406 386.460938 38.484375 386.5625 38.777344 C 386.160156 38.613281 385.691406 38.484375 385.324219 38.222656 C 385.023438 38.027344 384.722656 37.734375 384.589844 37.441406 C 384.289062 36.722656 383.886719 36.074219 383.253906 35.550781 C 382.183594 34.703125 381.917969 33.628906 382.519531 32.394531 C 382.851562 31.707031 382.6875 31.089844 382.320312 30.4375 C 382.085938 30.015625 381.917969 29.558594 381.816406 29.101562 C 381.683594 28.386719 381.652344 28.355469 380.882812 28.355469 C 379.3125 28.386719 378.011719 27.800781 377.007812 26.628906 C 375.472656 24.871094 375.371094 22.070312 376.808594 20.210938 C 377.140625 19.789062 376.941406 19.105469 376.304688 18.910156 C 375.90625 18.777344 375.472656 18.777344 375.039062 18.8125 C 374.605469 18.84375 374.203125 18.972656 373.769531 19.070312 C 372.433594 19.367188 371.363281 18.941406 370.527344 17.898438 C 369.859375 17.019531 368.992188 16.792969 367.988281 17.28125 C 367.554688 17.476562 367.1875 17.769531 366.753906 17.996094 C 365.519531 18.679688 364.28125 18.941406 362.914062 18.355469 C 361.8125 17.964844 361.210938 17.183594 361.007812 16.109375 C 360.976562 15.878906 361.078125 15.488281 361.242188 15.359375 C 361.675781 14.96875 362.210938 14.675781 362.78125 14.285156 C 362.511719 13.566406 362.511719 12.785156 362.878906 12.003906 C 363.011719 11.746094 362.746094 11.253906 362.546875 10.929688 C 362.3125 10.570312 361.910156 10.3125 361.609375 9.984375 C 360.742188 9.042969 360.941406 8.195312 362.113281 7.671875 C 364.117188 6.792969 367.589844 6.925781 369.425781 9.300781 C 369.695312 9.628906 370.0625 9.886719 370.429688 10.214844 C 370.796875 8.8125 371.195312 7.574219 371.429688 6.304688 C 371.53125 5.75 371.261719 5.101562 371.097656 4.515625 C 370.929688 3.832031 370.628906 3.179688 370.496094 2.496094 C 370.429688 2.136719 370.527344 1.746094 370.660156 1.421875 C 370.964844 0.734375 371.464844 0.476562 372.199219 0.734375 C 373.066406 1.027344 373.902344 1.191406 374.835938 1.0625 C 375.773438 0.898438 376.441406 1.550781 376.839844 2.265625 C 377.34375 3.210938 377.710938 4.222656 378.109375 5.199219 C 378.175781 5.359375 378.210938 5.554688 378.277344 5.847656 Z M 383.1875 23.730469 C 383.121094 23.695312 383.085938 23.632812 383.019531 23.597656 C 383.1875 23.4375 383.355469 23.273438 383.519531 23.078125 C 383.886719 22.65625 384.222656 22.199219 384.554688 21.773438 C 384.65625 21.644531 384.691406 21.417969 384.621094 21.285156 C 384.324219 20.601562 383.953125 19.917969 383.21875 19.5625 C 382.21875 19.105469 381.148438 18.910156 380.046875 19.265625 C 379.078125 19.5625 378.710938 19.429688 378.144531 18.582031 C 377.976562 18.324219 377.875 17.996094 377.742188 17.671875 C 377.476562 17.019531 377.308594 16.335938 376.972656 15.683594 C 376.472656 14.675781 376.171875 13.601562 376.273438 12.492188 C 376.304688 11.941406 376.339844 11.386719 376.375 10.832031 C 376.472656 9.042969 376.140625 7.347656 375.203125 5.785156 C 374.804688 5.164062 374.371094 4.578125 373.96875 3.960938 C 373.867188 3.832031 373.835938 3.667969 373.734375 3.503906 C 373.769531 3.472656 373.835938 3.4375 373.867188 3.40625 C 374.003906 3.503906 374.167969 3.601562 374.269531 3.699219 C 375.671875 5.230469 376.742188 6.957031 376.875 9.074219 C 376.941406 10.375 376.875 11.679688 376.875 12.980469 C 376.875 14.15625 377.308594 15.230469 377.875 16.402344 C 378.308594 15.683594 378.746094 15.097656 379.046875 14.449219 C 379.8125 12.820312 379.980469 11.125 378.945312 9.5625 C 378.175781 8.421875 377.742188 7.183594 377.507812 5.882812 C 377.308594 4.773438 376.972656 3.699219 376.339844 2.722656 C 375.804688 1.875 375.273438 1.648438 374.234375 1.777344 C 373.867188 1.8125 373.46875 1.746094 373.101562 1.679688 C 372.800781 1.617188 372.5 1.453125 372.199219 1.386719 C 371.628906 1.191406 371.296875 1.355469 371.195312 1.910156 C 371.128906 2.203125 371.164062 2.527344 371.230469 2.820312 C 371.328125 3.210938 371.496094 3.632812 371.699219 3.992188 C 372.367188 5.261719 372.367188 6.535156 371.832031 7.835938 C 371.363281 9.007812 371.261719 10.214844 371.398438 11.417969 C 371.730469 13.601562 372.597656 15.390625 374.871094 16.207031 C 376.304688 16.726562 377.074219 17.933594 377.976562 19.007812 C 378.109375 19.167969 378.109375 19.464844 378.144531 19.660156 C 378.078125 19.691406 378.011719 19.691406 377.945312 19.722656 C 377.710938 19.464844 377.476562 19.203125 377.277344 18.941406 C 377.542969 19.691406 377.476562 20.308594 377.007812 20.960938 C 376.707031 21.417969 376.609375 22.003906 376.441406 22.523438 C 376.507812 22.589844 376.574219 22.65625 376.640625 22.71875 C 377.710938 22.363281 378.777344 22.003906 379.8125 21.613281 C 378.945312 22.65625 377.742188 22.914062 376.507812 23.109375 C 376.207031 24.738281 377.242188 26.5625 378.8125 27.246094 C 379.277344 27.441406 379.746094 27.539062 380.179688 27.3125 C 380.816406 27.019531 381.449219 26.726562 382.085938 26.433594 C 382.253906 26.367188 382.417969 26.269531 382.550781 26.171875 C 382.585938 26.238281 382.617188 26.269531 382.652344 26.335938 C 382.320312 27.019531 381.550781 27.214844 380.917969 27.636719 C 382.085938 27.800781 382.085938 27.867188 382.320312 28.941406 C 382.386719 29.363281 382.550781 29.789062 382.820312 30.144531 C 383.386719 30.992188 383.488281 31.804688 383.085938 32.75 C 382.988281 33.011719 382.886719 33.238281 382.851562 33.5 C 382.785156 33.921875 382.851562 34.3125 383.152344 34.640625 C 383.21875 33.988281 383.121094 33.304688 383.355469 32.71875 C 383.820312 31.609375 383.65625 30.570312 383.121094 29.589844 C 382.519531 28.453125 382.785156 27.507812 383.589844 26.59375 C 383.921875 26.238281 384.257812 25.878906 384.554688 25.488281 C 385.058594 24.804688 385.222656 24.054688 385.089844 23.207031 C 382.617188 25.519531 382.617188 25.519531 381.785156 25.457031 C 382.085938 25.261719 382.320312 25.128906 382.519531 24.96875 C 383.421875 24.378906 384.257812 23.730469 384.757812 22.785156 C 384.890625 22.558594 385.058594 22.296875 384.789062 22.003906 C 384.421875 22.753906 383.953125 23.371094 383.1875 23.730469 Z M 363.347656 9.691406 C 363.382812 9.628906 363.449219 9.59375 363.480469 9.53125 C 363.914062 9.726562 364.347656 9.886719 364.785156 10.082031 C 365.21875 10.277344 365.683594 10.472656 366.054688 10.800781 C 366.421875 11.125 366.652344 11.582031 366.988281 11.941406 C 367.65625 12.589844 368.324219 13.273438 369.027344 13.859375 C 369.761719 14.449219 370.660156 14.546875 371.464844 14.609375 C 371.164062 13.46875 370.894531 12.332031 370.59375 11.222656 C 370.5625 11.058594 370.328125 10.929688 370.160156 10.800781 C 369.761719 10.507812 369.257812 10.246094 368.925781 9.886719 C 367.289062 8.03125 364.816406 7.414062 362.480469 8.292969 C 361.675781 8.617188 361.578125 8.945312 362.144531 9.5625 C 362.445312 9.921875 362.847656 10.214844 363.148438 10.570312 C 363.613281 11.125 363.882812 11.746094 363.515625 12.460938 C 363.046875 13.4375 363.316406 14.316406 364.183594 14.96875 C 365.183594 15.75 366.351562 15.945312 367.589844 15.878906 C 369.058594 15.816406 370.296875 16.140625 371.097656 17.507812 C 371.5625 18.324219 372.433594 18.617188 373.402344 18.421875 C 374.371094 18.226562 375.304688 17.898438 376.339844 18.191406 C 375.972656 17.605469 375.503906 17.214844 374.902344 16.988281 C 374.269531 16.695312 373.601562 16.433594 373.035156 16.042969 C 372.367188 15.554688 371.664062 15.292969 370.828125 15.230469 C 369.726562 15.132812 368.757812 14.707031 367.988281 13.957031 C 367.457031 13.4375 366.921875 12.917969 366.554688 12.296875 C 365.984375 11.417969 365.351562 10.667969 364.25 10.34375 C 363.914062 10.214844 363.648438 9.921875 363.347656 9.691406 Z M 378.746094 16.464844 C 379.210938 16.171875 379.648438 15.914062 380.082031 15.652344 C 380.515625 15.390625 380.984375 15.195312 381.382812 14.9375 C 382.851562 13.957031 383.285156 12.558594 382.652344 10.929688 C 382.550781 10.703125 382.484375 10.472656 382.417969 10.246094 C 382.21875 9.53125 382.386719 8.945312 382.988281 8.453125 C 383.386719 8.128906 383.789062 7.804688 384.15625 7.414062 C 385.058594 6.5 384.957031 5.230469 383.988281 4.382812 C 383.621094 4.058594 383.355469 3.667969 383.054688 3.242188 C 382.6875 2.722656 382.351562 2.59375 381.71875 2.789062 C 381.082031 2.984375 380.683594 3.375 380.480469 3.992188 C 380.214844 4.839844 379.8125 5.589844 379.113281 6.175781 C 378.976562 6.304688 378.910156 6.535156 378.84375 6.761719 C 378.578125 7.511719 378.945312 8.128906 379.347656 8.714844 C 380.015625 9.660156 380.382812 10.667969 380.414062 11.808594 C 380.414062 12.003906 380.414062 12.234375 380.414062 12.589844 C 380.582031 12.394531 380.648438 12.332031 380.683594 12.265625 C 381.148438 11.484375 381.25 10.636719 380.984375 9.757812 C 380.382812 7.867188 381.28125 6.402344 382.320312 4.9375 C 382.253906 5.394531 382.117188 5.816406 381.882812 6.207031 C 381.183594 7.378906 381.082031 8.585938 381.449219 9.855469 C 381.683594 10.667969 381.585938 11.449219 381.214844 12.167969 C 380.949219 12.722656 380.582031 13.242188 380.28125 13.796875 C 379.746094 14.707031 379.246094 15.585938 378.746094 16.464844 Z M 365.585938 16.660156 C 365.585938 16.628906 365.585938 16.5625 365.585938 16.53125 C 364.984375 16.171875 364.347656 15.847656 363.75 15.457031 C 363.082031 15 362.480469 15 361.910156 15.621094 C 361.777344 15.75 361.710938 16.042969 361.746094 16.238281 C 361.910156 17.054688 362.414062 17.574219 363.214844 17.835938 C 364.71875 18.324219 365.984375 17.800781 367.222656 16.824219 C 364.984375 17.214844 363.582031 17.214844 363.28125 16.464844 C 364.050781 16.53125 364.816406 16.597656 365.585938 16.660156 Z M 365.585938 16.660156 " fill-opacity="0.5" fill-rule="nonzero"/></g><path fill="#ffffff" d="M 382.953125 20.472656 C 382.785156 21.742188 380.046875 23.632812 378.878906 23.242188 C 379.613281 22.851562 380.382812 22.558594 381.050781 22.101562 C 381.71875 21.644531 382.285156 21.058594 382.953125 20.472656 Z M 382.953125 20.472656 " fill-opacity="0.5" fill-rule="nonzero"/><g clip-path="url(#33a63ac054)"><path fill="#ffffff" d="M 75.011719 5.847656 C 75.878906 5.359375 76.214844 4.644531 76.480469 3.863281 C 76.78125 2.917969 77.449219 2.363281 78.417969 2.136719 C 79.289062 1.941406 79.890625 2.203125 80.390625 2.949219 C 80.625 3.308594 80.925781 3.667969 81.257812 3.960938 C 82.460938 4.96875 82.59375 6.761719 81.457031 7.902344 C 81.089844 8.257812 80.722656 8.617188 80.289062 8.945312 C 79.855469 9.300781 79.722656 9.726562 79.921875 10.246094 C 79.988281 10.375 80.023438 10.539062 80.089844 10.667969 C 80.855469 12.65625 80.289062 14.480469 78.417969 15.621094 C 77.851562 15.976562 77.25 16.238281 76.683594 16.53125 C 75.949219 16.921875 75.679688 17.507812 75.8125 18.289062 C 75.878906 18.8125 76.046875 18.910156 76.515625 18.648438 C 77.285156 18.226562 78.085938 18.257812 78.921875 18.421875 C 80.355469 18.679688 81.390625 19.398438 82.027344 20.734375 C 82.425781 21.644531 82.695312 22.558594 82.726562 23.566406 C 82.761719 24.707031 82.292969 25.683594 81.492188 26.496094 C 81.226562 26.757812 80.957031 27.050781 80.722656 27.34375 C 80.289062 27.867188 80.222656 28.453125 80.523438 29.070312 C 80.757812 29.589844 80.992188 30.144531 81.089844 30.699219 C 81.191406 31.15625 81.226562 31.707031 81.023438 32.132812 C 80.355469 33.566406 80.824219 34.867188 81.425781 36.136719 C 81.558594 36.398438 81.691406 36.660156 81.792969 36.917969 C 81.960938 37.472656 82.191406 37.929688 82.828125 38.125 C 83.0625 38.191406 83.195312 38.484375 83.296875 38.777344 C 82.894531 38.613281 82.425781 38.484375 82.058594 38.222656 C 81.757812 38.027344 81.457031 37.734375 81.324219 37.441406 C 81.023438 36.722656 80.625 36.074219 79.988281 35.550781 C 78.921875 34.703125 78.652344 33.628906 79.253906 32.394531 C 79.589844 31.707031 79.421875 31.089844 79.054688 30.4375 C 78.820312 30.015625 78.652344 29.558594 78.554688 29.101562 C 78.417969 28.386719 78.386719 28.355469 77.617188 28.355469 C 76.046875 28.386719 74.746094 27.800781 73.742188 26.628906 C 72.207031 24.871094 72.105469 22.070312 73.542969 20.210938 C 73.878906 19.789062 73.675781 19.105469 73.042969 18.910156 C 72.640625 18.777344 72.207031 18.777344 71.773438 18.8125 C 71.339844 18.84375 70.9375 18.972656 70.503906 19.070312 C 69.167969 19.367188 68.097656 18.941406 67.265625 17.898438 C 66.597656 17.019531 65.726562 16.792969 64.726562 17.28125 C 64.292969 17.476562 63.925781 17.769531 63.488281 17.996094 C 62.253906 18.679688 61.019531 18.941406 59.648438 18.355469 C 58.546875 17.964844 57.945312 17.183594 57.746094 16.109375 C 57.710938 15.878906 57.8125 15.488281 57.980469 15.359375 C 58.414062 14.96875 58.949219 14.675781 59.515625 14.285156 C 59.25 13.566406 59.25 12.785156 59.617188 12.003906 C 59.75 11.746094 59.480469 11.253906 59.28125 10.929688 C 59.046875 10.570312 58.648438 10.3125 58.347656 9.984375 C 57.476562 9.042969 57.679688 8.195312 58.847656 7.671875 C 60.851562 6.792969 64.324219 6.925781 66.160156 9.300781 C 66.429688 9.628906 66.796875 9.886719 67.164062 10.214844 C 67.53125 8.8125 67.933594 7.574219 68.164062 6.304688 C 68.265625 5.75 68 5.101562 67.832031 4.515625 C 67.664062 3.832031 67.363281 3.179688 67.230469 2.496094 C 67.164062 2.136719 67.265625 1.746094 67.398438 1.421875 C 67.699219 0.734375 68.199219 0.476562 68.933594 0.734375 C 69.800781 1.027344 70.636719 1.191406 71.574219 1.0625 C 72.507812 0.898438 73.175781 1.550781 73.578125 2.265625 C 74.078125 3.210938 74.445312 4.222656 74.847656 5.199219 C 74.914062 5.359375 74.945312 5.554688 75.011719 5.847656 Z M 79.921875 23.730469 C 79.855469 23.695312 79.824219 23.632812 79.753906 23.597656 C 79.921875 23.4375 80.089844 23.273438 80.257812 23.078125 C 80.625 22.65625 80.957031 22.199219 81.292969 21.773438 C 81.390625 21.644531 81.425781 21.417969 81.359375 21.285156 C 81.058594 20.601562 80.691406 19.917969 79.957031 19.5625 C 78.953125 19.105469 77.886719 18.910156 76.78125 19.265625 C 75.8125 19.5625 75.445312 19.429688 74.878906 18.582031 C 74.710938 18.324219 74.613281 17.996094 74.476562 17.671875 C 74.210938 17.019531 74.042969 16.335938 73.710938 15.683594 C 73.210938 14.675781 72.910156 13.601562 73.007812 12.492188 C 73.042969 11.941406 73.074219 11.386719 73.109375 10.832031 C 73.210938 9.042969 72.875 7.347656 71.941406 5.785156 C 71.539062 5.164062 71.105469 4.578125 70.703125 3.960938 C 70.605469 3.832031 70.570312 3.667969 70.46875 3.503906 C 70.503906 3.472656 70.570312 3.4375 70.605469 3.40625 C 70.738281 3.503906 70.90625 3.601562 71.003906 3.699219 C 72.40625 5.230469 73.476562 6.957031 73.609375 9.074219 C 73.675781 10.375 73.609375 11.679688 73.609375 12.980469 C 73.609375 14.15625 74.042969 15.230469 74.613281 16.402344 C 75.046875 15.683594 75.480469 15.097656 75.78125 14.449219 C 76.546875 12.820312 76.714844 11.125 75.679688 9.5625 C 74.914062 8.421875 74.476562 7.183594 74.246094 5.882812 C 74.042969 4.773438 73.710938 3.699219 73.074219 2.722656 C 72.542969 1.875 72.007812 1.648438 70.972656 1.777344 C 70.605469 1.8125 70.203125 1.746094 69.835938 1.679688 C 69.535156 1.617188 69.234375 1.453125 68.933594 1.386719 C 68.367188 1.191406 68.03125 1.355469 67.933594 1.910156 C 67.867188 2.203125 67.898438 2.527344 67.964844 2.820312 C 68.066406 3.210938 68.234375 3.632812 68.433594 3.992188 C 69.101562 5.261719 69.101562 6.535156 68.566406 7.835938 C 68.097656 9.007812 68 10.214844 68.132812 11.417969 C 68.464844 13.601562 69.335938 15.390625 71.605469 16.207031 C 73.042969 16.726562 73.808594 17.933594 74.710938 19.007812 C 74.847656 19.167969 74.847656 19.464844 74.878906 19.660156 C 74.8125 19.691406 74.746094 19.691406 74.679688 19.722656 C 74.445312 19.464844 74.210938 19.203125 74.011719 18.941406 C 74.277344 19.691406 74.210938 20.308594 73.742188 20.960938 C 73.441406 21.417969 73.34375 22.003906 73.175781 22.523438 C 73.242188 22.589844 73.308594 22.65625 73.375 22.71875 C 74.445312 22.363281 75.515625 22.003906 76.546875 21.613281 C 75.679688 22.65625 74.476562 22.914062 73.242188 23.109375 C 72.941406 24.738281 73.976562 26.5625 75.546875 27.246094 C 76.015625 27.441406 76.480469 27.539062 76.917969 27.3125 C 77.550781 27.019531 78.1875 26.726562 78.820312 26.433594 C 78.988281 26.367188 79.15625 26.269531 79.289062 26.171875 C 79.320312 26.238281 79.355469 26.269531 79.386719 26.335938 C 79.054688 27.019531 78.285156 27.214844 77.652344 27.636719 C 78.820312 27.800781 78.820312 27.867188 79.054688 28.941406 C 79.121094 29.363281 79.289062 29.789062 79.554688 30.144531 C 80.121094 30.992188 80.222656 31.804688 79.824219 32.75 C 79.722656 33.011719 79.621094 33.238281 79.589844 33.5 C 79.523438 33.921875 79.589844 34.3125 79.890625 34.640625 C 79.957031 33.988281 79.855469 33.304688 80.089844 32.71875 C 80.558594 31.609375 80.390625 30.570312 79.855469 29.589844 C 79.253906 28.453125 79.523438 27.507812 80.324219 26.59375 C 80.65625 26.238281 80.992188 25.878906 81.292969 25.488281 C 81.792969 24.804688 81.960938 24.054688 81.828125 23.207031 C 79.355469 25.519531 79.355469 25.519531 78.519531 25.457031 C 78.820312 25.261719 79.054688 25.128906 79.253906 24.96875 C 80.15625 24.378906 80.992188 23.730469 81.492188 22.785156 C 81.625 22.558594 81.792969 22.296875 81.523438 22.003906 C 81.160156 22.753906 80.691406 23.371094 79.921875 23.730469 Z M 60.082031 9.691406 C 60.117188 9.628906 60.183594 9.59375 60.214844 9.53125 C 60.652344 9.726562 61.085938 9.886719 61.519531 10.082031 C 61.953125 10.277344 62.421875 10.472656 62.789062 10.800781 C 63.15625 11.125 63.390625 11.582031 63.722656 11.941406 C 64.390625 12.589844 65.058594 13.273438 65.761719 13.859375 C 66.496094 14.449219 67.398438 14.546875 68.199219 14.609375 C 67.898438 13.46875 67.632812 12.332031 67.332031 11.222656 C 67.296875 11.058594 67.0625 10.929688 66.898438 10.800781 C 66.496094 10.507812 65.996094 10.246094 65.660156 9.886719 C 64.023438 8.03125 61.554688 7.414062 59.214844 8.292969 C 58.414062 8.617188 58.3125 8.945312 58.878906 9.5625 C 59.179688 9.921875 59.582031 10.214844 59.882812 10.570312 C 60.351562 11.125 60.617188 11.746094 60.25 12.460938 C 59.78125 13.4375 60.050781 14.316406 60.917969 14.96875 C 61.921875 15.75 63.089844 15.945312 64.324219 15.878906 C 65.792969 15.816406 67.03125 16.140625 67.832031 17.507812 C 68.300781 18.324219 69.167969 18.617188 70.136719 18.421875 C 71.105469 18.226562 72.039062 17.898438 73.074219 18.191406 C 72.707031 17.605469 72.242188 17.214844 71.640625 16.988281 C 71.003906 16.695312 70.335938 16.433594 69.769531 16.042969 C 69.101562 15.554688 68.398438 15.292969 67.566406 15.230469 C 66.460938 15.132812 65.492188 14.707031 64.726562 13.957031 C 64.191406 13.4375 63.65625 12.917969 63.289062 12.296875 C 62.722656 11.417969 62.085938 10.667969 60.984375 10.34375 C 60.652344 10.214844 60.382812 9.921875 60.082031 9.691406 Z M 75.480469 16.464844 C 75.949219 16.171875 76.382812 15.914062 76.816406 15.652344 C 77.25 15.390625 77.71875 15.195312 78.117188 14.9375 C 79.589844 13.957031 80.023438 12.558594 79.386719 10.929688 C 79.289062 10.703125 79.222656 10.472656 79.15625 10.246094 C 78.953125 9.53125 79.121094 8.945312 79.722656 8.453125 C 80.121094 8.128906 80.523438 7.804688 80.890625 7.414062 C 81.792969 6.5 81.691406 5.230469 80.722656 4.382812 C 80.355469 4.058594 80.089844 3.667969 79.789062 3.242188 C 79.421875 2.722656 79.085938 2.59375 78.453125 2.789062 C 77.820312 2.984375 77.417969 3.375 77.21875 3.992188 C 76.949219 4.839844 76.546875 5.589844 75.847656 6.175781 C 75.714844 6.304688 75.648438 6.535156 75.582031 6.761719 C 75.3125 7.511719 75.679688 8.128906 76.082031 8.714844 C 76.75 9.660156 77.117188 10.667969 77.152344 11.808594 C 77.152344 12.003906 77.152344 12.234375 77.152344 12.589844 C 77.316406 12.394531 77.382812 12.332031 77.417969 12.265625 C 77.886719 11.484375 77.984375 10.636719 77.71875 9.757812 C 77.117188 7.867188 78.019531 6.402344 79.054688 4.9375 C 78.988281 5.394531 78.855469 5.816406 78.621094 6.207031 C 77.917969 7.378906 77.820312 8.585938 78.1875 9.855469 C 78.417969 10.667969 78.320312 11.449219 77.953125 12.167969 C 77.683594 12.722656 77.316406 13.242188 77.015625 13.796875 C 76.480469 14.707031 75.980469 15.585938 75.480469 16.464844 Z M 62.320312 16.660156 C 62.320312 16.628906 62.320312 16.5625 62.320312 16.53125 C 61.71875 16.171875 61.085938 15.847656 60.484375 15.457031 C 59.816406 15 59.214844 15 58.648438 15.621094 C 58.511719 15.75 58.445312 16.042969 58.480469 16.238281 C 58.648438 17.054688 59.148438 17.574219 59.949219 17.835938 C 61.453125 18.324219 62.722656 17.800781 63.957031 16.824219 C 61.71875 17.214844 60.316406 17.214844 60.015625 16.464844 C 60.785156 16.53125 61.554688 16.597656 62.320312 16.660156 Z M 62.320312 16.660156 " fill-opacity="0.5" fill-rule="nonzero"/></g><path fill="#ffffff" d="M 79.6875 20.472656 C 79.523438 21.742188 76.78125 23.632812 75.613281 23.242188 C 76.347656 22.851562 77.117188 22.558594 77.785156 22.101562 C 78.453125 21.644531 79.019531 21.058594 79.6875 20.472656 Z M 79.6875 20.472656 " fill-opacity="0.5" fill-rule="nonzero"/><g clip-path="url(#0fc42d5b73)"><path fill="#ffffff" d="M 181.421875 5.847656 C 182.289062 5.359375 182.621094 4.644531 182.890625 3.863281 C 183.191406 2.917969 183.859375 2.363281 184.828125 2.136719 C 185.695312 1.941406 186.296875 2.203125 186.796875 2.949219 C 187.03125 3.308594 187.332031 3.667969 187.667969 3.960938 C 188.867188 4.96875 189.003906 6.761719 187.867188 7.902344 C 187.5 8.257812 187.132812 8.617188 186.699219 8.945312 C 186.261719 9.300781 186.128906 9.726562 186.332031 10.246094 C 186.398438 10.375 186.429688 10.539062 186.496094 10.667969 C 187.265625 12.65625 186.699219 14.480469 184.828125 15.621094 C 184.257812 15.976562 183.660156 16.238281 183.089844 16.53125 C 182.355469 16.921875 182.089844 17.507812 182.222656 18.289062 C 182.289062 18.8125 182.457031 18.910156 182.925781 18.648438 C 183.691406 18.226562 184.492188 18.257812 185.328125 18.421875 C 186.765625 18.679688 187.800781 19.398438 188.433594 20.734375 C 188.835938 21.644531 189.101562 22.558594 189.136719 23.566406 C 189.167969 24.707031 188.703125 25.683594 187.902344 26.496094 C 187.632812 26.757812 187.367188 27.050781 187.132812 27.34375 C 186.699219 27.867188 186.628906 28.453125 186.929688 29.070312 C 187.164062 29.589844 187.398438 30.144531 187.5 30.699219 C 187.597656 31.15625 187.632812 31.707031 187.433594 32.132812 C 186.765625 33.566406 187.234375 34.867188 187.832031 36.136719 C 187.96875 36.398438 188.101562 36.660156 188.199219 36.917969 C 188.367188 37.472656 188.601562 37.929688 189.238281 38.125 C 189.46875 38.191406 189.601562 38.484375 189.703125 38.777344 C 189.304688 38.613281 188.835938 38.484375 188.46875 38.222656 C 188.167969 38.027344 187.867188 37.734375 187.734375 37.441406 C 187.433594 36.722656 187.03125 36.074219 186.398438 35.550781 C 185.328125 34.703125 185.0625 33.628906 185.664062 32.394531 C 185.996094 31.707031 185.828125 31.089844 185.460938 30.4375 C 185.226562 30.015625 185.0625 29.558594 184.960938 29.101562 C 184.828125 28.386719 184.792969 28.355469 184.027344 28.355469 C 182.457031 28.386719 181.152344 27.800781 180.152344 26.628906 C 178.613281 24.871094 178.515625 22.070312 179.949219 20.210938 C 180.285156 19.789062 180.085938 19.105469 179.449219 18.910156 C 179.050781 18.777344 178.613281 18.777344 178.179688 18.8125 C 177.746094 18.84375 177.347656 18.972656 176.910156 19.070312 C 175.574219 19.367188 174.507812 18.941406 173.671875 17.898438 C 173.003906 17.019531 172.136719 16.792969 171.132812 17.28125 C 170.699219 17.476562 170.332031 17.769531 169.898438 17.996094 C 168.660156 18.679688 167.425781 18.941406 166.058594 18.355469 C 164.953125 17.964844 164.351562 17.183594 164.152344 16.109375 C 164.121094 15.878906 164.21875 15.488281 164.386719 15.359375 C 164.820312 14.96875 165.355469 14.675781 165.921875 14.285156 C 165.65625 13.566406 165.65625 12.785156 166.023438 12.003906 C 166.15625 11.746094 165.890625 11.253906 165.6875 10.929688 C 165.457031 10.570312 165.054688 10.3125 164.753906 9.984375 C 163.886719 9.042969 164.085938 8.195312 165.253906 7.671875 C 167.257812 6.792969 170.734375 6.925781 172.570312 9.300781 C 172.835938 9.628906 173.203125 9.886719 173.570312 10.214844 C 173.9375 8.8125 174.339844 7.574219 174.574219 6.304688 C 174.675781 5.75 174.40625 5.101562 174.238281 4.515625 C 174.074219 3.832031 173.773438 3.179688 173.636719 2.496094 C 173.570312 2.136719 173.671875 1.746094 173.804688 1.421875 C 174.105469 0.734375 174.609375 0.476562 175.34375 0.734375 C 176.210938 1.027344 177.046875 1.191406 177.980469 1.0625 C 178.914062 0.898438 179.582031 1.550781 179.984375 2.265625 C 180.484375 3.210938 180.851562 4.222656 181.253906 5.199219 C 181.320312 5.359375 181.355469 5.554688 181.421875 5.847656 Z M 186.332031 23.730469 C 186.261719 23.695312 186.230469 23.632812 186.164062 23.597656 C 186.332031 23.4375 186.496094 23.273438 186.664062 23.078125 C 187.03125 22.65625 187.367188 22.199219 187.699219 21.773438 C 187.800781 21.644531 187.832031 21.417969 187.765625 21.285156 C 187.464844 20.601562 187.097656 19.917969 186.363281 19.5625 C 185.363281 19.105469 184.292969 18.910156 183.191406 19.265625 C 182.222656 19.5625 181.855469 19.429688 181.285156 18.582031 C 181.121094 18.324219 181.019531 17.996094 180.886719 17.671875 C 180.617188 17.019531 180.453125 16.335938 180.117188 15.683594 C 179.617188 14.675781 179.316406 13.601562 179.417969 12.492188 C 179.449219 11.941406 179.484375 11.386719 179.515625 10.832031 C 179.617188 9.042969 179.28125 7.347656 178.347656 5.785156 C 177.945312 5.164062 177.511719 4.578125 177.113281 3.960938 C 177.011719 3.832031 176.976562 3.667969 176.878906 3.503906 C 176.910156 3.472656 176.976562 3.4375 177.011719 3.40625 C 177.144531 3.503906 177.3125 3.601562 177.414062 3.699219 C 178.816406 5.230469 179.882812 6.957031 180.019531 9.074219 C 180.085938 10.375 180.019531 11.679688 180.019531 12.980469 C 180.019531 14.15625 180.453125 15.230469 181.019531 16.402344 C 181.453125 15.683594 181.886719 15.097656 182.1875 14.449219 C 182.957031 12.820312 183.125 11.125 182.089844 9.5625 C 181.320312 8.421875 180.886719 7.183594 180.652344 5.882812 C 180.453125 4.773438 180.117188 3.699219 179.484375 2.722656 C 178.949219 1.875 178.414062 1.648438 177.378906 1.777344 C 177.011719 1.8125 176.613281 1.746094 176.242188 1.679688 C 175.945312 1.617188 175.640625 1.453125 175.34375 1.386719 C 174.773438 1.191406 174.441406 1.355469 174.339844 1.910156 C 174.273438 2.203125 174.304688 2.527344 174.375 2.820312 C 174.472656 3.210938 174.640625 3.632812 174.839844 3.992188 C 175.507812 5.261719 175.507812 6.535156 174.972656 7.835938 C 174.507812 9.007812 174.40625 10.214844 174.539062 11.417969 C 174.875 13.601562 175.742188 15.390625 178.015625 16.207031 C 179.449219 16.726562 180.21875 17.933594 181.121094 19.007812 C 181.253906 19.167969 181.253906 19.464844 181.285156 19.660156 C 181.21875 19.691406 181.152344 19.691406 181.085938 19.722656 C 180.851562 19.464844 180.617188 19.203125 180.417969 18.941406 C 180.6875 19.691406 180.617188 20.308594 180.152344 20.960938 C 179.851562 21.417969 179.75 22.003906 179.582031 22.523438 C 179.648438 22.589844 179.71875 22.65625 179.785156 22.71875 C 180.851562 22.363281 181.921875 22.003906 182.957031 21.613281 C 182.089844 22.65625 180.886719 22.914062 179.648438 23.109375 C 179.351562 24.738281 180.386719 26.5625 181.953125 27.246094 C 182.421875 27.441406 182.890625 27.539062 183.324219 27.3125 C 183.957031 27.019531 184.59375 26.726562 185.226562 26.433594 C 185.394531 26.367188 185.5625 26.269531 185.695312 26.171875 C 185.730469 26.238281 185.761719 26.269531 185.796875 26.335938 C 185.460938 27.019531 184.695312 27.214844 184.058594 27.636719 C 185.226562 27.800781 185.226562 27.867188 185.460938 28.941406 C 185.527344 29.363281 185.695312 29.789062 185.960938 30.144531 C 186.53125 30.992188 186.628906 31.804688 186.230469 32.75 C 186.128906 33.011719 186.03125 33.238281 185.996094 33.5 C 185.929688 33.921875 185.996094 34.3125 186.296875 34.640625 C 186.363281 33.988281 186.261719 33.304688 186.496094 32.71875 C 186.964844 31.609375 186.796875 30.570312 186.261719 29.589844 C 185.664062 28.453125 185.929688 27.507812 186.730469 26.59375 C 187.066406 26.238281 187.398438 25.878906 187.699219 25.488281 C 188.199219 24.804688 188.367188 24.054688 188.234375 23.207031 C 185.761719 25.519531 185.761719 25.519531 184.925781 25.457031 C 185.226562 25.261719 185.460938 25.128906 185.664062 24.96875 C 186.5625 24.378906 187.398438 23.730469 187.902344 22.785156 C 188.035156 22.558594 188.199219 22.296875 187.933594 22.003906 C 187.566406 22.753906 187.097656 23.371094 186.332031 23.730469 Z M 166.492188 9.691406 C 166.523438 9.628906 166.589844 9.59375 166.625 9.53125 C 167.058594 9.726562 167.492188 9.886719 167.925781 10.082031 C 168.363281 10.277344 168.828125 10.472656 169.195312 10.800781 C 169.5625 11.125 169.796875 11.582031 170.132812 11.941406 C 170.800781 12.589844 171.46875 13.273438 172.167969 13.859375 C 172.902344 14.449219 173.804688 14.546875 174.609375 14.609375 C 174.304688 13.46875 174.039062 12.332031 173.738281 11.222656 C 173.707031 11.058594 173.472656 10.929688 173.304688 10.800781 C 172.902344 10.507812 172.402344 10.246094 172.070312 9.886719 C 170.433594 8.03125 167.960938 7.414062 165.621094 8.292969 C 164.820312 8.617188 164.722656 8.945312 165.289062 9.5625 C 165.589844 9.921875 165.988281 10.214844 166.289062 10.570312 C 166.757812 11.125 167.023438 11.746094 166.65625 12.460938 C 166.191406 13.4375 166.457031 14.316406 167.324219 14.96875 C 168.328125 15.75 169.496094 15.945312 170.734375 15.878906 C 172.203125 15.816406 173.4375 16.140625 174.238281 17.507812 C 174.707031 18.324219 175.574219 18.617188 176.542969 18.421875 C 177.511719 18.226562 178.449219 17.898438 179.484375 18.191406 C 179.117188 17.605469 178.648438 17.214844 178.046875 16.988281 C 177.414062 16.695312 176.746094 16.433594 176.175781 16.042969 C 175.507812 15.554688 174.808594 15.292969 173.972656 15.230469 C 172.871094 15.132812 171.902344 14.707031 171.132812 13.957031 C 170.597656 13.4375 170.066406 12.917969 169.699219 12.296875 C 169.128906 11.417969 168.496094 10.667969 167.394531 10.34375 C 167.058594 10.214844 166.792969 9.921875 166.492188 9.691406 Z M 181.886719 16.464844 C 182.355469 16.171875 182.789062 15.914062 183.222656 15.652344 C 183.660156 15.390625 184.125 15.195312 184.527344 14.9375 C 185.996094 13.957031 186.429688 12.558594 185.796875 10.929688 C 185.695312 10.703125 185.628906 10.472656 185.5625 10.246094 C 185.363281 9.53125 185.527344 8.945312 186.128906 8.453125 C 186.53125 8.128906 186.929688 7.804688 187.300781 7.414062 C 188.199219 6.5 188.101562 5.230469 187.132812 4.382812 C 186.765625 4.058594 186.496094 3.667969 186.195312 3.242188 C 185.828125 2.722656 185.496094 2.59375 184.859375 2.789062 C 184.226562 2.984375 183.824219 3.375 183.625 3.992188 C 183.359375 4.839844 182.957031 5.589844 182.257812 6.175781 C 182.121094 6.304688 182.054688 6.535156 181.988281 6.761719 C 181.722656 7.511719 182.089844 8.128906 182.488281 8.714844 C 183.15625 9.660156 183.523438 10.667969 183.558594 11.808594 C 183.558594 12.003906 183.558594 12.234375 183.558594 12.589844 C 183.726562 12.394531 183.792969 12.332031 183.824219 12.265625 C 184.292969 11.484375 184.394531 10.636719 184.125 9.757812 C 183.523438 7.867188 184.425781 6.402344 185.460938 4.9375 C 185.394531 5.394531 185.261719 5.816406 185.027344 6.207031 C 184.328125 7.378906 184.226562 8.585938 184.59375 9.855469 C 184.828125 10.667969 184.726562 11.449219 184.359375 12.167969 C 184.09375 12.722656 183.726562 13.242188 183.425781 13.796875 C 182.890625 14.707031 182.390625 15.585938 181.886719 16.464844 Z M 168.730469 16.660156 C 168.730469 16.628906 168.730469 16.5625 168.730469 16.53125 C 168.128906 16.171875 167.492188 15.847656 166.890625 15.457031 C 166.222656 15 165.621094 15 165.054688 15.621094 C 164.921875 15.75 164.855469 16.042969 164.886719 16.238281 C 165.054688 17.054688 165.554688 17.574219 166.355469 17.835938 C 167.859375 18.324219 169.128906 17.800781 170.367188 16.824219 C 168.128906 17.214844 166.726562 17.214844 166.425781 16.464844 C 167.191406 16.53125 167.960938 16.597656 168.730469 16.660156 Z M 168.730469 16.660156 " fill-opacity="0.5" fill-rule="nonzero"/></g><path fill="#ffffff" d="M 186.097656 20.472656 C 185.929688 21.742188 183.191406 23.632812 182.023438 23.242188 C 182.757812 22.851562 183.523438 22.558594 184.191406 22.101562 C 184.859375 21.644531 185.429688 21.058594 186.097656 20.472656 Z M 186.097656 20.472656 " fill-opacity="0.5" fill-rule="nonzero"/><g clip-path="url(#338f1860b7)"><path fill="#ffffff" d="M 517.535156 8.535156 C 516.445312 8.285156 515.429688 8.066406 514.453125 7.847656 C 513.578125 7.667969 513.363281 7.34375 513.363281 6.472656 C 513.363281 5.929688 513.507812 5.75 514.089844 5.859375 C 515.066406 6.039062 516.011719 6.253906 516.992188 6.472656 C 517.171875 6.507812 517.316406 6.546875 517.535156 6.582031 C 517.828125 5.820312 518.515625 5.785156 519.207031 5.820312 C 520.257812 5.894531 521.3125 6.074219 522.363281 6.183594 C 523.960938 6.328125 525.558594 6.507812 527.152344 6.617188 C 528.316406 6.691406 528.640625 6.90625 528.789062 7.992188 C 528.894531 8.753906 529.257812 9.261719 529.914062 9.660156 C 530.675781 10.128906 531.328125 10.746094 532.015625 11.289062 C 532.5625 11.6875 532.886719 12.230469 532.960938 12.917969 C 533.179688 14.875 533.433594 16.828125 533.652344 18.785156 C 533.867188 20.773438 534.121094 22.730469 534.339844 24.722656 C 534.484375 25.878906 534.304688 26.859375 533.214844 27.617188 C 531.871094 28.523438 530.636719 29.609375 529.367188 30.625 C 528.570312 31.238281 527.734375 31.421875 526.683594 31.273438 C 524.105469 30.914062 521.492188 30.660156 518.878906 30.371094 C 517.898438 30.261719 517.425781 29.972656 517.246094 28.992188 C 517.027344 27.761719 516.992188 26.496094 516.773438 25.265625 C 516.410156 23.199219 515.902344 21.210938 515.503906 19.183594 C 515.285156 18.167969 515.066406 17.152344 514.996094 16.140625 C 514.960938 15.597656 515.066406 14.945312 515.285156 14.4375 C 515.828125 13.097656 516.519531 11.796875 517.0625 10.457031 C 517.316406 9.875 517.355469 9.226562 517.535156 8.535156 Z M 517.316406 24.035156 C 517.464844 25.625 517.609375 27.039062 517.789062 28.488281 C 517.898438 29.355469 518.261719 29.574219 519.132812 29.644531 C 521.671875 29.898438 524.179688 30.117188 526.71875 30.480469 C 527.625 30.585938 528.351562 30.480469 529.078125 29.933594 C 530.421875 28.886719 531.726562 27.800781 533.070312 26.785156 C 533.652344 26.351562 533.832031 25.878906 533.757812 25.191406 C 533.652344 24.394531 533.578125 23.5625 533.503906 22.765625 C 533.46875 22.40625 533.394531 22.078125 533.324219 21.535156 C 531.945312 22.511719 530.78125 23.453125 529.511719 24.214844 C 528.460938 24.867188 528.097656 25.625 528.460938 26.785156 C 528.53125 27.039062 528.460938 27.363281 528.460938 27.65625 C 528.351562 27.65625 528.242188 27.691406 528.132812 27.691406 C 527.988281 27.183594 527.84375 26.675781 527.734375 26.167969 C 527.554688 25.226562 527.589844 25.191406 526.609375 25.082031 C 525.011719 24.867188 523.414062 24.683594 521.820312 24.503906 C 520.367188 24.359375 518.914062 24.214844 517.316406 24.035156 Z M 527.335938 24.539062 C 527.371094 24.394531 527.371094 24.359375 527.371094 24.324219 C 526.972656 21.898438 526.609375 19.472656 526.175781 17.046875 C 526.136719 16.902344 525.992188 16.683594 525.847656 16.648438 C 525.59375 16.539062 525.265625 16.464844 524.976562 16.429688 C 521.855469 16.175781 518.769531 15.921875 515.539062 15.632812 C 515.648438 16.464844 515.757812 17.300781 515.9375 18.132812 C 516.265625 19.652344 516.703125 21.171875 517.027344 22.730469 C 517.136719 23.347656 517.425781 23.527344 518.007812 23.5625 C 519.894531 23.742188 521.78125 23.960938 523.667969 24.140625 C 524.832031 24.285156 526.066406 24.394531 527.335938 24.539062 Z M 517.972656 8.789062 C 517.972656 11.109375 516.484375 12.882812 515.683594 15.089844 C 519.207031 15.488281 522.691406 15.597656 526.027344 16.03125 C 526.71875 14.003906 527.335938 11.976562 528.023438 10.019531 C 528.242188 9.371094 528.351562 8.789062 528.167969 8.101562 C 528.023438 7.558594 527.769531 7.34375 527.226562 7.304688 C 525.449219 7.160156 523.632812 6.945312 521.855469 6.761719 C 521.019531 6.652344 520.183594 6.472656 519.351562 6.402344 C 518.953125 6.363281 518.589844 6.4375 518.191406 6.472656 C 518.191406 6.546875 518.191406 6.582031 518.191406 6.652344 C 518.261719 6.691406 518.335938 6.761719 518.441406 6.800781 C 519.316406 7.050781 520.257812 7.160156 520.875 7.957031 C 520.949219 8.066406 521.203125 8.03125 521.382812 8.066406 C 523.269531 8.355469 525.195312 8.609375 527.082031 8.898438 C 527.300781 8.933594 527.515625 9.007812 527.734375 9.078125 C 527.734375 9.152344 527.734375 9.226562 527.699219 9.296875 C 527.445312 9.296875 527.191406 9.371094 526.9375 9.332031 C 525.882812 9.1875 524.832031 9.042969 523.777344 8.898438 C 522.945312 8.789062 522.109375 8.71875 521.128906 8.644531 C 521.492188 9.660156 521.820312 10.492188 522.109375 11.324219 C 522.328125 11.941406 522.109375 12.375 521.566406 12.59375 C 520.949219 12.808594 520.367188 12.628906 520.148438 12.050781 C 519.929688 11.46875 519.824219 10.855469 519.675781 10.273438 C 519.460938 9.152344 519.277344 8.972656 517.972656 8.789062 Z M 528.0625 24.539062 C 528.207031 24.46875 528.277344 24.46875 528.351562 24.433594 C 529.839844 23.382812 531.363281 22.296875 532.886719 21.246094 C 533.25 20.992188 533.214844 20.738281 533.179688 20.414062 C 533.035156 18.855469 532.886719 17.300781 532.707031 15.707031 C 532.597656 14.835938 532.488281 13.96875 532.34375 12.917969 C 531.65625 13.316406 531.109375 13.640625 530.566406 13.96875 C 529.511719 14.65625 528.53125 15.453125 527.445312 16.066406 C 526.972656 16.359375 526.792969 16.648438 526.863281 17.152344 C 527.261719 19.617188 527.660156 22.042969 528.0625 24.539062 Z M 526.828125 15.707031 C 526.898438 15.742188 526.972656 15.816406 527.042969 15.851562 C 528.714844 14.726562 530.382812 13.570312 532.199219 12.339844 C 531.074219 11.398438 529.949219 10.457031 528.75 9.441406 C 528.0625 11.652344 527.445312 13.679688 526.828125 15.707031 Z M 514.703125 6.472656 C 514.667969 6.835938 514.667969 7.089844 514.667969 7.378906 C 515.867188 7.632812 517.027344 7.886719 518.226562 8.175781 C 518.335938 7.921875 518.40625 7.703125 518.515625 7.449219 C 517.210938 7.125 516.011719 6.800781 514.703125 6.472656 Z M 520.949219 9.875 C 520.257812 10.238281 520.222656 10.238281 520.332031 10.78125 C 520.402344 11.109375 520.476562 11.46875 520.65625 11.757812 C 520.765625 11.941406 521.054688 11.976562 521.273438 12.085938 C 521.347656 11.867188 521.566406 11.613281 521.527344 11.433594 C 521.417969 10.925781 521.164062 10.417969 520.949219 9.875 Z M 519.351562 8.464844 C 519.421875 8.5 519.496094 8.535156 519.566406 8.574219 C 519.675781 8.355469 519.824219 8.136719 519.929688 7.921875 C 519.859375 7.886719 519.785156 7.847656 519.714844 7.8125 C 519.605469 8.03125 519.460938 8.246094 519.351562 8.464844 Z M 513.90625 7.089844 C 513.980469 7.089844 514.089844 7.050781 514.160156 7.050781 C 514.125 6.835938 514.050781 6.652344 514.015625 6.4375 C 513.941406 6.4375 513.871094 6.472656 513.832031 6.472656 C 513.832031 6.691406 513.871094 6.90625 513.90625 7.089844 Z M 519.167969 7.777344 C 519.132812 7.738281 519.058594 7.703125 519.023438 7.667969 C 518.953125 7.847656 518.878906 8.066406 518.769531 8.246094 C 518.804688 8.285156 518.84375 8.285156 518.878906 8.320312 C 518.988281 8.136719 519.058594 7.957031 519.167969 7.777344 Z M 520.183594 9.550781 C 520.257812 9.621094 520.292969 9.660156 520.367188 9.730469 C 520.476562 9.585938 520.585938 9.441406 520.65625 9.296875 C 520.621094 9.296875 520.621094 9.261719 520.585938 9.261719 C 520.441406 9.371094 520.332031 9.476562 520.183594 9.550781 Z M 519.894531 8.898438 C 519.929688 8.933594 519.96875 8.972656 520.003906 9.007812 C 520.113281 8.863281 520.257812 8.71875 520.367188 8.574219 C 520.332031 8.535156 520.292969 8.5 520.292969 8.464844 C 520.148438 8.609375 520.039062 8.753906 519.894531 8.898438 Z M 519.894531 8.898438 " fill-opacity="0.5" fill-rule="nonzero"/></g><g clip-path="url(#3edfa7e471)"><path fill="#ffffff" d="M 605.476562 40.042969 C 606.1875 39.753906 606.742188 39.605469 607.25 39.363281 C 610.285156 37.898438 611.601562 35.214844 610.992188 32.042969 C 610.890625 31.457031 610.589844 31.214844 609.929688 31.359375 C 607.046875 31.945312 604.871094 33.359375 603.65625 35.996094 C 603.554688 36.238281 603.453125 36.484375 603.351562 36.628906 C 602.796875 35.605469 602.289062 34.582031 601.683594 33.554688 C 601.378906 33.066406 600.921875 32.675781 600.46875 32.335938 C 599.660156 31.703125 598.699219 31.75 598.140625 32.335938 C 597.535156 33.019531 597.484375 34.238281 598.191406 34.875 C 598.597656 35.261719 599.050781 35.554688 599.457031 35.898438 C 600.214844 36.484375 600.875 37.167969 601.175781 38.140625 C 600.824219 38.191406 600.570312 38.238281 600.316406 38.289062 C 598.800781 38.53125 597.535156 39.167969 596.421875 40.140625 C 594.902344 41.507812 594.246094 43.214844 595.003906 45.121094 C 595.761719 47.023438 595.257812 48.339844 593.738281 49.65625 C 591.714844 51.460938 590.5 53.804688 590.703125 56.585938 C 590.855469 58.632812 591.460938 60.585938 592.929688 62.148438 C 593.6875 62.925781 594.648438 63.609375 595.660156 64.050781 C 598.292969 65.171875 601.125 65.417969 603.960938 64.734375 C 604.972656 64.488281 605.933594 64.246094 606.894531 63.855469 C 610.992188 62.34375 612.5625 58.195312 610.488281 54.4375 C 610.132812 53.851562 609.675781 53.265625 609.273438 52.730469 C 608.765625 52.097656 608.3125 51.460938 607.855469 50.828125 C 606.945312 49.511719 606.691406 48.144531 607.148438 46.582031 C 607.449219 45.605469 607.550781 44.535156 607.550781 43.558594 C 607.550781 42.144531 606.742188 40.972656 605.476562 40.042969 Z M 600.46875 63.953125 C 600.011719 63.902344 599.152344 63.855469 598.34375 63.660156 C 596.726562 63.269531 595.105469 62.925781 593.941406 61.660156 C 591.96875 59.464844 590.804688 55.558594 592.929688 52.4375 C 593.6875 51.316406 594.648438 50.339844 595.5625 49.363281 C 596.523438 48.339844 596.824219 47.265625 596.371094 45.996094 C 596.269531 45.703125 596.167969 45.410156 596.117188 45.121094 C 595.507812 43.070312 595.863281 41.753906 597.6875 40.484375 C 598.546875 39.898438 599.609375 39.507812 600.671875 39.167969 C 600.976562 39.070312 601.378906 39.363281 601.734375 39.410156 C 602.085938 39.507812 602.492188 39.605469 602.847656 39.65625 C 603.152344 39.703125 603.503906 39.703125 603.757812 39.851562 C 604.164062 40.140625 604.515625 40.484375 604.921875 40.824219 C 606.136719 41.800781 606.691406 43.070312 606.4375 44.632812 C 606.289062 45.460938 606.085938 46.242188 605.933594 47.070312 C 605.679688 48.144531 605.730469 49.21875 606.289062 50.144531 C 606.894531 51.316406 607.652344 52.390625 608.363281 53.511719 C 608.917969 54.390625 609.578125 55.21875 609.878906 56.195312 C 610.789062 58.78125 609.578125 61.464844 607.097656 62.539062 C 605.125 63.367188 603.050781 63.855469 600.46875 63.953125 Z M 604.617188 38.921875 C 605.375 38.09375 606.085938 37.3125 606.742188 36.484375 C 607.351562 35.652344 608.261719 35.117188 608.613281 34.09375 C 606.742188 34.824219 605.679688 36.433594 604.3125 37.703125 C 604.515625 35.507812 606.640625 33.019531 609.980469 32.433594 C 610.4375 35.945312 608.007812 38.921875 604.617188 38.921875 Z M 602.1875 38.386719 C 601.734375 36.824219 600.671875 35.703125 599.304688 34.824219 C 599.558594 34.289062 599.710938 33.898438 599.910156 33.410156 C 601.480469 34.777344 602.085938 36.484375 602.1875 38.386719 Z M 598.847656 33.847656 C 598.746094 33.847656 598.648438 33.847656 598.546875 33.800781 C 598.648438 33.554688 598.746094 33.261719 598.800781 33.019531 C 598.898438 33.019531 598.949219 33.066406 599.050781 33.066406 C 599 33.3125 598.898438 33.605469 598.847656 33.847656 Z M 598.847656 33.847656 " fill-opacity="0.5" fill-rule="nonzero"/></g><g clip-path="url(#dffbdd85bc)"><path fill="#ffffff" d="M 269.738281 40.042969 C 270.445312 39.753906 271 39.605469 271.507812 39.363281 C 274.542969 37.898438 275.859375 35.214844 275.253906 32.042969 C 275.152344 31.457031 274.847656 31.214844 274.191406 31.359375 C 271.304688 31.945312 269.128906 33.359375 267.914062 35.996094 C 267.8125 36.238281 267.714844 36.484375 267.613281 36.628906 C 267.054688 35.605469 266.550781 34.582031 265.941406 33.554688 C 265.636719 33.066406 265.183594 32.675781 264.726562 32.335938 C 263.917969 31.703125 262.957031 31.75 262.398438 32.335938 C 261.792969 33.019531 261.742188 34.238281 262.449219 34.875 C 262.855469 35.261719 263.3125 35.554688 263.714844 35.898438 C 264.472656 36.484375 265.132812 37.167969 265.4375 38.140625 C 265.082031 38.191406 264.828125 38.238281 264.574219 38.289062 C 263.058594 38.53125 261.792969 39.167969 260.679688 40.140625 C 259.160156 41.507812 258.503906 43.214844 259.261719 45.121094 C 260.023438 47.023438 259.515625 48.339844 258 49.65625 C 255.972656 51.460938 254.761719 53.804688 254.960938 56.585938 C 255.113281 58.632812 255.722656 60.585938 257.1875 62.148438 C 257.949219 62.925781 258.910156 63.609375 259.921875 64.050781 C 262.550781 65.171875 265.386719 65.417969 268.21875 64.734375 C 269.230469 64.488281 270.191406 64.246094 271.152344 63.855469 C 275.253906 62.34375 276.820312 58.195312 274.746094 54.4375 C 274.390625 53.851562 273.9375 53.265625 273.53125 52.730469 C 273.027344 52.097656 272.570312 51.460938 272.117188 50.828125 C 271.203125 49.511719 270.953125 48.144531 271.40625 46.582031 C 271.710938 45.605469 271.8125 44.535156 271.8125 43.558594 C 271.8125 42.144531 271 40.972656 269.738281 40.042969 Z M 264.726562 63.953125 C 264.273438 63.902344 263.414062 63.855469 262.601562 63.660156 C 260.984375 63.269531 259.363281 62.925781 258.199219 61.660156 C 256.226562 59.464844 255.0625 55.558594 257.1875 52.4375 C 257.949219 51.316406 258.910156 50.339844 259.820312 49.363281 C 260.78125 48.339844 261.085938 47.265625 260.628906 45.996094 C 260.527344 45.703125 260.425781 45.410156 260.375 45.121094 C 259.769531 43.070312 260.125 41.753906 261.945312 40.484375 C 262.804688 39.898438 263.867188 39.507812 264.929688 39.167969 C 265.234375 39.070312 265.636719 39.363281 265.992188 39.410156 C 266.347656 39.507812 266.75 39.605469 267.105469 39.65625 C 267.410156 39.703125 267.765625 39.703125 268.015625 39.851562 C 268.421875 40.140625 268.777344 40.484375 269.179688 40.824219 C 270.394531 41.800781 270.953125 43.070312 270.699219 44.632812 C 270.546875 45.460938 270.34375 46.242188 270.191406 47.070312 C 269.941406 48.144531 269.988281 49.21875 270.546875 50.144531 C 271.152344 51.316406 271.914062 52.390625 272.621094 53.511719 C 273.175781 54.390625 273.835938 55.21875 274.140625 56.195312 C 275.050781 58.78125 273.835938 61.464844 271.355469 62.539062 C 269.382812 63.367188 267.308594 63.855469 264.726562 63.953125 Z M 268.875 38.921875 C 269.636719 38.09375 270.34375 37.3125 271 36.484375 C 271.609375 35.652344 272.519531 35.117188 272.875 34.09375 C 271 34.824219 269.941406 36.433594 268.574219 37.703125 C 268.777344 35.507812 270.902344 33.019531 274.238281 32.433594 C 274.695312 35.945312 272.265625 38.921875 268.875 38.921875 Z M 266.449219 38.386719 C 265.992188 36.824219 264.929688 35.703125 263.5625 34.824219 C 263.816406 34.289062 263.96875 33.898438 264.171875 33.410156 C 265.738281 34.777344 266.347656 36.484375 266.449219 38.386719 Z M 263.109375 33.847656 C 263.007812 33.847656 262.90625 33.847656 262.804688 33.800781 C 262.90625 33.554688 263.007812 33.261719 263.058594 33.019531 C 263.160156 33.019531 263.210938 33.066406 263.3125 33.066406 C 263.261719 33.3125 263.160156 33.605469 263.109375 33.847656 Z M 263.109375 33.847656 " fill-opacity="0.5" fill-rule="nonzero"/></g></svg>