<svg width="47" height="46" viewBox="0 0 47 46" fill="none" xmlns="http://www.w3.org/2000/svg">
<path fill-rule="evenodd" clip-rule="evenodd" d="M18.5329 28.996L16.4994 27.0142L27.11 16.6755L29.1417 18.6573L18.5329 28.996ZM28.4344 28.2993H25.5594L25.5441 25.4975H28.4344V28.2993ZM20.0912 17.3666V20.1684H17.2162L17.2047 17.3666H20.0912ZM41.3298 22.2847C37.7418 19.6323 35.896 15.2858 36.5074 10.9393L36.6799 9.71953L35.4264 9.88764C30.9798 10.4854 26.5063 8.68286 23.7846 5.1862L23.0218 4.20557L22.257 5.1862C19.5354 8.68286 15.0638 10.4872 10.6152 9.88764L9.3636 9.71953L9.5361 10.9393C10.1475 15.2858 8.29985 19.6323 4.71377 22.2847L3.70752 23.0281L4.71377 23.7734C8.29985 26.4239 10.1475 30.7705 9.5361 35.1189L9.3636 36.3386L10.6152 36.1705C15.0619 35.5765 19.5354 37.3734 22.257 40.8701L23.0218 41.8507L23.7846 40.8701C26.5063 37.3734 30.9817 35.5784 35.4264 36.1705L36.6799 36.3386L36.5074 35.1189C35.896 30.7705 37.7418 26.4239 41.3298 23.7734L42.336 23.0281L41.3298 22.2847Z" fill="#39B54A"/>
</svg>
