<svg width="40" height="41" viewBox="0 0 40 41" fill="none" xmlns="http://www.w3.org/2000/svg">
<g clip-path="url(#clip0_169_27172)">
<path d="M37.2685 33.076H30.905C26.8949 33.076 23.6324 29.8134 23.6324 25.8034C23.6324 21.7933 26.8949 18.5308 30.905 18.5308H37.2685C37.771 18.5308 38.1776 18.1242 38.1776 17.6217V14.8945C38.1776 12.9881 36.6989 11.4378 34.8307 11.2875L29.6098 2.16829C29.1259 1.32489 28.3447 0.722087 27.4098 0.471779C26.4794 0.223175 25.5065 0.353741 24.6737 0.83842L6.77606 11.2581H3.63267C1.62722 11.2581 -0.00366211 12.8889 -0.00366211 14.8945V36.7123C-0.00366211 38.7177 1.62714 40.3486 3.63267 40.3486H34.5413C36.5467 40.3486 38.1776 38.7178 38.1776 36.7123V33.9851C38.1776 33.4826 37.771 33.076 37.2685 33.076ZM30.7372 7.79831L32.718 11.2581H24.7945L30.7372 7.79831ZM10.3896 11.2581L25.589 2.40973C26 2.16914 26.4803 2.10522 26.9393 2.22777C27.4036 2.35203 27.7907 2.65211 28.0313 3.07202L28.0332 3.07534L13.9786 11.2581H10.3896Z" fill="#000000"/>
<path d="M37.2685 20.3491H30.9049C27.8971 20.3491 25.4504 22.7958 25.4504 25.8036C25.4504 28.8114 27.8971 31.258 30.9049 31.258H37.2685C38.7724 31.258 39.9957 30.0347 39.9957 28.5308V23.0764C39.9957 21.5725 38.7724 20.3491 37.2685 20.3491ZM30.9049 27.6217C29.9026 27.6217 29.0868 26.8058 29.0868 25.8036C29.0868 24.8013 29.9026 23.9855 30.9049 23.9855C31.9072 23.9855 32.723 24.8013 32.723 25.8036C32.7231 26.8058 31.9072 27.6217 30.9049 27.6217Z" fill="#000000"/>
</g>
<defs>
<clipPath id="clip0_169_27172">
<rect width="40" height="40" fill="white" transform="translate(-0.00390625 0.348633)"/>
</clipPath>
</defs>
</svg>
