<svg width="44" height="44" viewBox="0 0 44 44" fill="none" xmlns="http://www.w3.org/2000/svg">
<path d="M3.18521 11.2632H12.5922C12.8569 11.2632 13.119 11.3153 13.3636 11.4166C13.6082 11.5179 13.8304 11.6664 14.0176 11.8536C14.2047 12.0408 14.3532 12.263 14.4545 12.5075C14.5558 12.7521 14.6079 13.0142 14.6079 13.2789V20.6699C14.6079 21.2045 14.3956 21.7172 14.0175 22.0953C13.6395 22.4733 13.1268 22.6857 12.5922 22.6857H3.18517C2.65056 22.6857 2.13785 22.4733 1.75983 22.0953C1.3818 21.7173 1.16943 21.2046 1.16943 20.6699V13.279C1.16943 13.0143 1.22157 12.7521 1.32288 12.5076C1.42418 12.263 1.57266 12.0408 1.75984 11.8536C1.94702 11.6664 2.16924 11.5179 2.41381 11.4166C2.65837 11.3153 2.9205 11.2632 3.18521 11.2632Z" fill="#000000"/>
<path d="M22.6708 8.5752C24.5261 8.5752 26.0301 7.07115 26.0301 5.21582C26.0301 3.36049 24.5261 1.85645 22.6708 1.85645C20.8154 1.85645 19.3114 3.36049 19.3114 5.21582C19.3114 7.07115 20.8154 8.5752 22.6708 8.5752Z" fill="#000000"/>
<path d="M8.56195 24.6013C8.56214 25.6445 8.97238 26.6458 9.70419 27.3893H20.6268V24.5977C20.6267 24.4203 20.5563 24.2501 20.4308 24.1247C20.3054 23.9992 20.1352 23.9287 19.9578 23.9287H9.23093C9.05314 23.9295 8.88292 24.0008 8.75754 24.1268C8.63216 24.2529 8.56183 24.4235 8.56195 24.6013Z" fill="#000000"/>
<path d="M41.9768 35.0192C41.6491 33.8079 40.9144 32.7463 39.8962 32.0129C38.8779 31.2795 37.6382 30.9191 36.3855 30.9921C36.4908 30.5997 36.545 30.1953 36.5469 29.7889C36.5343 29.1447 36.3654 28.5131 36.0549 27.9485C35.7443 27.3839 35.3014 26.9031 34.7641 26.5475C33.3211 25.5905 32.2424 23.1564 32.0793 20.5961H33.3661C33.8981 20.5963 34.4085 20.3855 34.7853 20.0099C35.1621 19.6342 35.3745 19.1245 35.376 18.5925V17.2582C35.3745 16.7262 35.1621 16.2165 34.7853 15.8409C34.4085 15.4654 33.8981 15.2546 33.3661 15.2549H28.7708C24.8858 14.1361 23.717 12.8475 23.0185 12.0755C23.0041 12.0597 22.9899 12.044 22.9762 12.0286C23.0459 11.5134 22.9527 10.9894 22.7096 10.53C22.4664 10.0705 22.0856 9.69866 21.6205 9.46656C21.2884 9.30806 20.9249 9.22653 20.5569 9.22805C20.189 9.22957 19.8261 9.31409 19.4954 9.47533C19.1647 9.63657 18.8746 9.87036 18.6467 10.1593C18.4189 10.4482 18.2592 10.7848 18.1795 11.144L16.2517 20.3556C16.1949 20.6292 16.1959 20.9117 16.2547 21.1849C16.3136 21.4581 16.4289 21.7159 16.5933 21.9419C16.7577 22.1679 16.9675 22.357 17.2094 22.497C17.4512 22.6371 17.7196 22.725 17.9974 22.7552L21.3006 23.1207C21.4709 23.1387 21.6277 23.2215 21.7387 23.3518C21.8497 23.4822 21.9064 23.6502 21.8971 23.8211L21.3765 32.6266C20.8362 32.1544 20.4521 31.5293 20.2749 30.834C20.0977 30.1387 20.1358 29.406 20.3841 28.7328H10.1143C9.03097 30.5273 7.29702 33.8919 7.99859 36.0806C8.12939 36.4925 8.35667 36.8672 8.66152 37.1735C8.96637 37.4798 9.33998 37.7089 9.75124 37.8417C10.0533 37.9341 10.37 37.9685 10.6849 37.9431C10.7611 39.0298 11.2466 40.0472 12.0435 40.7901C12.8403 41.5329 13.8892 41.946 14.9786 41.946C16.068 41.946 17.1169 41.5329 17.9137 40.79C18.7105 40.0471 19.196 39.0297 19.2722 37.943L30.788 37.9428C30.8999 37.9366 31.0095 37.9083 31.1104 37.8595C31.2113 37.8108 31.3016 37.7425 31.3759 37.6586C31.4575 38.0555 31.5901 38.4401 31.7703 38.803C31.8207 38.9087 31.898 38.9993 31.9945 39.0657C32.0909 39.1321 32.2031 39.1721 32.3198 39.1815C32.4366 39.191 32.5537 39.1697 32.6596 39.1196C32.7655 39.0696 32.8564 38.9927 32.9232 38.8965C33.0012 38.7842 33.0862 38.6746 33.1755 38.5666C33.2648 39.1468 33.472 39.7025 33.7843 40.1996C34.0965 40.6966 34.5072 41.1245 34.9911 41.4568C35.4749 41.7892 36.0217 42.0189 36.5977 42.1319C37.1737 42.245 37.7668 42.2388 38.3404 42.114C38.9139 41.9892 39.4559 41.7482 39.9328 41.406C40.4097 41.0638 40.8115 40.6275 41.1135 40.1242C41.4154 39.6208 41.6111 39.0609 41.6885 38.479C41.7659 37.8972 41.7233 37.3056 41.5635 36.7408C41.7367 36.7219 41.8956 36.6355 42.0055 36.5003C42.1155 36.3651 42.1678 36.192 42.151 36.0185C42.1255 35.6806 42.0672 35.3459 41.9768 35.0192ZM14.9784 40.6081C14.2443 40.6081 13.5365 40.3354 12.9922 39.8429C12.4478 39.3505 12.1059 38.6734 12.0326 37.9431L17.9245 37.943C17.8511 38.6734 17.5091 39.3505 16.9647 39.843C16.4203 40.3354 15.7124 40.6081 14.9784 40.6081ZM28.0041 33.2689H25.3939L26.5481 22.3579C26.5942 21.916 26.4922 21.4713 26.2579 21.0937C26.0237 20.7161 25.6706 20.4272 25.2541 20.2723L21.9617 19.0436C21.8104 18.9874 21.6846 18.8782 21.6077 18.7363C21.5309 18.5944 21.5081 18.4294 21.5437 18.272L22.0447 16.1119C23.7575 17.4776 25.8254 18.3244 28.0041 18.5523V33.2689ZM37.8041 40.8066C37.3584 40.8652 36.9051 40.8217 36.4787 40.6793C36.0522 40.537 35.6637 40.2995 35.3426 39.9848C35.0214 39.6702 34.7761 39.2866 34.625 38.8631C34.474 38.4397 34.4212 37.9874 34.4708 37.5405L34.6754 37.2858C36.214 36.332 38.0473 35.9714 39.8325 36.2713L39.9912 36.3939C40.2352 36.8159 40.371 37.2917 40.3866 37.779C40.4022 38.2662 40.2971 38.7497 40.0806 39.1865C39.8641 39.6233 39.543 39.9998 39.1458 40.2824C38.7486 40.5651 38.2877 40.7451 37.8041 40.8066Z" fill="#000000"/>
</svg>
