<svg width="50" height="51" viewBox="0 0 50 51" fill="none" xmlns="http://www.w3.org/2000/svg">
<g clip-path="url(#clip0_260_3096)">
<path d="M21.4184 48.3969L5.65101 36.088C4.90372 35.5047 4.77264 34.4259 5.35815 33.6793L31.1314 0.821376C31.7161 0.0759035 32.7944 -0.0560885 33.5405 0.526406L49.3081 12.8354C50.0553 13.4187 50.1864 14.4974 49.6009 15.244L23.8277 48.102C23.2429 48.8474 22.1647 48.9794 21.4184 48.3969Z" fill="#57AD7B"/>
<path d="M11.4615 49.4037L0.32213 32.8048C-0.206039 32.0178 0.00502746 30.9514 0.793357 30.4235L35.5151 7.17712C36.3025 6.64996 37.3679 6.85972 37.8955 7.64583L49.0348 24.2447C49.563 25.0317 49.3519 26.0981 48.5636 26.626L13.8418 49.8724C13.0544 50.3996 11.989 50.1898 11.4615 49.4037Z" fill="#81CDA1"/>
<path d="M49.0339 24.2447L37.8946 7.64583C37.3671 6.85972 36.3017 6.64996 35.5142 7.17712L34.163 8.08175L45.0098 24.2447C45.538 25.0317 45.3269 26.0981 44.5386 26.626L11.168 48.9678L11.4605 49.4037C11.9881 50.1898 13.0535 50.3996 13.8409 49.8724L48.5626 26.626C49.3511 26.0981 49.562 25.0317 49.0339 24.2447Z" fill="#60BF88"/>
<path d="M33.8141 29.071C34.1072 24.029 30.2527 19.7037 25.2049 19.4104C20.1571 19.117 15.8275 22.9666 15.5345 28.0087C15.2415 33.0508 19.096 37.376 24.1437 37.6694C29.1915 37.9627 33.5211 34.1131 33.8141 29.071Z" fill="#29795D"/>
<path d="M5.54568 27.2424C7.8335 30.6516 6.92163 35.2676 3.50896 37.5524L0.321432 32.8027C-0.206032 32.0167 0.00553711 30.9516 0.794068 30.4237L5.54568 27.2424Z" fill="#29795D"/>
<path d="M8.28516 44.6669C11.7051 42.3772 16.3283 43.2788 18.6113 46.6808L13.8465 49.8709C13.0581 50.3987 11.9913 50.1895 11.4638 49.4036L8.28516 44.6669Z" fill="#29795D"/>
<path d="M43.8155 29.8104C41.5277 26.4013 42.4396 21.7853 45.8522 19.5005L49.0398 24.2502C49.5672 25.0362 49.3557 26.1013 48.5671 26.6292L43.8155 29.8104Z" fill="#29795D"/>
<path d="M41.0762 12.386C37.6562 14.6757 33.033 13.774 30.75 10.372L35.5148 7.18197C36.3032 6.6541 37.37 6.86336 37.8975 7.64927L41.0762 12.386Z" fill="#29795D"/>
<path d="M36.1693 21.5863C35.926 21.5863 35.6871 21.4688 35.5417 21.2514C35.3099 20.9051 35.4026 20.4365 35.7489 20.2046L39.3009 17.8265C39.6471 17.5948 40.1159 17.6875 40.3477 18.0338C40.5795 18.38 40.4867 18.8487 40.1405 19.0806L36.5884 21.4586C36.4596 21.5449 36.3136 21.5863 36.1693 21.5863Z" fill="#29795D"/>
<path d="M9.63808 39.3502C9.39472 39.3502 9.15598 39.2327 9.01041 39.0153C8.77862 38.669 8.87138 38.2004 9.21765 37.9686L12.7696 35.5905C13.1157 35.3586 13.5844 35.4515 13.8163 35.7978C14.0481 36.1441 13.9554 36.6127 13.6091 36.8445L10.0572 39.2225C9.92822 39.3088 9.78234 39.3502 9.63808 39.3502Z" fill="#29795D"/>
<path d="M28.2057 32.5353C29.2937 31.4141 29.3291 29.8628 28.8341 28.7657C28.1876 27.3331 26.7628 26.6657 25.2036 27.0657C25.0161 27.1138 24.8238 27.1616 24.6303 27.2072L22.9185 24.6565C23.3485 24.5169 23.6836 24.5533 23.7167 24.5573C24.1266 24.6164 24.5067 24.335 24.5698 23.9257C24.6335 23.5139 24.3512 23.1284 23.9393 23.0648C23.8871 23.0568 23.0316 22.9353 22.0582 23.3747L21.7263 22.8801C21.494 22.5341 21.0254 22.4417 20.6793 22.674C20.3333 22.9062 20.241 23.3749 20.4732 23.721L20.8353 24.2606C20.7762 24.324 20.7175 24.3895 20.6598 24.4595C19.9948 25.2673 19.8489 26.3941 20.2794 27.4003C20.6728 28.3203 21.4653 28.9322 22.3476 28.9972C22.7952 29.0301 23.2996 28.9976 23.941 28.8885L26.1438 32.1709C25.7072 32.408 25.356 32.4819 24.6969 32.4898C24.2802 32.4948 23.9465 32.8367 23.9516 33.2534C23.9565 33.667 24.2934 33.9989 24.7058 33.9989H24.7152C25.7434 33.9864 26.3371 33.8031 26.9871 33.4276L27.359 33.9819C27.5046 34.1989 27.7432 34.3161 27.9862 34.3161C28.1308 34.3161 28.277 34.2745 28.406 34.188C28.752 33.9558 28.8443 33.4871 28.6121 33.141L28.2057 32.5353ZM22.4586 27.4923C22.146 27.4693 21.8352 27.2003 21.667 26.8069C21.5226 26.4695 21.4723 25.9877 21.7169 25.5739L23.0009 27.4872C22.8074 27.5014 22.6246 27.5046 22.4586 27.4923ZM25.5786 28.5274C26.8204 28.2091 27.3314 29.1044 27.4586 29.3864C27.6974 29.9154 27.7152 30.6333 27.326 31.2241L25.5253 28.5409C25.5433 28.5363 25.5603 28.5321 25.5786 28.5274Z" fill="#81CDA1"/>
</g>
<defs>
<clipPath id="clip0_260_3096">
<rect width="50" height="50" fill="white" transform="translate(0 0.163086)"/>
</clipPath>
</defs>
</svg>
