<svg width="25" height="25" viewBox="0 0 25 25" fill="none" xmlns="http://www.w3.org/2000/svg">
<g clip-path="url(#clip0_362_1032)">
<path d="M23.8951 8.372L18.4623 2.93923C18.0141 2.49097 17.5594 2.26367 17.111 2.26367C16.4953 2.26367 15.7764 2.73195 15.7764 4.05172V5.90131C11.8293 6.07334 8.14327 7.69208 5.3319 10.5033C2.35421 13.4808 0.714195 17.4396 0.713867 21.6506C0.71382 21.9531 0.907367 22.2218 1.19434 22.3175C1.26755 22.342 1.3426 22.3538 1.4169 22.3538C1.63379 22.3538 1.84374 22.2531 1.97916 22.073C5.29871 17.6543 10.2966 15.043 15.7764 14.8368V16.6578C15.7764 17.9775 16.4953 18.4459 17.1109 18.4459H17.111C17.5594 18.4459 18.0141 18.2186 18.4623 17.7703L23.8951 12.3375C24.4231 11.8096 24.7139 11.1055 24.7139 10.3548C24.7139 9.60411 24.4231 8.89995 23.8951 8.372ZM22.9007 11.3432L17.468 16.776C17.3638 16.8802 17.2775 16.946 17.2138 16.986C17.1971 16.9128 17.1826 16.8052 17.1826 16.6579V14.1205C17.1826 13.7322 16.8678 13.4173 16.4795 13.4173C13.3554 13.4173 10.3702 14.1331 7.60684 15.5447C5.62309 16.5581 3.80968 17.9223 2.27401 19.5469C3.2956 12.6236 9.27695 7.29228 16.4795 7.29228C16.8678 7.29228 17.1826 6.97747 17.1826 6.58916V4.05172C17.1826 3.90439 17.1971 3.79681 17.2138 3.72359C17.2774 3.76358 17.3638 3.82939 17.468 3.93359L22.9007 9.36641C23.1631 9.62877 23.3076 9.97977 23.3076 10.3548C23.3076 10.7298 23.1631 11.0808 22.9007 11.3432Z" fill="black"/>
</g>
<defs>
<clipPath id="clip0_362_1032">
<rect width="24" height="24" fill="white" transform="translate(0.713867 0.308594)"/>
</clipPath>
</defs>
</svg>
