<svg width="71" height="66" viewBox="0 0 71 66" fill="none" xmlns="http://www.w3.org/2000/svg">
<g clip-path="url(#clip0_260_3018)">
<path d="M13.7299 22.826C14.5541 21.8588 15.1132 20.5602 14.9659 19.2332C13.7594 19.2895 12.2873 19.98 11.435 20.9479C10.6696 21.7768 9.9923 23.1298 10.1689 24.4011C11.523 24.5113 12.8761 23.766 13.7299 22.826Z" fill="black"/>
<path d="M14.9503 24.6495C12.9836 24.5395 11.3114 25.6967 10.3721 25.6967C9.43244 25.6967 7.99415 24.7049 6.43857 24.7316C4.4139 24.7595 2.53525 25.8336 1.50781 27.5419C-0.605454 30.9594 0.950132 36.0287 3.00515 38.812C4.00306 40.189 5.20591 41.7052 6.79062 41.6507C8.28796 41.5955 8.8749 40.7409 10.6949 40.7409C12.5137 40.7409 13.0424 41.6507 14.6273 41.6231C16.2711 41.5955 17.2987 40.2454 18.2966 38.867C19.4415 37.2973 19.9102 35.7817 19.9395 35.6984C19.91 35.6708 16.77 34.5406 16.7409 31.1515C16.7112 28.3139 19.2062 26.964 19.3236 26.8804C17.9149 24.9254 15.7134 24.7049 14.9503 24.6495Z" fill="black"/>
<path d="M32.0759 20.8088C36.3505 20.8088 39.327 23.5735 39.327 27.5987C39.327 31.6382 36.2891 34.4172 31.9687 34.4172H27.2359V41.4791H23.8164V20.8088H32.0759ZM27.2357 31.7241H31.1593C34.1365 31.7241 35.8308 30.2202 35.8308 27.613C35.8308 25.0061 34.1365 23.5163 31.1746 23.5163H27.2357V31.7241Z" fill="black"/>
<path d="M40.2188 37.1963C40.2188 34.5604 42.3714 32.9418 46.1884 32.7413L50.585 32.4978V31.3376C50.585 29.6617 49.3789 28.6589 47.3641 28.6589C45.4552 28.6589 44.2644 29.5182 43.9747 30.8649H40.8602C41.0434 28.1431 43.5164 26.1377 47.486 26.1377C51.379 26.1377 53.8674 28.0715 53.8674 31.0939V41.4791H50.707V39.001H50.631C49.6998 40.6771 47.6691 41.737 45.5624 41.737C42.4173 41.737 40.2188 39.9033 40.2188 37.1963ZM50.5849 35.8355V34.6466L46.6307 34.8757C44.6613 35.0047 43.5469 35.8212 43.5469 37.1104C43.5469 38.4281 44.7071 39.2877 46.4781 39.2877C48.7834 39.2875 50.5849 37.7978 50.5849 35.8355Z" fill="black"/>
<path d="M56.8535 47.0228V44.5159C57.0974 44.5731 57.6469 44.5731 57.9218 44.5731C59.4484 44.5731 60.2729 43.9716 60.7765 42.4246C60.7765 42.3958 61.0669 41.5078 61.0669 41.4934L55.2656 26.4097H58.8377L62.8992 38.6715H62.9599L67.0214 26.4097H70.5018L64.4862 42.2668C63.1127 45.9198 61.5249 47.0943 58.1967 47.0943C57.9218 47.0943 57.0972 47.0656 56.8535 47.0228Z" fill="black"/>
</g>
<defs>
<clipPath id="clip0_260_3018">
<rect width="70" height="65.679" fill="white" transform="translate(0.5 0.324219)"/>
</clipPath>
</defs>
</svg>
