<svg width="54" height="54" viewBox="0 0 54 54" fill="none" xmlns="http://www.w3.org/2000/svg">
<g clip-path="url(#clip0_260_3031)">
<path d="M50.0633 44.6747H3.93669C2.04235 44.6747 0.5 43.1323 0.5 41.2276V12.0983C0.5 10.204 2.04235 8.66162 3.93669 8.66162H50.0529C51.9576 8.66162 53.4999 10.204 53.4999 12.0983V41.2276C53.5 43.1323 51.9577 44.6747 50.0633 44.6747Z" fill="#505278"/>
<path d="M50.0634 8.66162H27V44.6747H50.0633C51.968 44.6747 53.5 43.1323 53.5 41.238V12.0983C53.5 10.204 51.9577 8.66162 50.0634 8.66162Z" fill="#424566"/>
<path d="M28.149 8.66171C27.797 19.2928 19.0396 27.8224 8.32577 27.8224C5.55153 27.8224 2.90157 27.2531 0.5 26.2076V21.5805C2.80839 22.9158 5.47913 23.6715 8.32577 23.6715C16.7519 23.6715 23.6461 16.9947 23.998 8.65137H28.1489V8.66171H28.149Z" fill="#575982"/>
<path d="M27 8.66162V14.6759C27.6729 12.7815 28.0766 10.763 28.149 8.66162H27Z" fill="#505278"/>
<path d="M53.4986 29.7169V33.9196C51.0142 33.4434 48.5919 33.2364 46.1903 33.4746C41.8531 33.9093 37.8262 35.9383 33.5096 39.8615C32.8161 40.4929 32.1122 41.1451 31.4393 41.7765C30.4042 42.7392 29.369 43.7122 28.282 44.6646H21.5742C24.0586 43.0083 26.2842 40.9277 28.6133 38.7539C29.3068 38.1121 30.0107 37.4392 30.725 36.7974C35.7351 32.2531 40.5176 29.8825 45.7761 29.3546C48.3745 29.0958 51.0038 29.3028 53.4986 29.7169Z" fill="#505278"/>
<path d="M21.5742 44.675H26.9984V40.2549C25.2284 41.8801 23.4789 43.4018 21.5742 44.675Z" fill="#575982"/>
<path d="M11.5959 26.1868H6.51328C5.73689 26.1868 5.10547 25.5554 5.10547 24.779V21.4044C5.10547 20.628 5.73689 19.9966 6.51328 19.9966H11.5959C12.3723 19.9966 13.0037 20.628 13.0037 21.4044V24.779C12.9934 25.5658 12.3722 26.1868 11.5959 26.1868Z" fill="#424566"/>
<path d="M11.5951 26.1041H6.50214C5.77755 26.1041 5.1875 25.514 5.1875 24.7895V21.4045C5.1875 20.6799 5.77755 20.0898 6.50214 20.0898H11.5951C12.3197 20.0898 12.9098 20.6799 12.9098 21.4045V24.7895C12.9098 25.514 12.3197 26.1041 11.5951 26.1041Z" fill="#FEBD55"/>
<path d="M12.9098 23.2056V22.9985H10.2183V22.0876L10.9119 21.3941H12.9098C12.9098 21.3216 12.8994 21.2492 12.8891 21.187H10.8602C10.8292 21.187 10.8084 21.1974 10.7877 21.2181L10.0631 21.9426H9.1521V20.1001H8.94507V21.9426H8.04449L7.3199 21.2181C7.29921 21.1974 7.2681 21.187 7.24741 21.187H5.20819C5.19784 21.2492 5.1875 21.3216 5.1875 21.3941H7.20604L7.88926 22.0773V22.9985H5.1875V23.2056H7.88926V24.1268L7.20604 24.8101H5.1875C5.1875 24.8825 5.19784 24.9549 5.20819 25.0171H7.24741C7.27844 25.0171 7.29921 25.0067 7.3199 24.9861L8.04449 24.2615H8.94507V26.104H9.1521V24.2615H10.063L10.7876 24.9861C10.8083 25.0067 10.829 25.0171 10.8601 25.0171H12.889C12.8993 24.9549 12.9097 24.8825 12.9097 24.8101H10.9118L10.2183 24.1165V23.2056H12.9098ZM10.0113 24.0544H8.09629V22.1393H10.0113V24.0544Z" fill="#B5613C"/>
<path d="M47.9509 26.042C47.8991 26.042 47.8578 26.0316 47.8164 26.0109C47.6611 25.9385 47.599 25.7521 47.6818 25.5969C48.4789 24.0131 48.4789 22.2016 47.6818 20.6178C47.6094 20.4624 47.6715 20.2762 47.8164 20.2037C47.9717 20.1312 48.1579 20.1934 48.2304 20.3383C49.1207 22.0981 49.1207 24.1166 48.2304 25.8763C48.1683 25.9799 48.0648 26.042 47.9509 26.042ZM46.8847 25.4519C47.7231 23.9613 47.7231 22.2429 46.8847 20.7523C46.8019 20.6074 46.6155 20.5453 46.4603 20.6384C46.3154 20.7213 46.2533 20.9076 46.3464 21.0628C47.0814 22.3671 47.0814 23.8578 46.3464 25.1517C46.2636 25.2966 46.3154 25.4933 46.4603 25.5761C46.5121 25.6071 46.5638 25.6175 46.6156 25.6175C46.719 25.6072 46.8225 25.5451 46.8847 25.4519ZM45.5597 25.0275C46.3775 23.8371 46.3775 22.3568 45.5597 21.156C45.4665 21.0111 45.2698 20.98 45.125 21.0732C44.9801 21.1664 44.949 21.363 45.0421 21.5079C45.7047 22.481 45.7047 23.7025 45.0421 24.6755C44.949 24.8204 44.98 25.0068 45.125 25.1103C45.1768 25.1516 45.2388 25.162 45.301 25.162C45.4044 25.1725 45.4976 25.1207 45.5597 25.0275ZM44.1622 24.6342C44.6177 24.2201 44.8661 23.6714 44.8661 23.1022C44.8661 22.5329 44.6177 21.9842 44.1622 21.5701C44.038 21.4563 43.8414 21.4563 43.7275 21.5908C43.6136 21.715 43.6136 21.9117 43.7482 22.0256C44.0691 22.3258 44.2451 22.7088 44.2451 23.1022C44.2451 23.4955 44.0691 23.8785 43.7482 24.1787C43.624 24.2926 43.6136 24.4893 43.7275 24.6135C43.7896 24.6756 43.8724 24.717 43.9552 24.717C44.0276 24.717 44.1001 24.686 44.1622 24.6342Z" fill="#CAD4FF"/>
<path d="M26.5738 39.4575H5.49804C5.32204 39.4575 5.1875 39.323 5.1875 39.147C5.1875 38.971 5.32204 38.8364 5.49804 38.8364H26.5738C26.7498 38.8364 26.8843 38.971 26.8843 39.147C26.8843 39.323 26.7394 39.4575 26.5738 39.4575Z" fill="#E6EAFF"/>
<path d="M48.5836 39.4575H44.5879C44.4119 39.4575 44.2773 39.323 44.2773 39.147C44.2773 38.971 44.4119 38.8364 44.5879 38.8364H48.5836C48.7596 38.8364 48.8941 38.971 48.8941 39.147C48.8941 39.323 48.7493 39.4575 48.5836 39.4575ZM42.8902 39.147C42.8902 38.971 42.7557 38.8364 42.5797 38.8364H38.584C38.408 38.8364 38.2734 38.971 38.2734 39.147C38.2734 39.323 38.408 39.4575 38.584 39.4575H42.5797C42.7557 39.4575 42.8902 39.3126 42.8902 39.147Z" fill="#CAD4FF"/>
<path d="M5.49804 15.7215C5.32204 15.7215 5.1875 15.5869 5.1875 15.4109V14.1894C5.1875 14.0134 5.32204 13.8789 5.49804 13.8789C5.67404 13.8789 5.80858 14.0134 5.80858 14.1894V15.4006C5.80858 15.5766 5.67404 15.7215 5.49804 15.7215ZM7.49589 15.4109V14.1894C7.49589 14.0134 7.36135 13.8789 7.18536 13.8789C7.00936 13.8789 6.87482 14.0134 6.87482 14.1894V15.4006C6.87482 15.5766 7.00936 15.7111 7.18536 15.7111C7.36127 15.7215 7.49589 15.5766 7.49589 15.4109ZM9.19356 15.4109V14.1894C9.19356 14.0134 9.05902 13.8789 8.88302 13.8789C8.70702 13.8789 8.57248 14.0134 8.57248 14.1894V15.4006C8.57248 15.5766 8.70702 15.7111 8.88302 15.7111C9.04859 15.7215 9.19356 15.5766 9.19356 15.4109ZM10.8809 15.4109V14.1894C10.8809 14.0134 10.7463 13.8789 10.5703 13.8789C10.3943 13.8789 10.2598 14.0134 10.2598 14.1894V15.4006C10.2598 15.5766 10.3943 15.7111 10.5703 15.7111C10.7462 15.7215 10.8809 15.5766 10.8809 15.4109Z" fill="#E6EAFF"/>
<path d="M6.14219 34.1886H6.09039C5.57283 34.1886 5.14844 33.7642 5.14844 33.2466V31.7767C5.14844 31.2591 5.57283 30.8347 6.09039 30.8347H6.14219C6.65976 30.8347 7.08415 31.2591 7.08415 31.7767V33.2466C7.08424 33.7641 6.67019 34.1886 6.14219 34.1886ZM6.09048 31.4557C5.91448 31.4557 5.7696 31.6006 5.7696 31.7766V33.2465C5.7696 33.4225 5.91448 33.5674 6.09048 33.5674H6.14228C6.31828 33.5674 6.46316 33.4225 6.46316 33.2465V31.7766C6.46316 31.6006 6.31828 31.4557 6.14228 31.4557H6.09048Z" fill="#E6EAFF"/>
<path d="M8.65782 34.1886H8.60602C8.08846 34.1886 7.66406 33.7642 7.66406 33.2466V31.7767C7.66406 31.2591 8.08846 30.8347 8.60602 30.8347H8.65782C9.17538 30.8347 9.59978 31.2591 9.59978 31.7767V33.2466C9.59986 33.7641 9.18581 34.1886 8.65782 34.1886ZM8.60611 31.4557C8.43011 31.4557 8.28523 31.6006 8.28523 31.7766V33.2465C8.28523 33.4225 8.43011 33.5674 8.60611 33.5674H8.65791C8.8339 33.5674 8.97879 33.4225 8.97879 33.2465V31.7766C8.97879 31.6006 8.8339 31.4557 8.65791 31.4557H8.60611Z" fill="#E6EAFF"/>
<path d="M11.1734 34.1886H11.1216C10.6041 34.1886 10.1797 33.7642 10.1797 33.2466V31.7767C10.1797 31.2591 10.6041 30.8347 11.1216 30.8347H11.1734C11.691 30.8347 12.1154 31.2591 12.1154 31.7767V33.2466C12.1154 33.7641 11.691 34.1886 11.1734 34.1886ZM11.1216 31.4557C10.9456 31.4557 10.8008 31.6006 10.8008 31.7766V33.2465C10.8008 33.4225 10.9456 33.5674 11.1216 33.5674H11.1734C11.3494 33.5674 11.4943 33.4225 11.4943 33.2465V31.7766C11.4943 31.6006 11.3494 31.4557 11.1734 31.4557H11.1216Z" fill="#E6EAFF"/>
<path d="M13.6891 34.1886H13.6373C13.1197 34.1886 12.6953 33.7642 12.6953 33.2466V31.7767C12.6953 31.2591 13.1197 30.8347 13.6373 30.8347H13.6891C14.2066 30.8347 14.631 31.2591 14.631 31.7767V33.2466C14.631 33.7641 14.2066 34.1886 13.6891 34.1886ZM13.6373 31.4557C13.4613 31.4557 13.3164 31.6006 13.3164 31.7766V33.2465C13.3164 33.4225 13.4613 33.5674 13.6373 33.5674H13.6891C13.8651 33.5674 14.0099 33.4225 14.0099 33.2465V31.7766C14.0099 31.6006 13.8651 31.4557 13.6891 31.4557H13.6373Z" fill="#E6EAFF"/>
<path d="M17.5484 34.1886H17.4966C16.9791 34.1886 16.5547 33.7642 16.5547 33.2466V31.7767C16.5547 31.2591 16.9791 30.8347 17.4966 30.8347H17.5484C18.066 30.8347 18.4904 31.2591 18.4904 31.7767V33.2466C18.4905 33.7641 18.066 34.1886 17.5484 34.1886ZM17.4967 31.4557C17.3207 31.4557 17.1759 31.6006 17.1759 31.7766V33.2465C17.1759 33.4225 17.3207 33.5674 17.4967 33.5674H17.5485C17.7245 33.5674 17.8694 33.4225 17.8694 33.2465V31.7766C17.8694 31.6006 17.7245 31.4557 17.5485 31.4557H17.4967Z" fill="#E6EAFF"/>
<path d="M20.0641 34.1886H20.0123C19.4947 34.1886 19.0703 33.7642 19.0703 33.2466V31.7767C19.0703 31.2591 19.4947 30.8347 20.0123 30.8347H20.0641C20.5816 30.8347 21.006 31.2591 21.006 31.7767V33.2466C21.0061 33.7641 20.5816 34.1886 20.0641 34.1886ZM20.0124 31.4557C19.8364 31.4557 19.6915 31.6006 19.6915 31.7766V33.2465C19.6915 33.4225 19.8364 33.5674 20.0124 33.5674H20.0642C20.2402 33.5674 20.385 33.4225 20.385 33.2465V31.7766C20.385 31.6006 20.2402 31.4557 20.0642 31.4557H20.0124Z" fill="#E6EAFF"/>
<path d="M22.5797 34.1886H22.5279C22.0103 34.1886 21.5859 33.7642 21.5859 33.2466V31.7767C21.5859 31.2591 22.0103 30.8347 22.5279 30.8347H22.5797C23.0973 30.8347 23.5217 31.2591 23.5217 31.7767V33.2466C23.5217 33.7641 23.0973 34.1886 22.5797 34.1886ZM22.528 31.4557C22.352 31.4557 22.2071 31.6006 22.2071 31.7766V33.2465C22.2071 33.4225 22.352 33.5674 22.528 33.5674H22.5798C22.7558 33.5674 22.9007 33.4225 22.9007 33.2465V31.7766C22.9007 31.6006 22.7558 31.4557 22.5798 31.4557H22.528Z" fill="#E6EAFF"/>
<path d="M25.0953 34.1886H25.0435C24.526 34.1886 24.1016 33.7642 24.1016 33.2466V31.7767C24.1016 31.2591 24.526 30.8347 25.0435 30.8347H25.0953C25.6129 30.8347 26.0373 31.2591 26.0373 31.7767V33.2466C26.0374 33.7641 25.613 34.1886 25.0953 34.1886ZM25.0436 31.4557C24.8676 31.4557 24.7227 31.6006 24.7227 31.7766V33.2465C24.7227 33.4225 24.8676 33.5674 25.0436 33.5674H25.0954C25.2714 33.5674 25.4163 33.4225 25.4163 33.2465V31.7766C25.4163 31.6006 25.2714 31.4557 25.0954 31.4557H25.0436Z" fill="#E6EAFF"/>
<path d="M28.9586 34.1886H28.9068C28.3892 34.1886 27.9648 33.7642 27.9648 33.2466V31.7767C27.9648 31.2591 28.3892 30.8347 28.9068 30.8347H28.9586C29.4762 30.8347 29.9006 31.2591 29.9006 31.7767V33.2466C29.9006 33.7641 29.4762 34.1886 28.9586 34.1886ZM28.9068 31.4557C28.7308 31.4557 28.5859 31.6006 28.5859 31.7766V33.2465C28.5859 33.4225 28.7308 33.5674 28.9068 33.5674H28.9586C29.1346 33.5674 29.2795 33.4225 29.2795 33.2465V31.7766C29.2795 31.6006 29.1346 31.4557 28.9586 31.4557H28.9068Z" fill="#CAD4FF"/>
<path d="M31.4741 34.1886H31.4224C30.9049 34.1886 30.4805 33.7642 30.4805 33.2466V31.7767C30.4805 31.2591 30.9049 30.8347 31.4224 30.8347H31.4741C31.9917 30.8347 32.4161 31.2591 32.4161 31.7767V33.2466C32.4161 33.7641 31.9917 34.1886 31.4741 34.1886ZM31.4224 31.4557C31.2464 31.4557 31.1015 31.6006 31.1015 31.7766V33.2465C31.1015 33.4225 31.2464 33.5674 31.4224 33.5674H31.4741C31.6501 33.5674 31.795 33.4225 31.795 33.2465V31.7766C31.795 31.6006 31.6501 31.4557 31.4741 31.4557H31.4224Z" fill="#CAD4FF"/>
<path d="M33.9899 34.1886H33.9381C33.4205 34.1886 32.9961 33.7642 32.9961 33.2466V31.7767C32.9961 31.2591 33.4205 30.8347 33.9381 30.8347H33.9899C34.5074 30.8347 34.9318 31.2591 34.9318 31.7767V33.2466C34.9319 33.7641 34.5074 34.1886 33.9899 34.1886ZM33.9381 31.4557C33.7621 31.4557 33.6173 31.6006 33.6173 31.7766V33.2465C33.6173 33.4225 33.7621 33.5674 33.9381 33.5674H33.9899C34.1659 33.5674 34.3108 33.4225 34.3108 33.2465V31.7766C34.3108 31.6006 34.1659 31.4557 33.9899 31.4557H33.9381Z" fill="#CAD4FF"/>
<path d="M36.5055 34.1886H36.4537C35.9361 34.1886 35.5117 33.7642 35.5117 33.2466V31.7767C35.5117 31.2591 35.9361 30.8347 36.4537 30.8347H36.5055C37.023 30.8347 37.4474 31.2591 37.4474 31.7767V33.2466C37.4475 33.7641 37.023 34.1886 36.5055 34.1886ZM36.4538 31.4557C36.2778 31.4557 36.1329 31.6006 36.1329 31.7766V33.2465C36.1329 33.4225 36.2778 33.5674 36.4538 33.5674H36.5056C36.6816 33.5674 36.8264 33.4225 36.8264 33.2465V31.7766C36.8264 31.6006 36.6816 31.4557 36.5056 31.4557H36.4538Z" fill="#CAD4FF"/>
<path d="M40.3648 34.1886H40.3131C39.7955 34.1886 39.3711 33.7642 39.3711 33.2466V31.7767C39.3711 31.2591 39.7955 30.8347 40.3131 30.8347H40.3648C40.8824 30.8347 41.3068 31.2591 41.3068 31.7767V33.2466C41.3068 33.7641 40.8824 34.1886 40.3648 34.1886ZM40.3131 31.4557C40.1371 31.4557 39.9922 31.6006 39.9922 31.7766V33.2465C39.9922 33.4225 40.1371 33.5674 40.3131 33.5674H40.3648C40.5408 33.5674 40.6857 33.4225 40.6857 33.2465V31.7766C40.6857 31.6006 40.5408 31.4557 40.3648 31.4557H40.3131Z" fill="#CAD4FF"/>
<path d="M42.8804 34.1886H42.8287C42.3111 34.1886 41.8867 33.7642 41.8867 33.2466V31.7767C41.8867 31.2591 42.3111 30.8347 42.8287 30.8347H42.8804C43.398 30.8347 43.8223 31.2591 43.8223 31.7767V33.2466C43.8223 33.7641 43.398 34.1886 42.8804 34.1886ZM42.8286 31.4557C42.6526 31.4557 42.5077 31.6006 42.5077 31.7766V33.2465C42.5077 33.4225 42.6526 33.5674 42.8286 33.5674H42.8803C43.0563 33.5674 43.2012 33.4225 43.2012 33.2465V31.7766C43.2012 31.6006 43.0563 31.4557 42.8803 31.4557H42.8286Z" fill="#CAD4FF"/>
<path d="M45.3961 34.1886H45.3443C44.8267 34.1886 44.4023 33.7642 44.4023 33.2466V31.7767C44.4023 31.2591 44.8267 30.8347 45.3443 30.8347H45.3961C45.9137 30.8347 46.3381 31.2591 46.3381 31.7767V33.2466C46.3381 33.7641 45.9137 34.1886 45.3961 34.1886ZM45.3444 31.4557C45.1684 31.4557 45.0235 31.6006 45.0235 31.7766V33.2465C45.0235 33.4225 45.1684 33.5674 45.3444 33.5674H45.3962C45.5722 33.5674 45.7171 33.4225 45.7171 33.2465V31.7766C45.7171 31.6006 45.5722 31.4557 45.3962 31.4557H45.3444Z" fill="#CAD4FF"/>
<path d="M47.9117 34.1886H47.8599C47.3424 34.1886 46.918 33.7642 46.918 33.2466V31.7767C46.918 31.2591 47.3424 30.8347 47.8599 30.8347H47.9117C48.4293 30.8347 48.8537 31.2591 48.8537 31.7767V33.2466C48.8538 33.7641 48.4293 34.1886 47.9117 34.1886ZM47.86 31.4557C47.684 31.4557 47.5391 31.6006 47.5391 31.7766V33.2465C47.5391 33.4225 47.684 33.5674 47.86 33.5674H47.9118C48.0878 33.5674 48.2327 33.4225 48.2327 33.2465V31.7766C48.2327 31.6006 48.0878 31.4557 47.9118 31.4557H47.86Z" fill="#CAD4FF"/>
</g>
<defs>
<clipPath id="clip0_260_3031">
<rect width="53" height="53" fill="white" transform="translate(0.5 0.163086)"/>
</clipPath>
</defs>
</svg>
