<svg width="51" height="51" viewBox="0 0 51 51" fill="none" xmlns="http://www.w3.org/2000/svg">
<path d="M46.3839 0.10791H29.0659C27.9203 0.10791 26.3191 0.771602 25.5097 1.58043L1.76669 25.3233C0.14548 26.9427 0.14548 29.5977 1.76669 31.2151L19.4453 48.8931C21.0628 50.5125 23.7153 50.5125 25.3353 48.8913L49.0783 25.1521C49.887 24.3433 50.5508 22.7396 50.5508 21.5964V4.27475C50.5508 1.98351 48.6751 0.10791 46.3839 0.10791ZM38.0501 16.7747C35.7489 16.7747 33.8833 14.9071 33.8833 12.6078C33.8833 10.3047 35.7489 8.44098 38.0501 8.44098C40.3514 8.44098 42.2176 10.3047 42.2176 12.6078C42.2177 14.9071 40.3514 16.7747 38.0501 16.7747Z" fill="#4B2C10"/>
</svg>
