<svg width="65" height="54" viewBox="0 0 65 54" fill="none" xmlns="http://www.w3.org/2000/svg">
<path fill-rule="evenodd" clip-rule="evenodd" d="M33.8124 0.390446C28.6657 0.219051 23.4659 1.6232 18.9767 4.6198C13.9346 7.98896 10.4109 12.9642 8.7879 18.5261C8.3397 18.4714 7.80298 18.4956 7.16568 18.6758C4.78627 19.3509 2.99668 21.3007 2.192 23.0178C1.14835 25.2556 0.708189 28.2152 1.17249 31.2705C1.63356 34.3162 2.92023 36.8268 4.52958 38.3855C6.14375 39.9449 7.96633 40.4519 9.77684 40.0712C12.4725 39.4959 13.8091 39.0654 13.4317 36.554L11.6043 24.3801C11.9728 17.7915 15.3838 11.5891 21.0889 7.77492C28.7253 2.67411 38.737 3.0008 46.0209 8.59247C51.0879 12.4774 54.0298 18.2984 54.3693 24.4091L53.0915 32.9249C50.2414 40.7246 43.1756 46.1272 34.9993 46.8941H29.5549C28.1499 46.8941 27.0186 48.0254 27.0186 49.4288V50.7661C27.0186 52.1703 28.1499 53.3017 29.5549 53.3017H36.4195C37.8237 53.3017 38.9502 52.1703 38.9502 50.7661V50.0669C45.1156 48.5621 50.4973 44.7729 54.0016 39.4887L56.2008 40.072C57.9904 40.5363 59.8347 39.9449 61.4481 38.3863C63.0574 36.8268 64.3433 34.317 64.8051 31.2713C65.271 28.216 64.818 25.2612 63.7864 23.0186C62.7508 20.776 61.2083 19.3517 59.4275 18.8408C58.6816 18.6259 57.8721 18.5471 57.1777 18.5261C55.7099 13.4969 52.6884 8.92319 48.3335 5.5838C44.0518 2.29832 38.9591 0.559427 33.8124 0.390446Z" fill="#4B2C10"/>
<path fill-rule="evenodd" clip-rule="evenodd" d="M41.8408 22.2918C43.6553 22.2918 45.1263 23.7627 45.1303 25.5821C45.1263 27.3966 43.6553 28.8716 41.8408 28.8716C40.0214 28.8716 38.5465 27.3966 38.5465 25.5821C38.5465 23.7636 40.0222 22.2918 41.8408 22.2918ZM32.9813 22.2918C34.7999 22.2918 36.2708 23.7627 36.2708 25.5821C36.2708 27.3966 34.7999 28.8716 32.9813 28.8716C31.1612 28.8716 29.6902 27.3966 29.6902 25.5821C29.6902 23.7636 31.1612 22.2918 32.9813 22.2918ZM24.1251 22.2918C25.9397 22.2918 27.4146 23.7627 27.4146 25.5821C27.4146 27.3966 25.9397 28.8716 24.1251 28.8716C22.3066 28.8716 20.8348 27.3966 20.8348 25.5821C20.8348 23.7636 22.3066 22.2918 24.1251 22.2918ZM32.9813 8.16016C23.3333 8.16016 15.5586 15.679 15.5586 25.5821C15.5586 30.3385 17.357 34.5421 20.2868 37.6264L19.2472 42.2871C18.9044 43.8208 19.9682 44.8524 21.3466 44.0847L25.8978 41.546C28.0608 42.485 30.4531 43.0041 32.9813 43.0041C42.6326 43.0041 50.4025 35.49 50.4025 25.5821C50.4025 15.679 42.6326 8.16016 32.9813 8.16016Z" fill="#4B2C10"/>
</svg>
