<svg width="51" height="51" viewBox="0 0 51 51" fill="none" xmlns="http://www.w3.org/2000/svg">
<path d="M3.25209 12.147H14.728C15.0509 12.147 15.3707 12.2116 15.6691 12.3371C15.9674 12.4626 16.2385 12.6465 16.4668 12.8785C16.6952 13.1104 16.8763 13.3857 16.9999 13.6887C17.1235 13.9917 17.1871 14.3164 17.1871 14.6444V23.8017C17.1871 24.464 16.928 25.0993 16.4668 25.5677C16.0056 26.036 15.3802 26.2992 14.728 26.2992H3.25203C2.59985 26.2992 1.97437 26.036 1.51321 25.5677C1.05205 25.0993 0.792969 24.4641 0.792969 23.8017V14.6445C0.792969 14.3165 0.856576 13.9917 0.980158 13.6887C1.10374 13.3857 1.28488 13.1104 1.51323 12.8785C1.74158 12.6466 2.01267 12.4626 2.31102 12.3371C2.60938 12.2116 2.92915 12.147 3.25209 12.147Z" fill="#4B2C10"/>
<path d="M27.0201 8.81655C29.2835 8.81655 31.1183 6.95308 31.1183 4.65437C31.1183 2.35566 29.2835 0.492188 27.0201 0.492188C24.7567 0.492188 22.9219 2.35566 22.9219 4.65437C22.9219 6.95308 24.7567 8.81655 27.0201 8.81655Z" fill="#4B2C10"/>
<path d="M9.80859 28.6722C9.80883 29.9647 10.3093 31.2053 11.2021 32.1265H24.5269V28.6677C24.5269 28.4479 24.4409 28.2371 24.2878 28.0816C24.1348 27.9262 23.9272 27.8389 23.7108 27.8389H10.6247C10.4078 27.8399 10.2002 27.9282 10.0472 28.0843C9.89424 28.2405 9.80844 28.4519 9.80859 28.6722Z" fill="#4B2C10"/>
<path d="M50.575 41.5801C50.1753 40.0793 49.279 38.764 48.0368 37.8554C46.7946 36.9467 45.2823 36.5001 43.754 36.5907C43.8824 36.1044 43.9486 35.6034 43.9509 35.0999C43.9355 34.3017 43.7295 33.5193 43.3507 32.8197C42.9718 32.1202 42.4315 31.5245 41.776 31.0839C40.0157 29.8981 38.6997 26.8824 38.5008 23.7102H40.0705C40.7196 23.7105 41.3422 23.4493 41.8019 22.9839C42.2615 22.5185 42.5207 21.887 42.5224 21.2278V19.5746C42.5206 18.9155 42.2615 18.284 41.8018 17.8187C41.3422 17.3534 40.7195 17.0923 40.0705 17.0926H34.4646C29.7251 15.7064 28.2993 14.1099 27.4471 13.1534C27.4295 13.1339 27.4123 13.1144 27.3955 13.0953C27.4806 12.4571 27.3668 11.8078 27.0703 11.2386C26.7737 10.6693 26.3091 10.2086 25.7417 9.92102C25.3366 9.72464 24.8931 9.62363 24.4442 9.62551C23.9953 9.6274 23.5527 9.73212 23.1492 9.93189C22.7457 10.1317 22.3918 10.4213 22.1139 10.7793C21.8359 11.1373 21.6411 11.5543 21.5439 11.9994L19.1921 23.4123C19.1227 23.7513 19.124 24.1012 19.1958 24.4397C19.2676 24.7782 19.4082 25.0977 19.6088 25.3777C19.8094 25.6576 20.0654 25.8919 20.3604 26.0654C20.6554 26.239 20.9829 26.3479 21.3218 26.3853L25.3515 26.8381C25.5592 26.8605 25.7505 26.963 25.8859 27.1245C26.0213 27.286 26.0905 27.4942 26.0791 27.706L25.444 38.6158C24.7849 38.0307 24.3163 37.2562 24.1001 36.3948C23.884 35.5333 23.9304 34.6255 24.2334 33.7915H11.7048C10.3833 36.0147 8.26796 40.1834 9.12384 42.8951C9.2834 43.4054 9.56067 43.8697 9.93257 44.2492C10.3045 44.6287 10.7602 44.9126 11.262 45.0771C11.6304 45.1916 12.0169 45.2342 12.4009 45.2027C12.4939 46.5491 13.0862 47.8097 14.0583 48.7301C15.0304 49.6505 16.31 50.1622 17.639 50.1622C18.968 50.1622 20.2475 49.6504 21.2196 48.7299C22.1917 47.8095 22.7839 46.549 22.8769 45.2026L36.9254 45.2023C37.0619 45.1947 37.1956 45.1597 37.3187 45.0992C37.4418 45.0388 37.5519 44.9541 37.6426 44.8502C37.7422 45.3419 37.9039 45.8185 38.1238 46.2681C38.1853 46.3991 38.2796 46.5113 38.3973 46.5936C38.5149 46.6759 38.6518 46.7254 38.7942 46.7371C38.9366 46.7489 39.0795 46.7224 39.2087 46.6604C39.3378 46.5985 39.4487 46.5031 39.5302 46.384C39.6254 46.2449 39.7291 46.109 39.838 45.9753C39.947 46.6941 40.1998 47.3826 40.5807 47.9984C40.9616 48.6143 41.4626 49.1444 42.0529 49.5562C42.6432 49.9679 43.3102 50.2526 44.0129 50.3926C44.7156 50.5326 45.4391 50.5251 46.1388 50.3704C46.8385 50.2157 47.4997 49.9172 48.0815 49.4932C48.6633 49.0692 49.1535 48.5287 49.5218 47.905C49.8902 47.2813 50.1289 46.5877 50.2233 45.8667C50.3178 45.1458 50.2658 44.4129 50.0708 43.7131C50.2822 43.6897 50.4759 43.5827 50.6101 43.4151C50.7443 43.2476 50.808 43.0332 50.7875 42.8182C50.7565 42.3995 50.6853 41.9848 50.575 41.5801ZM17.6387 48.5046C16.7432 48.5046 15.8797 48.1667 15.2157 47.5566C14.5516 46.9465 14.1344 46.1076 14.045 45.2027L21.2328 45.2026C21.1433 46.1075 20.726 46.9465 20.0619 47.5566C19.3978 48.1668 18.5342 48.5046 17.6387 48.5046ZM33.5293 39.4115H30.345L31.753 25.893C31.8093 25.3455 31.6848 24.7945 31.399 24.3268C31.1133 23.859 30.6825 23.501 30.1745 23.309L26.1579 21.7867C25.9733 21.7171 25.8199 21.5819 25.7261 21.406C25.6323 21.2302 25.6046 21.0257 25.648 20.8307L26.2592 18.1544C28.3487 19.8464 30.8714 20.8957 33.5293 21.1781V39.4115ZM45.4847 48.7505C44.9409 48.8232 44.3879 48.7692 43.8677 48.5929C43.3474 48.4165 42.8735 48.1222 42.4817 47.7324C42.0899 47.3425 41.7906 46.8673 41.6063 46.3426C41.4221 45.818 41.3577 45.2576 41.4182 44.7039L41.6679 44.3883C43.5448 43.2066 45.7813 42.7598 47.9591 43.1315L48.1527 43.2833C48.4503 43.8062 48.616 44.3957 48.6351 44.9994C48.6541 45.6031 48.5259 46.2021 48.2618 46.7433C47.9977 47.2845 47.6059 47.7509 47.1214 48.1011C46.6369 48.4513 46.0746 48.6744 45.4847 48.7505Z" fill="#4B2C10"/>
</svg>
